G75*
%MOIN*%
%OFA0B0*%
%FSLAX25Y25*%
%IPPOS*%
%LPD*%
%AMOC8*
5,1,8,0,0,1.08239X$1,22.5*
%
%ADD10C,0.00300*%
%ADD11C,0.00600*%
%ADD12C,0.00500*%
%ADD13C,0.00700*%
D10*
X0017067Y0103950D02*
X0018302Y0103950D01*
X0018919Y0104567D01*
X0018919Y0105802D01*
X0017684Y0105802D01*
X0016450Y0107036D02*
X0016450Y0104567D01*
X0017067Y0103950D01*
X0020133Y0103950D02*
X0020133Y0107653D01*
X0021985Y0107653D01*
X0022602Y0107036D01*
X0022602Y0105802D01*
X0021985Y0105184D01*
X0020133Y0105184D01*
X0018919Y0107036D02*
X0018302Y0107653D01*
X0017067Y0107653D01*
X0016450Y0107036D01*
X0023816Y0107653D02*
X0025051Y0107653D01*
X0024433Y0107653D02*
X0024433Y0103950D01*
X0023816Y0103950D02*
X0025051Y0103950D01*
X0026272Y0104567D02*
X0026272Y0107036D01*
X0026889Y0107653D01*
X0028123Y0107653D01*
X0028740Y0107036D01*
X0028740Y0104567D01*
X0028123Y0103950D01*
X0026889Y0103950D01*
X0026272Y0104567D01*
X0029955Y0103950D02*
X0032424Y0103950D01*
X0031189Y0103950D02*
X0031189Y0107653D01*
X0029955Y0106419D01*
X0033638Y0106419D02*
X0034872Y0107653D01*
X0036093Y0107653D02*
X0037945Y0107653D01*
X0038562Y0107036D01*
X0038562Y0105802D01*
X0037945Y0105184D01*
X0036093Y0105184D01*
X0036093Y0103950D02*
X0036093Y0107653D01*
X0033638Y0106419D02*
X0033638Y0105184D01*
X0034872Y0103950D01*
X0039777Y0103950D02*
X0039777Y0107653D01*
X0042245Y0107653D01*
X0043460Y0107653D02*
X0045928Y0107653D01*
X0045928Y0107036D01*
X0043460Y0104567D01*
X0043460Y0103950D01*
X0042245Y0103950D02*
X0039777Y0103950D01*
X0039777Y0105802D02*
X0041011Y0105802D01*
X0047143Y0107653D02*
X0048377Y0106419D01*
X0048377Y0105184D01*
X0047143Y0103950D01*
X0041018Y0158333D02*
X0038549Y0158333D01*
X0037334Y0158950D02*
X0034866Y0158950D01*
X0037334Y0161419D01*
X0037334Y0162036D01*
X0036717Y0162653D01*
X0035483Y0162653D01*
X0034866Y0162036D01*
X0033651Y0162653D02*
X0031183Y0162653D01*
X0032417Y0162653D02*
X0032417Y0158950D01*
X0029968Y0158950D02*
X0028734Y0160184D01*
X0029351Y0160184D02*
X0027499Y0160184D01*
X0027499Y0158950D02*
X0027499Y0162653D01*
X0029351Y0162653D01*
X0029968Y0162036D01*
X0029968Y0160802D01*
X0029351Y0160184D01*
X0026285Y0160802D02*
X0023816Y0160802D01*
X0023816Y0161419D02*
X0025051Y0162653D01*
X0026285Y0161419D01*
X0026285Y0158950D01*
X0023816Y0158950D02*
X0023816Y0161419D01*
X0022602Y0162036D02*
X0021985Y0162653D01*
X0020750Y0162653D01*
X0020133Y0162036D01*
X0020133Y0161419D01*
X0020750Y0160802D01*
X0021985Y0160802D01*
X0022602Y0160184D01*
X0022602Y0159567D01*
X0021985Y0158950D01*
X0020750Y0158950D01*
X0020133Y0159567D01*
X0018919Y0159567D02*
X0018919Y0162653D01*
X0016450Y0162653D02*
X0016450Y0159567D01*
X0017067Y0158950D01*
X0018302Y0158950D01*
X0018919Y0159567D01*
X0042232Y0158950D02*
X0042232Y0162653D01*
X0044084Y0162653D01*
X0044701Y0162036D01*
X0044701Y0160802D01*
X0044084Y0160184D01*
X0042232Y0160184D01*
X0043466Y0160184D02*
X0044701Y0158950D01*
X0045915Y0158950D02*
X0048384Y0162653D01*
X0045915Y0162653D02*
X0048384Y0158950D01*
X0056450Y0163950D02*
X0056450Y0167653D01*
X0058302Y0167653D01*
X0058919Y0167036D01*
X0058919Y0165802D01*
X0058302Y0165184D01*
X0056450Y0165184D01*
X0060133Y0165802D02*
X0061985Y0165802D01*
X0062602Y0165184D01*
X0062602Y0164567D01*
X0061985Y0163950D01*
X0060133Y0163950D01*
X0060133Y0167653D01*
X0061985Y0167653D01*
X0062602Y0167036D01*
X0062602Y0166419D01*
X0061985Y0165802D01*
X0063816Y0166419D02*
X0065051Y0167653D01*
X0065051Y0163950D01*
X0066285Y0163950D02*
X0063816Y0163950D01*
X0067499Y0164567D02*
X0068117Y0163950D01*
X0069351Y0163950D01*
X0069968Y0164567D01*
X0069968Y0165802D01*
X0069351Y0166419D01*
X0068734Y0166419D01*
X0067499Y0165802D01*
X0067499Y0167653D01*
X0069968Y0167653D01*
X0069968Y0183950D02*
X0067499Y0183950D01*
X0066285Y0183950D02*
X0063816Y0183950D01*
X0065051Y0183950D02*
X0065051Y0187653D01*
X0063816Y0186419D01*
X0062602Y0186419D02*
X0061985Y0185802D01*
X0060133Y0185802D01*
X0058919Y0185802D02*
X0058302Y0185184D01*
X0056450Y0185184D01*
X0056450Y0183950D02*
X0056450Y0187653D01*
X0058302Y0187653D01*
X0058919Y0187036D01*
X0058919Y0185802D01*
X0060133Y0187653D02*
X0060133Y0183950D01*
X0061985Y0183950D01*
X0062602Y0184567D01*
X0062602Y0185184D01*
X0061985Y0185802D01*
X0062602Y0186419D02*
X0062602Y0187036D01*
X0061985Y0187653D01*
X0060133Y0187653D01*
X0067499Y0186419D02*
X0068734Y0187653D01*
X0068734Y0183950D01*
X0093950Y0183950D02*
X0093950Y0187653D01*
X0095802Y0187653D01*
X0096419Y0187036D01*
X0096419Y0185802D01*
X0095802Y0185184D01*
X0093950Y0185184D01*
X0097633Y0185802D02*
X0099485Y0185802D01*
X0100102Y0185184D01*
X0100102Y0184567D01*
X0099485Y0183950D01*
X0097633Y0183950D01*
X0097633Y0187653D01*
X0099485Y0187653D01*
X0100102Y0187036D01*
X0100102Y0186419D01*
X0099485Y0185802D01*
X0101316Y0186419D02*
X0102551Y0187653D01*
X0102551Y0183950D01*
X0103785Y0183950D02*
X0101316Y0183950D01*
X0104999Y0183950D02*
X0107468Y0186419D01*
X0107468Y0187036D01*
X0106851Y0187653D01*
X0105617Y0187653D01*
X0104999Y0187036D01*
X0104999Y0183950D02*
X0107468Y0183950D01*
X0106851Y0177653D02*
X0104999Y0175802D01*
X0107468Y0175802D01*
X0106851Y0177653D02*
X0106851Y0173950D01*
X0103785Y0173950D02*
X0101316Y0173950D01*
X0102551Y0173950D02*
X0102551Y0177653D01*
X0101316Y0176419D01*
X0100102Y0176419D02*
X0099485Y0175802D01*
X0097633Y0175802D01*
X0096419Y0175802D02*
X0095802Y0175184D01*
X0093950Y0175184D01*
X0093950Y0173950D02*
X0093950Y0177653D01*
X0095802Y0177653D01*
X0096419Y0177036D01*
X0096419Y0175802D01*
X0097633Y0177653D02*
X0099485Y0177653D01*
X0100102Y0177036D01*
X0100102Y0176419D01*
X0099485Y0175802D02*
X0100102Y0175184D01*
X0100102Y0174567D01*
X0099485Y0173950D01*
X0097633Y0173950D01*
X0097633Y0177653D01*
X0097633Y0193950D02*
X0099485Y0193950D01*
X0100102Y0194567D01*
X0100102Y0195184D01*
X0099485Y0195802D01*
X0097633Y0195802D01*
X0096419Y0195802D02*
X0095802Y0195184D01*
X0093950Y0195184D01*
X0093950Y0193950D02*
X0093950Y0197653D01*
X0095802Y0197653D01*
X0096419Y0197036D01*
X0096419Y0195802D01*
X0097633Y0197653D02*
X0099485Y0197653D01*
X0100102Y0197036D01*
X0100102Y0196419D01*
X0099485Y0195802D01*
X0101316Y0196419D02*
X0102551Y0197653D01*
X0102551Y0193950D01*
X0103785Y0193950D02*
X0101316Y0193950D01*
X0097633Y0193950D02*
X0097633Y0197653D01*
X0104999Y0197036D02*
X0105617Y0197653D01*
X0106851Y0197653D01*
X0107468Y0197036D01*
X0104999Y0194567D01*
X0105617Y0193950D01*
X0106851Y0193950D01*
X0107468Y0194567D01*
X0107468Y0197036D01*
X0104999Y0197036D02*
X0104999Y0194567D01*
X0066316Y0233950D02*
X0066316Y0234567D01*
X0068785Y0237036D01*
X0068785Y0237653D01*
X0066316Y0237653D01*
X0065102Y0237653D02*
X0062633Y0237653D01*
X0062633Y0233950D01*
X0065102Y0233950D01*
X0063868Y0235802D02*
X0062633Y0235802D01*
X0061419Y0235802D02*
X0061419Y0237036D01*
X0060802Y0237653D01*
X0058950Y0237653D01*
X0058950Y0233950D01*
X0058950Y0235184D02*
X0060802Y0235184D01*
X0061419Y0235802D01*
X0047734Y0219189D02*
X0045266Y0215485D01*
X0042817Y0215485D02*
X0042817Y0219189D01*
X0044051Y0219189D02*
X0041582Y0219189D01*
X0045266Y0219189D02*
X0047734Y0215485D01*
X0040368Y0214868D02*
X0037899Y0214868D01*
X0036685Y0215485D02*
X0034216Y0215485D01*
X0036685Y0217954D01*
X0036685Y0218571D01*
X0036068Y0219189D01*
X0034833Y0219189D01*
X0034216Y0218571D01*
X0033002Y0219189D02*
X0030533Y0219189D01*
X0031767Y0219189D02*
X0031767Y0215485D01*
X0029319Y0215485D02*
X0028084Y0216720D01*
X0028701Y0216720D02*
X0026850Y0216720D01*
X0026850Y0215485D02*
X0026850Y0219189D01*
X0028701Y0219189D01*
X0029319Y0218571D01*
X0029319Y0217337D01*
X0028701Y0216720D01*
X0025635Y0217337D02*
X0023167Y0217337D01*
X0023167Y0217954D02*
X0024401Y0219189D01*
X0025635Y0217954D01*
X0025635Y0215485D01*
X0023167Y0215485D02*
X0023167Y0217954D01*
X0021952Y0218571D02*
X0021335Y0219189D01*
X0020101Y0219189D01*
X0019484Y0218571D01*
X0019484Y0217954D01*
X0020101Y0217337D01*
X0021335Y0217337D01*
X0021952Y0216720D01*
X0021952Y0216103D01*
X0021335Y0215485D01*
X0020101Y0215485D01*
X0019484Y0216103D01*
X0018269Y0216103D02*
X0018269Y0219189D01*
X0015800Y0219189D02*
X0015800Y0216103D01*
X0016418Y0215485D01*
X0017652Y0215485D01*
X0018269Y0216103D01*
X0058950Y0253950D02*
X0058950Y0257653D01*
X0060802Y0257653D01*
X0061419Y0257036D01*
X0061419Y0255802D01*
X0060802Y0255184D01*
X0058950Y0255184D01*
X0062633Y0255802D02*
X0064485Y0255802D01*
X0065102Y0255184D01*
X0065102Y0254567D01*
X0064485Y0253950D01*
X0062633Y0253950D01*
X0062633Y0257653D01*
X0064485Y0257653D01*
X0065102Y0257036D01*
X0065102Y0256419D01*
X0064485Y0255802D01*
X0066316Y0256419D02*
X0067551Y0257653D01*
X0067551Y0253950D01*
X0068785Y0253950D02*
X0066316Y0253950D01*
X0044701Y0268950D02*
X0042232Y0272653D01*
X0041018Y0272036D02*
X0041018Y0270802D01*
X0040400Y0270184D01*
X0038549Y0270184D01*
X0038549Y0268950D02*
X0038549Y0272653D01*
X0040400Y0272653D01*
X0041018Y0272036D01*
X0039783Y0270184D02*
X0041018Y0268950D01*
X0042232Y0268950D02*
X0044701Y0272653D01*
X0037334Y0268333D02*
X0034866Y0268333D01*
X0033034Y0268950D02*
X0033034Y0272653D01*
X0031183Y0270802D01*
X0033651Y0270802D01*
X0029968Y0272653D02*
X0027499Y0272653D01*
X0028734Y0272653D02*
X0028734Y0268950D01*
X0026285Y0268950D02*
X0025051Y0270184D01*
X0025668Y0270184D02*
X0023816Y0270184D01*
X0023816Y0268950D02*
X0023816Y0272653D01*
X0025668Y0272653D01*
X0026285Y0272036D01*
X0026285Y0270802D01*
X0025668Y0270184D01*
X0022602Y0270802D02*
X0020133Y0270802D01*
X0020133Y0271419D02*
X0020133Y0268950D01*
X0018919Y0269567D02*
X0018919Y0272653D01*
X0020133Y0271419D02*
X0021368Y0272653D01*
X0022602Y0271419D01*
X0022602Y0268950D01*
X0018919Y0269567D02*
X0018302Y0268950D01*
X0017067Y0268950D01*
X0016450Y0269567D01*
X0016450Y0272653D01*
X0058950Y0293950D02*
X0058950Y0297653D01*
X0060802Y0297653D01*
X0061419Y0297036D01*
X0061419Y0295802D01*
X0060802Y0295184D01*
X0058950Y0295184D01*
X0062633Y0295802D02*
X0065102Y0295802D01*
X0065102Y0296419D02*
X0065102Y0293950D01*
X0066316Y0294567D02*
X0066933Y0293950D01*
X0068168Y0293950D01*
X0068785Y0294567D01*
X0068785Y0295184D01*
X0068168Y0295802D01*
X0067551Y0295802D01*
X0068168Y0295802D02*
X0068785Y0296419D01*
X0068785Y0297036D01*
X0068168Y0297653D01*
X0066933Y0297653D01*
X0066316Y0297036D01*
X0065102Y0296419D02*
X0063868Y0297653D01*
X0062633Y0296419D01*
X0062633Y0293950D01*
X0062633Y0303950D02*
X0062633Y0306419D01*
X0063868Y0307653D01*
X0065102Y0306419D01*
X0065102Y0303950D01*
X0066316Y0303950D02*
X0068785Y0303950D01*
X0067551Y0303950D02*
X0067551Y0307653D01*
X0066316Y0306419D01*
X0065102Y0305802D02*
X0062633Y0305802D01*
X0061419Y0305802D02*
X0061419Y0307036D01*
X0060802Y0307653D01*
X0058950Y0307653D01*
X0058950Y0303950D01*
X0058950Y0305184D02*
X0060802Y0305184D01*
X0061419Y0305802D01*
X0044701Y0323950D02*
X0042232Y0327653D01*
X0041018Y0327653D02*
X0038549Y0327653D01*
X0039783Y0327653D02*
X0039783Y0323950D01*
X0042232Y0323950D02*
X0044701Y0327653D01*
X0037334Y0323333D02*
X0034866Y0323333D01*
X0033034Y0323950D02*
X0033034Y0327653D01*
X0031183Y0325802D01*
X0033651Y0325802D01*
X0029968Y0327653D02*
X0027499Y0327653D01*
X0028734Y0327653D02*
X0028734Y0323950D01*
X0026285Y0323950D02*
X0025051Y0325184D01*
X0025668Y0325184D02*
X0023816Y0325184D01*
X0023816Y0323950D02*
X0023816Y0327653D01*
X0025668Y0327653D01*
X0026285Y0327036D01*
X0026285Y0325802D01*
X0025668Y0325184D01*
X0022602Y0325802D02*
X0020133Y0325802D01*
X0020133Y0326419D02*
X0021368Y0327653D01*
X0022602Y0326419D01*
X0022602Y0323950D01*
X0020133Y0323950D02*
X0020133Y0326419D01*
X0018919Y0327653D02*
X0018919Y0324567D01*
X0018302Y0323950D01*
X0017067Y0323950D01*
X0016450Y0324567D01*
X0016450Y0327653D01*
X0093950Y0307653D02*
X0093950Y0303950D01*
X0093950Y0305184D02*
X0095802Y0305184D01*
X0096419Y0305802D01*
X0096419Y0307036D01*
X0095802Y0307653D01*
X0093950Y0307653D01*
X0097633Y0306419D02*
X0097633Y0303950D01*
X0097633Y0305802D02*
X0100102Y0305802D01*
X0100102Y0306419D02*
X0100102Y0303950D01*
X0101316Y0304567D02*
X0103785Y0307036D01*
X0103785Y0304567D01*
X0103168Y0303950D01*
X0101933Y0303950D01*
X0101316Y0304567D01*
X0101316Y0307036D01*
X0101933Y0307653D01*
X0103168Y0307653D01*
X0103785Y0307036D01*
X0100102Y0306419D02*
X0098868Y0307653D01*
X0097633Y0306419D01*
X0098868Y0297653D02*
X0097633Y0296419D01*
X0097633Y0293950D01*
X0097633Y0295802D02*
X0100102Y0295802D01*
X0100102Y0296419D02*
X0100102Y0293950D01*
X0101316Y0293950D02*
X0103785Y0296419D01*
X0103785Y0297036D01*
X0103168Y0297653D01*
X0101933Y0297653D01*
X0101316Y0297036D01*
X0100102Y0296419D02*
X0098868Y0297653D01*
X0096419Y0297036D02*
X0096419Y0295802D01*
X0095802Y0295184D01*
X0093950Y0295184D01*
X0093950Y0293950D02*
X0093950Y0297653D01*
X0095802Y0297653D01*
X0096419Y0297036D01*
X0101316Y0293950D02*
X0103785Y0293950D01*
X0103168Y0257653D02*
X0103785Y0257036D01*
X0101316Y0254567D01*
X0101933Y0253950D01*
X0103168Y0253950D01*
X0103785Y0254567D01*
X0103785Y0257036D01*
X0103168Y0257653D02*
X0101933Y0257653D01*
X0101316Y0257036D01*
X0101316Y0254567D01*
X0100102Y0254567D02*
X0099485Y0253950D01*
X0097633Y0253950D01*
X0097633Y0257653D01*
X0099485Y0257653D01*
X0100102Y0257036D01*
X0100102Y0256419D01*
X0099485Y0255802D01*
X0097633Y0255802D01*
X0096419Y0255802D02*
X0095802Y0255184D01*
X0093950Y0255184D01*
X0093950Y0253950D02*
X0093950Y0257653D01*
X0095802Y0257653D01*
X0096419Y0257036D01*
X0096419Y0255802D01*
X0099485Y0255802D02*
X0100102Y0255184D01*
X0100102Y0254567D01*
X0099485Y0247653D02*
X0097633Y0247653D01*
X0097633Y0243950D01*
X0099485Y0243950D01*
X0100102Y0244567D01*
X0100102Y0245184D01*
X0099485Y0245802D01*
X0097633Y0245802D01*
X0096419Y0245802D02*
X0095802Y0245184D01*
X0093950Y0245184D01*
X0093950Y0243950D02*
X0093950Y0247653D01*
X0095802Y0247653D01*
X0096419Y0247036D01*
X0096419Y0245802D01*
X0099485Y0245802D02*
X0100102Y0246419D01*
X0100102Y0247036D01*
X0099485Y0247653D01*
X0101316Y0247036D02*
X0101933Y0247653D01*
X0103168Y0247653D01*
X0103785Y0247036D01*
X0103785Y0246419D01*
X0101316Y0243950D01*
X0103785Y0243950D01*
X0256450Y0187653D02*
X0256450Y0183950D01*
X0256450Y0185184D02*
X0258302Y0185184D01*
X0258919Y0185802D01*
X0258919Y0187036D01*
X0258302Y0187653D01*
X0256450Y0187653D01*
X0260133Y0187036D02*
X0260133Y0184567D01*
X0260750Y0183950D01*
X0261985Y0183950D01*
X0262602Y0184567D01*
X0263816Y0183950D02*
X0266285Y0183950D01*
X0267499Y0183950D02*
X0269968Y0186419D01*
X0269968Y0187036D01*
X0269351Y0187653D01*
X0268117Y0187653D01*
X0267499Y0187036D01*
X0265051Y0187653D02*
X0265051Y0183950D01*
X0267499Y0183950D02*
X0269968Y0183950D01*
X0265051Y0187653D02*
X0263816Y0186419D01*
X0262602Y0187036D02*
X0261985Y0187653D01*
X0260750Y0187653D01*
X0260133Y0187036D01*
X0293950Y0193950D02*
X0293950Y0197653D01*
X0295802Y0197653D01*
X0296419Y0197036D01*
X0296419Y0195802D01*
X0295802Y0195184D01*
X0293950Y0195184D01*
X0297633Y0193950D02*
X0299485Y0193950D01*
X0300102Y0194567D01*
X0300102Y0197036D01*
X0299485Y0197653D01*
X0297633Y0197653D01*
X0297633Y0193950D01*
X0301316Y0193950D02*
X0303785Y0196419D01*
X0303785Y0197036D01*
X0303168Y0197653D01*
X0301933Y0197653D01*
X0301316Y0197036D01*
X0301316Y0193950D02*
X0303785Y0193950D01*
X0317067Y0213950D02*
X0318302Y0213950D01*
X0318919Y0214567D01*
X0318919Y0217653D01*
X0320133Y0216419D02*
X0321368Y0217653D01*
X0322602Y0216419D01*
X0322602Y0213950D01*
X0323816Y0213950D02*
X0323816Y0217653D01*
X0325668Y0217653D01*
X0326285Y0217036D01*
X0326285Y0215802D01*
X0325668Y0215184D01*
X0323816Y0215184D01*
X0325051Y0215184D02*
X0326285Y0213950D01*
X0328734Y0213950D02*
X0328734Y0217653D01*
X0329968Y0217653D02*
X0327499Y0217653D01*
X0331183Y0217653D02*
X0331183Y0215802D01*
X0332417Y0216419D01*
X0333034Y0216419D01*
X0333651Y0215802D01*
X0333651Y0214567D01*
X0333034Y0213950D01*
X0331800Y0213950D01*
X0331183Y0214567D01*
X0331183Y0217653D02*
X0333651Y0217653D01*
X0334866Y0213333D02*
X0337334Y0213333D01*
X0338549Y0213950D02*
X0338549Y0217653D01*
X0340400Y0217653D01*
X0341018Y0217036D01*
X0341018Y0215802D01*
X0340400Y0215184D01*
X0338549Y0215184D01*
X0339783Y0215184D02*
X0341018Y0213950D01*
X0342232Y0213950D02*
X0344701Y0217653D01*
X0342232Y0217653D02*
X0344701Y0213950D01*
X0322602Y0215802D02*
X0320133Y0215802D01*
X0320133Y0216419D02*
X0320133Y0213950D01*
X0317067Y0213950D02*
X0316450Y0214567D01*
X0316450Y0217653D01*
X0303785Y0224567D02*
X0303168Y0223950D01*
X0301933Y0223950D01*
X0301316Y0224567D01*
X0300102Y0224567D02*
X0300102Y0225184D01*
X0299485Y0225802D01*
X0297633Y0225802D01*
X0296419Y0225802D02*
X0295802Y0225184D01*
X0293950Y0225184D01*
X0293950Y0223950D02*
X0293950Y0227653D01*
X0295802Y0227653D01*
X0296419Y0227036D01*
X0296419Y0225802D01*
X0297633Y0227653D02*
X0297633Y0223950D01*
X0299485Y0223950D01*
X0300102Y0224567D01*
X0299485Y0225802D02*
X0300102Y0226419D01*
X0300102Y0227036D01*
X0299485Y0227653D01*
X0297633Y0227653D01*
X0301316Y0227036D02*
X0301933Y0227653D01*
X0303168Y0227653D01*
X0303785Y0227036D01*
X0303785Y0226419D01*
X0303168Y0225802D01*
X0303785Y0225184D01*
X0303785Y0224567D01*
X0303168Y0225802D02*
X0302551Y0225802D01*
X0303168Y0233950D02*
X0301933Y0233950D01*
X0301316Y0234567D01*
X0300102Y0234567D02*
X0299485Y0233950D01*
X0297633Y0233950D01*
X0297633Y0237653D01*
X0299485Y0237653D01*
X0300102Y0237036D01*
X0300102Y0236419D01*
X0299485Y0235802D01*
X0297633Y0235802D01*
X0296419Y0235802D02*
X0296419Y0237036D01*
X0295802Y0237653D01*
X0293950Y0237653D01*
X0293950Y0233950D01*
X0293950Y0235184D02*
X0295802Y0235184D01*
X0296419Y0235802D01*
X0299485Y0235802D02*
X0300102Y0235184D01*
X0300102Y0234567D01*
X0301316Y0235802D02*
X0301316Y0237653D01*
X0303785Y0237653D01*
X0303168Y0236419D02*
X0303785Y0235802D01*
X0303785Y0234567D01*
X0303168Y0233950D01*
X0303168Y0236419D02*
X0302551Y0236419D01*
X0301316Y0235802D01*
X0301316Y0243950D02*
X0301316Y0244567D01*
X0303785Y0247036D01*
X0303785Y0247653D01*
X0301316Y0247653D01*
X0300102Y0247036D02*
X0300102Y0246419D01*
X0299485Y0245802D01*
X0297633Y0245802D01*
X0296419Y0245802D02*
X0295802Y0245184D01*
X0293950Y0245184D01*
X0293950Y0243950D02*
X0293950Y0247653D01*
X0295802Y0247653D01*
X0296419Y0247036D01*
X0296419Y0245802D01*
X0297633Y0247653D02*
X0297633Y0243950D01*
X0299485Y0243950D01*
X0300102Y0244567D01*
X0300102Y0245184D01*
X0299485Y0245802D01*
X0300102Y0247036D02*
X0299485Y0247653D01*
X0297633Y0247653D01*
X0297633Y0263950D02*
X0299485Y0263950D01*
X0300102Y0264567D01*
X0300102Y0265184D01*
X0299485Y0265802D01*
X0297633Y0265802D01*
X0296419Y0265802D02*
X0295802Y0265184D01*
X0293950Y0265184D01*
X0293950Y0263950D02*
X0293950Y0267653D01*
X0295802Y0267653D01*
X0296419Y0267036D01*
X0296419Y0265802D01*
X0297633Y0267653D02*
X0299485Y0267653D01*
X0300102Y0267036D01*
X0300102Y0266419D01*
X0299485Y0265802D01*
X0301316Y0266419D02*
X0301933Y0265802D01*
X0303785Y0265802D01*
X0303785Y0267036D02*
X0303168Y0267653D01*
X0301933Y0267653D01*
X0301316Y0267036D01*
X0301316Y0266419D01*
X0301316Y0264567D02*
X0301933Y0263950D01*
X0303168Y0263950D01*
X0303785Y0264567D01*
X0303785Y0267036D01*
X0297633Y0267653D02*
X0297633Y0263950D01*
X0316450Y0269567D02*
X0317067Y0268950D01*
X0318302Y0268950D01*
X0318919Y0269567D01*
X0318919Y0272653D01*
X0320133Y0271419D02*
X0320133Y0268950D01*
X0320133Y0270802D02*
X0322602Y0270802D01*
X0322602Y0271419D02*
X0322602Y0268950D01*
X0323816Y0268950D02*
X0323816Y0272653D01*
X0325668Y0272653D01*
X0326285Y0272036D01*
X0326285Y0270802D01*
X0325668Y0270184D01*
X0323816Y0270184D01*
X0325051Y0270184D02*
X0326285Y0268950D01*
X0328734Y0268950D02*
X0328734Y0272653D01*
X0329968Y0272653D02*
X0327499Y0272653D01*
X0331183Y0272653D02*
X0331183Y0270802D01*
X0332417Y0271419D01*
X0333034Y0271419D01*
X0333651Y0270802D01*
X0333651Y0269567D01*
X0333034Y0268950D01*
X0331800Y0268950D01*
X0331183Y0269567D01*
X0331183Y0272653D02*
X0333651Y0272653D01*
X0334866Y0268333D02*
X0337334Y0268333D01*
X0339783Y0268950D02*
X0339783Y0272653D01*
X0338549Y0272653D02*
X0341018Y0272653D01*
X0342232Y0272653D02*
X0344701Y0268950D01*
X0342232Y0268950D02*
X0344701Y0272653D01*
X0322602Y0271419D02*
X0321368Y0272653D01*
X0320133Y0271419D01*
X0316450Y0272653D02*
X0316450Y0269567D01*
X0268785Y0267036D02*
X0268785Y0266419D01*
X0268168Y0265802D01*
X0266933Y0265802D01*
X0266316Y0266419D01*
X0266316Y0267036D01*
X0266933Y0267653D01*
X0268168Y0267653D01*
X0268785Y0267036D01*
X0268168Y0265802D02*
X0268785Y0265184D01*
X0268785Y0264567D01*
X0268168Y0263950D01*
X0266933Y0263950D01*
X0266316Y0264567D01*
X0266316Y0265184D01*
X0266933Y0265802D01*
X0265102Y0266419D02*
X0264485Y0265802D01*
X0262633Y0265802D01*
X0261419Y0265802D02*
X0260802Y0265184D01*
X0258950Y0265184D01*
X0258950Y0263950D02*
X0258950Y0267653D01*
X0260802Y0267653D01*
X0261419Y0267036D01*
X0261419Y0265802D01*
X0262633Y0267653D02*
X0262633Y0263950D01*
X0264485Y0263950D01*
X0265102Y0264567D01*
X0265102Y0265184D01*
X0264485Y0265802D01*
X0265102Y0266419D02*
X0265102Y0267036D01*
X0264485Y0267653D01*
X0262633Y0267653D01*
X0262633Y0247653D02*
X0264485Y0247653D01*
X0265102Y0247036D01*
X0265102Y0246419D01*
X0264485Y0245802D01*
X0262633Y0245802D01*
X0261419Y0245802D02*
X0260802Y0245184D01*
X0258950Y0245184D01*
X0258950Y0243950D02*
X0258950Y0247653D01*
X0260802Y0247653D01*
X0261419Y0247036D01*
X0261419Y0245802D01*
X0262633Y0247653D02*
X0262633Y0243950D01*
X0264485Y0243950D01*
X0265102Y0244567D01*
X0265102Y0245184D01*
X0264485Y0245802D01*
X0266316Y0245802D02*
X0268168Y0245802D01*
X0268785Y0245184D01*
X0268785Y0244567D01*
X0268168Y0243950D01*
X0266933Y0243950D01*
X0266316Y0244567D01*
X0266316Y0245802D01*
X0267551Y0247036D01*
X0268785Y0247653D01*
X0268168Y0237653D02*
X0266316Y0235802D01*
X0268785Y0235802D01*
X0268168Y0237653D02*
X0268168Y0233950D01*
X0265102Y0234567D02*
X0264485Y0233950D01*
X0262633Y0233950D01*
X0262633Y0237653D01*
X0264485Y0237653D01*
X0265102Y0237036D01*
X0265102Y0236419D01*
X0264485Y0235802D01*
X0262633Y0235802D01*
X0261419Y0235802D02*
X0260802Y0235184D01*
X0258950Y0235184D01*
X0258950Y0233950D02*
X0258950Y0237653D01*
X0260802Y0237653D01*
X0261419Y0237036D01*
X0261419Y0235802D01*
X0264485Y0235802D02*
X0265102Y0235184D01*
X0265102Y0234567D01*
X0265102Y0303950D02*
X0262633Y0303950D01*
X0262633Y0307653D01*
X0265102Y0307653D01*
X0266316Y0305802D02*
X0267551Y0307036D01*
X0268785Y0307653D01*
X0268168Y0305802D02*
X0266316Y0305802D01*
X0266316Y0304567D01*
X0266933Y0303950D01*
X0268168Y0303950D01*
X0268785Y0304567D01*
X0268785Y0305184D01*
X0268168Y0305802D01*
X0263868Y0305802D02*
X0262633Y0305802D01*
X0261419Y0305802D02*
X0260802Y0305184D01*
X0258950Y0305184D01*
X0258950Y0303950D02*
X0258950Y0307653D01*
X0260802Y0307653D01*
X0261419Y0307036D01*
X0261419Y0305802D01*
X0316450Y0324567D02*
X0317067Y0323950D01*
X0318302Y0323950D01*
X0318919Y0324567D01*
X0318919Y0325802D01*
X0317684Y0325802D01*
X0316450Y0327036D02*
X0316450Y0324567D01*
X0316450Y0327036D02*
X0317067Y0327653D01*
X0318302Y0327653D01*
X0318919Y0327036D01*
X0320133Y0327653D02*
X0320133Y0323950D01*
X0320133Y0325184D02*
X0321985Y0325184D01*
X0322602Y0325802D01*
X0322602Y0327036D01*
X0321985Y0327653D01*
X0320133Y0327653D01*
X0323816Y0327653D02*
X0325051Y0327653D01*
X0324433Y0327653D02*
X0324433Y0323950D01*
X0323816Y0323950D02*
X0325051Y0323950D01*
X0326272Y0324567D02*
X0326889Y0323950D01*
X0328123Y0323950D01*
X0328740Y0324567D01*
X0328740Y0327036D01*
X0328123Y0327653D01*
X0326889Y0327653D01*
X0326272Y0327036D01*
X0326272Y0324567D01*
X0329955Y0324567D02*
X0329955Y0327036D01*
X0330572Y0327653D01*
X0331806Y0327653D01*
X0332424Y0327036D01*
X0329955Y0324567D01*
X0330572Y0323950D01*
X0331806Y0323950D01*
X0332424Y0324567D01*
X0332424Y0327036D01*
X0333638Y0326419D02*
X0333638Y0325184D01*
X0334872Y0323950D01*
X0336093Y0323950D02*
X0336093Y0327653D01*
X0337945Y0327653D01*
X0338562Y0327036D01*
X0338562Y0325802D01*
X0337945Y0325184D01*
X0336093Y0325184D01*
X0333638Y0326419D02*
X0334872Y0327653D01*
X0339777Y0327653D02*
X0339777Y0323950D01*
X0342245Y0323950D01*
X0343460Y0324567D02*
X0344077Y0323950D01*
X0345311Y0323950D01*
X0345928Y0324567D01*
X0345928Y0325184D01*
X0345311Y0325802D01*
X0343460Y0325802D01*
X0343460Y0324567D01*
X0343460Y0325802D02*
X0344694Y0327036D01*
X0345928Y0327653D01*
X0347143Y0327653D02*
X0348377Y0326419D01*
X0348377Y0325184D01*
X0347143Y0323950D01*
X0342245Y0327653D02*
X0339777Y0327653D01*
X0339777Y0325802D02*
X0341011Y0325802D01*
X0342232Y0162653D02*
X0344701Y0162653D01*
X0345915Y0162653D02*
X0348384Y0158950D01*
X0345915Y0158950D02*
X0348384Y0162653D01*
X0343466Y0162653D02*
X0343466Y0158950D01*
X0341018Y0158333D02*
X0338549Y0158333D01*
X0337334Y0159567D02*
X0336717Y0158950D01*
X0335483Y0158950D01*
X0334866Y0159567D01*
X0334866Y0160802D01*
X0336717Y0160802D01*
X0337334Y0160184D01*
X0337334Y0159567D01*
X0334866Y0160802D02*
X0336100Y0162036D01*
X0337334Y0162653D01*
X0333651Y0162653D02*
X0331183Y0162653D01*
X0332417Y0162653D02*
X0332417Y0158950D01*
X0329968Y0158950D02*
X0328734Y0160184D01*
X0329351Y0160184D02*
X0327499Y0160184D01*
X0327499Y0158950D02*
X0327499Y0162653D01*
X0329351Y0162653D01*
X0329968Y0162036D01*
X0329968Y0160802D01*
X0329351Y0160184D01*
X0326285Y0160802D02*
X0323816Y0160802D01*
X0323816Y0161419D02*
X0325051Y0162653D01*
X0326285Y0161419D01*
X0326285Y0158950D01*
X0323816Y0158950D02*
X0323816Y0161419D01*
X0322602Y0162036D02*
X0321985Y0162653D01*
X0320750Y0162653D01*
X0320133Y0162036D01*
X0320133Y0161419D01*
X0320750Y0160802D01*
X0321985Y0160802D01*
X0322602Y0160184D01*
X0322602Y0159567D01*
X0321985Y0158950D01*
X0320750Y0158950D01*
X0320133Y0159567D01*
X0318919Y0159567D02*
X0318919Y0162653D01*
X0316450Y0162653D02*
X0316450Y0159567D01*
X0317067Y0158950D01*
X0318302Y0158950D01*
X0318919Y0159567D01*
X0303785Y0127653D02*
X0303785Y0127036D01*
X0301316Y0124567D01*
X0301316Y0123950D01*
X0300102Y0124567D02*
X0299485Y0123950D01*
X0298250Y0123950D01*
X0297633Y0124567D01*
X0297633Y0127036D01*
X0298250Y0127653D01*
X0299485Y0127653D01*
X0300102Y0127036D01*
X0301316Y0127653D02*
X0303785Y0127653D01*
X0296419Y0127036D02*
X0296419Y0125802D01*
X0295802Y0125184D01*
X0293950Y0125184D01*
X0293950Y0123950D02*
X0293950Y0127653D01*
X0295802Y0127653D01*
X0296419Y0127036D01*
X0316450Y0107653D02*
X0316450Y0104567D01*
X0317067Y0103950D01*
X0318302Y0103950D01*
X0318919Y0104567D01*
X0318919Y0107653D01*
X0320133Y0107036D02*
X0320133Y0106419D01*
X0320750Y0105802D01*
X0321985Y0105802D01*
X0322602Y0105184D01*
X0322602Y0104567D01*
X0321985Y0103950D01*
X0320750Y0103950D01*
X0320133Y0104567D01*
X0320133Y0107036D02*
X0320750Y0107653D01*
X0321985Y0107653D01*
X0322602Y0107036D01*
X0323816Y0106419D02*
X0323816Y0103950D01*
X0323816Y0105802D02*
X0326285Y0105802D01*
X0326285Y0106419D02*
X0326285Y0103950D01*
X0327499Y0103950D02*
X0327499Y0107653D01*
X0329351Y0107653D01*
X0329968Y0107036D01*
X0329968Y0105802D01*
X0329351Y0105184D01*
X0327499Y0105184D01*
X0328734Y0105184D02*
X0329968Y0103950D01*
X0332417Y0103950D02*
X0332417Y0107653D01*
X0331183Y0107653D02*
X0333651Y0107653D01*
X0334866Y0105802D02*
X0336717Y0105802D01*
X0337334Y0105184D01*
X0337334Y0104567D01*
X0336717Y0103950D01*
X0335483Y0103950D01*
X0334866Y0104567D01*
X0334866Y0105802D01*
X0336100Y0107036D01*
X0337334Y0107653D01*
X0338549Y0103333D02*
X0341018Y0103333D01*
X0342232Y0103950D02*
X0342232Y0107653D01*
X0344084Y0107653D01*
X0344701Y0107036D01*
X0344701Y0105802D01*
X0344084Y0105184D01*
X0342232Y0105184D01*
X0343466Y0105184D02*
X0344701Y0103950D01*
X0345915Y0103950D02*
X0348384Y0107653D01*
X0345915Y0107653D02*
X0348384Y0103950D01*
X0326285Y0106419D02*
X0325051Y0107653D01*
X0323816Y0106419D01*
X0268785Y0124567D02*
X0268785Y0125184D01*
X0268168Y0125802D01*
X0266316Y0125802D01*
X0266316Y0124567D01*
X0266933Y0123950D01*
X0268168Y0123950D01*
X0268785Y0124567D01*
X0267551Y0127036D02*
X0266316Y0125802D01*
X0265102Y0127036D02*
X0264485Y0127653D01*
X0263250Y0127653D01*
X0262633Y0127036D01*
X0262633Y0124567D01*
X0263250Y0123950D01*
X0264485Y0123950D01*
X0265102Y0124567D01*
X0267551Y0127036D02*
X0268785Y0127653D01*
X0261419Y0127036D02*
X0261419Y0125802D01*
X0260802Y0125184D01*
X0258950Y0125184D01*
X0258950Y0123950D02*
X0258950Y0127653D01*
X0260802Y0127653D01*
X0261419Y0127036D01*
D11*
X0001300Y0001300D02*
X0001300Y0386300D01*
X0361300Y0386300D01*
X0361300Y0001300D01*
X0001300Y0001300D01*
X0014021Y0012589D02*
X0015089Y0011521D01*
X0017224Y0011521D01*
X0018292Y0012589D01*
X0018292Y0017927D01*
X0020467Y0015792D02*
X0023669Y0015792D01*
X0024737Y0014724D01*
X0024737Y0011521D01*
X0026912Y0011521D02*
X0029047Y0011521D01*
X0027980Y0011521D02*
X0027980Y0015792D01*
X0026912Y0015792D01*
X0027980Y0017927D02*
X0027980Y0018994D01*
X0030135Y0022021D02*
X0030135Y0028427D01*
X0033338Y0028427D01*
X0034405Y0027359D01*
X0034405Y0025224D01*
X0033338Y0024156D01*
X0030135Y0024156D01*
X0036580Y0025224D02*
X0037648Y0026292D01*
X0039783Y0026292D01*
X0040851Y0025224D01*
X0040851Y0022021D01*
X0043026Y0023089D02*
X0044094Y0022021D01*
X0047296Y0022021D01*
X0047296Y0020954D02*
X0046229Y0019886D01*
X0045161Y0019886D01*
X0047296Y0020954D02*
X0047296Y0026292D01*
X0049471Y0023089D02*
X0050539Y0023089D01*
X0050539Y0022021D01*
X0049471Y0022021D01*
X0049471Y0023089D01*
X0048397Y0015792D02*
X0048397Y0012589D01*
X0049465Y0011521D01*
X0052668Y0011521D01*
X0052668Y0015792D01*
X0054843Y0015792D02*
X0056978Y0015792D01*
X0055910Y0016859D02*
X0055910Y0012589D01*
X0056978Y0011521D01*
X0060207Y0012589D02*
X0061275Y0011521D01*
X0060207Y0012589D02*
X0060207Y0016859D01*
X0059140Y0015792D02*
X0061275Y0015792D01*
X0063437Y0014724D02*
X0063437Y0012589D01*
X0064504Y0011521D01*
X0067707Y0011521D01*
X0067707Y0010454D02*
X0067707Y0015792D01*
X0064504Y0015792D01*
X0063437Y0014724D01*
X0065572Y0009386D02*
X0066639Y0009386D01*
X0067707Y0010454D01*
X0069882Y0012589D02*
X0070950Y0013656D01*
X0074153Y0013656D01*
X0074153Y0014724D02*
X0074153Y0011521D01*
X0070950Y0011521D01*
X0069882Y0012589D01*
X0070950Y0015792D02*
X0073085Y0015792D01*
X0074153Y0014724D01*
X0076328Y0015792D02*
X0076328Y0011521D01*
X0076328Y0013656D02*
X0078463Y0015792D01*
X0079530Y0015792D01*
X0081699Y0015792D02*
X0083834Y0015792D01*
X0082767Y0016859D02*
X0082767Y0012589D01*
X0083834Y0011521D01*
X0081692Y0022021D02*
X0080625Y0022021D01*
X0080625Y0023089D01*
X0081692Y0023089D01*
X0081692Y0022021D01*
X0078463Y0022021D02*
X0077395Y0023089D01*
X0077395Y0027359D01*
X0076328Y0026292D02*
X0078463Y0026292D01*
X0074153Y0026292D02*
X0070950Y0026292D01*
X0069882Y0025224D01*
X0070950Y0024156D01*
X0073085Y0024156D01*
X0074153Y0023089D01*
X0073085Y0022021D01*
X0069882Y0022021D01*
X0067707Y0022021D02*
X0067707Y0025224D01*
X0066639Y0026292D01*
X0063437Y0026292D01*
X0063437Y0022021D01*
X0061275Y0022021D02*
X0059140Y0022021D01*
X0060207Y0022021D02*
X0060207Y0028427D01*
X0059140Y0028427D02*
X0061275Y0028427D01*
X0055890Y0033589D02*
X0055890Y0035724D01*
X0054823Y0036792D01*
X0052688Y0036792D01*
X0051620Y0035724D01*
X0051620Y0033589D01*
X0052688Y0032521D01*
X0054823Y0032521D01*
X0055890Y0033589D01*
X0049458Y0032521D02*
X0048391Y0033589D01*
X0048391Y0037859D01*
X0049458Y0036792D02*
X0047323Y0036792D01*
X0045148Y0035724D02*
X0045148Y0032521D01*
X0045148Y0035724D02*
X0044080Y0036792D01*
X0040877Y0036792D01*
X0040877Y0032521D01*
X0038716Y0032521D02*
X0036580Y0032521D01*
X0037648Y0032521D02*
X0037648Y0036792D01*
X0036580Y0036792D01*
X0037648Y0038927D02*
X0037648Y0039994D01*
X0034405Y0037859D02*
X0034405Y0035724D01*
X0033338Y0034656D01*
X0030135Y0034656D01*
X0030135Y0032521D02*
X0030135Y0038927D01*
X0033338Y0038927D01*
X0034405Y0037859D01*
X0036580Y0028427D02*
X0036580Y0022021D01*
X0038722Y0017927D02*
X0037655Y0016859D01*
X0037655Y0015792D01*
X0038722Y0014724D01*
X0040857Y0014724D01*
X0041925Y0013656D01*
X0041925Y0012589D01*
X0040857Y0011521D01*
X0038722Y0011521D01*
X0037655Y0012589D01*
X0038722Y0017927D02*
X0040857Y0017927D01*
X0041925Y0016859D01*
X0044100Y0015792D02*
X0046235Y0015792D01*
X0045168Y0016859D02*
X0045168Y0012589D01*
X0046235Y0011521D01*
X0043026Y0023089D02*
X0043026Y0026292D01*
X0021534Y0023089D02*
X0021534Y0022021D01*
X0020467Y0022021D01*
X0020467Y0023089D01*
X0021534Y0023089D01*
X0018292Y0023089D02*
X0017224Y0022021D01*
X0015089Y0022021D01*
X0014021Y0023089D01*
X0016156Y0025224D02*
X0017224Y0025224D01*
X0018292Y0024156D01*
X0018292Y0023089D01*
X0017224Y0025224D02*
X0018292Y0026292D01*
X0018292Y0027359D01*
X0017224Y0028427D01*
X0015089Y0028427D01*
X0014021Y0027359D01*
X0014021Y0032521D02*
X0017224Y0032521D01*
X0018292Y0033589D01*
X0018292Y0037859D01*
X0017224Y0038927D01*
X0014021Y0038927D01*
X0014021Y0032521D01*
X0020467Y0032521D02*
X0021534Y0032521D01*
X0021534Y0033589D01*
X0020467Y0033589D01*
X0020467Y0032521D01*
X0014021Y0017927D02*
X0014021Y0012589D01*
X0020467Y0011521D02*
X0020467Y0015792D01*
X0013800Y0063800D02*
X0151300Y0063800D01*
X0151300Y0091300D01*
X0013800Y0091300D01*
X0013800Y0063800D01*
X0071300Y0111300D02*
X0081300Y0111300D01*
X0081300Y0106300D01*
X0281300Y0106300D01*
X0281300Y0111300D01*
X0291300Y0111300D01*
X0291300Y0361300D01*
X0281300Y0361300D01*
X0281300Y0351300D01*
X0271300Y0351300D01*
X0271300Y0111300D01*
X0281300Y0111300D01*
X0308800Y0101300D02*
X0308800Y0208800D01*
X0353800Y0208800D01*
X0353800Y0101300D01*
X0308800Y0101300D01*
X0310684Y0131300D02*
X0310690Y0131806D01*
X0310709Y0132312D01*
X0310740Y0132817D01*
X0310783Y0133321D01*
X0310839Y0133824D01*
X0310907Y0134325D01*
X0310988Y0134825D01*
X0311080Y0135322D01*
X0311185Y0135817D01*
X0311302Y0136309D01*
X0311431Y0136799D01*
X0311572Y0137285D01*
X0311725Y0137767D01*
X0311889Y0138245D01*
X0312065Y0138720D01*
X0312253Y0139189D01*
X0312453Y0139654D01*
X0312663Y0140114D01*
X0312885Y0140569D01*
X0313118Y0141018D01*
X0313362Y0141462D01*
X0313617Y0141899D01*
X0313882Y0142330D01*
X0314158Y0142754D01*
X0314445Y0143171D01*
X0314741Y0143581D01*
X0315047Y0143984D01*
X0315364Y0144379D01*
X0315689Y0144766D01*
X0316025Y0145145D01*
X0316369Y0145516D01*
X0316722Y0145878D01*
X0317084Y0146231D01*
X0317455Y0146575D01*
X0317834Y0146911D01*
X0318221Y0147236D01*
X0318616Y0147553D01*
X0319019Y0147859D01*
X0319429Y0148155D01*
X0319846Y0148442D01*
X0320270Y0148718D01*
X0320701Y0148983D01*
X0321138Y0149238D01*
X0321582Y0149482D01*
X0322031Y0149715D01*
X0322486Y0149937D01*
X0322946Y0150147D01*
X0323411Y0150347D01*
X0323880Y0150535D01*
X0324355Y0150711D01*
X0324833Y0150875D01*
X0325315Y0151028D01*
X0325801Y0151169D01*
X0326291Y0151298D01*
X0326783Y0151415D01*
X0327278Y0151520D01*
X0327775Y0151612D01*
X0328275Y0151693D01*
X0328776Y0151761D01*
X0329279Y0151817D01*
X0329783Y0151860D01*
X0330288Y0151891D01*
X0330794Y0151910D01*
X0331300Y0151916D01*
X0331806Y0151910D01*
X0332312Y0151891D01*
X0332817Y0151860D01*
X0333321Y0151817D01*
X0333824Y0151761D01*
X0334325Y0151693D01*
X0334825Y0151612D01*
X0335322Y0151520D01*
X0335817Y0151415D01*
X0336309Y0151298D01*
X0336799Y0151169D01*
X0337285Y0151028D01*
X0337767Y0150875D01*
X0338245Y0150711D01*
X0338720Y0150535D01*
X0339189Y0150347D01*
X0339654Y0150147D01*
X0340114Y0149937D01*
X0340569Y0149715D01*
X0341018Y0149482D01*
X0341462Y0149238D01*
X0341899Y0148983D01*
X0342330Y0148718D01*
X0342754Y0148442D01*
X0343171Y0148155D01*
X0343581Y0147859D01*
X0343984Y0147553D01*
X0344379Y0147236D01*
X0344766Y0146911D01*
X0345145Y0146575D01*
X0345516Y0146231D01*
X0345878Y0145878D01*
X0346231Y0145516D01*
X0346575Y0145145D01*
X0346911Y0144766D01*
X0347236Y0144379D01*
X0347553Y0143984D01*
X0347859Y0143581D01*
X0348155Y0143171D01*
X0348442Y0142754D01*
X0348718Y0142330D01*
X0348983Y0141899D01*
X0349238Y0141462D01*
X0349482Y0141018D01*
X0349715Y0140569D01*
X0349937Y0140114D01*
X0350147Y0139654D01*
X0350347Y0139189D01*
X0350535Y0138720D01*
X0350711Y0138245D01*
X0350875Y0137767D01*
X0351028Y0137285D01*
X0351169Y0136799D01*
X0351298Y0136309D01*
X0351415Y0135817D01*
X0351520Y0135322D01*
X0351612Y0134825D01*
X0351693Y0134325D01*
X0351761Y0133824D01*
X0351817Y0133321D01*
X0351860Y0132817D01*
X0351891Y0132312D01*
X0351910Y0131806D01*
X0351916Y0131300D01*
X0351910Y0130794D01*
X0351891Y0130288D01*
X0351860Y0129783D01*
X0351817Y0129279D01*
X0351761Y0128776D01*
X0351693Y0128275D01*
X0351612Y0127775D01*
X0351520Y0127278D01*
X0351415Y0126783D01*
X0351298Y0126291D01*
X0351169Y0125801D01*
X0351028Y0125315D01*
X0350875Y0124833D01*
X0350711Y0124355D01*
X0350535Y0123880D01*
X0350347Y0123411D01*
X0350147Y0122946D01*
X0349937Y0122486D01*
X0349715Y0122031D01*
X0349482Y0121582D01*
X0349238Y0121138D01*
X0348983Y0120701D01*
X0348718Y0120270D01*
X0348442Y0119846D01*
X0348155Y0119429D01*
X0347859Y0119019D01*
X0347553Y0118616D01*
X0347236Y0118221D01*
X0346911Y0117834D01*
X0346575Y0117455D01*
X0346231Y0117084D01*
X0345878Y0116722D01*
X0345516Y0116369D01*
X0345145Y0116025D01*
X0344766Y0115689D01*
X0344379Y0115364D01*
X0343984Y0115047D01*
X0343581Y0114741D01*
X0343171Y0114445D01*
X0342754Y0114158D01*
X0342330Y0113882D01*
X0341899Y0113617D01*
X0341462Y0113362D01*
X0341018Y0113118D01*
X0340569Y0112885D01*
X0340114Y0112663D01*
X0339654Y0112453D01*
X0339189Y0112253D01*
X0338720Y0112065D01*
X0338245Y0111889D01*
X0337767Y0111725D01*
X0337285Y0111572D01*
X0336799Y0111431D01*
X0336309Y0111302D01*
X0335817Y0111185D01*
X0335322Y0111080D01*
X0334825Y0110988D01*
X0334325Y0110907D01*
X0333824Y0110839D01*
X0333321Y0110783D01*
X0332817Y0110740D01*
X0332312Y0110709D01*
X0331806Y0110690D01*
X0331300Y0110684D01*
X0330794Y0110690D01*
X0330288Y0110709D01*
X0329783Y0110740D01*
X0329279Y0110783D01*
X0328776Y0110839D01*
X0328275Y0110907D01*
X0327775Y0110988D01*
X0327278Y0111080D01*
X0326783Y0111185D01*
X0326291Y0111302D01*
X0325801Y0111431D01*
X0325315Y0111572D01*
X0324833Y0111725D01*
X0324355Y0111889D01*
X0323880Y0112065D01*
X0323411Y0112253D01*
X0322946Y0112453D01*
X0322486Y0112663D01*
X0322031Y0112885D01*
X0321582Y0113118D01*
X0321138Y0113362D01*
X0320701Y0113617D01*
X0320270Y0113882D01*
X0319846Y0114158D01*
X0319429Y0114445D01*
X0319019Y0114741D01*
X0318616Y0115047D01*
X0318221Y0115364D01*
X0317834Y0115689D01*
X0317455Y0116025D01*
X0317084Y0116369D01*
X0316722Y0116722D01*
X0316369Y0117084D01*
X0316025Y0117455D01*
X0315689Y0117834D01*
X0315364Y0118221D01*
X0315047Y0118616D01*
X0314741Y0119019D01*
X0314445Y0119429D01*
X0314158Y0119846D01*
X0313882Y0120270D01*
X0313617Y0120701D01*
X0313362Y0121138D01*
X0313118Y0121582D01*
X0312885Y0122031D01*
X0312663Y0122486D01*
X0312453Y0122946D01*
X0312253Y0123411D01*
X0312065Y0123880D01*
X0311889Y0124355D01*
X0311725Y0124833D01*
X0311572Y0125315D01*
X0311431Y0125801D01*
X0311302Y0126291D01*
X0311185Y0126783D01*
X0311080Y0127278D01*
X0310988Y0127775D01*
X0310907Y0128275D01*
X0310839Y0128776D01*
X0310783Y0129279D01*
X0310740Y0129783D01*
X0310709Y0130288D01*
X0310690Y0130794D01*
X0310684Y0131300D01*
X0311300Y0186300D02*
X0311306Y0186791D01*
X0311324Y0187281D01*
X0311354Y0187771D01*
X0311396Y0188260D01*
X0311450Y0188748D01*
X0311516Y0189235D01*
X0311594Y0189719D01*
X0311684Y0190202D01*
X0311786Y0190682D01*
X0311899Y0191160D01*
X0312024Y0191634D01*
X0312161Y0192106D01*
X0312309Y0192574D01*
X0312469Y0193038D01*
X0312640Y0193498D01*
X0312822Y0193954D01*
X0313016Y0194405D01*
X0313220Y0194851D01*
X0313436Y0195292D01*
X0313662Y0195728D01*
X0313898Y0196158D01*
X0314145Y0196582D01*
X0314403Y0197000D01*
X0314671Y0197411D01*
X0314948Y0197816D01*
X0315236Y0198214D01*
X0315533Y0198605D01*
X0315840Y0198988D01*
X0316156Y0199363D01*
X0316481Y0199731D01*
X0316815Y0200091D01*
X0317158Y0200442D01*
X0317509Y0200785D01*
X0317869Y0201119D01*
X0318237Y0201444D01*
X0318612Y0201760D01*
X0318995Y0202067D01*
X0319386Y0202364D01*
X0319784Y0202652D01*
X0320189Y0202929D01*
X0320600Y0203197D01*
X0321018Y0203455D01*
X0321442Y0203702D01*
X0321872Y0203938D01*
X0322308Y0204164D01*
X0322749Y0204380D01*
X0323195Y0204584D01*
X0323646Y0204778D01*
X0324102Y0204960D01*
X0324562Y0205131D01*
X0325026Y0205291D01*
X0325494Y0205439D01*
X0325966Y0205576D01*
X0326440Y0205701D01*
X0326918Y0205814D01*
X0327398Y0205916D01*
X0327881Y0206006D01*
X0328365Y0206084D01*
X0328852Y0206150D01*
X0329340Y0206204D01*
X0329829Y0206246D01*
X0330319Y0206276D01*
X0330809Y0206294D01*
X0331300Y0206300D01*
X0331791Y0206294D01*
X0332281Y0206276D01*
X0332771Y0206246D01*
X0333260Y0206204D01*
X0333748Y0206150D01*
X0334235Y0206084D01*
X0334719Y0206006D01*
X0335202Y0205916D01*
X0335682Y0205814D01*
X0336160Y0205701D01*
X0336634Y0205576D01*
X0337106Y0205439D01*
X0337574Y0205291D01*
X0338038Y0205131D01*
X0338498Y0204960D01*
X0338954Y0204778D01*
X0339405Y0204584D01*
X0339851Y0204380D01*
X0340292Y0204164D01*
X0340728Y0203938D01*
X0341158Y0203702D01*
X0341582Y0203455D01*
X0342000Y0203197D01*
X0342411Y0202929D01*
X0342816Y0202652D01*
X0343214Y0202364D01*
X0343605Y0202067D01*
X0343988Y0201760D01*
X0344363Y0201444D01*
X0344731Y0201119D01*
X0345091Y0200785D01*
X0345442Y0200442D01*
X0345785Y0200091D01*
X0346119Y0199731D01*
X0346444Y0199363D01*
X0346760Y0198988D01*
X0347067Y0198605D01*
X0347364Y0198214D01*
X0347652Y0197816D01*
X0347929Y0197411D01*
X0348197Y0197000D01*
X0348455Y0196582D01*
X0348702Y0196158D01*
X0348938Y0195728D01*
X0349164Y0195292D01*
X0349380Y0194851D01*
X0349584Y0194405D01*
X0349778Y0193954D01*
X0349960Y0193498D01*
X0350131Y0193038D01*
X0350291Y0192574D01*
X0350439Y0192106D01*
X0350576Y0191634D01*
X0350701Y0191160D01*
X0350814Y0190682D01*
X0350916Y0190202D01*
X0351006Y0189719D01*
X0351084Y0189235D01*
X0351150Y0188748D01*
X0351204Y0188260D01*
X0351246Y0187771D01*
X0351276Y0187281D01*
X0351294Y0186791D01*
X0351300Y0186300D01*
X0351294Y0185809D01*
X0351276Y0185319D01*
X0351246Y0184829D01*
X0351204Y0184340D01*
X0351150Y0183852D01*
X0351084Y0183365D01*
X0351006Y0182881D01*
X0350916Y0182398D01*
X0350814Y0181918D01*
X0350701Y0181440D01*
X0350576Y0180966D01*
X0350439Y0180494D01*
X0350291Y0180026D01*
X0350131Y0179562D01*
X0349960Y0179102D01*
X0349778Y0178646D01*
X0349584Y0178195D01*
X0349380Y0177749D01*
X0349164Y0177308D01*
X0348938Y0176872D01*
X0348702Y0176442D01*
X0348455Y0176018D01*
X0348197Y0175600D01*
X0347929Y0175189D01*
X0347652Y0174784D01*
X0347364Y0174386D01*
X0347067Y0173995D01*
X0346760Y0173612D01*
X0346444Y0173237D01*
X0346119Y0172869D01*
X0345785Y0172509D01*
X0345442Y0172158D01*
X0345091Y0171815D01*
X0344731Y0171481D01*
X0344363Y0171156D01*
X0343988Y0170840D01*
X0343605Y0170533D01*
X0343214Y0170236D01*
X0342816Y0169948D01*
X0342411Y0169671D01*
X0342000Y0169403D01*
X0341582Y0169145D01*
X0341158Y0168898D01*
X0340728Y0168662D01*
X0340292Y0168436D01*
X0339851Y0168220D01*
X0339405Y0168016D01*
X0338954Y0167822D01*
X0338498Y0167640D01*
X0338038Y0167469D01*
X0337574Y0167309D01*
X0337106Y0167161D01*
X0336634Y0167024D01*
X0336160Y0166899D01*
X0335682Y0166786D01*
X0335202Y0166684D01*
X0334719Y0166594D01*
X0334235Y0166516D01*
X0333748Y0166450D01*
X0333260Y0166396D01*
X0332771Y0166354D01*
X0332281Y0166324D01*
X0331791Y0166306D01*
X0331300Y0166300D01*
X0330809Y0166306D01*
X0330319Y0166324D01*
X0329829Y0166354D01*
X0329340Y0166396D01*
X0328852Y0166450D01*
X0328365Y0166516D01*
X0327881Y0166594D01*
X0327398Y0166684D01*
X0326918Y0166786D01*
X0326440Y0166899D01*
X0325966Y0167024D01*
X0325494Y0167161D01*
X0325026Y0167309D01*
X0324562Y0167469D01*
X0324102Y0167640D01*
X0323646Y0167822D01*
X0323195Y0168016D01*
X0322749Y0168220D01*
X0322308Y0168436D01*
X0321872Y0168662D01*
X0321442Y0168898D01*
X0321018Y0169145D01*
X0320600Y0169403D01*
X0320189Y0169671D01*
X0319784Y0169948D01*
X0319386Y0170236D01*
X0318995Y0170533D01*
X0318612Y0170840D01*
X0318237Y0171156D01*
X0317869Y0171481D01*
X0317509Y0171815D01*
X0317158Y0172158D01*
X0316815Y0172509D01*
X0316481Y0172869D01*
X0316156Y0173237D01*
X0315840Y0173612D01*
X0315533Y0173995D01*
X0315236Y0174386D01*
X0314948Y0174784D01*
X0314671Y0175189D01*
X0314403Y0175600D01*
X0314145Y0176018D01*
X0313898Y0176442D01*
X0313662Y0176872D01*
X0313436Y0177308D01*
X0313220Y0177749D01*
X0313016Y0178195D01*
X0312822Y0178646D01*
X0312640Y0179102D01*
X0312469Y0179562D01*
X0312309Y0180026D01*
X0312161Y0180494D01*
X0312024Y0180966D01*
X0311899Y0181440D01*
X0311786Y0181918D01*
X0311684Y0182398D01*
X0311594Y0182881D01*
X0311516Y0183365D01*
X0311450Y0183852D01*
X0311396Y0184340D01*
X0311354Y0184829D01*
X0311324Y0185319D01*
X0311306Y0185809D01*
X0311300Y0186300D01*
X0308800Y0211300D02*
X0308800Y0318800D01*
X0353800Y0318800D01*
X0353800Y0211300D01*
X0308800Y0211300D01*
X0310684Y0241300D02*
X0310690Y0241806D01*
X0310709Y0242312D01*
X0310740Y0242817D01*
X0310783Y0243321D01*
X0310839Y0243824D01*
X0310907Y0244325D01*
X0310988Y0244825D01*
X0311080Y0245322D01*
X0311185Y0245817D01*
X0311302Y0246309D01*
X0311431Y0246799D01*
X0311572Y0247285D01*
X0311725Y0247767D01*
X0311889Y0248245D01*
X0312065Y0248720D01*
X0312253Y0249189D01*
X0312453Y0249654D01*
X0312663Y0250114D01*
X0312885Y0250569D01*
X0313118Y0251018D01*
X0313362Y0251462D01*
X0313617Y0251899D01*
X0313882Y0252330D01*
X0314158Y0252754D01*
X0314445Y0253171D01*
X0314741Y0253581D01*
X0315047Y0253984D01*
X0315364Y0254379D01*
X0315689Y0254766D01*
X0316025Y0255145D01*
X0316369Y0255516D01*
X0316722Y0255878D01*
X0317084Y0256231D01*
X0317455Y0256575D01*
X0317834Y0256911D01*
X0318221Y0257236D01*
X0318616Y0257553D01*
X0319019Y0257859D01*
X0319429Y0258155D01*
X0319846Y0258442D01*
X0320270Y0258718D01*
X0320701Y0258983D01*
X0321138Y0259238D01*
X0321582Y0259482D01*
X0322031Y0259715D01*
X0322486Y0259937D01*
X0322946Y0260147D01*
X0323411Y0260347D01*
X0323880Y0260535D01*
X0324355Y0260711D01*
X0324833Y0260875D01*
X0325315Y0261028D01*
X0325801Y0261169D01*
X0326291Y0261298D01*
X0326783Y0261415D01*
X0327278Y0261520D01*
X0327775Y0261612D01*
X0328275Y0261693D01*
X0328776Y0261761D01*
X0329279Y0261817D01*
X0329783Y0261860D01*
X0330288Y0261891D01*
X0330794Y0261910D01*
X0331300Y0261916D01*
X0331806Y0261910D01*
X0332312Y0261891D01*
X0332817Y0261860D01*
X0333321Y0261817D01*
X0333824Y0261761D01*
X0334325Y0261693D01*
X0334825Y0261612D01*
X0335322Y0261520D01*
X0335817Y0261415D01*
X0336309Y0261298D01*
X0336799Y0261169D01*
X0337285Y0261028D01*
X0337767Y0260875D01*
X0338245Y0260711D01*
X0338720Y0260535D01*
X0339189Y0260347D01*
X0339654Y0260147D01*
X0340114Y0259937D01*
X0340569Y0259715D01*
X0341018Y0259482D01*
X0341462Y0259238D01*
X0341899Y0258983D01*
X0342330Y0258718D01*
X0342754Y0258442D01*
X0343171Y0258155D01*
X0343581Y0257859D01*
X0343984Y0257553D01*
X0344379Y0257236D01*
X0344766Y0256911D01*
X0345145Y0256575D01*
X0345516Y0256231D01*
X0345878Y0255878D01*
X0346231Y0255516D01*
X0346575Y0255145D01*
X0346911Y0254766D01*
X0347236Y0254379D01*
X0347553Y0253984D01*
X0347859Y0253581D01*
X0348155Y0253171D01*
X0348442Y0252754D01*
X0348718Y0252330D01*
X0348983Y0251899D01*
X0349238Y0251462D01*
X0349482Y0251018D01*
X0349715Y0250569D01*
X0349937Y0250114D01*
X0350147Y0249654D01*
X0350347Y0249189D01*
X0350535Y0248720D01*
X0350711Y0248245D01*
X0350875Y0247767D01*
X0351028Y0247285D01*
X0351169Y0246799D01*
X0351298Y0246309D01*
X0351415Y0245817D01*
X0351520Y0245322D01*
X0351612Y0244825D01*
X0351693Y0244325D01*
X0351761Y0243824D01*
X0351817Y0243321D01*
X0351860Y0242817D01*
X0351891Y0242312D01*
X0351910Y0241806D01*
X0351916Y0241300D01*
X0351910Y0240794D01*
X0351891Y0240288D01*
X0351860Y0239783D01*
X0351817Y0239279D01*
X0351761Y0238776D01*
X0351693Y0238275D01*
X0351612Y0237775D01*
X0351520Y0237278D01*
X0351415Y0236783D01*
X0351298Y0236291D01*
X0351169Y0235801D01*
X0351028Y0235315D01*
X0350875Y0234833D01*
X0350711Y0234355D01*
X0350535Y0233880D01*
X0350347Y0233411D01*
X0350147Y0232946D01*
X0349937Y0232486D01*
X0349715Y0232031D01*
X0349482Y0231582D01*
X0349238Y0231138D01*
X0348983Y0230701D01*
X0348718Y0230270D01*
X0348442Y0229846D01*
X0348155Y0229429D01*
X0347859Y0229019D01*
X0347553Y0228616D01*
X0347236Y0228221D01*
X0346911Y0227834D01*
X0346575Y0227455D01*
X0346231Y0227084D01*
X0345878Y0226722D01*
X0345516Y0226369D01*
X0345145Y0226025D01*
X0344766Y0225689D01*
X0344379Y0225364D01*
X0343984Y0225047D01*
X0343581Y0224741D01*
X0343171Y0224445D01*
X0342754Y0224158D01*
X0342330Y0223882D01*
X0341899Y0223617D01*
X0341462Y0223362D01*
X0341018Y0223118D01*
X0340569Y0222885D01*
X0340114Y0222663D01*
X0339654Y0222453D01*
X0339189Y0222253D01*
X0338720Y0222065D01*
X0338245Y0221889D01*
X0337767Y0221725D01*
X0337285Y0221572D01*
X0336799Y0221431D01*
X0336309Y0221302D01*
X0335817Y0221185D01*
X0335322Y0221080D01*
X0334825Y0220988D01*
X0334325Y0220907D01*
X0333824Y0220839D01*
X0333321Y0220783D01*
X0332817Y0220740D01*
X0332312Y0220709D01*
X0331806Y0220690D01*
X0331300Y0220684D01*
X0330794Y0220690D01*
X0330288Y0220709D01*
X0329783Y0220740D01*
X0329279Y0220783D01*
X0328776Y0220839D01*
X0328275Y0220907D01*
X0327775Y0220988D01*
X0327278Y0221080D01*
X0326783Y0221185D01*
X0326291Y0221302D01*
X0325801Y0221431D01*
X0325315Y0221572D01*
X0324833Y0221725D01*
X0324355Y0221889D01*
X0323880Y0222065D01*
X0323411Y0222253D01*
X0322946Y0222453D01*
X0322486Y0222663D01*
X0322031Y0222885D01*
X0321582Y0223118D01*
X0321138Y0223362D01*
X0320701Y0223617D01*
X0320270Y0223882D01*
X0319846Y0224158D01*
X0319429Y0224445D01*
X0319019Y0224741D01*
X0318616Y0225047D01*
X0318221Y0225364D01*
X0317834Y0225689D01*
X0317455Y0226025D01*
X0317084Y0226369D01*
X0316722Y0226722D01*
X0316369Y0227084D01*
X0316025Y0227455D01*
X0315689Y0227834D01*
X0315364Y0228221D01*
X0315047Y0228616D01*
X0314741Y0229019D01*
X0314445Y0229429D01*
X0314158Y0229846D01*
X0313882Y0230270D01*
X0313617Y0230701D01*
X0313362Y0231138D01*
X0313118Y0231582D01*
X0312885Y0232031D01*
X0312663Y0232486D01*
X0312453Y0232946D01*
X0312253Y0233411D01*
X0312065Y0233880D01*
X0311889Y0234355D01*
X0311725Y0234833D01*
X0311572Y0235315D01*
X0311431Y0235801D01*
X0311302Y0236291D01*
X0311185Y0236783D01*
X0311080Y0237278D01*
X0310988Y0237775D01*
X0310907Y0238275D01*
X0310839Y0238776D01*
X0310783Y0239279D01*
X0310740Y0239783D01*
X0310709Y0240288D01*
X0310690Y0240794D01*
X0310684Y0241300D01*
X0311300Y0296300D02*
X0311306Y0296791D01*
X0311324Y0297281D01*
X0311354Y0297771D01*
X0311396Y0298260D01*
X0311450Y0298748D01*
X0311516Y0299235D01*
X0311594Y0299719D01*
X0311684Y0300202D01*
X0311786Y0300682D01*
X0311899Y0301160D01*
X0312024Y0301634D01*
X0312161Y0302106D01*
X0312309Y0302574D01*
X0312469Y0303038D01*
X0312640Y0303498D01*
X0312822Y0303954D01*
X0313016Y0304405D01*
X0313220Y0304851D01*
X0313436Y0305292D01*
X0313662Y0305728D01*
X0313898Y0306158D01*
X0314145Y0306582D01*
X0314403Y0307000D01*
X0314671Y0307411D01*
X0314948Y0307816D01*
X0315236Y0308214D01*
X0315533Y0308605D01*
X0315840Y0308988D01*
X0316156Y0309363D01*
X0316481Y0309731D01*
X0316815Y0310091D01*
X0317158Y0310442D01*
X0317509Y0310785D01*
X0317869Y0311119D01*
X0318237Y0311444D01*
X0318612Y0311760D01*
X0318995Y0312067D01*
X0319386Y0312364D01*
X0319784Y0312652D01*
X0320189Y0312929D01*
X0320600Y0313197D01*
X0321018Y0313455D01*
X0321442Y0313702D01*
X0321872Y0313938D01*
X0322308Y0314164D01*
X0322749Y0314380D01*
X0323195Y0314584D01*
X0323646Y0314778D01*
X0324102Y0314960D01*
X0324562Y0315131D01*
X0325026Y0315291D01*
X0325494Y0315439D01*
X0325966Y0315576D01*
X0326440Y0315701D01*
X0326918Y0315814D01*
X0327398Y0315916D01*
X0327881Y0316006D01*
X0328365Y0316084D01*
X0328852Y0316150D01*
X0329340Y0316204D01*
X0329829Y0316246D01*
X0330319Y0316276D01*
X0330809Y0316294D01*
X0331300Y0316300D01*
X0331791Y0316294D01*
X0332281Y0316276D01*
X0332771Y0316246D01*
X0333260Y0316204D01*
X0333748Y0316150D01*
X0334235Y0316084D01*
X0334719Y0316006D01*
X0335202Y0315916D01*
X0335682Y0315814D01*
X0336160Y0315701D01*
X0336634Y0315576D01*
X0337106Y0315439D01*
X0337574Y0315291D01*
X0338038Y0315131D01*
X0338498Y0314960D01*
X0338954Y0314778D01*
X0339405Y0314584D01*
X0339851Y0314380D01*
X0340292Y0314164D01*
X0340728Y0313938D01*
X0341158Y0313702D01*
X0341582Y0313455D01*
X0342000Y0313197D01*
X0342411Y0312929D01*
X0342816Y0312652D01*
X0343214Y0312364D01*
X0343605Y0312067D01*
X0343988Y0311760D01*
X0344363Y0311444D01*
X0344731Y0311119D01*
X0345091Y0310785D01*
X0345442Y0310442D01*
X0345785Y0310091D01*
X0346119Y0309731D01*
X0346444Y0309363D01*
X0346760Y0308988D01*
X0347067Y0308605D01*
X0347364Y0308214D01*
X0347652Y0307816D01*
X0347929Y0307411D01*
X0348197Y0307000D01*
X0348455Y0306582D01*
X0348702Y0306158D01*
X0348938Y0305728D01*
X0349164Y0305292D01*
X0349380Y0304851D01*
X0349584Y0304405D01*
X0349778Y0303954D01*
X0349960Y0303498D01*
X0350131Y0303038D01*
X0350291Y0302574D01*
X0350439Y0302106D01*
X0350576Y0301634D01*
X0350701Y0301160D01*
X0350814Y0300682D01*
X0350916Y0300202D01*
X0351006Y0299719D01*
X0351084Y0299235D01*
X0351150Y0298748D01*
X0351204Y0298260D01*
X0351246Y0297771D01*
X0351276Y0297281D01*
X0351294Y0296791D01*
X0351300Y0296300D01*
X0351294Y0295809D01*
X0351276Y0295319D01*
X0351246Y0294829D01*
X0351204Y0294340D01*
X0351150Y0293852D01*
X0351084Y0293365D01*
X0351006Y0292881D01*
X0350916Y0292398D01*
X0350814Y0291918D01*
X0350701Y0291440D01*
X0350576Y0290966D01*
X0350439Y0290494D01*
X0350291Y0290026D01*
X0350131Y0289562D01*
X0349960Y0289102D01*
X0349778Y0288646D01*
X0349584Y0288195D01*
X0349380Y0287749D01*
X0349164Y0287308D01*
X0348938Y0286872D01*
X0348702Y0286442D01*
X0348455Y0286018D01*
X0348197Y0285600D01*
X0347929Y0285189D01*
X0347652Y0284784D01*
X0347364Y0284386D01*
X0347067Y0283995D01*
X0346760Y0283612D01*
X0346444Y0283237D01*
X0346119Y0282869D01*
X0345785Y0282509D01*
X0345442Y0282158D01*
X0345091Y0281815D01*
X0344731Y0281481D01*
X0344363Y0281156D01*
X0343988Y0280840D01*
X0343605Y0280533D01*
X0343214Y0280236D01*
X0342816Y0279948D01*
X0342411Y0279671D01*
X0342000Y0279403D01*
X0341582Y0279145D01*
X0341158Y0278898D01*
X0340728Y0278662D01*
X0340292Y0278436D01*
X0339851Y0278220D01*
X0339405Y0278016D01*
X0338954Y0277822D01*
X0338498Y0277640D01*
X0338038Y0277469D01*
X0337574Y0277309D01*
X0337106Y0277161D01*
X0336634Y0277024D01*
X0336160Y0276899D01*
X0335682Y0276786D01*
X0335202Y0276684D01*
X0334719Y0276594D01*
X0334235Y0276516D01*
X0333748Y0276450D01*
X0333260Y0276396D01*
X0332771Y0276354D01*
X0332281Y0276324D01*
X0331791Y0276306D01*
X0331300Y0276300D01*
X0330809Y0276306D01*
X0330319Y0276324D01*
X0329829Y0276354D01*
X0329340Y0276396D01*
X0328852Y0276450D01*
X0328365Y0276516D01*
X0327881Y0276594D01*
X0327398Y0276684D01*
X0326918Y0276786D01*
X0326440Y0276899D01*
X0325966Y0277024D01*
X0325494Y0277161D01*
X0325026Y0277309D01*
X0324562Y0277469D01*
X0324102Y0277640D01*
X0323646Y0277822D01*
X0323195Y0278016D01*
X0322749Y0278220D01*
X0322308Y0278436D01*
X0321872Y0278662D01*
X0321442Y0278898D01*
X0321018Y0279145D01*
X0320600Y0279403D01*
X0320189Y0279671D01*
X0319784Y0279948D01*
X0319386Y0280236D01*
X0318995Y0280533D01*
X0318612Y0280840D01*
X0318237Y0281156D01*
X0317869Y0281481D01*
X0317509Y0281815D01*
X0317158Y0282158D01*
X0316815Y0282509D01*
X0316481Y0282869D01*
X0316156Y0283237D01*
X0315840Y0283612D01*
X0315533Y0283995D01*
X0315236Y0284386D01*
X0314948Y0284784D01*
X0314671Y0285189D01*
X0314403Y0285600D01*
X0314145Y0286018D01*
X0313898Y0286442D01*
X0313662Y0286872D01*
X0313436Y0287308D01*
X0313220Y0287749D01*
X0313016Y0288195D01*
X0312822Y0288646D01*
X0312640Y0289102D01*
X0312469Y0289562D01*
X0312309Y0290026D01*
X0312161Y0290494D01*
X0312024Y0290966D01*
X0311899Y0291440D01*
X0311786Y0291918D01*
X0311684Y0292398D01*
X0311594Y0292881D01*
X0311516Y0293365D01*
X0311450Y0293852D01*
X0311396Y0294340D01*
X0311354Y0294829D01*
X0311324Y0295319D01*
X0311306Y0295809D01*
X0311300Y0296300D01*
X0310684Y0351300D02*
X0310690Y0351806D01*
X0310709Y0352312D01*
X0310740Y0352817D01*
X0310783Y0353321D01*
X0310839Y0353824D01*
X0310907Y0354325D01*
X0310988Y0354825D01*
X0311080Y0355322D01*
X0311185Y0355817D01*
X0311302Y0356309D01*
X0311431Y0356799D01*
X0311572Y0357285D01*
X0311725Y0357767D01*
X0311889Y0358245D01*
X0312065Y0358720D01*
X0312253Y0359189D01*
X0312453Y0359654D01*
X0312663Y0360114D01*
X0312885Y0360569D01*
X0313118Y0361018D01*
X0313362Y0361462D01*
X0313617Y0361899D01*
X0313882Y0362330D01*
X0314158Y0362754D01*
X0314445Y0363171D01*
X0314741Y0363581D01*
X0315047Y0363984D01*
X0315364Y0364379D01*
X0315689Y0364766D01*
X0316025Y0365145D01*
X0316369Y0365516D01*
X0316722Y0365878D01*
X0317084Y0366231D01*
X0317455Y0366575D01*
X0317834Y0366911D01*
X0318221Y0367236D01*
X0318616Y0367553D01*
X0319019Y0367859D01*
X0319429Y0368155D01*
X0319846Y0368442D01*
X0320270Y0368718D01*
X0320701Y0368983D01*
X0321138Y0369238D01*
X0321582Y0369482D01*
X0322031Y0369715D01*
X0322486Y0369937D01*
X0322946Y0370147D01*
X0323411Y0370347D01*
X0323880Y0370535D01*
X0324355Y0370711D01*
X0324833Y0370875D01*
X0325315Y0371028D01*
X0325801Y0371169D01*
X0326291Y0371298D01*
X0326783Y0371415D01*
X0327278Y0371520D01*
X0327775Y0371612D01*
X0328275Y0371693D01*
X0328776Y0371761D01*
X0329279Y0371817D01*
X0329783Y0371860D01*
X0330288Y0371891D01*
X0330794Y0371910D01*
X0331300Y0371916D01*
X0331806Y0371910D01*
X0332312Y0371891D01*
X0332817Y0371860D01*
X0333321Y0371817D01*
X0333824Y0371761D01*
X0334325Y0371693D01*
X0334825Y0371612D01*
X0335322Y0371520D01*
X0335817Y0371415D01*
X0336309Y0371298D01*
X0336799Y0371169D01*
X0337285Y0371028D01*
X0337767Y0370875D01*
X0338245Y0370711D01*
X0338720Y0370535D01*
X0339189Y0370347D01*
X0339654Y0370147D01*
X0340114Y0369937D01*
X0340569Y0369715D01*
X0341018Y0369482D01*
X0341462Y0369238D01*
X0341899Y0368983D01*
X0342330Y0368718D01*
X0342754Y0368442D01*
X0343171Y0368155D01*
X0343581Y0367859D01*
X0343984Y0367553D01*
X0344379Y0367236D01*
X0344766Y0366911D01*
X0345145Y0366575D01*
X0345516Y0366231D01*
X0345878Y0365878D01*
X0346231Y0365516D01*
X0346575Y0365145D01*
X0346911Y0364766D01*
X0347236Y0364379D01*
X0347553Y0363984D01*
X0347859Y0363581D01*
X0348155Y0363171D01*
X0348442Y0362754D01*
X0348718Y0362330D01*
X0348983Y0361899D01*
X0349238Y0361462D01*
X0349482Y0361018D01*
X0349715Y0360569D01*
X0349937Y0360114D01*
X0350147Y0359654D01*
X0350347Y0359189D01*
X0350535Y0358720D01*
X0350711Y0358245D01*
X0350875Y0357767D01*
X0351028Y0357285D01*
X0351169Y0356799D01*
X0351298Y0356309D01*
X0351415Y0355817D01*
X0351520Y0355322D01*
X0351612Y0354825D01*
X0351693Y0354325D01*
X0351761Y0353824D01*
X0351817Y0353321D01*
X0351860Y0352817D01*
X0351891Y0352312D01*
X0351910Y0351806D01*
X0351916Y0351300D01*
X0351910Y0350794D01*
X0351891Y0350288D01*
X0351860Y0349783D01*
X0351817Y0349279D01*
X0351761Y0348776D01*
X0351693Y0348275D01*
X0351612Y0347775D01*
X0351520Y0347278D01*
X0351415Y0346783D01*
X0351298Y0346291D01*
X0351169Y0345801D01*
X0351028Y0345315D01*
X0350875Y0344833D01*
X0350711Y0344355D01*
X0350535Y0343880D01*
X0350347Y0343411D01*
X0350147Y0342946D01*
X0349937Y0342486D01*
X0349715Y0342031D01*
X0349482Y0341582D01*
X0349238Y0341138D01*
X0348983Y0340701D01*
X0348718Y0340270D01*
X0348442Y0339846D01*
X0348155Y0339429D01*
X0347859Y0339019D01*
X0347553Y0338616D01*
X0347236Y0338221D01*
X0346911Y0337834D01*
X0346575Y0337455D01*
X0346231Y0337084D01*
X0345878Y0336722D01*
X0345516Y0336369D01*
X0345145Y0336025D01*
X0344766Y0335689D01*
X0344379Y0335364D01*
X0343984Y0335047D01*
X0343581Y0334741D01*
X0343171Y0334445D01*
X0342754Y0334158D01*
X0342330Y0333882D01*
X0341899Y0333617D01*
X0341462Y0333362D01*
X0341018Y0333118D01*
X0340569Y0332885D01*
X0340114Y0332663D01*
X0339654Y0332453D01*
X0339189Y0332253D01*
X0338720Y0332065D01*
X0338245Y0331889D01*
X0337767Y0331725D01*
X0337285Y0331572D01*
X0336799Y0331431D01*
X0336309Y0331302D01*
X0335817Y0331185D01*
X0335322Y0331080D01*
X0334825Y0330988D01*
X0334325Y0330907D01*
X0333824Y0330839D01*
X0333321Y0330783D01*
X0332817Y0330740D01*
X0332312Y0330709D01*
X0331806Y0330690D01*
X0331300Y0330684D01*
X0330794Y0330690D01*
X0330288Y0330709D01*
X0329783Y0330740D01*
X0329279Y0330783D01*
X0328776Y0330839D01*
X0328275Y0330907D01*
X0327775Y0330988D01*
X0327278Y0331080D01*
X0326783Y0331185D01*
X0326291Y0331302D01*
X0325801Y0331431D01*
X0325315Y0331572D01*
X0324833Y0331725D01*
X0324355Y0331889D01*
X0323880Y0332065D01*
X0323411Y0332253D01*
X0322946Y0332453D01*
X0322486Y0332663D01*
X0322031Y0332885D01*
X0321582Y0333118D01*
X0321138Y0333362D01*
X0320701Y0333617D01*
X0320270Y0333882D01*
X0319846Y0334158D01*
X0319429Y0334445D01*
X0319019Y0334741D01*
X0318616Y0335047D01*
X0318221Y0335364D01*
X0317834Y0335689D01*
X0317455Y0336025D01*
X0317084Y0336369D01*
X0316722Y0336722D01*
X0316369Y0337084D01*
X0316025Y0337455D01*
X0315689Y0337834D01*
X0315364Y0338221D01*
X0315047Y0338616D01*
X0314741Y0339019D01*
X0314445Y0339429D01*
X0314158Y0339846D01*
X0313882Y0340270D01*
X0313617Y0340701D01*
X0313362Y0341138D01*
X0313118Y0341582D01*
X0312885Y0342031D01*
X0312663Y0342486D01*
X0312453Y0342946D01*
X0312253Y0343411D01*
X0312065Y0343880D01*
X0311889Y0344355D01*
X0311725Y0344833D01*
X0311572Y0345315D01*
X0311431Y0345801D01*
X0311302Y0346291D01*
X0311185Y0346783D01*
X0311080Y0347278D01*
X0310988Y0347775D01*
X0310907Y0348275D01*
X0310839Y0348776D01*
X0310783Y0349279D01*
X0310740Y0349783D01*
X0310709Y0350288D01*
X0310690Y0350794D01*
X0310684Y0351300D01*
X0281300Y0361300D02*
X0271300Y0361300D01*
X0271300Y0351300D01*
X0183800Y0226300D02*
X0181300Y0226300D01*
X0091300Y0111300D02*
X0081300Y0111300D01*
X0071300Y0111300D02*
X0071300Y0351300D01*
X0081300Y0351300D01*
X0081300Y0361300D01*
X0091300Y0361300D01*
X0091300Y0111300D01*
X0053800Y0156300D02*
X0053800Y0263800D01*
X0008800Y0263800D01*
X0008800Y0156300D01*
X0053800Y0156300D01*
X0011300Y0131300D02*
X0011306Y0131791D01*
X0011324Y0132281D01*
X0011354Y0132771D01*
X0011396Y0133260D01*
X0011450Y0133748D01*
X0011516Y0134235D01*
X0011594Y0134719D01*
X0011684Y0135202D01*
X0011786Y0135682D01*
X0011899Y0136160D01*
X0012024Y0136634D01*
X0012161Y0137106D01*
X0012309Y0137574D01*
X0012469Y0138038D01*
X0012640Y0138498D01*
X0012822Y0138954D01*
X0013016Y0139405D01*
X0013220Y0139851D01*
X0013436Y0140292D01*
X0013662Y0140728D01*
X0013898Y0141158D01*
X0014145Y0141582D01*
X0014403Y0142000D01*
X0014671Y0142411D01*
X0014948Y0142816D01*
X0015236Y0143214D01*
X0015533Y0143605D01*
X0015840Y0143988D01*
X0016156Y0144363D01*
X0016481Y0144731D01*
X0016815Y0145091D01*
X0017158Y0145442D01*
X0017509Y0145785D01*
X0017869Y0146119D01*
X0018237Y0146444D01*
X0018612Y0146760D01*
X0018995Y0147067D01*
X0019386Y0147364D01*
X0019784Y0147652D01*
X0020189Y0147929D01*
X0020600Y0148197D01*
X0021018Y0148455D01*
X0021442Y0148702D01*
X0021872Y0148938D01*
X0022308Y0149164D01*
X0022749Y0149380D01*
X0023195Y0149584D01*
X0023646Y0149778D01*
X0024102Y0149960D01*
X0024562Y0150131D01*
X0025026Y0150291D01*
X0025494Y0150439D01*
X0025966Y0150576D01*
X0026440Y0150701D01*
X0026918Y0150814D01*
X0027398Y0150916D01*
X0027881Y0151006D01*
X0028365Y0151084D01*
X0028852Y0151150D01*
X0029340Y0151204D01*
X0029829Y0151246D01*
X0030319Y0151276D01*
X0030809Y0151294D01*
X0031300Y0151300D01*
X0031791Y0151294D01*
X0032281Y0151276D01*
X0032771Y0151246D01*
X0033260Y0151204D01*
X0033748Y0151150D01*
X0034235Y0151084D01*
X0034719Y0151006D01*
X0035202Y0150916D01*
X0035682Y0150814D01*
X0036160Y0150701D01*
X0036634Y0150576D01*
X0037106Y0150439D01*
X0037574Y0150291D01*
X0038038Y0150131D01*
X0038498Y0149960D01*
X0038954Y0149778D01*
X0039405Y0149584D01*
X0039851Y0149380D01*
X0040292Y0149164D01*
X0040728Y0148938D01*
X0041158Y0148702D01*
X0041582Y0148455D01*
X0042000Y0148197D01*
X0042411Y0147929D01*
X0042816Y0147652D01*
X0043214Y0147364D01*
X0043605Y0147067D01*
X0043988Y0146760D01*
X0044363Y0146444D01*
X0044731Y0146119D01*
X0045091Y0145785D01*
X0045442Y0145442D01*
X0045785Y0145091D01*
X0046119Y0144731D01*
X0046444Y0144363D01*
X0046760Y0143988D01*
X0047067Y0143605D01*
X0047364Y0143214D01*
X0047652Y0142816D01*
X0047929Y0142411D01*
X0048197Y0142000D01*
X0048455Y0141582D01*
X0048702Y0141158D01*
X0048938Y0140728D01*
X0049164Y0140292D01*
X0049380Y0139851D01*
X0049584Y0139405D01*
X0049778Y0138954D01*
X0049960Y0138498D01*
X0050131Y0138038D01*
X0050291Y0137574D01*
X0050439Y0137106D01*
X0050576Y0136634D01*
X0050701Y0136160D01*
X0050814Y0135682D01*
X0050916Y0135202D01*
X0051006Y0134719D01*
X0051084Y0134235D01*
X0051150Y0133748D01*
X0051204Y0133260D01*
X0051246Y0132771D01*
X0051276Y0132281D01*
X0051294Y0131791D01*
X0051300Y0131300D01*
X0051294Y0130809D01*
X0051276Y0130319D01*
X0051246Y0129829D01*
X0051204Y0129340D01*
X0051150Y0128852D01*
X0051084Y0128365D01*
X0051006Y0127881D01*
X0050916Y0127398D01*
X0050814Y0126918D01*
X0050701Y0126440D01*
X0050576Y0125966D01*
X0050439Y0125494D01*
X0050291Y0125026D01*
X0050131Y0124562D01*
X0049960Y0124102D01*
X0049778Y0123646D01*
X0049584Y0123195D01*
X0049380Y0122749D01*
X0049164Y0122308D01*
X0048938Y0121872D01*
X0048702Y0121442D01*
X0048455Y0121018D01*
X0048197Y0120600D01*
X0047929Y0120189D01*
X0047652Y0119784D01*
X0047364Y0119386D01*
X0047067Y0118995D01*
X0046760Y0118612D01*
X0046444Y0118237D01*
X0046119Y0117869D01*
X0045785Y0117509D01*
X0045442Y0117158D01*
X0045091Y0116815D01*
X0044731Y0116481D01*
X0044363Y0116156D01*
X0043988Y0115840D01*
X0043605Y0115533D01*
X0043214Y0115236D01*
X0042816Y0114948D01*
X0042411Y0114671D01*
X0042000Y0114403D01*
X0041582Y0114145D01*
X0041158Y0113898D01*
X0040728Y0113662D01*
X0040292Y0113436D01*
X0039851Y0113220D01*
X0039405Y0113016D01*
X0038954Y0112822D01*
X0038498Y0112640D01*
X0038038Y0112469D01*
X0037574Y0112309D01*
X0037106Y0112161D01*
X0036634Y0112024D01*
X0036160Y0111899D01*
X0035682Y0111786D01*
X0035202Y0111684D01*
X0034719Y0111594D01*
X0034235Y0111516D01*
X0033748Y0111450D01*
X0033260Y0111396D01*
X0032771Y0111354D01*
X0032281Y0111324D01*
X0031791Y0111306D01*
X0031300Y0111300D01*
X0030809Y0111306D01*
X0030319Y0111324D01*
X0029829Y0111354D01*
X0029340Y0111396D01*
X0028852Y0111450D01*
X0028365Y0111516D01*
X0027881Y0111594D01*
X0027398Y0111684D01*
X0026918Y0111786D01*
X0026440Y0111899D01*
X0025966Y0112024D01*
X0025494Y0112161D01*
X0025026Y0112309D01*
X0024562Y0112469D01*
X0024102Y0112640D01*
X0023646Y0112822D01*
X0023195Y0113016D01*
X0022749Y0113220D01*
X0022308Y0113436D01*
X0021872Y0113662D01*
X0021442Y0113898D01*
X0021018Y0114145D01*
X0020600Y0114403D01*
X0020189Y0114671D01*
X0019784Y0114948D01*
X0019386Y0115236D01*
X0018995Y0115533D01*
X0018612Y0115840D01*
X0018237Y0116156D01*
X0017869Y0116481D01*
X0017509Y0116815D01*
X0017158Y0117158D01*
X0016815Y0117509D01*
X0016481Y0117869D01*
X0016156Y0118237D01*
X0015840Y0118612D01*
X0015533Y0118995D01*
X0015236Y0119386D01*
X0014948Y0119784D01*
X0014671Y0120189D01*
X0014403Y0120600D01*
X0014145Y0121018D01*
X0013898Y0121442D01*
X0013662Y0121872D01*
X0013436Y0122308D01*
X0013220Y0122749D01*
X0013016Y0123195D01*
X0012822Y0123646D01*
X0012640Y0124102D01*
X0012469Y0124562D01*
X0012309Y0125026D01*
X0012161Y0125494D01*
X0012024Y0125966D01*
X0011899Y0126440D01*
X0011786Y0126918D01*
X0011684Y0127398D01*
X0011594Y0127881D01*
X0011516Y0128365D01*
X0011450Y0128852D01*
X0011396Y0129340D01*
X0011354Y0129829D01*
X0011324Y0130319D01*
X0011306Y0130809D01*
X0011300Y0131300D01*
X0010684Y0186300D02*
X0010690Y0186806D01*
X0010709Y0187312D01*
X0010740Y0187817D01*
X0010783Y0188321D01*
X0010839Y0188824D01*
X0010907Y0189325D01*
X0010988Y0189825D01*
X0011080Y0190322D01*
X0011185Y0190817D01*
X0011302Y0191309D01*
X0011431Y0191799D01*
X0011572Y0192285D01*
X0011725Y0192767D01*
X0011889Y0193245D01*
X0012065Y0193720D01*
X0012253Y0194189D01*
X0012453Y0194654D01*
X0012663Y0195114D01*
X0012885Y0195569D01*
X0013118Y0196018D01*
X0013362Y0196462D01*
X0013617Y0196899D01*
X0013882Y0197330D01*
X0014158Y0197754D01*
X0014445Y0198171D01*
X0014741Y0198581D01*
X0015047Y0198984D01*
X0015364Y0199379D01*
X0015689Y0199766D01*
X0016025Y0200145D01*
X0016369Y0200516D01*
X0016722Y0200878D01*
X0017084Y0201231D01*
X0017455Y0201575D01*
X0017834Y0201911D01*
X0018221Y0202236D01*
X0018616Y0202553D01*
X0019019Y0202859D01*
X0019429Y0203155D01*
X0019846Y0203442D01*
X0020270Y0203718D01*
X0020701Y0203983D01*
X0021138Y0204238D01*
X0021582Y0204482D01*
X0022031Y0204715D01*
X0022486Y0204937D01*
X0022946Y0205147D01*
X0023411Y0205347D01*
X0023880Y0205535D01*
X0024355Y0205711D01*
X0024833Y0205875D01*
X0025315Y0206028D01*
X0025801Y0206169D01*
X0026291Y0206298D01*
X0026783Y0206415D01*
X0027278Y0206520D01*
X0027775Y0206612D01*
X0028275Y0206693D01*
X0028776Y0206761D01*
X0029279Y0206817D01*
X0029783Y0206860D01*
X0030288Y0206891D01*
X0030794Y0206910D01*
X0031300Y0206916D01*
X0031806Y0206910D01*
X0032312Y0206891D01*
X0032817Y0206860D01*
X0033321Y0206817D01*
X0033824Y0206761D01*
X0034325Y0206693D01*
X0034825Y0206612D01*
X0035322Y0206520D01*
X0035817Y0206415D01*
X0036309Y0206298D01*
X0036799Y0206169D01*
X0037285Y0206028D01*
X0037767Y0205875D01*
X0038245Y0205711D01*
X0038720Y0205535D01*
X0039189Y0205347D01*
X0039654Y0205147D01*
X0040114Y0204937D01*
X0040569Y0204715D01*
X0041018Y0204482D01*
X0041462Y0204238D01*
X0041899Y0203983D01*
X0042330Y0203718D01*
X0042754Y0203442D01*
X0043171Y0203155D01*
X0043581Y0202859D01*
X0043984Y0202553D01*
X0044379Y0202236D01*
X0044766Y0201911D01*
X0045145Y0201575D01*
X0045516Y0201231D01*
X0045878Y0200878D01*
X0046231Y0200516D01*
X0046575Y0200145D01*
X0046911Y0199766D01*
X0047236Y0199379D01*
X0047553Y0198984D01*
X0047859Y0198581D01*
X0048155Y0198171D01*
X0048442Y0197754D01*
X0048718Y0197330D01*
X0048983Y0196899D01*
X0049238Y0196462D01*
X0049482Y0196018D01*
X0049715Y0195569D01*
X0049937Y0195114D01*
X0050147Y0194654D01*
X0050347Y0194189D01*
X0050535Y0193720D01*
X0050711Y0193245D01*
X0050875Y0192767D01*
X0051028Y0192285D01*
X0051169Y0191799D01*
X0051298Y0191309D01*
X0051415Y0190817D01*
X0051520Y0190322D01*
X0051612Y0189825D01*
X0051693Y0189325D01*
X0051761Y0188824D01*
X0051817Y0188321D01*
X0051860Y0187817D01*
X0051891Y0187312D01*
X0051910Y0186806D01*
X0051916Y0186300D01*
X0051910Y0185794D01*
X0051891Y0185288D01*
X0051860Y0184783D01*
X0051817Y0184279D01*
X0051761Y0183776D01*
X0051693Y0183275D01*
X0051612Y0182775D01*
X0051520Y0182278D01*
X0051415Y0181783D01*
X0051298Y0181291D01*
X0051169Y0180801D01*
X0051028Y0180315D01*
X0050875Y0179833D01*
X0050711Y0179355D01*
X0050535Y0178880D01*
X0050347Y0178411D01*
X0050147Y0177946D01*
X0049937Y0177486D01*
X0049715Y0177031D01*
X0049482Y0176582D01*
X0049238Y0176138D01*
X0048983Y0175701D01*
X0048718Y0175270D01*
X0048442Y0174846D01*
X0048155Y0174429D01*
X0047859Y0174019D01*
X0047553Y0173616D01*
X0047236Y0173221D01*
X0046911Y0172834D01*
X0046575Y0172455D01*
X0046231Y0172084D01*
X0045878Y0171722D01*
X0045516Y0171369D01*
X0045145Y0171025D01*
X0044766Y0170689D01*
X0044379Y0170364D01*
X0043984Y0170047D01*
X0043581Y0169741D01*
X0043171Y0169445D01*
X0042754Y0169158D01*
X0042330Y0168882D01*
X0041899Y0168617D01*
X0041462Y0168362D01*
X0041018Y0168118D01*
X0040569Y0167885D01*
X0040114Y0167663D01*
X0039654Y0167453D01*
X0039189Y0167253D01*
X0038720Y0167065D01*
X0038245Y0166889D01*
X0037767Y0166725D01*
X0037285Y0166572D01*
X0036799Y0166431D01*
X0036309Y0166302D01*
X0035817Y0166185D01*
X0035322Y0166080D01*
X0034825Y0165988D01*
X0034325Y0165907D01*
X0033824Y0165839D01*
X0033321Y0165783D01*
X0032817Y0165740D01*
X0032312Y0165709D01*
X0031806Y0165690D01*
X0031300Y0165684D01*
X0030794Y0165690D01*
X0030288Y0165709D01*
X0029783Y0165740D01*
X0029279Y0165783D01*
X0028776Y0165839D01*
X0028275Y0165907D01*
X0027775Y0165988D01*
X0027278Y0166080D01*
X0026783Y0166185D01*
X0026291Y0166302D01*
X0025801Y0166431D01*
X0025315Y0166572D01*
X0024833Y0166725D01*
X0024355Y0166889D01*
X0023880Y0167065D01*
X0023411Y0167253D01*
X0022946Y0167453D01*
X0022486Y0167663D01*
X0022031Y0167885D01*
X0021582Y0168118D01*
X0021138Y0168362D01*
X0020701Y0168617D01*
X0020270Y0168882D01*
X0019846Y0169158D01*
X0019429Y0169445D01*
X0019019Y0169741D01*
X0018616Y0170047D01*
X0018221Y0170364D01*
X0017834Y0170689D01*
X0017455Y0171025D01*
X0017084Y0171369D01*
X0016722Y0171722D01*
X0016369Y0172084D01*
X0016025Y0172455D01*
X0015689Y0172834D01*
X0015364Y0173221D01*
X0015047Y0173616D01*
X0014741Y0174019D01*
X0014445Y0174429D01*
X0014158Y0174846D01*
X0013882Y0175270D01*
X0013617Y0175701D01*
X0013362Y0176138D01*
X0013118Y0176582D01*
X0012885Y0177031D01*
X0012663Y0177486D01*
X0012453Y0177946D01*
X0012253Y0178411D01*
X0012065Y0178880D01*
X0011889Y0179355D01*
X0011725Y0179833D01*
X0011572Y0180315D01*
X0011431Y0180801D01*
X0011302Y0181291D01*
X0011185Y0181783D01*
X0011080Y0182278D01*
X0010988Y0182775D01*
X0010907Y0183275D01*
X0010839Y0183776D01*
X0010783Y0184279D01*
X0010740Y0184783D01*
X0010709Y0185288D01*
X0010690Y0185794D01*
X0010684Y0186300D01*
X0011300Y0241300D02*
X0011306Y0241791D01*
X0011324Y0242281D01*
X0011354Y0242771D01*
X0011396Y0243260D01*
X0011450Y0243748D01*
X0011516Y0244235D01*
X0011594Y0244719D01*
X0011684Y0245202D01*
X0011786Y0245682D01*
X0011899Y0246160D01*
X0012024Y0246634D01*
X0012161Y0247106D01*
X0012309Y0247574D01*
X0012469Y0248038D01*
X0012640Y0248498D01*
X0012822Y0248954D01*
X0013016Y0249405D01*
X0013220Y0249851D01*
X0013436Y0250292D01*
X0013662Y0250728D01*
X0013898Y0251158D01*
X0014145Y0251582D01*
X0014403Y0252000D01*
X0014671Y0252411D01*
X0014948Y0252816D01*
X0015236Y0253214D01*
X0015533Y0253605D01*
X0015840Y0253988D01*
X0016156Y0254363D01*
X0016481Y0254731D01*
X0016815Y0255091D01*
X0017158Y0255442D01*
X0017509Y0255785D01*
X0017869Y0256119D01*
X0018237Y0256444D01*
X0018612Y0256760D01*
X0018995Y0257067D01*
X0019386Y0257364D01*
X0019784Y0257652D01*
X0020189Y0257929D01*
X0020600Y0258197D01*
X0021018Y0258455D01*
X0021442Y0258702D01*
X0021872Y0258938D01*
X0022308Y0259164D01*
X0022749Y0259380D01*
X0023195Y0259584D01*
X0023646Y0259778D01*
X0024102Y0259960D01*
X0024562Y0260131D01*
X0025026Y0260291D01*
X0025494Y0260439D01*
X0025966Y0260576D01*
X0026440Y0260701D01*
X0026918Y0260814D01*
X0027398Y0260916D01*
X0027881Y0261006D01*
X0028365Y0261084D01*
X0028852Y0261150D01*
X0029340Y0261204D01*
X0029829Y0261246D01*
X0030319Y0261276D01*
X0030809Y0261294D01*
X0031300Y0261300D01*
X0031791Y0261294D01*
X0032281Y0261276D01*
X0032771Y0261246D01*
X0033260Y0261204D01*
X0033748Y0261150D01*
X0034235Y0261084D01*
X0034719Y0261006D01*
X0035202Y0260916D01*
X0035682Y0260814D01*
X0036160Y0260701D01*
X0036634Y0260576D01*
X0037106Y0260439D01*
X0037574Y0260291D01*
X0038038Y0260131D01*
X0038498Y0259960D01*
X0038954Y0259778D01*
X0039405Y0259584D01*
X0039851Y0259380D01*
X0040292Y0259164D01*
X0040728Y0258938D01*
X0041158Y0258702D01*
X0041582Y0258455D01*
X0042000Y0258197D01*
X0042411Y0257929D01*
X0042816Y0257652D01*
X0043214Y0257364D01*
X0043605Y0257067D01*
X0043988Y0256760D01*
X0044363Y0256444D01*
X0044731Y0256119D01*
X0045091Y0255785D01*
X0045442Y0255442D01*
X0045785Y0255091D01*
X0046119Y0254731D01*
X0046444Y0254363D01*
X0046760Y0253988D01*
X0047067Y0253605D01*
X0047364Y0253214D01*
X0047652Y0252816D01*
X0047929Y0252411D01*
X0048197Y0252000D01*
X0048455Y0251582D01*
X0048702Y0251158D01*
X0048938Y0250728D01*
X0049164Y0250292D01*
X0049380Y0249851D01*
X0049584Y0249405D01*
X0049778Y0248954D01*
X0049960Y0248498D01*
X0050131Y0248038D01*
X0050291Y0247574D01*
X0050439Y0247106D01*
X0050576Y0246634D01*
X0050701Y0246160D01*
X0050814Y0245682D01*
X0050916Y0245202D01*
X0051006Y0244719D01*
X0051084Y0244235D01*
X0051150Y0243748D01*
X0051204Y0243260D01*
X0051246Y0242771D01*
X0051276Y0242281D01*
X0051294Y0241791D01*
X0051300Y0241300D01*
X0051294Y0240809D01*
X0051276Y0240319D01*
X0051246Y0239829D01*
X0051204Y0239340D01*
X0051150Y0238852D01*
X0051084Y0238365D01*
X0051006Y0237881D01*
X0050916Y0237398D01*
X0050814Y0236918D01*
X0050701Y0236440D01*
X0050576Y0235966D01*
X0050439Y0235494D01*
X0050291Y0235026D01*
X0050131Y0234562D01*
X0049960Y0234102D01*
X0049778Y0233646D01*
X0049584Y0233195D01*
X0049380Y0232749D01*
X0049164Y0232308D01*
X0048938Y0231872D01*
X0048702Y0231442D01*
X0048455Y0231018D01*
X0048197Y0230600D01*
X0047929Y0230189D01*
X0047652Y0229784D01*
X0047364Y0229386D01*
X0047067Y0228995D01*
X0046760Y0228612D01*
X0046444Y0228237D01*
X0046119Y0227869D01*
X0045785Y0227509D01*
X0045442Y0227158D01*
X0045091Y0226815D01*
X0044731Y0226481D01*
X0044363Y0226156D01*
X0043988Y0225840D01*
X0043605Y0225533D01*
X0043214Y0225236D01*
X0042816Y0224948D01*
X0042411Y0224671D01*
X0042000Y0224403D01*
X0041582Y0224145D01*
X0041158Y0223898D01*
X0040728Y0223662D01*
X0040292Y0223436D01*
X0039851Y0223220D01*
X0039405Y0223016D01*
X0038954Y0222822D01*
X0038498Y0222640D01*
X0038038Y0222469D01*
X0037574Y0222309D01*
X0037106Y0222161D01*
X0036634Y0222024D01*
X0036160Y0221899D01*
X0035682Y0221786D01*
X0035202Y0221684D01*
X0034719Y0221594D01*
X0034235Y0221516D01*
X0033748Y0221450D01*
X0033260Y0221396D01*
X0032771Y0221354D01*
X0032281Y0221324D01*
X0031791Y0221306D01*
X0031300Y0221300D01*
X0030809Y0221306D01*
X0030319Y0221324D01*
X0029829Y0221354D01*
X0029340Y0221396D01*
X0028852Y0221450D01*
X0028365Y0221516D01*
X0027881Y0221594D01*
X0027398Y0221684D01*
X0026918Y0221786D01*
X0026440Y0221899D01*
X0025966Y0222024D01*
X0025494Y0222161D01*
X0025026Y0222309D01*
X0024562Y0222469D01*
X0024102Y0222640D01*
X0023646Y0222822D01*
X0023195Y0223016D01*
X0022749Y0223220D01*
X0022308Y0223436D01*
X0021872Y0223662D01*
X0021442Y0223898D01*
X0021018Y0224145D01*
X0020600Y0224403D01*
X0020189Y0224671D01*
X0019784Y0224948D01*
X0019386Y0225236D01*
X0018995Y0225533D01*
X0018612Y0225840D01*
X0018237Y0226156D01*
X0017869Y0226481D01*
X0017509Y0226815D01*
X0017158Y0227158D01*
X0016815Y0227509D01*
X0016481Y0227869D01*
X0016156Y0228237D01*
X0015840Y0228612D01*
X0015533Y0228995D01*
X0015236Y0229386D01*
X0014948Y0229784D01*
X0014671Y0230189D01*
X0014403Y0230600D01*
X0014145Y0231018D01*
X0013898Y0231442D01*
X0013662Y0231872D01*
X0013436Y0232308D01*
X0013220Y0232749D01*
X0013016Y0233195D01*
X0012822Y0233646D01*
X0012640Y0234102D01*
X0012469Y0234562D01*
X0012309Y0235026D01*
X0012161Y0235494D01*
X0012024Y0235966D01*
X0011899Y0236440D01*
X0011786Y0236918D01*
X0011684Y0237398D01*
X0011594Y0237881D01*
X0011516Y0238365D01*
X0011450Y0238852D01*
X0011396Y0239340D01*
X0011354Y0239829D01*
X0011324Y0240319D01*
X0011306Y0240809D01*
X0011300Y0241300D01*
X0008800Y0266300D02*
X0008800Y0373800D01*
X0053800Y0373800D01*
X0053800Y0266300D01*
X0008800Y0266300D01*
X0010684Y0296300D02*
X0010690Y0296806D01*
X0010709Y0297312D01*
X0010740Y0297817D01*
X0010783Y0298321D01*
X0010839Y0298824D01*
X0010907Y0299325D01*
X0010988Y0299825D01*
X0011080Y0300322D01*
X0011185Y0300817D01*
X0011302Y0301309D01*
X0011431Y0301799D01*
X0011572Y0302285D01*
X0011725Y0302767D01*
X0011889Y0303245D01*
X0012065Y0303720D01*
X0012253Y0304189D01*
X0012453Y0304654D01*
X0012663Y0305114D01*
X0012885Y0305569D01*
X0013118Y0306018D01*
X0013362Y0306462D01*
X0013617Y0306899D01*
X0013882Y0307330D01*
X0014158Y0307754D01*
X0014445Y0308171D01*
X0014741Y0308581D01*
X0015047Y0308984D01*
X0015364Y0309379D01*
X0015689Y0309766D01*
X0016025Y0310145D01*
X0016369Y0310516D01*
X0016722Y0310878D01*
X0017084Y0311231D01*
X0017455Y0311575D01*
X0017834Y0311911D01*
X0018221Y0312236D01*
X0018616Y0312553D01*
X0019019Y0312859D01*
X0019429Y0313155D01*
X0019846Y0313442D01*
X0020270Y0313718D01*
X0020701Y0313983D01*
X0021138Y0314238D01*
X0021582Y0314482D01*
X0022031Y0314715D01*
X0022486Y0314937D01*
X0022946Y0315147D01*
X0023411Y0315347D01*
X0023880Y0315535D01*
X0024355Y0315711D01*
X0024833Y0315875D01*
X0025315Y0316028D01*
X0025801Y0316169D01*
X0026291Y0316298D01*
X0026783Y0316415D01*
X0027278Y0316520D01*
X0027775Y0316612D01*
X0028275Y0316693D01*
X0028776Y0316761D01*
X0029279Y0316817D01*
X0029783Y0316860D01*
X0030288Y0316891D01*
X0030794Y0316910D01*
X0031300Y0316916D01*
X0031806Y0316910D01*
X0032312Y0316891D01*
X0032817Y0316860D01*
X0033321Y0316817D01*
X0033824Y0316761D01*
X0034325Y0316693D01*
X0034825Y0316612D01*
X0035322Y0316520D01*
X0035817Y0316415D01*
X0036309Y0316298D01*
X0036799Y0316169D01*
X0037285Y0316028D01*
X0037767Y0315875D01*
X0038245Y0315711D01*
X0038720Y0315535D01*
X0039189Y0315347D01*
X0039654Y0315147D01*
X0040114Y0314937D01*
X0040569Y0314715D01*
X0041018Y0314482D01*
X0041462Y0314238D01*
X0041899Y0313983D01*
X0042330Y0313718D01*
X0042754Y0313442D01*
X0043171Y0313155D01*
X0043581Y0312859D01*
X0043984Y0312553D01*
X0044379Y0312236D01*
X0044766Y0311911D01*
X0045145Y0311575D01*
X0045516Y0311231D01*
X0045878Y0310878D01*
X0046231Y0310516D01*
X0046575Y0310145D01*
X0046911Y0309766D01*
X0047236Y0309379D01*
X0047553Y0308984D01*
X0047859Y0308581D01*
X0048155Y0308171D01*
X0048442Y0307754D01*
X0048718Y0307330D01*
X0048983Y0306899D01*
X0049238Y0306462D01*
X0049482Y0306018D01*
X0049715Y0305569D01*
X0049937Y0305114D01*
X0050147Y0304654D01*
X0050347Y0304189D01*
X0050535Y0303720D01*
X0050711Y0303245D01*
X0050875Y0302767D01*
X0051028Y0302285D01*
X0051169Y0301799D01*
X0051298Y0301309D01*
X0051415Y0300817D01*
X0051520Y0300322D01*
X0051612Y0299825D01*
X0051693Y0299325D01*
X0051761Y0298824D01*
X0051817Y0298321D01*
X0051860Y0297817D01*
X0051891Y0297312D01*
X0051910Y0296806D01*
X0051916Y0296300D01*
X0051910Y0295794D01*
X0051891Y0295288D01*
X0051860Y0294783D01*
X0051817Y0294279D01*
X0051761Y0293776D01*
X0051693Y0293275D01*
X0051612Y0292775D01*
X0051520Y0292278D01*
X0051415Y0291783D01*
X0051298Y0291291D01*
X0051169Y0290801D01*
X0051028Y0290315D01*
X0050875Y0289833D01*
X0050711Y0289355D01*
X0050535Y0288880D01*
X0050347Y0288411D01*
X0050147Y0287946D01*
X0049937Y0287486D01*
X0049715Y0287031D01*
X0049482Y0286582D01*
X0049238Y0286138D01*
X0048983Y0285701D01*
X0048718Y0285270D01*
X0048442Y0284846D01*
X0048155Y0284429D01*
X0047859Y0284019D01*
X0047553Y0283616D01*
X0047236Y0283221D01*
X0046911Y0282834D01*
X0046575Y0282455D01*
X0046231Y0282084D01*
X0045878Y0281722D01*
X0045516Y0281369D01*
X0045145Y0281025D01*
X0044766Y0280689D01*
X0044379Y0280364D01*
X0043984Y0280047D01*
X0043581Y0279741D01*
X0043171Y0279445D01*
X0042754Y0279158D01*
X0042330Y0278882D01*
X0041899Y0278617D01*
X0041462Y0278362D01*
X0041018Y0278118D01*
X0040569Y0277885D01*
X0040114Y0277663D01*
X0039654Y0277453D01*
X0039189Y0277253D01*
X0038720Y0277065D01*
X0038245Y0276889D01*
X0037767Y0276725D01*
X0037285Y0276572D01*
X0036799Y0276431D01*
X0036309Y0276302D01*
X0035817Y0276185D01*
X0035322Y0276080D01*
X0034825Y0275988D01*
X0034325Y0275907D01*
X0033824Y0275839D01*
X0033321Y0275783D01*
X0032817Y0275740D01*
X0032312Y0275709D01*
X0031806Y0275690D01*
X0031300Y0275684D01*
X0030794Y0275690D01*
X0030288Y0275709D01*
X0029783Y0275740D01*
X0029279Y0275783D01*
X0028776Y0275839D01*
X0028275Y0275907D01*
X0027775Y0275988D01*
X0027278Y0276080D01*
X0026783Y0276185D01*
X0026291Y0276302D01*
X0025801Y0276431D01*
X0025315Y0276572D01*
X0024833Y0276725D01*
X0024355Y0276889D01*
X0023880Y0277065D01*
X0023411Y0277253D01*
X0022946Y0277453D01*
X0022486Y0277663D01*
X0022031Y0277885D01*
X0021582Y0278118D01*
X0021138Y0278362D01*
X0020701Y0278617D01*
X0020270Y0278882D01*
X0019846Y0279158D01*
X0019429Y0279445D01*
X0019019Y0279741D01*
X0018616Y0280047D01*
X0018221Y0280364D01*
X0017834Y0280689D01*
X0017455Y0281025D01*
X0017084Y0281369D01*
X0016722Y0281722D01*
X0016369Y0282084D01*
X0016025Y0282455D01*
X0015689Y0282834D01*
X0015364Y0283221D01*
X0015047Y0283616D01*
X0014741Y0284019D01*
X0014445Y0284429D01*
X0014158Y0284846D01*
X0013882Y0285270D01*
X0013617Y0285701D01*
X0013362Y0286138D01*
X0013118Y0286582D01*
X0012885Y0287031D01*
X0012663Y0287486D01*
X0012453Y0287946D01*
X0012253Y0288411D01*
X0012065Y0288880D01*
X0011889Y0289355D01*
X0011725Y0289833D01*
X0011572Y0290315D01*
X0011431Y0290801D01*
X0011302Y0291291D01*
X0011185Y0291783D01*
X0011080Y0292278D01*
X0010988Y0292775D01*
X0010907Y0293275D01*
X0010839Y0293776D01*
X0010783Y0294279D01*
X0010740Y0294783D01*
X0010709Y0295288D01*
X0010690Y0295794D01*
X0010684Y0296300D01*
X0010684Y0351300D02*
X0010690Y0351806D01*
X0010709Y0352312D01*
X0010740Y0352817D01*
X0010783Y0353321D01*
X0010839Y0353824D01*
X0010907Y0354325D01*
X0010988Y0354825D01*
X0011080Y0355322D01*
X0011185Y0355817D01*
X0011302Y0356309D01*
X0011431Y0356799D01*
X0011572Y0357285D01*
X0011725Y0357767D01*
X0011889Y0358245D01*
X0012065Y0358720D01*
X0012253Y0359189D01*
X0012453Y0359654D01*
X0012663Y0360114D01*
X0012885Y0360569D01*
X0013118Y0361018D01*
X0013362Y0361462D01*
X0013617Y0361899D01*
X0013882Y0362330D01*
X0014158Y0362754D01*
X0014445Y0363171D01*
X0014741Y0363581D01*
X0015047Y0363984D01*
X0015364Y0364379D01*
X0015689Y0364766D01*
X0016025Y0365145D01*
X0016369Y0365516D01*
X0016722Y0365878D01*
X0017084Y0366231D01*
X0017455Y0366575D01*
X0017834Y0366911D01*
X0018221Y0367236D01*
X0018616Y0367553D01*
X0019019Y0367859D01*
X0019429Y0368155D01*
X0019846Y0368442D01*
X0020270Y0368718D01*
X0020701Y0368983D01*
X0021138Y0369238D01*
X0021582Y0369482D01*
X0022031Y0369715D01*
X0022486Y0369937D01*
X0022946Y0370147D01*
X0023411Y0370347D01*
X0023880Y0370535D01*
X0024355Y0370711D01*
X0024833Y0370875D01*
X0025315Y0371028D01*
X0025801Y0371169D01*
X0026291Y0371298D01*
X0026783Y0371415D01*
X0027278Y0371520D01*
X0027775Y0371612D01*
X0028275Y0371693D01*
X0028776Y0371761D01*
X0029279Y0371817D01*
X0029783Y0371860D01*
X0030288Y0371891D01*
X0030794Y0371910D01*
X0031300Y0371916D01*
X0031806Y0371910D01*
X0032312Y0371891D01*
X0032817Y0371860D01*
X0033321Y0371817D01*
X0033824Y0371761D01*
X0034325Y0371693D01*
X0034825Y0371612D01*
X0035322Y0371520D01*
X0035817Y0371415D01*
X0036309Y0371298D01*
X0036799Y0371169D01*
X0037285Y0371028D01*
X0037767Y0370875D01*
X0038245Y0370711D01*
X0038720Y0370535D01*
X0039189Y0370347D01*
X0039654Y0370147D01*
X0040114Y0369937D01*
X0040569Y0369715D01*
X0041018Y0369482D01*
X0041462Y0369238D01*
X0041899Y0368983D01*
X0042330Y0368718D01*
X0042754Y0368442D01*
X0043171Y0368155D01*
X0043581Y0367859D01*
X0043984Y0367553D01*
X0044379Y0367236D01*
X0044766Y0366911D01*
X0045145Y0366575D01*
X0045516Y0366231D01*
X0045878Y0365878D01*
X0046231Y0365516D01*
X0046575Y0365145D01*
X0046911Y0364766D01*
X0047236Y0364379D01*
X0047553Y0363984D01*
X0047859Y0363581D01*
X0048155Y0363171D01*
X0048442Y0362754D01*
X0048718Y0362330D01*
X0048983Y0361899D01*
X0049238Y0361462D01*
X0049482Y0361018D01*
X0049715Y0360569D01*
X0049937Y0360114D01*
X0050147Y0359654D01*
X0050347Y0359189D01*
X0050535Y0358720D01*
X0050711Y0358245D01*
X0050875Y0357767D01*
X0051028Y0357285D01*
X0051169Y0356799D01*
X0051298Y0356309D01*
X0051415Y0355817D01*
X0051520Y0355322D01*
X0051612Y0354825D01*
X0051693Y0354325D01*
X0051761Y0353824D01*
X0051817Y0353321D01*
X0051860Y0352817D01*
X0051891Y0352312D01*
X0051910Y0351806D01*
X0051916Y0351300D01*
X0051910Y0350794D01*
X0051891Y0350288D01*
X0051860Y0349783D01*
X0051817Y0349279D01*
X0051761Y0348776D01*
X0051693Y0348275D01*
X0051612Y0347775D01*
X0051520Y0347278D01*
X0051415Y0346783D01*
X0051298Y0346291D01*
X0051169Y0345801D01*
X0051028Y0345315D01*
X0050875Y0344833D01*
X0050711Y0344355D01*
X0050535Y0343880D01*
X0050347Y0343411D01*
X0050147Y0342946D01*
X0049937Y0342486D01*
X0049715Y0342031D01*
X0049482Y0341582D01*
X0049238Y0341138D01*
X0048983Y0340701D01*
X0048718Y0340270D01*
X0048442Y0339846D01*
X0048155Y0339429D01*
X0047859Y0339019D01*
X0047553Y0338616D01*
X0047236Y0338221D01*
X0046911Y0337834D01*
X0046575Y0337455D01*
X0046231Y0337084D01*
X0045878Y0336722D01*
X0045516Y0336369D01*
X0045145Y0336025D01*
X0044766Y0335689D01*
X0044379Y0335364D01*
X0043984Y0335047D01*
X0043581Y0334741D01*
X0043171Y0334445D01*
X0042754Y0334158D01*
X0042330Y0333882D01*
X0041899Y0333617D01*
X0041462Y0333362D01*
X0041018Y0333118D01*
X0040569Y0332885D01*
X0040114Y0332663D01*
X0039654Y0332453D01*
X0039189Y0332253D01*
X0038720Y0332065D01*
X0038245Y0331889D01*
X0037767Y0331725D01*
X0037285Y0331572D01*
X0036799Y0331431D01*
X0036309Y0331302D01*
X0035817Y0331185D01*
X0035322Y0331080D01*
X0034825Y0330988D01*
X0034325Y0330907D01*
X0033824Y0330839D01*
X0033321Y0330783D01*
X0032817Y0330740D01*
X0032312Y0330709D01*
X0031806Y0330690D01*
X0031300Y0330684D01*
X0030794Y0330690D01*
X0030288Y0330709D01*
X0029783Y0330740D01*
X0029279Y0330783D01*
X0028776Y0330839D01*
X0028275Y0330907D01*
X0027775Y0330988D01*
X0027278Y0331080D01*
X0026783Y0331185D01*
X0026291Y0331302D01*
X0025801Y0331431D01*
X0025315Y0331572D01*
X0024833Y0331725D01*
X0024355Y0331889D01*
X0023880Y0332065D01*
X0023411Y0332253D01*
X0022946Y0332453D01*
X0022486Y0332663D01*
X0022031Y0332885D01*
X0021582Y0333118D01*
X0021138Y0333362D01*
X0020701Y0333617D01*
X0020270Y0333882D01*
X0019846Y0334158D01*
X0019429Y0334445D01*
X0019019Y0334741D01*
X0018616Y0335047D01*
X0018221Y0335364D01*
X0017834Y0335689D01*
X0017455Y0336025D01*
X0017084Y0336369D01*
X0016722Y0336722D01*
X0016369Y0337084D01*
X0016025Y0337455D01*
X0015689Y0337834D01*
X0015364Y0338221D01*
X0015047Y0338616D01*
X0014741Y0339019D01*
X0014445Y0339429D01*
X0014158Y0339846D01*
X0013882Y0340270D01*
X0013617Y0340701D01*
X0013362Y0341138D01*
X0013118Y0341582D01*
X0012885Y0342031D01*
X0012663Y0342486D01*
X0012453Y0342946D01*
X0012253Y0343411D01*
X0012065Y0343880D01*
X0011889Y0344355D01*
X0011725Y0344833D01*
X0011572Y0345315D01*
X0011431Y0345801D01*
X0011302Y0346291D01*
X0011185Y0346783D01*
X0011080Y0347278D01*
X0010988Y0347775D01*
X0010907Y0348275D01*
X0010839Y0348776D01*
X0010783Y0349279D01*
X0010740Y0349783D01*
X0010709Y0350288D01*
X0010690Y0350794D01*
X0010684Y0351300D01*
X0071300Y0351300D02*
X0071300Y0361300D01*
X0081300Y0361300D01*
X0151742Y0103478D02*
X0150675Y0102410D01*
X0150675Y0101343D01*
X0151742Y0100275D01*
X0153878Y0100275D01*
X0154945Y0099208D01*
X0154945Y0098140D01*
X0153878Y0097072D01*
X0151742Y0097072D01*
X0150675Y0098140D01*
X0151742Y0103478D02*
X0153878Y0103478D01*
X0154945Y0102410D01*
X0157120Y0103478D02*
X0161391Y0103478D01*
X0159255Y0103478D02*
X0159255Y0097072D01*
X0163566Y0097072D02*
X0163566Y0103478D01*
X0165701Y0101343D01*
X0167836Y0103478D01*
X0167836Y0097072D01*
X0170011Y0098140D02*
X0171079Y0097072D01*
X0173214Y0097072D01*
X0174282Y0098140D01*
X0174282Y0099208D01*
X0173214Y0100275D01*
X0172146Y0100275D01*
X0173214Y0100275D02*
X0174282Y0101343D01*
X0174282Y0102410D01*
X0173214Y0103478D01*
X0171079Y0103478D01*
X0170011Y0102410D01*
X0176457Y0102410D02*
X0177524Y0103478D01*
X0179660Y0103478D01*
X0180727Y0102410D01*
X0180727Y0101343D01*
X0176457Y0097072D01*
X0180727Y0097072D01*
X0182902Y0097072D02*
X0182902Y0103478D01*
X0187173Y0103478D01*
X0185037Y0100275D02*
X0182902Y0100275D01*
X0189348Y0100275D02*
X0193618Y0100275D01*
X0192551Y0097072D02*
X0192551Y0103478D01*
X0189348Y0100275D01*
X0202239Y0097072D02*
X0202239Y0103478D01*
X0204374Y0101343D01*
X0206509Y0103478D01*
X0206509Y0097072D01*
X0208684Y0098140D02*
X0208684Y0102410D01*
X0209752Y0103478D01*
X0211887Y0103478D01*
X0212955Y0102410D01*
X0215130Y0103478D02*
X0215130Y0098140D01*
X0216197Y0097072D01*
X0218333Y0097072D01*
X0219400Y0098140D01*
X0219400Y0103478D01*
X0212955Y0098140D02*
X0211887Y0097072D01*
X0209752Y0097072D01*
X0208684Y0098140D01*
X0209934Y0060505D02*
X0209934Y0054100D01*
X0207799Y0056235D01*
X0205664Y0054100D01*
X0205664Y0060505D01*
X0203489Y0058370D02*
X0203489Y0054100D01*
X0203489Y0057303D02*
X0199218Y0057303D01*
X0199218Y0058370D02*
X0199218Y0054100D01*
X0199218Y0058370D02*
X0201354Y0060505D01*
X0203489Y0058370D01*
X0212109Y0059438D02*
X0212109Y0055168D01*
X0213177Y0054100D01*
X0215312Y0054100D01*
X0216380Y0055168D01*
X0216380Y0057303D01*
X0214245Y0057303D01*
X0216380Y0059438D02*
X0215312Y0060505D01*
X0213177Y0060505D01*
X0212109Y0059438D01*
X0190598Y0058370D02*
X0190598Y0054100D01*
X0190598Y0057303D02*
X0186327Y0057303D01*
X0186327Y0058370D02*
X0186327Y0054100D01*
X0184152Y0055168D02*
X0183085Y0054100D01*
X0180950Y0054100D01*
X0179882Y0055168D01*
X0184152Y0059438D01*
X0184152Y0055168D01*
X0186327Y0058370D02*
X0188463Y0060505D01*
X0190598Y0058370D01*
X0184152Y0059438D02*
X0183085Y0060505D01*
X0180950Y0060505D01*
X0179882Y0059438D01*
X0179882Y0055168D01*
X0177707Y0055168D02*
X0177707Y0059438D01*
X0176639Y0060505D01*
X0174504Y0060505D01*
X0173436Y0059438D01*
X0173436Y0058370D01*
X0174504Y0057303D01*
X0177707Y0057303D01*
X0177707Y0055168D02*
X0176639Y0054100D01*
X0174504Y0054100D01*
X0173436Y0055168D01*
X0171261Y0054100D02*
X0166991Y0054100D01*
X0169126Y0054100D02*
X0169126Y0060505D01*
X0166991Y0058370D01*
X0164816Y0058370D02*
X0163748Y0057303D01*
X0161613Y0057303D01*
X0160545Y0058370D01*
X0160545Y0059438D01*
X0161613Y0060505D01*
X0163748Y0060505D01*
X0164816Y0059438D01*
X0164816Y0058370D01*
X0163748Y0057303D02*
X0164816Y0056235D01*
X0164816Y0055168D01*
X0163748Y0054100D01*
X0161613Y0054100D01*
X0160545Y0055168D01*
X0160545Y0056235D01*
X0161613Y0057303D01*
X0158370Y0060505D02*
X0158370Y0054100D01*
X0154100Y0054100D02*
X0154100Y0060505D01*
X0156235Y0058370D01*
X0158370Y0060505D01*
X0131300Y0051300D02*
X0131300Y0031300D01*
X0236300Y0031300D01*
X0236300Y0051300D01*
X0131300Y0051300D01*
X0309135Y0039272D02*
X0313859Y0043997D01*
X0322127Y0043997D01*
X0326851Y0039272D01*
X0326851Y0039666D01*
X0331182Y0043997D01*
X0331969Y0043997D01*
X0336694Y0039272D01*
X0344174Y0039272D01*
X0339450Y0043997D01*
X0331969Y0043997D01*
X0331182Y0043997D02*
X0322127Y0043997D01*
X0321339Y0043997D02*
X0316615Y0039272D01*
X0326851Y0039272D01*
X0326851Y0020769D01*
X0337087Y0039272D01*
X0336694Y0039272D02*
X0326851Y0039272D01*
X0303662Y0036300D02*
X0303669Y0036856D01*
X0303689Y0037411D01*
X0303723Y0037965D01*
X0303771Y0038519D01*
X0303832Y0039071D01*
X0303907Y0039622D01*
X0303995Y0040170D01*
X0304097Y0040716D01*
X0304212Y0041260D01*
X0304340Y0041801D01*
X0304482Y0042338D01*
X0304637Y0042871D01*
X0304805Y0043401D01*
X0304985Y0043927D01*
X0305179Y0044447D01*
X0305385Y0044963D01*
X0305604Y0045474D01*
X0305835Y0045979D01*
X0306079Y0046478D01*
X0306335Y0046971D01*
X0306603Y0047458D01*
X0306883Y0047938D01*
X0307174Y0048411D01*
X0307477Y0048877D01*
X0307792Y0049335D01*
X0308117Y0049785D01*
X0308453Y0050228D01*
X0308801Y0050661D01*
X0309158Y0051087D01*
X0309526Y0051503D01*
X0309904Y0051910D01*
X0310293Y0052307D01*
X0310690Y0052696D01*
X0311097Y0053074D01*
X0311513Y0053442D01*
X0311939Y0053799D01*
X0312372Y0054147D01*
X0312815Y0054483D01*
X0313265Y0054808D01*
X0313723Y0055123D01*
X0314189Y0055426D01*
X0314662Y0055717D01*
X0315142Y0055997D01*
X0315629Y0056265D01*
X0316122Y0056521D01*
X0316621Y0056765D01*
X0317126Y0056996D01*
X0317637Y0057215D01*
X0318153Y0057421D01*
X0318673Y0057615D01*
X0319199Y0057795D01*
X0319729Y0057963D01*
X0320262Y0058118D01*
X0320799Y0058260D01*
X0321340Y0058388D01*
X0321884Y0058503D01*
X0322430Y0058605D01*
X0322978Y0058693D01*
X0323529Y0058768D01*
X0324081Y0058829D01*
X0324635Y0058877D01*
X0325189Y0058911D01*
X0325744Y0058931D01*
X0326300Y0058938D01*
X0326856Y0058931D01*
X0327411Y0058911D01*
X0327965Y0058877D01*
X0328519Y0058829D01*
X0329071Y0058768D01*
X0329622Y0058693D01*
X0330170Y0058605D01*
X0330716Y0058503D01*
X0331260Y0058388D01*
X0331801Y0058260D01*
X0332338Y0058118D01*
X0332871Y0057963D01*
X0333401Y0057795D01*
X0333927Y0057615D01*
X0334447Y0057421D01*
X0334963Y0057215D01*
X0335474Y0056996D01*
X0335979Y0056765D01*
X0336478Y0056521D01*
X0336971Y0056265D01*
X0337458Y0055997D01*
X0337938Y0055717D01*
X0338411Y0055426D01*
X0338877Y0055123D01*
X0339335Y0054808D01*
X0339785Y0054483D01*
X0340228Y0054147D01*
X0340661Y0053799D01*
X0341087Y0053442D01*
X0341503Y0053074D01*
X0341910Y0052696D01*
X0342307Y0052307D01*
X0342696Y0051910D01*
X0343074Y0051503D01*
X0343442Y0051087D01*
X0343799Y0050661D01*
X0344147Y0050228D01*
X0344483Y0049785D01*
X0344808Y0049335D01*
X0345123Y0048877D01*
X0345426Y0048411D01*
X0345717Y0047938D01*
X0345997Y0047458D01*
X0346265Y0046971D01*
X0346521Y0046478D01*
X0346765Y0045979D01*
X0346996Y0045474D01*
X0347215Y0044963D01*
X0347421Y0044447D01*
X0347615Y0043927D01*
X0347795Y0043401D01*
X0347963Y0042871D01*
X0348118Y0042338D01*
X0348260Y0041801D01*
X0348388Y0041260D01*
X0348503Y0040716D01*
X0348605Y0040170D01*
X0348693Y0039622D01*
X0348768Y0039071D01*
X0348829Y0038519D01*
X0348877Y0037965D01*
X0348911Y0037411D01*
X0348931Y0036856D01*
X0348938Y0036300D01*
X0348931Y0035744D01*
X0348911Y0035189D01*
X0348877Y0034635D01*
X0348829Y0034081D01*
X0348768Y0033529D01*
X0348693Y0032978D01*
X0348605Y0032430D01*
X0348503Y0031884D01*
X0348388Y0031340D01*
X0348260Y0030799D01*
X0348118Y0030262D01*
X0347963Y0029729D01*
X0347795Y0029199D01*
X0347615Y0028673D01*
X0347421Y0028153D01*
X0347215Y0027637D01*
X0346996Y0027126D01*
X0346765Y0026621D01*
X0346521Y0026122D01*
X0346265Y0025629D01*
X0345997Y0025142D01*
X0345717Y0024662D01*
X0345426Y0024189D01*
X0345123Y0023723D01*
X0344808Y0023265D01*
X0344483Y0022815D01*
X0344147Y0022372D01*
X0343799Y0021939D01*
X0343442Y0021513D01*
X0343074Y0021097D01*
X0342696Y0020690D01*
X0342307Y0020293D01*
X0341910Y0019904D01*
X0341503Y0019526D01*
X0341087Y0019158D01*
X0340661Y0018801D01*
X0340228Y0018453D01*
X0339785Y0018117D01*
X0339335Y0017792D01*
X0338877Y0017477D01*
X0338411Y0017174D01*
X0337938Y0016883D01*
X0337458Y0016603D01*
X0336971Y0016335D01*
X0336478Y0016079D01*
X0335979Y0015835D01*
X0335474Y0015604D01*
X0334963Y0015385D01*
X0334447Y0015179D01*
X0333927Y0014985D01*
X0333401Y0014805D01*
X0332871Y0014637D01*
X0332338Y0014482D01*
X0331801Y0014340D01*
X0331260Y0014212D01*
X0330716Y0014097D01*
X0330170Y0013995D01*
X0329622Y0013907D01*
X0329071Y0013832D01*
X0328519Y0013771D01*
X0327965Y0013723D01*
X0327411Y0013689D01*
X0326856Y0013669D01*
X0326300Y0013662D01*
X0325744Y0013669D01*
X0325189Y0013689D01*
X0324635Y0013723D01*
X0324081Y0013771D01*
X0323529Y0013832D01*
X0322978Y0013907D01*
X0322430Y0013995D01*
X0321884Y0014097D01*
X0321340Y0014212D01*
X0320799Y0014340D01*
X0320262Y0014482D01*
X0319729Y0014637D01*
X0319199Y0014805D01*
X0318673Y0014985D01*
X0318153Y0015179D01*
X0317637Y0015385D01*
X0317126Y0015604D01*
X0316621Y0015835D01*
X0316122Y0016079D01*
X0315629Y0016335D01*
X0315142Y0016603D01*
X0314662Y0016883D01*
X0314189Y0017174D01*
X0313723Y0017477D01*
X0313265Y0017792D01*
X0312815Y0018117D01*
X0312372Y0018453D01*
X0311939Y0018801D01*
X0311513Y0019158D01*
X0311097Y0019526D01*
X0310690Y0019904D01*
X0310293Y0020293D01*
X0309904Y0020690D01*
X0309526Y0021097D01*
X0309158Y0021513D01*
X0308801Y0021939D01*
X0308453Y0022372D01*
X0308117Y0022815D01*
X0307792Y0023265D01*
X0307477Y0023723D01*
X0307174Y0024189D01*
X0306883Y0024662D01*
X0306603Y0025142D01*
X0306335Y0025629D01*
X0306079Y0026122D01*
X0305835Y0026621D01*
X0305604Y0027126D01*
X0305385Y0027637D01*
X0305179Y0028153D01*
X0304985Y0028673D01*
X0304805Y0029199D01*
X0304637Y0029729D01*
X0304482Y0030262D01*
X0304340Y0030799D01*
X0304212Y0031340D01*
X0304097Y0031884D01*
X0303995Y0032430D01*
X0303907Y0032978D01*
X0303832Y0033529D01*
X0303771Y0034081D01*
X0303723Y0034635D01*
X0303689Y0035189D01*
X0303669Y0035744D01*
X0303662Y0036300D01*
X0309135Y0039272D02*
X0316615Y0039272D01*
X0316221Y0039272D02*
X0326851Y0020769D01*
X0344568Y0039272D01*
X0344174Y0039272D01*
X0305684Y0036300D02*
X0305690Y0036806D01*
X0305709Y0037312D01*
X0305740Y0037817D01*
X0305783Y0038321D01*
X0305839Y0038824D01*
X0305907Y0039325D01*
X0305988Y0039825D01*
X0306080Y0040322D01*
X0306185Y0040817D01*
X0306302Y0041309D01*
X0306431Y0041799D01*
X0306572Y0042285D01*
X0306725Y0042767D01*
X0306889Y0043245D01*
X0307065Y0043720D01*
X0307253Y0044189D01*
X0307453Y0044654D01*
X0307663Y0045114D01*
X0307885Y0045569D01*
X0308118Y0046018D01*
X0308362Y0046462D01*
X0308617Y0046899D01*
X0308882Y0047330D01*
X0309158Y0047754D01*
X0309445Y0048171D01*
X0309741Y0048581D01*
X0310047Y0048984D01*
X0310364Y0049379D01*
X0310689Y0049766D01*
X0311025Y0050145D01*
X0311369Y0050516D01*
X0311722Y0050878D01*
X0312084Y0051231D01*
X0312455Y0051575D01*
X0312834Y0051911D01*
X0313221Y0052236D01*
X0313616Y0052553D01*
X0314019Y0052859D01*
X0314429Y0053155D01*
X0314846Y0053442D01*
X0315270Y0053718D01*
X0315701Y0053983D01*
X0316138Y0054238D01*
X0316582Y0054482D01*
X0317031Y0054715D01*
X0317486Y0054937D01*
X0317946Y0055147D01*
X0318411Y0055347D01*
X0318880Y0055535D01*
X0319355Y0055711D01*
X0319833Y0055875D01*
X0320315Y0056028D01*
X0320801Y0056169D01*
X0321291Y0056298D01*
X0321783Y0056415D01*
X0322278Y0056520D01*
X0322775Y0056612D01*
X0323275Y0056693D01*
X0323776Y0056761D01*
X0324279Y0056817D01*
X0324783Y0056860D01*
X0325288Y0056891D01*
X0325794Y0056910D01*
X0326300Y0056916D01*
X0326806Y0056910D01*
X0327312Y0056891D01*
X0327817Y0056860D01*
X0328321Y0056817D01*
X0328824Y0056761D01*
X0329325Y0056693D01*
X0329825Y0056612D01*
X0330322Y0056520D01*
X0330817Y0056415D01*
X0331309Y0056298D01*
X0331799Y0056169D01*
X0332285Y0056028D01*
X0332767Y0055875D01*
X0333245Y0055711D01*
X0333720Y0055535D01*
X0334189Y0055347D01*
X0334654Y0055147D01*
X0335114Y0054937D01*
X0335569Y0054715D01*
X0336018Y0054482D01*
X0336462Y0054238D01*
X0336899Y0053983D01*
X0337330Y0053718D01*
X0337754Y0053442D01*
X0338171Y0053155D01*
X0338581Y0052859D01*
X0338984Y0052553D01*
X0339379Y0052236D01*
X0339766Y0051911D01*
X0340145Y0051575D01*
X0340516Y0051231D01*
X0340878Y0050878D01*
X0341231Y0050516D01*
X0341575Y0050145D01*
X0341911Y0049766D01*
X0342236Y0049379D01*
X0342553Y0048984D01*
X0342859Y0048581D01*
X0343155Y0048171D01*
X0343442Y0047754D01*
X0343718Y0047330D01*
X0343983Y0046899D01*
X0344238Y0046462D01*
X0344482Y0046018D01*
X0344715Y0045569D01*
X0344937Y0045114D01*
X0345147Y0044654D01*
X0345347Y0044189D01*
X0345535Y0043720D01*
X0345711Y0043245D01*
X0345875Y0042767D01*
X0346028Y0042285D01*
X0346169Y0041799D01*
X0346298Y0041309D01*
X0346415Y0040817D01*
X0346520Y0040322D01*
X0346612Y0039825D01*
X0346693Y0039325D01*
X0346761Y0038824D01*
X0346817Y0038321D01*
X0346860Y0037817D01*
X0346891Y0037312D01*
X0346910Y0036806D01*
X0346916Y0036300D01*
X0346910Y0035794D01*
X0346891Y0035288D01*
X0346860Y0034783D01*
X0346817Y0034279D01*
X0346761Y0033776D01*
X0346693Y0033275D01*
X0346612Y0032775D01*
X0346520Y0032278D01*
X0346415Y0031783D01*
X0346298Y0031291D01*
X0346169Y0030801D01*
X0346028Y0030315D01*
X0345875Y0029833D01*
X0345711Y0029355D01*
X0345535Y0028880D01*
X0345347Y0028411D01*
X0345147Y0027946D01*
X0344937Y0027486D01*
X0344715Y0027031D01*
X0344482Y0026582D01*
X0344238Y0026138D01*
X0343983Y0025701D01*
X0343718Y0025270D01*
X0343442Y0024846D01*
X0343155Y0024429D01*
X0342859Y0024019D01*
X0342553Y0023616D01*
X0342236Y0023221D01*
X0341911Y0022834D01*
X0341575Y0022455D01*
X0341231Y0022084D01*
X0340878Y0021722D01*
X0340516Y0021369D01*
X0340145Y0021025D01*
X0339766Y0020689D01*
X0339379Y0020364D01*
X0338984Y0020047D01*
X0338581Y0019741D01*
X0338171Y0019445D01*
X0337754Y0019158D01*
X0337330Y0018882D01*
X0336899Y0018617D01*
X0336462Y0018362D01*
X0336018Y0018118D01*
X0335569Y0017885D01*
X0335114Y0017663D01*
X0334654Y0017453D01*
X0334189Y0017253D01*
X0333720Y0017065D01*
X0333245Y0016889D01*
X0332767Y0016725D01*
X0332285Y0016572D01*
X0331799Y0016431D01*
X0331309Y0016302D01*
X0330817Y0016185D01*
X0330322Y0016080D01*
X0329825Y0015988D01*
X0329325Y0015907D01*
X0328824Y0015839D01*
X0328321Y0015783D01*
X0327817Y0015740D01*
X0327312Y0015709D01*
X0326806Y0015690D01*
X0326300Y0015684D01*
X0325794Y0015690D01*
X0325288Y0015709D01*
X0324783Y0015740D01*
X0324279Y0015783D01*
X0323776Y0015839D01*
X0323275Y0015907D01*
X0322775Y0015988D01*
X0322278Y0016080D01*
X0321783Y0016185D01*
X0321291Y0016302D01*
X0320801Y0016431D01*
X0320315Y0016572D01*
X0319833Y0016725D01*
X0319355Y0016889D01*
X0318880Y0017065D01*
X0318411Y0017253D01*
X0317946Y0017453D01*
X0317486Y0017663D01*
X0317031Y0017885D01*
X0316582Y0018118D01*
X0316138Y0018362D01*
X0315701Y0018617D01*
X0315270Y0018882D01*
X0314846Y0019158D01*
X0314429Y0019445D01*
X0314019Y0019741D01*
X0313616Y0020047D01*
X0313221Y0020364D01*
X0312834Y0020689D01*
X0312455Y0021025D01*
X0312084Y0021369D01*
X0311722Y0021722D01*
X0311369Y0022084D01*
X0311025Y0022455D01*
X0310689Y0022834D01*
X0310364Y0023221D01*
X0310047Y0023616D01*
X0309741Y0024019D01*
X0309445Y0024429D01*
X0309158Y0024846D01*
X0308882Y0025270D01*
X0308617Y0025701D01*
X0308362Y0026138D01*
X0308118Y0026582D01*
X0307885Y0027031D01*
X0307663Y0027486D01*
X0307453Y0027946D01*
X0307253Y0028411D01*
X0307065Y0028880D01*
X0306889Y0029355D01*
X0306725Y0029833D01*
X0306572Y0030315D01*
X0306431Y0030801D01*
X0306302Y0031291D01*
X0306185Y0031783D01*
X0306080Y0032278D01*
X0305988Y0032775D01*
X0305907Y0033275D01*
X0305839Y0033776D01*
X0305783Y0034279D01*
X0305740Y0034783D01*
X0305709Y0035288D01*
X0305690Y0035794D01*
X0305684Y0036300D01*
X0309135Y0039272D02*
X0326851Y0020769D01*
D12*
X0286697Y0366479D02*
X0282627Y0366479D01*
X0286697Y0370549D01*
X0286697Y0371567D01*
X0285680Y0372584D01*
X0283645Y0372584D01*
X0282627Y0371567D01*
X0280620Y0371567D02*
X0280620Y0369532D01*
X0279603Y0368514D01*
X0276550Y0368514D01*
X0276550Y0366479D02*
X0276550Y0372584D01*
X0279603Y0372584D01*
X0280620Y0371567D01*
X0086697Y0366479D02*
X0082627Y0366479D01*
X0084662Y0366479D02*
X0084662Y0372584D01*
X0082627Y0370549D01*
X0080620Y0369532D02*
X0079603Y0368514D01*
X0076550Y0368514D01*
X0076550Y0366479D02*
X0076550Y0372584D01*
X0079603Y0372584D01*
X0080620Y0371567D01*
X0080620Y0369532D01*
D13*
X0080000Y0087457D02*
X0083953Y0087457D01*
X0085271Y0086139D01*
X0085271Y0080868D01*
X0083953Y0079550D01*
X0080000Y0079550D01*
X0080000Y0087457D01*
X0077352Y0083503D02*
X0072081Y0083503D01*
X0069434Y0083503D02*
X0064163Y0083503D01*
X0068116Y0087457D01*
X0068116Y0079550D01*
X0068116Y0074557D02*
X0064163Y0074557D01*
X0064163Y0066650D01*
X0064163Y0069286D02*
X0068116Y0069286D01*
X0069434Y0070603D01*
X0069434Y0073239D01*
X0068116Y0074557D01*
X0066798Y0069286D02*
X0069434Y0066650D01*
X0061515Y0066650D02*
X0056244Y0066650D01*
X0056244Y0074557D01*
X0061515Y0074557D01*
X0058879Y0070603D02*
X0056244Y0070603D01*
X0053596Y0066650D02*
X0049643Y0070603D01*
X0048325Y0069286D02*
X0053596Y0074557D01*
X0053596Y0079550D02*
X0048325Y0079550D01*
X0053596Y0084821D01*
X0053596Y0086139D01*
X0052278Y0087457D01*
X0049643Y0087457D01*
X0048325Y0086139D01*
X0045677Y0086139D02*
X0045677Y0084821D01*
X0044360Y0083503D01*
X0045677Y0082186D01*
X0045677Y0080868D01*
X0044360Y0079550D01*
X0041724Y0079550D01*
X0040406Y0080868D01*
X0037759Y0079550D02*
X0037759Y0087457D01*
X0035123Y0084821D01*
X0032488Y0087457D01*
X0032488Y0079550D01*
X0032488Y0074557D02*
X0032488Y0066650D01*
X0037759Y0066650D01*
X0040406Y0066650D02*
X0040406Y0071921D01*
X0043042Y0074557D01*
X0045677Y0071921D01*
X0045677Y0066650D01*
X0048325Y0066650D02*
X0048325Y0074557D01*
X0045677Y0070603D02*
X0040406Y0070603D01*
X0037759Y0074557D02*
X0032488Y0074557D01*
X0029840Y0073239D02*
X0029840Y0070603D01*
X0028522Y0069286D01*
X0024569Y0069286D01*
X0027204Y0069286D02*
X0029840Y0066650D01*
X0032488Y0070603D02*
X0035123Y0070603D01*
X0029840Y0073239D02*
X0028522Y0074557D01*
X0024569Y0074557D01*
X0024569Y0066650D01*
X0021921Y0067968D02*
X0020603Y0066650D01*
X0016650Y0066650D01*
X0016650Y0074557D01*
X0020603Y0074557D01*
X0021921Y0073239D01*
X0021921Y0071921D01*
X0020603Y0070603D01*
X0016650Y0070603D01*
X0020603Y0070603D02*
X0021921Y0069286D01*
X0021921Y0067968D01*
X0020603Y0079550D02*
X0017968Y0079550D01*
X0016650Y0080868D01*
X0017968Y0083503D02*
X0020603Y0083503D01*
X0021921Y0082186D01*
X0021921Y0080868D01*
X0020603Y0079550D01*
X0017968Y0083503D02*
X0016650Y0084821D01*
X0016650Y0086139D01*
X0017968Y0087457D01*
X0020603Y0087457D01*
X0021921Y0086139D01*
X0024569Y0087457D02*
X0029840Y0087457D01*
X0027204Y0087457D02*
X0027204Y0079550D01*
X0040406Y0086139D02*
X0041724Y0087457D01*
X0044360Y0087457D01*
X0045677Y0086139D01*
X0044360Y0083503D02*
X0043042Y0083503D01*
X0056244Y0083503D02*
X0058879Y0083503D01*
X0056244Y0079550D02*
X0056244Y0087457D01*
X0061515Y0087457D01*
X0080000Y0074557D02*
X0080000Y0066650D01*
X0083953Y0066650D01*
X0085271Y0067968D01*
X0085271Y0069286D01*
X0083953Y0070603D01*
X0080000Y0070603D01*
X0083953Y0070603D02*
X0085271Y0071921D01*
X0085271Y0073239D01*
X0083953Y0074557D01*
X0080000Y0074557D01*
X0087919Y0073239D02*
X0087919Y0067968D01*
X0089237Y0066650D01*
X0091872Y0066650D01*
X0093190Y0067968D01*
X0093190Y0073239D01*
X0091872Y0074557D01*
X0089237Y0074557D01*
X0087919Y0073239D01*
X0087919Y0079550D02*
X0090554Y0079550D01*
X0089237Y0079550D02*
X0089237Y0087457D01*
X0090554Y0087457D02*
X0087919Y0087457D01*
X0093198Y0086139D02*
X0093198Y0084821D01*
X0094516Y0083503D01*
X0097151Y0083503D01*
X0098469Y0082186D01*
X0098469Y0080868D01*
X0097151Y0079550D01*
X0094516Y0079550D01*
X0093198Y0080868D01*
X0093198Y0086139D02*
X0094516Y0087457D01*
X0097151Y0087457D01*
X0098469Y0086139D01*
X0101117Y0086139D02*
X0101117Y0080868D01*
X0102435Y0079550D01*
X0105070Y0079550D01*
X0106388Y0080868D01*
X0109036Y0080868D02*
X0110353Y0079550D01*
X0112989Y0079550D01*
X0114307Y0080868D01*
X0114307Y0086139D01*
X0112989Y0087457D01*
X0110353Y0087457D01*
X0109036Y0086139D01*
X0109036Y0080868D01*
X0107710Y0074557D02*
X0109028Y0073239D01*
X0109028Y0070603D01*
X0107710Y0069286D01*
X0103756Y0069286D01*
X0106392Y0069286D02*
X0109028Y0066650D01*
X0111675Y0066650D02*
X0115629Y0066650D01*
X0116946Y0067968D01*
X0116946Y0073239D01*
X0115629Y0074557D01*
X0111675Y0074557D01*
X0111675Y0066650D01*
X0103756Y0066650D02*
X0103756Y0074557D01*
X0107710Y0074557D01*
X0101109Y0071921D02*
X0101109Y0066650D01*
X0101109Y0070603D02*
X0095838Y0070603D01*
X0095838Y0071921D02*
X0098473Y0074557D01*
X0101109Y0071921D01*
X0095838Y0071921D02*
X0095838Y0066650D01*
X0101117Y0086139D02*
X0102435Y0087457D01*
X0105070Y0087457D01*
X0106388Y0086139D01*
X0116954Y0087457D02*
X0116954Y0082186D01*
X0119590Y0079550D01*
X0122225Y0082186D01*
X0122225Y0087457D01*
X0124873Y0087457D02*
X0124873Y0079550D01*
X0130144Y0079550D01*
X0132792Y0079550D02*
X0132792Y0087457D01*
X0136745Y0087457D01*
X0138063Y0086139D01*
X0138063Y0083503D01*
X0136745Y0082186D01*
X0132792Y0082186D01*
X0135427Y0082186D02*
X0138063Y0079550D01*
X0143346Y0079550D02*
X0143346Y0083503D01*
X0145982Y0086139D01*
X0145982Y0087457D01*
X0143346Y0083503D02*
X0140711Y0086139D01*
X0140711Y0087457D01*
X0130144Y0087457D02*
X0124873Y0087457D01*
X0124873Y0083503D02*
X0127509Y0083503D01*
M02*
