%
M48
M72
T01C0.00984
T02C0.03937
T03C0.05906
T04C0.06299
%
T01
X16300Y101300
X61300Y131300
X51300Y151300
X71300Y101300
X106418Y123111
X126300Y181300
X181300Y181300
X181300Y196300
X181300Y211300
X181300Y226300
X181300Y241300
X181615Y258544
X181300Y276300
X181300Y291300
X181300Y306300
X181300Y321300
X181300Y341300
X181300Y356300
X181300Y376300
X216300Y376300
X246300Y376300
X256300Y351300
X301300Y351300
X306300Y326300
X306300Y376300
X236300Y286300
X146300Y376300
X111300Y376300
X66300Y376300
X106300Y331300
X131300Y281300
X181300Y151300
X181300Y131300
X253800Y158800
X291300Y101300
X311300Y76457
X256457Y33111
X236300Y11300
X131300Y11300
X101300Y21300
X101300Y46300
T02
X136300Y36300
X141300Y46300
X146300Y36300
X151300Y46300
X156300Y36300
X166300Y36300
X161300Y46300
X171300Y46300
X176300Y36300
X181300Y46300
X191300Y46300
X186300Y36300
X196300Y36300
X206300Y36300
X201300Y46300
X211300Y46300
X216300Y36300
X221300Y46300
X231300Y46300
X226300Y36300
X276300Y116300
X276300Y126300
X276300Y126300
X286300Y126300
X286300Y116300
X286300Y136300
X286300Y146300
X276300Y146300
X276300Y136300
X276300Y156300
X276300Y166300
X286300Y166300
X286300Y156300
X286300Y176300
X276300Y176300
X276300Y186300
X276300Y196300
X286300Y196300
X286300Y186300
X286300Y206300
X286300Y216300
X276300Y216300
X276300Y206300
X276300Y226300
X276300Y236300
X286300Y236300
X286300Y226300
X286300Y246300
X276300Y246300
X276300Y256300
X276300Y266300
X286300Y266300
X286300Y256300
X286300Y276300
X286300Y286300
X276300Y286300
X276300Y276300
X276300Y296300
X286300Y296300
X286300Y306300
X286300Y316300
X276300Y316300
X276300Y306300
X276300Y326300
X276300Y336300
X286300Y336300
X286300Y326300
X286300Y346300
X286300Y356300
X276300Y356300
X276300Y346300
X86300Y346300
X86300Y356300
X76300Y356300
X76300Y346300
X76300Y336300
X76300Y326300
X86300Y326300
X86300Y336300
X86300Y316300
X86300Y306300
X76300Y306300
X76300Y316300
X76300Y296300
X86300Y296300
X86300Y286300
X86300Y276300
X76300Y276300
X76300Y286300
X76300Y266300
X76300Y256300
X86300Y256300
X86300Y266300
X86300Y246300
X76300Y246300
X76300Y236300
X76300Y226300
X86300Y226300
X86300Y236300
X86300Y216300
X86300Y206300
X76300Y206300
X76300Y216300
X76300Y196300
X76300Y186300
X86300Y186300
X86300Y196300
X86300Y176300
X76300Y176300
X76300Y166300
X76300Y156300
X86300Y156300
X86300Y166300
X86300Y146300
X86300Y136300
X76300Y136300
X76300Y146300
X76300Y126300
X76300Y116300
X86300Y116300
X86300Y126300
T03
X31300Y130906
X31300Y185906
X31300Y240906
X31300Y295906
X31300Y350906
X331300Y350906
X331300Y295906
X331300Y240906
X331300Y185906
X331300Y130906
T04
X321300Y121300
X321300Y141300
X341300Y141300
X341300Y121300
X341300Y176300
X341300Y196300
X321300Y196300
X321300Y176300
X321300Y231300
X321300Y251300
X341300Y251300
X341300Y231300
X341300Y286300
X341300Y306300
X321300Y306300
X321300Y286300
X321300Y341300
X321300Y361300
X341300Y361300
X341300Y341300
X41300Y341300
X41300Y361300
X21300Y361300
X21300Y341300
X21300Y306300
X21300Y286300
X41300Y286300
X41300Y306300
X41300Y251300
X41300Y231300
X21300Y231300
X21300Y251300
X21300Y196300
X21300Y176300
X41300Y176300
X41300Y196300
X41300Y141300
X41300Y121300
X21300Y121300
X21300Y141300
M30
