G75*
%MOIN*%
%OFA0B0*%
%FSLAX25Y25*%
%IPPOS*%
%LPD*%
%AMOC8*
5,1,8,0,0,1.08239X$1,22.5*
%
%ADD10C,0.02978*%
%ADD11C,0.00600*%
D10*
X0026300Y0076300D03*
X0026300Y0106300D03*
X0026300Y0116300D03*
X0026300Y0126300D03*
X0026300Y0136300D03*
X0026300Y0146300D03*
X0026300Y0156300D03*
X0026300Y0166300D03*
X0026300Y0176300D03*
X0026300Y0186300D03*
X0026300Y0196300D03*
X0026300Y0206300D03*
X0026300Y0216300D03*
X0026300Y0226300D03*
X0026300Y0236300D03*
X0026300Y0246300D03*
X0026300Y0256300D03*
X0026300Y0266300D03*
X0026300Y0276300D03*
X0026300Y0286300D03*
X0026300Y0296300D03*
X0026300Y0306300D03*
X0026300Y0316300D03*
X0026300Y0326300D03*
X0026300Y0336300D03*
X0026300Y0346300D03*
X0036300Y0346300D03*
X0036300Y0336300D03*
X0036300Y0326300D03*
X0036300Y0316300D03*
X0036300Y0306300D03*
X0036300Y0296300D03*
X0036300Y0286300D03*
X0036300Y0276300D03*
X0036300Y0266300D03*
X0036300Y0256300D03*
X0036300Y0246300D03*
X0036300Y0236300D03*
X0036300Y0226300D03*
X0036300Y0216300D03*
X0036300Y0206300D03*
X0036300Y0196300D03*
X0036300Y0186300D03*
X0036300Y0176300D03*
X0036300Y0166300D03*
X0036300Y0156300D03*
X0036300Y0146300D03*
X0036300Y0136300D03*
X0036300Y0126300D03*
X0036300Y0116300D03*
X0036300Y0106300D03*
X0091300Y0036300D03*
X0086300Y0026300D03*
X0096300Y0026300D03*
X0101300Y0036300D03*
X0111300Y0036300D03*
X0106300Y0026300D03*
X0116300Y0026300D03*
X0126300Y0026300D03*
X0121300Y0036300D03*
X0131300Y0036300D03*
X0141300Y0036300D03*
X0136300Y0026300D03*
X0146300Y0026300D03*
X0156300Y0026300D03*
X0151300Y0036300D03*
X0161300Y0036300D03*
X0166300Y0026300D03*
X0176300Y0026300D03*
X0171300Y0036300D03*
X0181300Y0036300D03*
X0211300Y0061300D03*
X0221300Y0071300D03*
X0211300Y0081300D03*
X0226300Y0106300D03*
X0226300Y0116300D03*
X0226300Y0116300D03*
X0226300Y0126300D03*
X0226300Y0136300D03*
X0226300Y0146300D03*
X0226300Y0156300D03*
X0226300Y0166300D03*
X0226300Y0176300D03*
X0226300Y0186300D03*
X0226300Y0196300D03*
X0226300Y0206300D03*
X0226300Y0216300D03*
X0226300Y0226300D03*
X0226300Y0236300D03*
X0226300Y0246300D03*
X0226300Y0256300D03*
X0226300Y0266300D03*
X0226300Y0276300D03*
X0226300Y0286300D03*
X0226300Y0296300D03*
X0226300Y0306300D03*
X0226300Y0316300D03*
X0226300Y0326300D03*
X0226300Y0336300D03*
X0226300Y0346300D03*
X0236300Y0346300D03*
X0236300Y0336300D03*
X0236300Y0326300D03*
X0236300Y0316300D03*
X0236300Y0306300D03*
X0236300Y0296300D03*
X0236300Y0286300D03*
X0236300Y0276300D03*
X0236300Y0266300D03*
X0236300Y0256300D03*
X0236300Y0246300D03*
X0236300Y0236300D03*
X0236300Y0226300D03*
X0236300Y0216300D03*
X0236300Y0206300D03*
X0236300Y0196300D03*
X0236300Y0186300D03*
X0236300Y0176300D03*
X0236300Y0166300D03*
X0236300Y0156300D03*
X0236300Y0146300D03*
X0236300Y0136300D03*
X0236300Y0126300D03*
X0236300Y0116300D03*
X0236300Y0106300D03*
X0231300Y0081300D03*
X0231300Y0061300D03*
X0221772Y0026891D03*
X0131300Y0121300D03*
X0131300Y0231300D03*
X0131300Y0281300D03*
X0131300Y0351300D03*
D11*
X0001300Y0001300D02*
X0261300Y0001300D01*
X0001300Y0001300D01*
X0001300Y0366300D01*
X0261300Y0366300D01*
X0261300Y0001300D01*
X0261300Y0001899D02*
X0001300Y0001899D01*
X0001300Y0002497D02*
X0261300Y0002497D01*
X0261300Y0003096D02*
X0001300Y0003096D01*
X0001300Y0003694D02*
X0261300Y0003694D01*
X0261300Y0004293D02*
X0001300Y0004293D01*
X0001300Y0004891D02*
X0261300Y0004891D01*
X0261300Y0005490D02*
X0001300Y0005490D01*
X0001300Y0006088D02*
X0261300Y0006088D01*
X0261300Y0006687D02*
X0001300Y0006687D01*
X0001300Y0007285D02*
X0261300Y0007285D01*
X0261300Y0007884D02*
X0001300Y0007884D01*
X0001300Y0008482D02*
X0261300Y0008482D01*
X0261300Y0009081D02*
X0001300Y0009081D01*
X0001300Y0009679D02*
X0261300Y0009679D01*
X0261300Y0010278D02*
X0001300Y0010278D01*
X0001300Y0010876D02*
X0261300Y0010876D01*
X0261300Y0011475D02*
X0001300Y0011475D01*
X0001300Y0012073D02*
X0261300Y0012073D01*
X0261300Y0012672D02*
X0001300Y0012672D01*
X0001300Y0013270D02*
X0261300Y0013270D01*
X0261300Y0013869D02*
X0001300Y0013869D01*
X0001300Y0014467D02*
X0261300Y0014467D01*
X0261300Y0015066D02*
X0001300Y0015066D01*
X0001300Y0015664D02*
X0261300Y0015664D01*
X0261300Y0016263D02*
X0001300Y0016263D01*
X0001300Y0016861D02*
X0261300Y0016861D01*
X0261300Y0017460D02*
X0001300Y0017460D01*
X0001300Y0018058D02*
X0261300Y0018058D01*
X0261300Y0018657D02*
X0001300Y0018657D01*
X0001300Y0019255D02*
X0261300Y0019255D01*
X0261300Y0019854D02*
X0001300Y0019854D01*
X0001300Y0020452D02*
X0261300Y0020452D01*
X0261300Y0021051D02*
X0001300Y0021051D01*
X0001300Y0021649D02*
X0261300Y0021649D01*
X0261300Y0022248D02*
X0001300Y0022248D01*
X0001300Y0022846D02*
X0261300Y0022846D01*
X0261300Y0023445D02*
X0177218Y0023445D01*
X0176895Y0023311D02*
X0177993Y0023766D01*
X0178834Y0024607D01*
X0179289Y0025705D01*
X0179289Y0026895D01*
X0178834Y0027993D01*
X0177993Y0028834D01*
X0176895Y0029289D01*
X0175705Y0029289D01*
X0174607Y0028834D01*
X0173766Y0027993D01*
X0173311Y0026895D01*
X0173311Y0025705D01*
X0173766Y0024607D01*
X0174607Y0023766D01*
X0175705Y0023311D01*
X0176895Y0023311D01*
X0175382Y0023445D02*
X0157218Y0023445D01*
X0156895Y0023311D02*
X0157993Y0023766D01*
X0158834Y0024607D01*
X0159289Y0025705D01*
X0159289Y0026895D01*
X0158834Y0027993D01*
X0157993Y0028834D01*
X0156895Y0029289D01*
X0155705Y0029289D01*
X0154607Y0028834D01*
X0153766Y0027993D01*
X0153311Y0026895D01*
X0153311Y0025705D01*
X0153766Y0024607D01*
X0154607Y0023766D01*
X0155705Y0023311D01*
X0156895Y0023311D01*
X0155382Y0023445D02*
X0147218Y0023445D01*
X0146895Y0023311D02*
X0147993Y0023766D01*
X0148834Y0024607D01*
X0149289Y0025705D01*
X0149289Y0026895D01*
X0148834Y0027993D01*
X0148100Y0028727D01*
X0148100Y0071954D01*
X0149500Y0070554D01*
X0149500Y0038727D01*
X0148766Y0037993D01*
X0148311Y0036895D01*
X0148311Y0035705D01*
X0148766Y0034607D01*
X0149607Y0033766D01*
X0150705Y0033311D01*
X0151895Y0033311D01*
X0152993Y0033766D01*
X0153834Y0034607D01*
X0154289Y0035705D01*
X0154289Y0036895D01*
X0153834Y0037993D01*
X0153100Y0038727D01*
X0153100Y0072046D01*
X0039289Y0185857D01*
X0039289Y0186895D01*
X0038834Y0187993D01*
X0037993Y0188834D01*
X0036895Y0189289D01*
X0035705Y0189289D01*
X0034607Y0188834D01*
X0033766Y0187993D01*
X0033311Y0186895D01*
X0033311Y0185705D01*
X0033766Y0184607D01*
X0034607Y0183766D01*
X0035705Y0183311D01*
X0036743Y0183311D01*
X0036954Y0183100D01*
X0030554Y0183100D01*
X0026743Y0179289D01*
X0025705Y0179289D01*
X0024607Y0178834D01*
X0023766Y0177993D01*
X0023311Y0176895D01*
X0023311Y0175705D01*
X0023766Y0174607D01*
X0024607Y0173766D01*
X0025705Y0173311D01*
X0026895Y0173311D01*
X0027993Y0173766D01*
X0028834Y0174607D01*
X0029289Y0175705D01*
X0029289Y0176743D01*
X0032046Y0179500D01*
X0035554Y0179500D01*
X0035765Y0179289D01*
X0035705Y0179289D01*
X0034607Y0178834D01*
X0033766Y0177993D01*
X0033311Y0176895D01*
X0033311Y0175705D01*
X0033766Y0174607D01*
X0034607Y0173766D01*
X0035705Y0173311D01*
X0036743Y0173311D01*
X0121004Y0089050D01*
X0039289Y0165959D01*
X0039289Y0166895D01*
X0038834Y0167993D01*
X0037993Y0168834D01*
X0036895Y0169289D01*
X0035705Y0169289D01*
X0034607Y0168834D01*
X0033766Y0167993D01*
X0033311Y0166895D01*
X0033311Y0165705D01*
X0033766Y0164607D01*
X0034607Y0163766D01*
X0035705Y0163311D01*
X0036849Y0163311D01*
X0098666Y0105131D01*
X0047549Y0152596D01*
X0047046Y0153100D01*
X0047007Y0153100D01*
X0046978Y0153126D01*
X0046267Y0153100D01*
X0032046Y0153100D01*
X0029289Y0155857D01*
X0029289Y0156895D01*
X0028834Y0157993D01*
X0027993Y0158834D01*
X0026895Y0159289D01*
X0025705Y0159289D01*
X0024607Y0158834D01*
X0023766Y0157993D01*
X0023311Y0156895D01*
X0023311Y0155705D01*
X0023766Y0154607D01*
X0024607Y0153766D01*
X0025705Y0153311D01*
X0026743Y0153311D01*
X0029500Y0150554D01*
X0030554Y0149500D01*
X0045593Y0149500D01*
X0114500Y0085515D01*
X0114500Y0028727D01*
X0113766Y0027993D01*
X0113311Y0026895D01*
X0113311Y0025705D01*
X0113766Y0024607D01*
X0114607Y0023766D01*
X0115705Y0023311D01*
X0116895Y0023311D01*
X0117993Y0023766D01*
X0118834Y0024607D01*
X0119289Y0025705D01*
X0119289Y0026895D01*
X0118834Y0027993D01*
X0118100Y0028727D01*
X0118100Y0085593D01*
X0118126Y0085622D01*
X0118100Y0086333D01*
X0118100Y0086840D01*
X0119500Y0085522D01*
X0119500Y0038727D01*
X0118766Y0037993D01*
X0118311Y0036895D01*
X0118311Y0035705D01*
X0118766Y0034607D01*
X0119607Y0033766D01*
X0120705Y0033311D01*
X0121895Y0033311D01*
X0122993Y0033766D01*
X0123834Y0034607D01*
X0124289Y0035705D01*
X0124289Y0036895D01*
X0123834Y0037993D01*
X0123100Y0038727D01*
X0123100Y0085586D01*
X0123122Y0085609D01*
X0123100Y0086327D01*
X0123100Y0086954D01*
X0134500Y0075554D01*
X0134500Y0028727D01*
X0133766Y0027993D01*
X0133311Y0026895D01*
X0133311Y0025705D01*
X0133766Y0024607D01*
X0134607Y0023766D01*
X0135705Y0023311D01*
X0136895Y0023311D01*
X0137993Y0023766D01*
X0138834Y0024607D01*
X0139289Y0025705D01*
X0139289Y0026895D01*
X0138834Y0027993D01*
X0138100Y0028727D01*
X0138100Y0076954D01*
X0144500Y0070554D01*
X0144500Y0028727D01*
X0143766Y0027993D01*
X0143311Y0026895D01*
X0143311Y0025705D01*
X0143766Y0024607D01*
X0144607Y0023766D01*
X0145705Y0023311D01*
X0146895Y0023311D01*
X0145382Y0023445D02*
X0137218Y0023445D01*
X0138270Y0024043D02*
X0144330Y0024043D01*
X0143752Y0024642D02*
X0138848Y0024642D01*
X0139096Y0025240D02*
X0143504Y0025240D01*
X0143311Y0025839D02*
X0139289Y0025839D01*
X0139289Y0026437D02*
X0143311Y0026437D01*
X0143370Y0027036D02*
X0139230Y0027036D01*
X0138982Y0027634D02*
X0143618Y0027634D01*
X0144006Y0028233D02*
X0138594Y0028233D01*
X0138100Y0028832D02*
X0144500Y0028832D01*
X0144500Y0029430D02*
X0138100Y0029430D01*
X0138100Y0030029D02*
X0144500Y0030029D01*
X0144500Y0030627D02*
X0138100Y0030627D01*
X0138100Y0031226D02*
X0144500Y0031226D01*
X0144500Y0031824D02*
X0138100Y0031824D01*
X0138100Y0032423D02*
X0144500Y0032423D01*
X0144500Y0033021D02*
X0138100Y0033021D01*
X0138100Y0033620D02*
X0144500Y0033620D01*
X0144500Y0034218D02*
X0138100Y0034218D01*
X0138100Y0034817D02*
X0144500Y0034817D01*
X0144500Y0035415D02*
X0138100Y0035415D01*
X0138100Y0036014D02*
X0144500Y0036014D01*
X0144500Y0036612D02*
X0138100Y0036612D01*
X0138100Y0037211D02*
X0144500Y0037211D01*
X0144500Y0037809D02*
X0138100Y0037809D01*
X0138100Y0038408D02*
X0144500Y0038408D01*
X0144500Y0039006D02*
X0138100Y0039006D01*
X0138100Y0039605D02*
X0144500Y0039605D01*
X0144500Y0040203D02*
X0138100Y0040203D01*
X0138100Y0040802D02*
X0144500Y0040802D01*
X0144500Y0041400D02*
X0138100Y0041400D01*
X0138100Y0041999D02*
X0144500Y0041999D01*
X0144500Y0042597D02*
X0138100Y0042597D01*
X0138100Y0043196D02*
X0144500Y0043196D01*
X0144500Y0043794D02*
X0138100Y0043794D01*
X0138100Y0044393D02*
X0144500Y0044393D01*
X0144500Y0044991D02*
X0138100Y0044991D01*
X0138100Y0045590D02*
X0144500Y0045590D01*
X0144500Y0046188D02*
X0138100Y0046188D01*
X0138100Y0046787D02*
X0144500Y0046787D01*
X0144500Y0047385D02*
X0138100Y0047385D01*
X0138100Y0047984D02*
X0144500Y0047984D01*
X0144500Y0048582D02*
X0138100Y0048582D01*
X0138100Y0049181D02*
X0144500Y0049181D01*
X0144500Y0049779D02*
X0138100Y0049779D01*
X0138100Y0050378D02*
X0144500Y0050378D01*
X0144500Y0050976D02*
X0138100Y0050976D01*
X0138100Y0051575D02*
X0144500Y0051575D01*
X0144500Y0052173D02*
X0138100Y0052173D01*
X0138100Y0052772D02*
X0144500Y0052772D01*
X0144500Y0053370D02*
X0138100Y0053370D01*
X0138100Y0053969D02*
X0144500Y0053969D01*
X0144500Y0054568D02*
X0138100Y0054568D01*
X0138100Y0055166D02*
X0144500Y0055166D01*
X0144500Y0055765D02*
X0138100Y0055765D01*
X0138100Y0056363D02*
X0144500Y0056363D01*
X0144500Y0056962D02*
X0138100Y0056962D01*
X0138100Y0057560D02*
X0144500Y0057560D01*
X0144500Y0058159D02*
X0138100Y0058159D01*
X0138100Y0058757D02*
X0144500Y0058757D01*
X0144500Y0059356D02*
X0138100Y0059356D01*
X0138100Y0059954D02*
X0144500Y0059954D01*
X0144500Y0060553D02*
X0138100Y0060553D01*
X0138100Y0061151D02*
X0144500Y0061151D01*
X0144500Y0061750D02*
X0138100Y0061750D01*
X0138100Y0062348D02*
X0144500Y0062348D01*
X0144500Y0062947D02*
X0138100Y0062947D01*
X0138100Y0063545D02*
X0144500Y0063545D01*
X0144500Y0064144D02*
X0138100Y0064144D01*
X0138100Y0064742D02*
X0144500Y0064742D01*
X0144500Y0065341D02*
X0138100Y0065341D01*
X0138100Y0065939D02*
X0144500Y0065939D01*
X0144500Y0066538D02*
X0138100Y0066538D01*
X0138100Y0067136D02*
X0144500Y0067136D01*
X0144500Y0067735D02*
X0138100Y0067735D01*
X0138100Y0068333D02*
X0144500Y0068333D01*
X0144500Y0068932D02*
X0138100Y0068932D01*
X0138100Y0069530D02*
X0144500Y0069530D01*
X0144500Y0070129D02*
X0138100Y0070129D01*
X0138100Y0070727D02*
X0144327Y0070727D01*
X0143729Y0071326D02*
X0138100Y0071326D01*
X0138100Y0071924D02*
X0143130Y0071924D01*
X0142532Y0072523D02*
X0138100Y0072523D01*
X0138100Y0073121D02*
X0141933Y0073121D01*
X0141335Y0073720D02*
X0138100Y0073720D01*
X0138100Y0074318D02*
X0140736Y0074318D01*
X0140138Y0074917D02*
X0138100Y0074917D01*
X0138100Y0075515D02*
X0139539Y0075515D01*
X0138940Y0076114D02*
X0138100Y0076114D01*
X0138100Y0076712D02*
X0138342Y0076712D01*
X0136300Y0076300D02*
X0036300Y0176300D01*
X0035148Y0179058D02*
X0031603Y0179058D01*
X0031005Y0178459D02*
X0034232Y0178459D01*
X0033711Y0177861D02*
X0030406Y0177861D01*
X0029808Y0177262D02*
X0033463Y0177262D01*
X0033311Y0176664D02*
X0029289Y0176664D01*
X0029289Y0176065D02*
X0033311Y0176065D01*
X0033410Y0175467D02*
X0029190Y0175467D01*
X0028942Y0174868D02*
X0033658Y0174868D01*
X0034103Y0174270D02*
X0028497Y0174270D01*
X0027764Y0173671D02*
X0034836Y0173671D01*
X0036982Y0173073D02*
X0001300Y0173073D01*
X0001300Y0173671D02*
X0024836Y0173671D01*
X0024103Y0174270D02*
X0001300Y0174270D01*
X0001300Y0174868D02*
X0023658Y0174868D01*
X0023410Y0175467D02*
X0001300Y0175467D01*
X0001300Y0176065D02*
X0023311Y0176065D01*
X0023311Y0176664D02*
X0001300Y0176664D01*
X0001300Y0177262D02*
X0023463Y0177262D01*
X0023711Y0177861D02*
X0001300Y0177861D01*
X0001300Y0178459D02*
X0024232Y0178459D01*
X0025148Y0179058D02*
X0001300Y0179058D01*
X0001300Y0179656D02*
X0027111Y0179656D01*
X0027709Y0180255D02*
X0001300Y0180255D01*
X0001300Y0180853D02*
X0028308Y0180853D01*
X0028906Y0181452D02*
X0001300Y0181452D01*
X0001300Y0182050D02*
X0029505Y0182050D01*
X0030103Y0182649D02*
X0001300Y0182649D01*
X0001300Y0183247D02*
X0036807Y0183247D01*
X0036300Y0181300D02*
X0031300Y0181300D01*
X0026300Y0176300D01*
X0025705Y0183311D02*
X0026895Y0183311D01*
X0027993Y0183766D01*
X0028834Y0184607D01*
X0029289Y0185705D01*
X0029289Y0186895D01*
X0028834Y0187993D01*
X0027993Y0188834D01*
X0026895Y0189289D01*
X0025705Y0189289D01*
X0024607Y0188834D01*
X0023766Y0187993D01*
X0023311Y0186895D01*
X0023311Y0185705D01*
X0023766Y0184607D01*
X0024607Y0183766D01*
X0025705Y0183311D01*
X0024527Y0183846D02*
X0001300Y0183846D01*
X0001300Y0184444D02*
X0023928Y0184444D01*
X0023585Y0185043D02*
X0001300Y0185043D01*
X0001300Y0185641D02*
X0023338Y0185641D01*
X0023311Y0186240D02*
X0001300Y0186240D01*
X0001300Y0186839D02*
X0023311Y0186839D01*
X0023536Y0187437D02*
X0001300Y0187437D01*
X0001300Y0188036D02*
X0023808Y0188036D01*
X0024407Y0188634D02*
X0001300Y0188634D01*
X0001300Y0189233D02*
X0025569Y0189233D01*
X0027031Y0189233D02*
X0035569Y0189233D01*
X0034407Y0188634D02*
X0028193Y0188634D01*
X0028791Y0188036D02*
X0033808Y0188036D01*
X0033536Y0187437D02*
X0029064Y0187437D01*
X0029289Y0186839D02*
X0033311Y0186839D01*
X0033311Y0186240D02*
X0029289Y0186240D01*
X0029262Y0185641D02*
X0033338Y0185641D01*
X0033585Y0185043D02*
X0029015Y0185043D01*
X0028672Y0184444D02*
X0033928Y0184444D01*
X0034527Y0183846D02*
X0028073Y0183846D01*
X0026895Y0193311D02*
X0025705Y0193311D01*
X0024607Y0193766D01*
X0023766Y0194607D01*
X0023311Y0195705D01*
X0023311Y0196895D01*
X0023766Y0197993D01*
X0024607Y0198834D01*
X0025705Y0199289D01*
X0026895Y0199289D01*
X0027993Y0198834D01*
X0028834Y0197993D01*
X0029289Y0196895D01*
X0029289Y0195705D01*
X0028834Y0194607D01*
X0027993Y0193766D01*
X0026895Y0193311D01*
X0027163Y0193422D02*
X0035437Y0193422D01*
X0035705Y0193311D02*
X0036895Y0193311D01*
X0037993Y0193766D01*
X0038834Y0194607D01*
X0039289Y0195705D01*
X0039289Y0196895D01*
X0038834Y0197993D01*
X0037993Y0198834D01*
X0036895Y0199289D01*
X0035705Y0199289D01*
X0034607Y0198834D01*
X0033766Y0197993D01*
X0033311Y0196895D01*
X0033311Y0195705D01*
X0033766Y0194607D01*
X0034607Y0193766D01*
X0035705Y0193311D01*
X0037163Y0193422D02*
X0091632Y0193422D01*
X0091034Y0194021D02*
X0038248Y0194021D01*
X0038839Y0194619D02*
X0090435Y0194619D01*
X0089837Y0195218D02*
X0039087Y0195218D01*
X0039289Y0195816D02*
X0089238Y0195816D01*
X0088640Y0196415D02*
X0039289Y0196415D01*
X0039240Y0197013D02*
X0088041Y0197013D01*
X0087443Y0197612D02*
X0038992Y0197612D01*
X0038617Y0198210D02*
X0086844Y0198210D01*
X0086246Y0198809D02*
X0038018Y0198809D01*
X0034582Y0198809D02*
X0028018Y0198809D01*
X0028617Y0198210D02*
X0033983Y0198210D01*
X0033608Y0197612D02*
X0028992Y0197612D01*
X0029240Y0197013D02*
X0033360Y0197013D01*
X0033311Y0196415D02*
X0029289Y0196415D01*
X0029289Y0195816D02*
X0033311Y0195816D01*
X0033513Y0195218D02*
X0029087Y0195218D01*
X0028839Y0194619D02*
X0033761Y0194619D01*
X0034352Y0194021D02*
X0028248Y0194021D01*
X0025437Y0193422D02*
X0001300Y0193422D01*
X0001300Y0192824D02*
X0092231Y0192824D01*
X0092829Y0192225D02*
X0001300Y0192225D01*
X0001300Y0191627D02*
X0093428Y0191627D01*
X0094026Y0191028D02*
X0001300Y0191028D01*
X0001300Y0190430D02*
X0094625Y0190430D01*
X0095223Y0189831D02*
X0001300Y0189831D01*
X0001300Y0194021D02*
X0024352Y0194021D01*
X0023761Y0194619D02*
X0001300Y0194619D01*
X0001300Y0195218D02*
X0023513Y0195218D01*
X0023311Y0195816D02*
X0001300Y0195816D01*
X0001300Y0196415D02*
X0023311Y0196415D01*
X0023360Y0197013D02*
X0001300Y0197013D01*
X0001300Y0197612D02*
X0023608Y0197612D01*
X0023983Y0198210D02*
X0001300Y0198210D01*
X0001300Y0198809D02*
X0024582Y0198809D01*
X0025705Y0203311D02*
X0026895Y0203311D01*
X0027993Y0203766D01*
X0028834Y0204607D01*
X0029289Y0205705D01*
X0029289Y0206895D01*
X0028834Y0207993D01*
X0027993Y0208834D01*
X0026895Y0209289D01*
X0025705Y0209289D01*
X0024607Y0208834D01*
X0023766Y0207993D01*
X0023311Y0206895D01*
X0023311Y0205705D01*
X0023766Y0204607D01*
X0024607Y0203766D01*
X0025705Y0203311D01*
X0025015Y0203597D02*
X0001300Y0203597D01*
X0001300Y0204195D02*
X0024178Y0204195D01*
X0023689Y0204794D02*
X0001300Y0204794D01*
X0001300Y0205392D02*
X0023441Y0205392D01*
X0023311Y0205991D02*
X0001300Y0205991D01*
X0001300Y0206589D02*
X0023311Y0206589D01*
X0023433Y0207188D02*
X0001300Y0207188D01*
X0001300Y0207786D02*
X0023680Y0207786D01*
X0024158Y0208385D02*
X0001300Y0208385D01*
X0001300Y0208983D02*
X0024968Y0208983D01*
X0027632Y0208983D02*
X0034968Y0208983D01*
X0034607Y0208834D02*
X0033766Y0207993D01*
X0033311Y0206895D01*
X0033311Y0205705D01*
X0033766Y0204607D01*
X0034607Y0203766D01*
X0035705Y0203311D01*
X0036895Y0203311D01*
X0037993Y0203766D01*
X0038834Y0204607D01*
X0039289Y0205705D01*
X0039289Y0206895D01*
X0038834Y0207993D01*
X0037993Y0208834D01*
X0036895Y0209289D01*
X0035705Y0209289D01*
X0034607Y0208834D01*
X0034158Y0208385D02*
X0028442Y0208385D01*
X0028920Y0207786D02*
X0033680Y0207786D01*
X0033433Y0207188D02*
X0029167Y0207188D01*
X0029289Y0206589D02*
X0033311Y0206589D01*
X0033311Y0205991D02*
X0029289Y0205991D01*
X0029159Y0205392D02*
X0033441Y0205392D01*
X0033689Y0204794D02*
X0028911Y0204794D01*
X0028422Y0204195D02*
X0034178Y0204195D01*
X0035015Y0203597D02*
X0027585Y0203597D01*
X0026895Y0213311D02*
X0025705Y0213311D01*
X0024607Y0213766D01*
X0023766Y0214607D01*
X0023311Y0215705D01*
X0023311Y0216895D01*
X0023766Y0217993D01*
X0024607Y0218834D01*
X0025705Y0219289D01*
X0026895Y0219289D01*
X0027993Y0218834D01*
X0028834Y0217993D01*
X0029289Y0216895D01*
X0029289Y0215705D01*
X0028834Y0214607D01*
X0027993Y0213766D01*
X0026895Y0213311D01*
X0027999Y0213772D02*
X0034601Y0213772D01*
X0034607Y0213766D02*
X0035705Y0213311D01*
X0036895Y0213311D01*
X0037993Y0213766D01*
X0038834Y0214607D01*
X0039289Y0215705D01*
X0039289Y0216895D01*
X0038834Y0217993D01*
X0037993Y0218834D01*
X0036895Y0219289D01*
X0035705Y0219289D01*
X0034607Y0218834D01*
X0033766Y0217993D01*
X0033311Y0216895D01*
X0033311Y0215705D01*
X0033766Y0214607D01*
X0034607Y0213766D01*
X0034003Y0214370D02*
X0028597Y0214370D01*
X0028984Y0214969D02*
X0033616Y0214969D01*
X0033368Y0215567D02*
X0029232Y0215567D01*
X0029289Y0216166D02*
X0033311Y0216166D01*
X0033311Y0216764D02*
X0029289Y0216764D01*
X0029095Y0217363D02*
X0033505Y0217363D01*
X0033753Y0217961D02*
X0028847Y0217961D01*
X0028267Y0218560D02*
X0034333Y0218560D01*
X0035390Y0219158D02*
X0027210Y0219158D01*
X0025390Y0219158D02*
X0001300Y0219158D01*
X0001300Y0218560D02*
X0024333Y0218560D01*
X0023753Y0217961D02*
X0001300Y0217961D01*
X0001300Y0217363D02*
X0023505Y0217363D01*
X0023311Y0216764D02*
X0001300Y0216764D01*
X0001300Y0216166D02*
X0023311Y0216166D01*
X0023368Y0215567D02*
X0001300Y0215567D01*
X0001300Y0214969D02*
X0023616Y0214969D01*
X0024003Y0214370D02*
X0001300Y0214370D01*
X0001300Y0213772D02*
X0024601Y0213772D01*
X0025705Y0223311D02*
X0026895Y0223311D01*
X0027993Y0223766D01*
X0028834Y0224607D01*
X0029289Y0225705D01*
X0029289Y0226895D01*
X0028834Y0227993D01*
X0027993Y0228834D01*
X0026895Y0229289D01*
X0025705Y0229289D01*
X0024607Y0228834D01*
X0023766Y0227993D01*
X0023311Y0226895D01*
X0023311Y0225705D01*
X0023766Y0224607D01*
X0024607Y0223766D01*
X0025705Y0223311D01*
X0025617Y0223348D02*
X0001300Y0223348D01*
X0001300Y0223946D02*
X0024427Y0223946D01*
X0023828Y0224545D02*
X0001300Y0224545D01*
X0001300Y0225143D02*
X0023544Y0225143D01*
X0023311Y0225742D02*
X0001300Y0225742D01*
X0001300Y0226340D02*
X0023311Y0226340D01*
X0023329Y0226939D02*
X0001300Y0226939D01*
X0001300Y0227537D02*
X0023577Y0227537D01*
X0023909Y0228136D02*
X0001300Y0228136D01*
X0001300Y0228734D02*
X0024507Y0228734D01*
X0028093Y0228734D02*
X0034507Y0228734D01*
X0034607Y0228834D02*
X0033766Y0227993D01*
X0033311Y0226895D01*
X0033311Y0225705D01*
X0033766Y0224607D01*
X0034607Y0223766D01*
X0035705Y0223311D01*
X0036895Y0223311D01*
X0037993Y0223766D01*
X0038834Y0224607D01*
X0039289Y0225705D01*
X0039289Y0226895D01*
X0038834Y0227993D01*
X0037993Y0228834D01*
X0036895Y0229289D01*
X0035705Y0229289D01*
X0034607Y0228834D01*
X0033909Y0228136D02*
X0028691Y0228136D01*
X0029023Y0227537D02*
X0033577Y0227537D01*
X0033329Y0226939D02*
X0029271Y0226939D01*
X0029289Y0226340D02*
X0033311Y0226340D01*
X0033311Y0225742D02*
X0029289Y0225742D01*
X0029056Y0225143D02*
X0033544Y0225143D01*
X0033828Y0224545D02*
X0028772Y0224545D01*
X0028173Y0223946D02*
X0034427Y0223946D01*
X0035617Y0223348D02*
X0026983Y0223348D01*
X0035195Y0233522D02*
X0001300Y0233522D01*
X0001300Y0232924D02*
X0052131Y0232924D01*
X0052729Y0232325D02*
X0001300Y0232325D01*
X0001300Y0231727D02*
X0053328Y0231727D01*
X0053926Y0231128D02*
X0001300Y0231128D01*
X0001300Y0230530D02*
X0054525Y0230530D01*
X0055123Y0229931D02*
X0001300Y0229931D01*
X0001300Y0229333D02*
X0055722Y0229333D01*
X0056320Y0228734D02*
X0038093Y0228734D01*
X0038691Y0228136D02*
X0056919Y0228136D01*
X0057517Y0227537D02*
X0039023Y0227537D01*
X0039271Y0226939D02*
X0058116Y0226939D01*
X0058714Y0226340D02*
X0039289Y0226340D01*
X0039289Y0225742D02*
X0059313Y0225742D01*
X0059911Y0225143D02*
X0039056Y0225143D01*
X0038772Y0224545D02*
X0060510Y0224545D01*
X0061108Y0223946D02*
X0038173Y0223946D01*
X0036983Y0223348D02*
X0061707Y0223348D01*
X0062305Y0222749D02*
X0001300Y0222749D01*
X0001300Y0222151D02*
X0062904Y0222151D01*
X0063502Y0221552D02*
X0001300Y0221552D01*
X0001300Y0220954D02*
X0064101Y0220954D01*
X0064699Y0220355D02*
X0001300Y0220355D01*
X0001300Y0219757D02*
X0065298Y0219757D01*
X0065896Y0219158D02*
X0037210Y0219158D01*
X0038267Y0218560D02*
X0066495Y0218560D01*
X0067093Y0217961D02*
X0038847Y0217961D01*
X0039095Y0217363D02*
X0067692Y0217363D01*
X0068290Y0216764D02*
X0039289Y0216764D01*
X0039289Y0216166D02*
X0068889Y0216166D01*
X0069487Y0215567D02*
X0039232Y0215567D01*
X0038984Y0214969D02*
X0070086Y0214969D01*
X0070684Y0214370D02*
X0038597Y0214370D01*
X0037999Y0213772D02*
X0071283Y0213772D01*
X0071881Y0213173D02*
X0001300Y0213173D01*
X0001300Y0212574D02*
X0072480Y0212574D01*
X0073078Y0211976D02*
X0001300Y0211976D01*
X0001300Y0211377D02*
X0073677Y0211377D01*
X0074275Y0210779D02*
X0001300Y0210779D01*
X0001300Y0210180D02*
X0074874Y0210180D01*
X0075472Y0209582D02*
X0001300Y0209582D01*
X0001300Y0202998D02*
X0082056Y0202998D01*
X0082655Y0202400D02*
X0001300Y0202400D01*
X0001300Y0201801D02*
X0083253Y0201801D01*
X0083852Y0201203D02*
X0001300Y0201203D01*
X0001300Y0200604D02*
X0084450Y0200604D01*
X0085049Y0200006D02*
X0001300Y0200006D01*
X0001300Y0199407D02*
X0085647Y0199407D01*
X0088344Y0201801D02*
X0261300Y0201801D01*
X0261300Y0201203D02*
X0088943Y0201203D01*
X0089541Y0200604D02*
X0261300Y0200604D01*
X0261300Y0200006D02*
X0090140Y0200006D01*
X0090738Y0199407D02*
X0261300Y0199407D01*
X0261300Y0198809D02*
X0238018Y0198809D01*
X0237993Y0198834D02*
X0236895Y0199289D01*
X0235705Y0199289D01*
X0234607Y0198834D01*
X0233766Y0197993D01*
X0233311Y0196895D01*
X0233311Y0195705D01*
X0233766Y0194607D01*
X0234607Y0193766D01*
X0235705Y0193311D01*
X0236895Y0193311D01*
X0237993Y0193766D01*
X0238834Y0194607D01*
X0239289Y0195705D01*
X0239289Y0196895D01*
X0238834Y0197993D01*
X0237993Y0198834D01*
X0238617Y0198210D02*
X0261300Y0198210D01*
X0261300Y0197612D02*
X0238992Y0197612D01*
X0239240Y0197013D02*
X0261300Y0197013D01*
X0261300Y0196415D02*
X0239289Y0196415D01*
X0239289Y0195816D02*
X0261300Y0195816D01*
X0261300Y0195218D02*
X0239087Y0195218D01*
X0238839Y0194619D02*
X0261300Y0194619D01*
X0261300Y0194021D02*
X0238248Y0194021D01*
X0237163Y0193422D02*
X0261300Y0193422D01*
X0261300Y0192824D02*
X0097322Y0192824D01*
X0096723Y0193422D02*
X0225437Y0193422D01*
X0225705Y0193311D02*
X0226895Y0193311D01*
X0227993Y0193766D01*
X0228834Y0194607D01*
X0229289Y0195705D01*
X0229289Y0196895D01*
X0228834Y0197993D01*
X0227993Y0198834D01*
X0226895Y0199289D01*
X0225705Y0199289D01*
X0224607Y0198834D01*
X0223766Y0197993D01*
X0223311Y0196895D01*
X0223311Y0195705D01*
X0223766Y0194607D01*
X0224607Y0193766D01*
X0225705Y0193311D01*
X0227163Y0193422D02*
X0235437Y0193422D01*
X0234352Y0194021D02*
X0228248Y0194021D01*
X0228839Y0194619D02*
X0233761Y0194619D01*
X0233513Y0195218D02*
X0229087Y0195218D01*
X0229289Y0195816D02*
X0233311Y0195816D01*
X0233311Y0196415D02*
X0229289Y0196415D01*
X0229240Y0197013D02*
X0233360Y0197013D01*
X0233608Y0197612D02*
X0228992Y0197612D01*
X0228617Y0198210D02*
X0233983Y0198210D01*
X0234582Y0198809D02*
X0228018Y0198809D01*
X0224582Y0198809D02*
X0091337Y0198809D01*
X0091935Y0198210D02*
X0223983Y0198210D01*
X0223608Y0197612D02*
X0092534Y0197612D01*
X0093132Y0197013D02*
X0223360Y0197013D01*
X0223311Y0196415D02*
X0093731Y0196415D01*
X0094329Y0195816D02*
X0223311Y0195816D01*
X0223513Y0195218D02*
X0094928Y0195218D01*
X0095526Y0194619D02*
X0223761Y0194619D01*
X0224352Y0194021D02*
X0096125Y0194021D01*
X0097920Y0192225D02*
X0261300Y0192225D01*
X0261300Y0191627D02*
X0098519Y0191627D01*
X0099117Y0191028D02*
X0261300Y0191028D01*
X0261300Y0190430D02*
X0099716Y0190430D01*
X0100315Y0189831D02*
X0261300Y0189831D01*
X0261300Y0189233D02*
X0237031Y0189233D01*
X0236895Y0189289D02*
X0235705Y0189289D01*
X0234607Y0188834D01*
X0233766Y0187993D01*
X0233311Y0186895D01*
X0233311Y0185705D01*
X0233766Y0184607D01*
X0234607Y0183766D01*
X0235705Y0183311D01*
X0236895Y0183311D01*
X0237993Y0183766D01*
X0238834Y0184607D01*
X0239289Y0185705D01*
X0239289Y0186895D01*
X0238834Y0187993D01*
X0237993Y0188834D01*
X0236895Y0189289D01*
X0235569Y0189233D02*
X0227031Y0189233D01*
X0226895Y0189289D02*
X0225705Y0189289D01*
X0224607Y0188834D01*
X0223766Y0187993D01*
X0223311Y0186895D01*
X0223311Y0185705D01*
X0223766Y0184607D01*
X0224607Y0183766D01*
X0225705Y0183311D01*
X0226895Y0183311D01*
X0227993Y0183766D01*
X0228834Y0184607D01*
X0229289Y0185705D01*
X0229289Y0186895D01*
X0228834Y0187993D01*
X0227993Y0188834D01*
X0226895Y0189289D01*
X0225569Y0189233D02*
X0100913Y0189233D01*
X0101512Y0188634D02*
X0224407Y0188634D01*
X0223808Y0188036D02*
X0102110Y0188036D01*
X0102709Y0187437D02*
X0223536Y0187437D01*
X0223311Y0186839D02*
X0103307Y0186839D01*
X0103906Y0186240D02*
X0223311Y0186240D01*
X0223338Y0185641D02*
X0104504Y0185641D01*
X0105103Y0185043D02*
X0223585Y0185043D01*
X0223928Y0184444D02*
X0105701Y0184444D01*
X0106300Y0183846D02*
X0224527Y0183846D01*
X0228073Y0183846D02*
X0234527Y0183846D01*
X0233928Y0184444D02*
X0228672Y0184444D01*
X0229015Y0185043D02*
X0233585Y0185043D01*
X0233338Y0185641D02*
X0229262Y0185641D01*
X0229289Y0186240D02*
X0233311Y0186240D01*
X0233311Y0186839D02*
X0229289Y0186839D01*
X0229064Y0187437D02*
X0233536Y0187437D01*
X0233808Y0188036D02*
X0228791Y0188036D01*
X0228193Y0188634D02*
X0234407Y0188634D01*
X0238193Y0188634D02*
X0261300Y0188634D01*
X0261300Y0188036D02*
X0238791Y0188036D01*
X0239064Y0187437D02*
X0261300Y0187437D01*
X0261300Y0186839D02*
X0239289Y0186839D01*
X0239289Y0186240D02*
X0261300Y0186240D01*
X0261300Y0185641D02*
X0239262Y0185641D01*
X0239015Y0185043D02*
X0261300Y0185043D01*
X0261300Y0184444D02*
X0238672Y0184444D01*
X0238073Y0183846D02*
X0261300Y0183846D01*
X0261300Y0183247D02*
X0106898Y0183247D01*
X0107497Y0182649D02*
X0261300Y0182649D01*
X0261300Y0182050D02*
X0108095Y0182050D01*
X0108694Y0181452D02*
X0261300Y0181452D01*
X0261300Y0180853D02*
X0109292Y0180853D01*
X0109891Y0180255D02*
X0261300Y0180255D01*
X0261300Y0179656D02*
X0110489Y0179656D01*
X0111088Y0179058D02*
X0225148Y0179058D01*
X0224607Y0178834D02*
X0223766Y0177993D01*
X0223311Y0176895D01*
X0223311Y0175705D01*
X0223766Y0174607D01*
X0224607Y0173766D01*
X0225705Y0173311D01*
X0226895Y0173311D01*
X0227993Y0173766D01*
X0228834Y0174607D01*
X0229289Y0175705D01*
X0229289Y0176895D01*
X0228834Y0177993D01*
X0227993Y0178834D01*
X0226895Y0179289D01*
X0225705Y0179289D01*
X0224607Y0178834D01*
X0224232Y0178459D02*
X0111686Y0178459D01*
X0112285Y0177861D02*
X0223711Y0177861D01*
X0223463Y0177262D02*
X0112883Y0177262D01*
X0113482Y0176664D02*
X0223311Y0176664D01*
X0223311Y0176065D02*
X0114080Y0176065D01*
X0114679Y0175467D02*
X0223410Y0175467D01*
X0223658Y0174868D02*
X0115277Y0174868D01*
X0115876Y0174270D02*
X0224103Y0174270D01*
X0224836Y0173671D02*
X0116474Y0173671D01*
X0117073Y0173073D02*
X0261300Y0173073D01*
X0261300Y0173671D02*
X0237764Y0173671D01*
X0237993Y0173766D02*
X0238834Y0174607D01*
X0239289Y0175705D01*
X0239289Y0176895D01*
X0238834Y0177993D01*
X0237993Y0178834D01*
X0236895Y0179289D01*
X0235705Y0179289D01*
X0234607Y0178834D01*
X0233766Y0177993D01*
X0233311Y0176895D01*
X0233311Y0175705D01*
X0233766Y0174607D01*
X0234607Y0173766D01*
X0235705Y0173311D01*
X0236895Y0173311D01*
X0237993Y0173766D01*
X0238497Y0174270D02*
X0261300Y0174270D01*
X0261300Y0174868D02*
X0238942Y0174868D01*
X0239190Y0175467D02*
X0261300Y0175467D01*
X0261300Y0176065D02*
X0239289Y0176065D01*
X0239289Y0176664D02*
X0261300Y0176664D01*
X0261300Y0177262D02*
X0239137Y0177262D01*
X0238889Y0177861D02*
X0261300Y0177861D01*
X0261300Y0178459D02*
X0238368Y0178459D01*
X0237452Y0179058D02*
X0261300Y0179058D01*
X0261300Y0172474D02*
X0117671Y0172474D01*
X0118270Y0171876D02*
X0261300Y0171876D01*
X0261300Y0171277D02*
X0118868Y0171277D01*
X0119467Y0170679D02*
X0261300Y0170679D01*
X0261300Y0170080D02*
X0120065Y0170080D01*
X0120664Y0169482D02*
X0261300Y0169482D01*
X0261300Y0168883D02*
X0237874Y0168883D01*
X0237993Y0168834D02*
X0236895Y0169289D01*
X0235705Y0169289D01*
X0234607Y0168834D01*
X0233766Y0167993D01*
X0233311Y0166895D01*
X0233311Y0165705D01*
X0233766Y0164607D01*
X0234607Y0163766D01*
X0235705Y0163311D01*
X0236895Y0163311D01*
X0237993Y0163766D01*
X0238834Y0164607D01*
X0239289Y0165705D01*
X0239289Y0166895D01*
X0238834Y0167993D01*
X0237993Y0168834D01*
X0238542Y0168285D02*
X0261300Y0168285D01*
X0261300Y0167686D02*
X0238961Y0167686D01*
X0239209Y0167088D02*
X0261300Y0167088D01*
X0261300Y0166489D02*
X0239289Y0166489D01*
X0239289Y0165891D02*
X0261300Y0165891D01*
X0261300Y0165292D02*
X0239118Y0165292D01*
X0238870Y0164694D02*
X0261300Y0164694D01*
X0261300Y0164095D02*
X0238322Y0164095D01*
X0237342Y0163497D02*
X0261300Y0163497D01*
X0261300Y0162898D02*
X0127248Y0162898D01*
X0127846Y0162300D02*
X0261300Y0162300D01*
X0261300Y0161701D02*
X0128445Y0161701D01*
X0129043Y0161103D02*
X0261300Y0161103D01*
X0261300Y0160504D02*
X0129642Y0160504D01*
X0130240Y0159905D02*
X0261300Y0159905D01*
X0261300Y0159307D02*
X0130839Y0159307D01*
X0131437Y0158708D02*
X0224481Y0158708D01*
X0224607Y0158834D02*
X0223766Y0157993D01*
X0223311Y0156895D01*
X0223311Y0155705D01*
X0223766Y0154607D01*
X0224607Y0153766D01*
X0225705Y0153311D01*
X0226895Y0153311D01*
X0227993Y0153766D01*
X0228834Y0154607D01*
X0229289Y0155705D01*
X0229289Y0156895D01*
X0228834Y0157993D01*
X0227993Y0158834D01*
X0226895Y0159289D01*
X0225705Y0159289D01*
X0224607Y0158834D01*
X0223883Y0158110D02*
X0132036Y0158110D01*
X0132634Y0157511D02*
X0223567Y0157511D01*
X0223319Y0156913D02*
X0133233Y0156913D01*
X0133831Y0156314D02*
X0223311Y0156314D01*
X0223311Y0155716D02*
X0134430Y0155716D01*
X0135028Y0155117D02*
X0223555Y0155117D01*
X0223854Y0154519D02*
X0135627Y0154519D01*
X0136225Y0153920D02*
X0224453Y0153920D01*
X0225679Y0153322D02*
X0136824Y0153322D01*
X0137422Y0152723D02*
X0261300Y0152723D01*
X0261300Y0152125D02*
X0138021Y0152125D01*
X0138619Y0151526D02*
X0261300Y0151526D01*
X0261300Y0150928D02*
X0139218Y0150928D01*
X0139816Y0150329D02*
X0261300Y0150329D01*
X0261300Y0149731D02*
X0140415Y0149731D01*
X0141013Y0149132D02*
X0225327Y0149132D01*
X0225705Y0149289D02*
X0224607Y0148834D01*
X0223766Y0147993D01*
X0223311Y0146895D01*
X0223311Y0145705D01*
X0223766Y0144607D01*
X0224607Y0143766D01*
X0225705Y0143311D01*
X0226895Y0143311D01*
X0227993Y0143766D01*
X0228834Y0144607D01*
X0229289Y0145705D01*
X0229289Y0146895D01*
X0228834Y0147993D01*
X0227993Y0148834D01*
X0226895Y0149289D01*
X0225705Y0149289D01*
X0227273Y0149132D02*
X0235327Y0149132D01*
X0235705Y0149289D02*
X0234607Y0148834D01*
X0233766Y0147993D01*
X0233311Y0146895D01*
X0233311Y0145705D01*
X0233766Y0144607D01*
X0234607Y0143766D01*
X0235705Y0143311D01*
X0236895Y0143311D01*
X0237993Y0143766D01*
X0238834Y0144607D01*
X0239289Y0145705D01*
X0239289Y0146895D01*
X0238834Y0147993D01*
X0237993Y0148834D01*
X0236895Y0149289D01*
X0235705Y0149289D01*
X0237273Y0149132D02*
X0261300Y0149132D01*
X0261300Y0148534D02*
X0238293Y0148534D01*
X0238858Y0147935D02*
X0261300Y0147935D01*
X0261300Y0147337D02*
X0239106Y0147337D01*
X0239289Y0146738D02*
X0261300Y0146738D01*
X0261300Y0146140D02*
X0239289Y0146140D01*
X0239221Y0145541D02*
X0261300Y0145541D01*
X0261300Y0144943D02*
X0238973Y0144943D01*
X0238571Y0144344D02*
X0261300Y0144344D01*
X0261300Y0143746D02*
X0237944Y0143746D01*
X0234656Y0143746D02*
X0227944Y0143746D01*
X0228571Y0144344D02*
X0234029Y0144344D01*
X0233627Y0144943D02*
X0228973Y0144943D01*
X0229221Y0145541D02*
X0233379Y0145541D01*
X0233311Y0146140D02*
X0229289Y0146140D01*
X0229289Y0146738D02*
X0233311Y0146738D01*
X0233494Y0147337D02*
X0229106Y0147337D01*
X0228858Y0147935D02*
X0233742Y0147935D01*
X0234307Y0148534D02*
X0228293Y0148534D01*
X0226921Y0153322D02*
X0235679Y0153322D01*
X0235705Y0153311D02*
X0236895Y0153311D01*
X0237993Y0153766D01*
X0238834Y0154607D01*
X0239289Y0155705D01*
X0239289Y0156895D01*
X0238834Y0157993D01*
X0237993Y0158834D01*
X0236895Y0159289D01*
X0235705Y0159289D01*
X0234607Y0158834D01*
X0233766Y0157993D01*
X0233311Y0156895D01*
X0233311Y0155705D01*
X0233766Y0154607D01*
X0234607Y0153766D01*
X0235705Y0153311D01*
X0236921Y0153322D02*
X0261300Y0153322D01*
X0261300Y0153920D02*
X0238147Y0153920D01*
X0238746Y0154519D02*
X0261300Y0154519D01*
X0261300Y0155117D02*
X0239045Y0155117D01*
X0239289Y0155716D02*
X0261300Y0155716D01*
X0261300Y0156314D02*
X0239289Y0156314D01*
X0239281Y0156913D02*
X0261300Y0156913D01*
X0261300Y0157511D02*
X0239033Y0157511D01*
X0238717Y0158110D02*
X0261300Y0158110D01*
X0261300Y0158708D02*
X0238119Y0158708D01*
X0234481Y0158708D02*
X0228119Y0158708D01*
X0228717Y0158110D02*
X0233883Y0158110D01*
X0233567Y0157511D02*
X0229033Y0157511D01*
X0229281Y0156913D02*
X0233319Y0156913D01*
X0233311Y0156314D02*
X0229289Y0156314D01*
X0229289Y0155716D02*
X0233311Y0155716D01*
X0233555Y0155117D02*
X0229045Y0155117D01*
X0228746Y0154519D02*
X0233854Y0154519D01*
X0234453Y0153920D02*
X0228147Y0153920D01*
X0224307Y0148534D02*
X0141612Y0148534D01*
X0142210Y0147935D02*
X0223742Y0147935D01*
X0223494Y0147337D02*
X0142809Y0147337D01*
X0143407Y0146738D02*
X0223311Y0146738D01*
X0223311Y0146140D02*
X0144006Y0146140D01*
X0144604Y0145541D02*
X0223379Y0145541D01*
X0223627Y0144943D02*
X0145203Y0144943D01*
X0145801Y0144344D02*
X0224029Y0144344D01*
X0224656Y0143746D02*
X0146400Y0143746D01*
X0146998Y0143147D02*
X0261300Y0143147D01*
X0261300Y0142549D02*
X0147597Y0142549D01*
X0148195Y0141950D02*
X0261300Y0141950D01*
X0261300Y0141352D02*
X0148794Y0141352D01*
X0149392Y0140753D02*
X0261300Y0140753D01*
X0261300Y0140155D02*
X0149991Y0140155D01*
X0150589Y0139556D02*
X0261300Y0139556D01*
X0261300Y0138958D02*
X0237695Y0138958D01*
X0237993Y0138834D02*
X0236895Y0139289D01*
X0235705Y0139289D01*
X0234607Y0138834D01*
X0233766Y0137993D01*
X0233311Y0136895D01*
X0233311Y0135705D01*
X0233766Y0134607D01*
X0234607Y0133766D01*
X0235705Y0133311D01*
X0236895Y0133311D01*
X0237993Y0133766D01*
X0238834Y0134607D01*
X0239289Y0135705D01*
X0239289Y0136895D01*
X0238834Y0137993D01*
X0237993Y0138834D01*
X0238468Y0138359D02*
X0261300Y0138359D01*
X0261300Y0137761D02*
X0238930Y0137761D01*
X0239178Y0137162D02*
X0261300Y0137162D01*
X0261300Y0136564D02*
X0239289Y0136564D01*
X0239289Y0135965D02*
X0261300Y0135965D01*
X0261300Y0135367D02*
X0239149Y0135367D01*
X0238901Y0134768D02*
X0261300Y0134768D01*
X0261300Y0134170D02*
X0238397Y0134170D01*
X0237522Y0133571D02*
X0261300Y0133571D01*
X0261300Y0132972D02*
X0157173Y0132972D01*
X0157772Y0132374D02*
X0261300Y0132374D01*
X0261300Y0131775D02*
X0158370Y0131775D01*
X0158969Y0131177D02*
X0261300Y0131177D01*
X0261300Y0130578D02*
X0159567Y0130578D01*
X0160166Y0129980D02*
X0261300Y0129980D01*
X0261300Y0129381D02*
X0160764Y0129381D01*
X0161363Y0128783D02*
X0224556Y0128783D01*
X0224607Y0128834D02*
X0223766Y0127993D01*
X0223311Y0126895D01*
X0223311Y0125705D01*
X0223766Y0124607D01*
X0224607Y0123766D01*
X0225705Y0123311D01*
X0226895Y0123311D01*
X0227993Y0123766D01*
X0228834Y0124607D01*
X0229289Y0125705D01*
X0229289Y0126895D01*
X0228834Y0127993D01*
X0227993Y0128834D01*
X0226895Y0129289D01*
X0225705Y0129289D01*
X0224607Y0128834D01*
X0223957Y0128184D02*
X0161961Y0128184D01*
X0162560Y0127586D02*
X0223597Y0127586D01*
X0223349Y0126987D02*
X0163158Y0126987D01*
X0163757Y0126389D02*
X0223311Y0126389D01*
X0223311Y0125790D02*
X0164355Y0125790D01*
X0164954Y0125192D02*
X0223524Y0125192D01*
X0223780Y0124593D02*
X0165552Y0124593D01*
X0166151Y0123995D02*
X0224378Y0123995D01*
X0225500Y0123396D02*
X0166749Y0123396D01*
X0167348Y0122798D02*
X0261300Y0122798D01*
X0261300Y0123396D02*
X0237100Y0123396D01*
X0236895Y0123311D02*
X0237993Y0123766D01*
X0238834Y0124607D01*
X0239289Y0125705D01*
X0239289Y0126895D01*
X0238834Y0127993D01*
X0237993Y0128834D01*
X0236895Y0129289D01*
X0235705Y0129289D01*
X0234607Y0128834D01*
X0233766Y0127993D01*
X0233311Y0126895D01*
X0233311Y0125705D01*
X0233766Y0124607D01*
X0234607Y0123766D01*
X0235705Y0123311D01*
X0236895Y0123311D01*
X0235500Y0123396D02*
X0227100Y0123396D01*
X0228222Y0123995D02*
X0234378Y0123995D01*
X0233780Y0124593D02*
X0228820Y0124593D01*
X0229076Y0125192D02*
X0233524Y0125192D01*
X0233311Y0125790D02*
X0229289Y0125790D01*
X0229289Y0126389D02*
X0233311Y0126389D01*
X0233349Y0126987D02*
X0229251Y0126987D01*
X0229003Y0127586D02*
X0233597Y0127586D01*
X0233957Y0128184D02*
X0228643Y0128184D01*
X0228044Y0128783D02*
X0234556Y0128783D01*
X0238044Y0128783D02*
X0261300Y0128783D01*
X0261300Y0128184D02*
X0238643Y0128184D01*
X0239003Y0127586D02*
X0261300Y0127586D01*
X0261300Y0126987D02*
X0239251Y0126987D01*
X0239289Y0126389D02*
X0261300Y0126389D01*
X0261300Y0125790D02*
X0239289Y0125790D01*
X0239076Y0125192D02*
X0261300Y0125192D01*
X0261300Y0124593D02*
X0238820Y0124593D01*
X0238222Y0123995D02*
X0261300Y0123995D01*
X0261300Y0122199D02*
X0167946Y0122199D01*
X0168545Y0121601D02*
X0261300Y0121601D01*
X0261300Y0121002D02*
X0169143Y0121002D01*
X0169742Y0120404D02*
X0261300Y0120404D01*
X0261300Y0119805D02*
X0170340Y0119805D01*
X0170939Y0119207D02*
X0225507Y0119207D01*
X0225705Y0119289D02*
X0224607Y0118834D01*
X0223766Y0117993D01*
X0223311Y0116895D01*
X0223311Y0115705D01*
X0223766Y0114607D01*
X0224607Y0113766D01*
X0225705Y0113311D01*
X0226895Y0113311D01*
X0227993Y0113766D01*
X0228834Y0114607D01*
X0229289Y0115705D01*
X0229289Y0116895D01*
X0228834Y0117993D01*
X0227993Y0118834D01*
X0226895Y0119289D01*
X0225705Y0119289D01*
X0227093Y0119207D02*
X0235507Y0119207D01*
X0235705Y0119289D02*
X0234607Y0118834D01*
X0233766Y0117993D01*
X0233311Y0116895D01*
X0233311Y0115705D01*
X0233766Y0114607D01*
X0234607Y0113766D01*
X0235705Y0113311D01*
X0236895Y0113311D01*
X0237993Y0113766D01*
X0238834Y0114607D01*
X0239289Y0115705D01*
X0239289Y0116895D01*
X0238834Y0117993D01*
X0237993Y0118834D01*
X0236895Y0119289D01*
X0235705Y0119289D01*
X0237093Y0119207D02*
X0261300Y0119207D01*
X0261300Y0118608D02*
X0238219Y0118608D01*
X0238817Y0118010D02*
X0261300Y0118010D01*
X0261300Y0117411D02*
X0239075Y0117411D01*
X0239289Y0116813D02*
X0261300Y0116813D01*
X0261300Y0116214D02*
X0239289Y0116214D01*
X0239252Y0115616D02*
X0261300Y0115616D01*
X0261300Y0115017D02*
X0239004Y0115017D01*
X0238646Y0114419D02*
X0261300Y0114419D01*
X0261300Y0113820D02*
X0238047Y0113820D01*
X0234553Y0113820D02*
X0228047Y0113820D01*
X0228646Y0114419D02*
X0233954Y0114419D01*
X0233596Y0115017D02*
X0229004Y0115017D01*
X0229252Y0115616D02*
X0233348Y0115616D01*
X0233311Y0116214D02*
X0229289Y0116214D01*
X0229289Y0116813D02*
X0233311Y0116813D01*
X0233525Y0117411D02*
X0229075Y0117411D01*
X0228817Y0118010D02*
X0233783Y0118010D01*
X0234381Y0118608D02*
X0228219Y0118608D01*
X0224381Y0118608D02*
X0171537Y0118608D01*
X0172136Y0118010D02*
X0223783Y0118010D01*
X0223525Y0117411D02*
X0172734Y0117411D01*
X0173333Y0116813D02*
X0223311Y0116813D01*
X0223311Y0116214D02*
X0173931Y0116214D01*
X0174530Y0115616D02*
X0223348Y0115616D01*
X0223596Y0115017D02*
X0175128Y0115017D01*
X0175727Y0114419D02*
X0223954Y0114419D01*
X0224553Y0113820D02*
X0176325Y0113820D01*
X0176924Y0113222D02*
X0261300Y0113222D01*
X0261300Y0112623D02*
X0177522Y0112623D01*
X0178121Y0112025D02*
X0261300Y0112025D01*
X0261300Y0111426D02*
X0178719Y0111426D01*
X0179318Y0110828D02*
X0261300Y0110828D01*
X0261300Y0110229D02*
X0179917Y0110229D01*
X0180515Y0109631D02*
X0261300Y0109631D01*
X0261300Y0109032D02*
X0181114Y0109032D01*
X0181712Y0108434D02*
X0261300Y0108434D01*
X0261300Y0107835D02*
X0182311Y0107835D01*
X0182909Y0107237D02*
X0261300Y0107237D01*
X0261300Y0106638D02*
X0183508Y0106638D01*
X0184106Y0106039D02*
X0261300Y0106039D01*
X0261300Y0105441D02*
X0184705Y0105441D01*
X0185303Y0104842D02*
X0261300Y0104842D01*
X0261300Y0104244D02*
X0185902Y0104244D01*
X0186500Y0103645D02*
X0261300Y0103645D01*
X0261300Y0103047D02*
X0187099Y0103047D01*
X0187697Y0102448D02*
X0261300Y0102448D01*
X0261300Y0101850D02*
X0188296Y0101850D01*
X0188894Y0101251D02*
X0261300Y0101251D01*
X0261300Y0100653D02*
X0189493Y0100653D01*
X0190091Y0100054D02*
X0261300Y0100054D01*
X0261300Y0099456D02*
X0190690Y0099456D01*
X0191288Y0098857D02*
X0261300Y0098857D01*
X0261300Y0098259D02*
X0191887Y0098259D01*
X0192485Y0097660D02*
X0261300Y0097660D01*
X0261300Y0097062D02*
X0193084Y0097062D01*
X0193682Y0096463D02*
X0261300Y0096463D01*
X0261300Y0095865D02*
X0194281Y0095865D01*
X0194879Y0095266D02*
X0261300Y0095266D01*
X0261300Y0094668D02*
X0195478Y0094668D01*
X0196076Y0094069D02*
X0261300Y0094069D01*
X0261300Y0093471D02*
X0196675Y0093471D01*
X0197273Y0092872D02*
X0261300Y0092872D01*
X0261300Y0092274D02*
X0197872Y0092274D01*
X0198470Y0091675D02*
X0261300Y0091675D01*
X0261300Y0091077D02*
X0199069Y0091077D01*
X0199667Y0090478D02*
X0261300Y0090478D01*
X0261300Y0089880D02*
X0200266Y0089880D01*
X0200864Y0089281D02*
X0261300Y0089281D01*
X0261300Y0088683D02*
X0201463Y0088683D01*
X0202046Y0088100D02*
X0048100Y0242046D01*
X0048100Y0282046D01*
X0047046Y0283100D01*
X0036835Y0293311D01*
X0036895Y0293311D01*
X0037993Y0293766D01*
X0038834Y0294607D01*
X0039289Y0295705D01*
X0039289Y0296895D01*
X0038834Y0297993D01*
X0037993Y0298834D01*
X0036895Y0299289D01*
X0035705Y0299289D01*
X0034607Y0298834D01*
X0033766Y0297993D01*
X0033311Y0296895D01*
X0033311Y0296835D01*
X0032046Y0298100D01*
X0028727Y0298100D01*
X0027993Y0298834D01*
X0026895Y0299289D01*
X0025705Y0299289D01*
X0024607Y0298834D01*
X0023766Y0297993D01*
X0023311Y0296895D01*
X0023311Y0295705D01*
X0023766Y0294607D01*
X0024607Y0293766D01*
X0025705Y0293311D01*
X0026895Y0293311D01*
X0027993Y0293766D01*
X0028727Y0294500D01*
X0030554Y0294500D01*
X0035765Y0289289D01*
X0035705Y0289289D01*
X0034607Y0288834D01*
X0033766Y0287993D01*
X0033311Y0286895D01*
X0033311Y0285705D01*
X0033766Y0284607D01*
X0034607Y0283766D01*
X0035705Y0283311D01*
X0036895Y0283311D01*
X0037993Y0283766D01*
X0038834Y0284607D01*
X0039289Y0285705D01*
X0039289Y0285765D01*
X0044500Y0280554D01*
X0044500Y0240554D01*
X0199500Y0085554D01*
X0199500Y0075554D01*
X0205554Y0069500D01*
X0218873Y0069500D01*
X0219500Y0068873D01*
X0219500Y0042365D01*
X0219972Y0041893D01*
X0219972Y0039924D01*
X0221027Y0038870D01*
X0222518Y0038870D01*
X0223572Y0039924D01*
X0223572Y0043384D01*
X0223100Y0043857D01*
X0223100Y0068873D01*
X0223834Y0069607D01*
X0224289Y0070705D01*
X0224289Y0071895D01*
X0223834Y0072993D01*
X0222993Y0073834D01*
X0221895Y0074289D01*
X0220705Y0074289D01*
X0219607Y0073834D01*
X0218873Y0073100D01*
X0207046Y0073100D01*
X0203100Y0077046D01*
X0203100Y0087046D01*
X0202046Y0088100D01*
X0202061Y0088084D02*
X0261300Y0088084D01*
X0261300Y0087486D02*
X0202660Y0087486D01*
X0203100Y0086887D02*
X0261300Y0086887D01*
X0261300Y0086289D02*
X0203100Y0086289D01*
X0203100Y0085690D02*
X0261300Y0085690D01*
X0261300Y0085092D02*
X0203100Y0085092D01*
X0203100Y0084493D02*
X0261300Y0084493D01*
X0261300Y0083895D02*
X0203100Y0083895D01*
X0203100Y0083296D02*
X0261300Y0083296D01*
X0261300Y0082698D02*
X0203100Y0082698D01*
X0203100Y0082099D02*
X0261300Y0082099D01*
X0261300Y0081501D02*
X0203100Y0081501D01*
X0203100Y0080902D02*
X0261300Y0080902D01*
X0261300Y0080303D02*
X0203100Y0080303D01*
X0203100Y0079705D02*
X0261300Y0079705D01*
X0261300Y0079106D02*
X0203100Y0079106D01*
X0203100Y0078508D02*
X0261300Y0078508D01*
X0261300Y0077909D02*
X0203100Y0077909D01*
X0203100Y0077311D02*
X0261300Y0077311D01*
X0261300Y0076712D02*
X0203433Y0076712D01*
X0204032Y0076114D02*
X0261300Y0076114D01*
X0261300Y0075515D02*
X0204630Y0075515D01*
X0205229Y0074917D02*
X0261300Y0074917D01*
X0261300Y0074318D02*
X0205827Y0074318D01*
X0206426Y0073720D02*
X0219493Y0073720D01*
X0218894Y0073121D02*
X0207024Y0073121D01*
X0206300Y0071300D02*
X0201300Y0076300D01*
X0201300Y0086300D01*
X0046300Y0241300D01*
X0046300Y0281300D01*
X0031300Y0296300D01*
X0026300Y0296300D01*
X0023533Y0295169D02*
X0001300Y0295169D01*
X0001300Y0294571D02*
X0023802Y0294571D01*
X0024401Y0293972D02*
X0001300Y0293972D01*
X0001300Y0293374D02*
X0025555Y0293374D01*
X0027045Y0293374D02*
X0031681Y0293374D01*
X0031082Y0293972D02*
X0028199Y0293972D01*
X0028665Y0298162D02*
X0033935Y0298162D01*
X0033588Y0297563D02*
X0032582Y0297563D01*
X0033181Y0296965D02*
X0033340Y0296965D01*
X0034533Y0298760D02*
X0028067Y0298760D01*
X0024533Y0298760D02*
X0001300Y0298760D01*
X0001300Y0298162D02*
X0023935Y0298162D01*
X0023588Y0297563D02*
X0001300Y0297563D01*
X0001300Y0296965D02*
X0023340Y0296965D01*
X0023311Y0296366D02*
X0001300Y0296366D01*
X0001300Y0295768D02*
X0023311Y0295768D01*
X0025705Y0289289D02*
X0024607Y0288834D01*
X0023766Y0287993D01*
X0023311Y0286895D01*
X0023311Y0285705D01*
X0023766Y0284607D01*
X0024607Y0283766D01*
X0025705Y0283311D01*
X0026895Y0283311D01*
X0027993Y0283766D01*
X0028834Y0284607D01*
X0029289Y0285705D01*
X0029289Y0286895D01*
X0028834Y0287993D01*
X0027993Y0288834D01*
X0026895Y0289289D01*
X0025705Y0289289D01*
X0025452Y0289184D02*
X0001300Y0289184D01*
X0001300Y0289782D02*
X0035272Y0289782D01*
X0035452Y0289184D02*
X0027148Y0289184D01*
X0028242Y0288585D02*
X0034358Y0288585D01*
X0033764Y0287987D02*
X0028836Y0287987D01*
X0029084Y0287388D02*
X0033516Y0287388D01*
X0033311Y0286790D02*
X0029289Y0286790D01*
X0029289Y0286191D02*
X0033311Y0286191D01*
X0033358Y0285593D02*
X0029242Y0285593D01*
X0028994Y0284994D02*
X0033606Y0284994D01*
X0033977Y0284396D02*
X0028623Y0284396D01*
X0028024Y0283797D02*
X0034576Y0283797D01*
X0038024Y0283797D02*
X0041257Y0283797D01*
X0041856Y0283199D02*
X0001300Y0283199D01*
X0001300Y0283797D02*
X0024576Y0283797D01*
X0023977Y0284396D02*
X0001300Y0284396D01*
X0001300Y0284994D02*
X0023606Y0284994D01*
X0023358Y0285593D02*
X0001300Y0285593D01*
X0001300Y0286191D02*
X0023311Y0286191D01*
X0023311Y0286790D02*
X0001300Y0286790D01*
X0001300Y0287388D02*
X0023516Y0287388D01*
X0023764Y0287987D02*
X0001300Y0287987D01*
X0001300Y0288585D02*
X0024358Y0288585D01*
X0032279Y0292775D02*
X0001300Y0292775D01*
X0001300Y0292177D02*
X0032878Y0292177D01*
X0033476Y0291578D02*
X0001300Y0291578D01*
X0001300Y0290979D02*
X0034075Y0290979D01*
X0034673Y0290381D02*
X0001300Y0290381D01*
X0001300Y0282600D02*
X0042454Y0282600D01*
X0043053Y0282002D02*
X0001300Y0282002D01*
X0001300Y0281403D02*
X0043651Y0281403D01*
X0044250Y0280805D02*
X0001300Y0280805D01*
X0001300Y0280206D02*
X0044500Y0280206D01*
X0044500Y0279608D02*
X0001300Y0279608D01*
X0001300Y0279009D02*
X0025030Y0279009D01*
X0024607Y0278834D02*
X0023766Y0277993D01*
X0023311Y0276895D01*
X0023311Y0275705D01*
X0023766Y0274607D01*
X0024607Y0273766D01*
X0025705Y0273311D01*
X0026895Y0273311D01*
X0027993Y0273766D01*
X0028834Y0274607D01*
X0029289Y0275705D01*
X0029289Y0276895D01*
X0028834Y0277993D01*
X0027993Y0278834D01*
X0026895Y0279289D01*
X0025705Y0279289D01*
X0024607Y0278834D01*
X0024184Y0278411D02*
X0001300Y0278411D01*
X0001300Y0277812D02*
X0023691Y0277812D01*
X0023443Y0277214D02*
X0001300Y0277214D01*
X0001300Y0276615D02*
X0023311Y0276615D01*
X0023311Y0276017D02*
X0001300Y0276017D01*
X0001300Y0275418D02*
X0023430Y0275418D01*
X0023678Y0274820D02*
X0001300Y0274820D01*
X0001300Y0274221D02*
X0024152Y0274221D01*
X0024953Y0273623D02*
X0001300Y0273623D01*
X0001300Y0273024D02*
X0044500Y0273024D01*
X0044500Y0272426D02*
X0001300Y0272426D01*
X0001300Y0271827D02*
X0044500Y0271827D01*
X0044500Y0271229D02*
X0001300Y0271229D01*
X0001300Y0270630D02*
X0044500Y0270630D01*
X0044500Y0270032D02*
X0001300Y0270032D01*
X0001300Y0269433D02*
X0044500Y0269433D01*
X0044500Y0268835D02*
X0037992Y0268835D01*
X0037993Y0268834D02*
X0036895Y0269289D01*
X0035705Y0269289D01*
X0034607Y0268834D01*
X0033766Y0267993D01*
X0033311Y0266895D01*
X0033311Y0265705D01*
X0033766Y0264607D01*
X0034607Y0263766D01*
X0035705Y0263311D01*
X0036895Y0263311D01*
X0037993Y0263766D01*
X0038834Y0264607D01*
X0039289Y0265705D01*
X0039289Y0266895D01*
X0038834Y0267993D01*
X0037993Y0268834D01*
X0038591Y0268236D02*
X0044500Y0268236D01*
X0044500Y0267638D02*
X0038981Y0267638D01*
X0039229Y0267039D02*
X0044500Y0267039D01*
X0044500Y0266441D02*
X0039289Y0266441D01*
X0039289Y0265842D02*
X0044500Y0265842D01*
X0044500Y0265243D02*
X0039098Y0265243D01*
X0038850Y0264645D02*
X0044500Y0264645D01*
X0044500Y0264046D02*
X0038274Y0264046D01*
X0037225Y0263448D02*
X0044500Y0263448D01*
X0044500Y0262849D02*
X0001300Y0262849D01*
X0001300Y0262251D02*
X0044500Y0262251D01*
X0044500Y0261652D02*
X0001300Y0261652D01*
X0001300Y0261054D02*
X0044500Y0261054D01*
X0044500Y0260455D02*
X0001300Y0260455D01*
X0001300Y0259857D02*
X0044500Y0259857D01*
X0044500Y0259258D02*
X0036968Y0259258D01*
X0036895Y0259289D02*
X0035705Y0259289D01*
X0034607Y0258834D01*
X0033766Y0257993D01*
X0033311Y0256895D01*
X0033311Y0255705D01*
X0033766Y0254607D01*
X0034607Y0253766D01*
X0035705Y0253311D01*
X0036895Y0253311D01*
X0037993Y0253766D01*
X0038834Y0254607D01*
X0039289Y0255705D01*
X0039289Y0256895D01*
X0038834Y0257993D01*
X0037993Y0258834D01*
X0036895Y0259289D01*
X0035632Y0259258D02*
X0026968Y0259258D01*
X0026895Y0259289D02*
X0025705Y0259289D01*
X0024607Y0258834D01*
X0023766Y0257993D01*
X0023311Y0256895D01*
X0023311Y0255705D01*
X0023766Y0254607D01*
X0024607Y0253766D01*
X0025705Y0253311D01*
X0026895Y0253311D01*
X0027993Y0253766D01*
X0028834Y0254607D01*
X0029289Y0255705D01*
X0029289Y0256895D01*
X0028834Y0257993D01*
X0027993Y0258834D01*
X0026895Y0259289D01*
X0025632Y0259258D02*
X0001300Y0259258D01*
X0001300Y0258660D02*
X0024433Y0258660D01*
X0023834Y0258061D02*
X0001300Y0258061D01*
X0001300Y0257463D02*
X0023546Y0257463D01*
X0023311Y0256864D02*
X0001300Y0256864D01*
X0001300Y0256266D02*
X0023311Y0256266D01*
X0023327Y0255667D02*
X0001300Y0255667D01*
X0001300Y0255069D02*
X0023575Y0255069D01*
X0023903Y0254470D02*
X0001300Y0254470D01*
X0001300Y0253872D02*
X0024501Y0253872D01*
X0028099Y0253872D02*
X0034501Y0253872D01*
X0033903Y0254470D02*
X0028697Y0254470D01*
X0029025Y0255069D02*
X0033575Y0255069D01*
X0033327Y0255667D02*
X0029273Y0255667D01*
X0029289Y0256266D02*
X0033311Y0256266D01*
X0033311Y0256864D02*
X0029289Y0256864D01*
X0029054Y0257463D02*
X0033546Y0257463D01*
X0033834Y0258061D02*
X0028766Y0258061D01*
X0028167Y0258660D02*
X0034433Y0258660D01*
X0038167Y0258660D02*
X0044500Y0258660D01*
X0044500Y0258061D02*
X0038766Y0258061D01*
X0039054Y0257463D02*
X0044500Y0257463D01*
X0044500Y0256864D02*
X0039289Y0256864D01*
X0039289Y0256266D02*
X0044500Y0256266D01*
X0044500Y0255667D02*
X0039273Y0255667D01*
X0039025Y0255069D02*
X0044500Y0255069D01*
X0044500Y0254470D02*
X0038697Y0254470D01*
X0038099Y0253872D02*
X0044500Y0253872D01*
X0044500Y0253273D02*
X0001300Y0253273D01*
X0001300Y0252675D02*
X0044500Y0252675D01*
X0044500Y0252076D02*
X0001300Y0252076D01*
X0001300Y0251478D02*
X0044500Y0251478D01*
X0044500Y0250879D02*
X0001300Y0250879D01*
X0001300Y0250281D02*
X0044500Y0250281D01*
X0044500Y0249682D02*
X0001300Y0249682D01*
X0001300Y0249084D02*
X0025210Y0249084D01*
X0025705Y0249289D02*
X0024607Y0248834D01*
X0023766Y0247993D01*
X0023311Y0246895D01*
X0023311Y0245705D01*
X0023766Y0244607D01*
X0024607Y0243766D01*
X0025705Y0243311D01*
X0026895Y0243311D01*
X0027993Y0243766D01*
X0028834Y0244607D01*
X0029289Y0245705D01*
X0029289Y0246895D01*
X0028834Y0247993D01*
X0027993Y0248834D01*
X0026895Y0249289D01*
X0025705Y0249289D01*
X0024258Y0248485D02*
X0001300Y0248485D01*
X0001300Y0247887D02*
X0023722Y0247887D01*
X0023474Y0247288D02*
X0001300Y0247288D01*
X0001300Y0246690D02*
X0023311Y0246690D01*
X0023311Y0246091D02*
X0001300Y0246091D01*
X0001300Y0245493D02*
X0023399Y0245493D01*
X0023647Y0244894D02*
X0001300Y0244894D01*
X0001300Y0244296D02*
X0024077Y0244296D01*
X0024773Y0243697D02*
X0001300Y0243697D01*
X0001300Y0243099D02*
X0044500Y0243099D01*
X0044500Y0243697D02*
X0037827Y0243697D01*
X0037993Y0243766D02*
X0038834Y0244607D01*
X0039289Y0245705D01*
X0039289Y0246895D01*
X0038834Y0247993D01*
X0037993Y0248834D01*
X0036895Y0249289D01*
X0035705Y0249289D01*
X0034607Y0248834D01*
X0033766Y0247993D01*
X0033311Y0246895D01*
X0033311Y0245705D01*
X0033766Y0244607D01*
X0034607Y0243766D01*
X0035705Y0243311D01*
X0036895Y0243311D01*
X0037993Y0243766D01*
X0038523Y0244296D02*
X0044500Y0244296D01*
X0044500Y0244894D02*
X0038953Y0244894D01*
X0039201Y0245493D02*
X0044500Y0245493D01*
X0044500Y0246091D02*
X0039289Y0246091D01*
X0039289Y0246690D02*
X0044500Y0246690D01*
X0044500Y0247288D02*
X0039126Y0247288D01*
X0038878Y0247887D02*
X0044500Y0247887D01*
X0044500Y0248485D02*
X0038342Y0248485D01*
X0037390Y0249084D02*
X0044500Y0249084D01*
X0048100Y0249084D02*
X0225210Y0249084D01*
X0225705Y0249289D02*
X0224607Y0248834D01*
X0223766Y0247993D01*
X0223311Y0246895D01*
X0223311Y0245705D01*
X0223766Y0244607D01*
X0224607Y0243766D01*
X0225705Y0243311D01*
X0226895Y0243311D01*
X0227993Y0243766D01*
X0228834Y0244607D01*
X0229289Y0245705D01*
X0229289Y0246895D01*
X0228834Y0247993D01*
X0227993Y0248834D01*
X0226895Y0249289D01*
X0225705Y0249289D01*
X0224258Y0248485D02*
X0048100Y0248485D01*
X0048100Y0247887D02*
X0223722Y0247887D01*
X0223474Y0247288D02*
X0048100Y0247288D01*
X0048100Y0246690D02*
X0223311Y0246690D01*
X0223311Y0246091D02*
X0048100Y0246091D01*
X0048100Y0245493D02*
X0223399Y0245493D01*
X0223647Y0244894D02*
X0048100Y0244894D01*
X0048100Y0244296D02*
X0224077Y0244296D01*
X0224773Y0243697D02*
X0048100Y0243697D01*
X0048100Y0243099D02*
X0261300Y0243099D01*
X0261300Y0243697D02*
X0237827Y0243697D01*
X0237993Y0243766D02*
X0238834Y0244607D01*
X0239289Y0245705D01*
X0239289Y0246895D01*
X0238834Y0247993D01*
X0237993Y0248834D01*
X0236895Y0249289D01*
X0235705Y0249289D01*
X0234607Y0248834D01*
X0233766Y0247993D01*
X0233311Y0246895D01*
X0233311Y0245705D01*
X0233766Y0244607D01*
X0234607Y0243766D01*
X0235705Y0243311D01*
X0236895Y0243311D01*
X0237993Y0243766D01*
X0238523Y0244296D02*
X0261300Y0244296D01*
X0261300Y0244894D02*
X0238953Y0244894D01*
X0239201Y0245493D02*
X0261300Y0245493D01*
X0261300Y0246091D02*
X0239289Y0246091D01*
X0239289Y0246690D02*
X0261300Y0246690D01*
X0261300Y0247288D02*
X0239126Y0247288D01*
X0238878Y0247887D02*
X0261300Y0247887D01*
X0261300Y0248485D02*
X0238342Y0248485D01*
X0237390Y0249084D02*
X0261300Y0249084D01*
X0261300Y0249682D02*
X0048100Y0249682D01*
X0048100Y0250281D02*
X0261300Y0250281D01*
X0261300Y0250879D02*
X0048100Y0250879D01*
X0048100Y0251478D02*
X0261300Y0251478D01*
X0261300Y0252076D02*
X0048100Y0252076D01*
X0048100Y0252675D02*
X0261300Y0252675D01*
X0261300Y0253273D02*
X0048100Y0253273D01*
X0048100Y0253872D02*
X0224501Y0253872D01*
X0224607Y0253766D02*
X0225705Y0253311D01*
X0226895Y0253311D01*
X0227993Y0253766D01*
X0228834Y0254607D01*
X0229289Y0255705D01*
X0229289Y0256895D01*
X0228834Y0257993D01*
X0227993Y0258834D01*
X0226895Y0259289D01*
X0225705Y0259289D01*
X0224607Y0258834D01*
X0223766Y0257993D01*
X0223311Y0256895D01*
X0223311Y0255705D01*
X0223766Y0254607D01*
X0224607Y0253766D01*
X0223903Y0254470D02*
X0048100Y0254470D01*
X0048100Y0255069D02*
X0223575Y0255069D01*
X0223327Y0255667D02*
X0048100Y0255667D01*
X0048100Y0256266D02*
X0223311Y0256266D01*
X0223311Y0256864D02*
X0048100Y0256864D01*
X0048100Y0257463D02*
X0223546Y0257463D01*
X0223834Y0258061D02*
X0048100Y0258061D01*
X0048100Y0258660D02*
X0224433Y0258660D01*
X0225632Y0259258D02*
X0048100Y0259258D01*
X0048100Y0259857D02*
X0261300Y0259857D01*
X0261300Y0260455D02*
X0048100Y0260455D01*
X0048100Y0261054D02*
X0261300Y0261054D01*
X0261300Y0261652D02*
X0048100Y0261652D01*
X0048100Y0262251D02*
X0261300Y0262251D01*
X0261300Y0262849D02*
X0048100Y0262849D01*
X0048100Y0263448D02*
X0225375Y0263448D01*
X0225705Y0263311D02*
X0226895Y0263311D01*
X0227993Y0263766D01*
X0228834Y0264607D01*
X0229289Y0265705D01*
X0229289Y0266895D01*
X0228834Y0267993D01*
X0227993Y0268834D01*
X0226895Y0269289D01*
X0225705Y0269289D01*
X0224607Y0268834D01*
X0223766Y0267993D01*
X0223311Y0266895D01*
X0223311Y0265705D01*
X0223766Y0264607D01*
X0224607Y0263766D01*
X0225705Y0263311D01*
X0227225Y0263448D02*
X0235375Y0263448D01*
X0235705Y0263311D02*
X0236895Y0263311D01*
X0237993Y0263766D01*
X0238834Y0264607D01*
X0239289Y0265705D01*
X0239289Y0266895D01*
X0238834Y0267993D01*
X0237993Y0268834D01*
X0236895Y0269289D01*
X0235705Y0269289D01*
X0234607Y0268834D01*
X0233766Y0267993D01*
X0233311Y0266895D01*
X0233311Y0265705D01*
X0233766Y0264607D01*
X0234607Y0263766D01*
X0235705Y0263311D01*
X0237225Y0263448D02*
X0261300Y0263448D01*
X0261300Y0264046D02*
X0238274Y0264046D01*
X0238850Y0264645D02*
X0261300Y0264645D01*
X0261300Y0265243D02*
X0239098Y0265243D01*
X0239289Y0265842D02*
X0261300Y0265842D01*
X0261300Y0266441D02*
X0239289Y0266441D01*
X0239229Y0267039D02*
X0261300Y0267039D01*
X0261300Y0267638D02*
X0238981Y0267638D01*
X0238591Y0268236D02*
X0261300Y0268236D01*
X0261300Y0268835D02*
X0237992Y0268835D01*
X0234608Y0268835D02*
X0227992Y0268835D01*
X0228591Y0268236D02*
X0234009Y0268236D01*
X0233619Y0267638D02*
X0228981Y0267638D01*
X0229229Y0267039D02*
X0233371Y0267039D01*
X0233311Y0266441D02*
X0229289Y0266441D01*
X0229289Y0265842D02*
X0233311Y0265842D01*
X0233502Y0265243D02*
X0229098Y0265243D01*
X0228850Y0264645D02*
X0233750Y0264645D01*
X0234326Y0264046D02*
X0228274Y0264046D01*
X0226968Y0259258D02*
X0235632Y0259258D01*
X0235705Y0259289D02*
X0234607Y0258834D01*
X0233766Y0257993D01*
X0233311Y0256895D01*
X0233311Y0255705D01*
X0233766Y0254607D01*
X0234607Y0253766D01*
X0235705Y0253311D01*
X0236895Y0253311D01*
X0237993Y0253766D01*
X0238834Y0254607D01*
X0239289Y0255705D01*
X0239289Y0256895D01*
X0238834Y0257993D01*
X0237993Y0258834D01*
X0236895Y0259289D01*
X0235705Y0259289D01*
X0236968Y0259258D02*
X0261300Y0259258D01*
X0261300Y0258660D02*
X0238167Y0258660D01*
X0238766Y0258061D02*
X0261300Y0258061D01*
X0261300Y0257463D02*
X0239054Y0257463D01*
X0239289Y0256864D02*
X0261300Y0256864D01*
X0261300Y0256266D02*
X0239289Y0256266D01*
X0239273Y0255667D02*
X0261300Y0255667D01*
X0261300Y0255069D02*
X0239025Y0255069D01*
X0238697Y0254470D02*
X0261300Y0254470D01*
X0261300Y0253872D02*
X0238099Y0253872D01*
X0234501Y0253872D02*
X0228099Y0253872D01*
X0228697Y0254470D02*
X0233903Y0254470D01*
X0233575Y0255069D02*
X0229025Y0255069D01*
X0229273Y0255667D02*
X0233327Y0255667D01*
X0233311Y0256266D02*
X0229289Y0256266D01*
X0229289Y0256864D02*
X0233311Y0256864D01*
X0233546Y0257463D02*
X0229054Y0257463D01*
X0228766Y0258061D02*
X0233834Y0258061D01*
X0234433Y0258660D02*
X0228167Y0258660D01*
X0224326Y0264046D02*
X0048100Y0264046D01*
X0048100Y0264645D02*
X0223750Y0264645D01*
X0223502Y0265243D02*
X0048100Y0265243D01*
X0048100Y0265842D02*
X0223311Y0265842D01*
X0223311Y0266441D02*
X0048100Y0266441D01*
X0048100Y0267039D02*
X0223371Y0267039D01*
X0223619Y0267638D02*
X0048100Y0267638D01*
X0048100Y0268236D02*
X0224009Y0268236D01*
X0224608Y0268835D02*
X0048100Y0268835D01*
X0048100Y0269433D02*
X0261300Y0269433D01*
X0261300Y0270032D02*
X0048100Y0270032D01*
X0048100Y0270630D02*
X0261300Y0270630D01*
X0261300Y0271229D02*
X0048100Y0271229D01*
X0048100Y0271827D02*
X0261300Y0271827D01*
X0261300Y0272426D02*
X0048100Y0272426D01*
X0048100Y0273024D02*
X0261300Y0273024D01*
X0261300Y0273623D02*
X0237647Y0273623D01*
X0237993Y0273766D02*
X0238834Y0274607D01*
X0239289Y0275705D01*
X0239289Y0276895D01*
X0238834Y0277993D01*
X0237993Y0278834D01*
X0236895Y0279289D01*
X0235705Y0279289D01*
X0234607Y0278834D01*
X0233766Y0277993D01*
X0233311Y0276895D01*
X0233311Y0275705D01*
X0233766Y0274607D01*
X0234607Y0273766D01*
X0235705Y0273311D01*
X0236895Y0273311D01*
X0237993Y0273766D01*
X0238448Y0274221D02*
X0261300Y0274221D01*
X0261300Y0274820D02*
X0238922Y0274820D01*
X0239170Y0275418D02*
X0261300Y0275418D01*
X0261300Y0276017D02*
X0239289Y0276017D01*
X0239289Y0276615D02*
X0261300Y0276615D01*
X0261300Y0277214D02*
X0239157Y0277214D01*
X0238909Y0277812D02*
X0261300Y0277812D01*
X0261300Y0278411D02*
X0238416Y0278411D01*
X0237570Y0279009D02*
X0261300Y0279009D01*
X0261300Y0279608D02*
X0048100Y0279608D01*
X0048100Y0280206D02*
X0261300Y0280206D01*
X0261300Y0280805D02*
X0048100Y0280805D01*
X0048100Y0281403D02*
X0261300Y0281403D01*
X0261300Y0282002D02*
X0048100Y0282002D01*
X0047545Y0282600D02*
X0261300Y0282600D01*
X0261300Y0283199D02*
X0046947Y0283199D01*
X0046348Y0283797D02*
X0224576Y0283797D01*
X0224607Y0283766D02*
X0225705Y0283311D01*
X0226895Y0283311D01*
X0227993Y0283766D01*
X0228834Y0284607D01*
X0229289Y0285705D01*
X0229289Y0286895D01*
X0228834Y0287993D01*
X0227993Y0288834D01*
X0226895Y0289289D01*
X0225705Y0289289D01*
X0224607Y0288834D01*
X0223766Y0287993D01*
X0223311Y0286895D01*
X0223311Y0285705D01*
X0223766Y0284607D01*
X0224607Y0283766D01*
X0223977Y0284396D02*
X0045750Y0284396D01*
X0045151Y0284994D02*
X0223606Y0284994D01*
X0223358Y0285593D02*
X0044553Y0285593D01*
X0043954Y0286191D02*
X0223311Y0286191D01*
X0223311Y0286790D02*
X0043356Y0286790D01*
X0042757Y0287388D02*
X0223516Y0287388D01*
X0223764Y0287987D02*
X0042159Y0287987D01*
X0041560Y0288585D02*
X0224358Y0288585D01*
X0225452Y0289184D02*
X0040962Y0289184D01*
X0040363Y0289782D02*
X0261300Y0289782D01*
X0261300Y0289184D02*
X0237148Y0289184D01*
X0236895Y0289289D02*
X0235705Y0289289D01*
X0234607Y0288834D01*
X0233766Y0287993D01*
X0233311Y0286895D01*
X0233311Y0285705D01*
X0233766Y0284607D01*
X0234607Y0283766D01*
X0235705Y0283311D01*
X0236895Y0283311D01*
X0237993Y0283766D01*
X0238834Y0284607D01*
X0239289Y0285705D01*
X0239289Y0286895D01*
X0238834Y0287993D01*
X0237993Y0288834D01*
X0236895Y0289289D01*
X0235452Y0289184D02*
X0227148Y0289184D01*
X0228242Y0288585D02*
X0234358Y0288585D01*
X0233764Y0287987D02*
X0228836Y0287987D01*
X0229084Y0287388D02*
X0233516Y0287388D01*
X0233311Y0286790D02*
X0229289Y0286790D01*
X0229289Y0286191D02*
X0233311Y0286191D01*
X0233358Y0285593D02*
X0229242Y0285593D01*
X0228994Y0284994D02*
X0233606Y0284994D01*
X0233977Y0284396D02*
X0228623Y0284396D01*
X0228024Y0283797D02*
X0234576Y0283797D01*
X0238024Y0283797D02*
X0261300Y0283797D01*
X0261300Y0284396D02*
X0238623Y0284396D01*
X0238994Y0284994D02*
X0261300Y0284994D01*
X0261300Y0285593D02*
X0239242Y0285593D01*
X0239289Y0286191D02*
X0261300Y0286191D01*
X0261300Y0286790D02*
X0239289Y0286790D01*
X0239084Y0287388D02*
X0261300Y0287388D01*
X0261300Y0287987D02*
X0238836Y0287987D01*
X0238242Y0288585D02*
X0261300Y0288585D01*
X0261300Y0290381D02*
X0039765Y0290381D01*
X0039166Y0290979D02*
X0261300Y0290979D01*
X0261300Y0291578D02*
X0038568Y0291578D01*
X0037969Y0292177D02*
X0261300Y0292177D01*
X0261300Y0292775D02*
X0037371Y0292775D01*
X0037045Y0293374D02*
X0225555Y0293374D01*
X0225705Y0293311D02*
X0226895Y0293311D01*
X0227993Y0293766D01*
X0228834Y0294607D01*
X0229289Y0295705D01*
X0229289Y0296895D01*
X0228834Y0297993D01*
X0227993Y0298834D01*
X0226895Y0299289D01*
X0225705Y0299289D01*
X0224607Y0298834D01*
X0223766Y0297993D01*
X0223311Y0296895D01*
X0223311Y0295705D01*
X0223766Y0294607D01*
X0224607Y0293766D01*
X0225705Y0293311D01*
X0227045Y0293374D02*
X0235555Y0293374D01*
X0235705Y0293311D02*
X0236895Y0293311D01*
X0237993Y0293766D01*
X0238834Y0294607D01*
X0239289Y0295705D01*
X0239289Y0296895D01*
X0238834Y0297993D01*
X0237993Y0298834D01*
X0236895Y0299289D01*
X0235705Y0299289D01*
X0234607Y0298834D01*
X0233766Y0297993D01*
X0233311Y0296895D01*
X0233311Y0295705D01*
X0233766Y0294607D01*
X0234607Y0293766D01*
X0235705Y0293311D01*
X0237045Y0293374D02*
X0261300Y0293374D01*
X0261300Y0293972D02*
X0238199Y0293972D01*
X0238798Y0294571D02*
X0261300Y0294571D01*
X0261300Y0295169D02*
X0239067Y0295169D01*
X0239289Y0295768D02*
X0261300Y0295768D01*
X0261300Y0296366D02*
X0239289Y0296366D01*
X0239260Y0296965D02*
X0261300Y0296965D01*
X0261300Y0297563D02*
X0239012Y0297563D01*
X0238665Y0298162D02*
X0261300Y0298162D01*
X0261300Y0298760D02*
X0238067Y0298760D01*
X0234533Y0298760D02*
X0228067Y0298760D01*
X0228665Y0298162D02*
X0233935Y0298162D01*
X0233588Y0297563D02*
X0229012Y0297563D01*
X0229260Y0296965D02*
X0233340Y0296965D01*
X0233311Y0296366D02*
X0229289Y0296366D01*
X0229289Y0295768D02*
X0233311Y0295768D01*
X0233533Y0295169D02*
X0229067Y0295169D01*
X0228798Y0294571D02*
X0233802Y0294571D01*
X0234401Y0293972D02*
X0228199Y0293972D01*
X0224401Y0293972D02*
X0038199Y0293972D01*
X0038798Y0294571D02*
X0223802Y0294571D01*
X0223533Y0295169D02*
X0039067Y0295169D01*
X0039289Y0295768D02*
X0223311Y0295768D01*
X0223311Y0296366D02*
X0039289Y0296366D01*
X0039260Y0296965D02*
X0223340Y0296965D01*
X0223588Y0297563D02*
X0039012Y0297563D01*
X0038665Y0298162D02*
X0223935Y0298162D01*
X0224533Y0298760D02*
X0038067Y0298760D01*
X0036895Y0303311D02*
X0037993Y0303766D01*
X0038834Y0304607D01*
X0039289Y0305705D01*
X0039289Y0306895D01*
X0038834Y0307993D01*
X0037993Y0308834D01*
X0036895Y0309289D01*
X0035705Y0309289D01*
X0034607Y0308834D01*
X0033766Y0307993D01*
X0033311Y0306895D01*
X0033311Y0305705D01*
X0033766Y0304607D01*
X0034607Y0303766D01*
X0035705Y0303311D01*
X0036895Y0303311D01*
X0037467Y0303548D02*
X0225133Y0303548D01*
X0224607Y0303766D02*
X0225705Y0303311D01*
X0226895Y0303311D01*
X0227993Y0303766D01*
X0228834Y0304607D01*
X0229289Y0305705D01*
X0229289Y0306895D01*
X0228834Y0307993D01*
X0227993Y0308834D01*
X0226895Y0309289D01*
X0225705Y0309289D01*
X0224607Y0308834D01*
X0223766Y0307993D01*
X0223311Y0306895D01*
X0223311Y0305705D01*
X0223766Y0304607D01*
X0224607Y0303766D01*
X0224226Y0304147D02*
X0038374Y0304147D01*
X0038891Y0304745D02*
X0223709Y0304745D01*
X0223461Y0305344D02*
X0039139Y0305344D01*
X0039289Y0305942D02*
X0223311Y0305942D01*
X0223311Y0306541D02*
X0039289Y0306541D01*
X0039188Y0307139D02*
X0223412Y0307139D01*
X0223660Y0307738D02*
X0038940Y0307738D01*
X0038491Y0308336D02*
X0224109Y0308336D01*
X0224850Y0308935D02*
X0037750Y0308935D01*
X0034850Y0308935D02*
X0027750Y0308935D01*
X0027993Y0308834D02*
X0026895Y0309289D01*
X0025705Y0309289D01*
X0024607Y0308834D01*
X0023766Y0307993D01*
X0023311Y0306895D01*
X0023311Y0305705D01*
X0023766Y0304607D01*
X0024607Y0303766D01*
X0025705Y0303311D01*
X0026895Y0303311D01*
X0027993Y0303766D01*
X0028834Y0304607D01*
X0029289Y0305705D01*
X0029289Y0306895D01*
X0028834Y0307993D01*
X0027993Y0308834D01*
X0028491Y0308336D02*
X0034109Y0308336D01*
X0033660Y0307738D02*
X0028940Y0307738D01*
X0029188Y0307139D02*
X0033412Y0307139D01*
X0033311Y0306541D02*
X0029289Y0306541D01*
X0029289Y0305942D02*
X0033311Y0305942D01*
X0033461Y0305344D02*
X0029139Y0305344D01*
X0028891Y0304745D02*
X0033709Y0304745D01*
X0034226Y0304147D02*
X0028374Y0304147D01*
X0027467Y0303548D02*
X0035133Y0303548D01*
X0035705Y0313311D02*
X0034607Y0313766D01*
X0033766Y0314607D01*
X0033311Y0315705D01*
X0033311Y0316895D01*
X0033766Y0317993D01*
X0034607Y0318834D01*
X0035705Y0319289D01*
X0036895Y0319289D01*
X0037993Y0318834D01*
X0038834Y0317993D01*
X0039289Y0316895D01*
X0039289Y0315705D01*
X0038834Y0314607D01*
X0037993Y0313766D01*
X0036895Y0313311D01*
X0035705Y0313311D01*
X0034711Y0313723D02*
X0027889Y0313723D01*
X0027993Y0313766D02*
X0028834Y0314607D01*
X0029289Y0315705D01*
X0029289Y0316895D01*
X0028834Y0317993D01*
X0027993Y0318834D01*
X0026895Y0319289D01*
X0025705Y0319289D01*
X0024607Y0318834D01*
X0023766Y0317993D01*
X0023311Y0316895D01*
X0023311Y0315705D01*
X0023766Y0314607D01*
X0024607Y0313766D01*
X0025705Y0313311D01*
X0026895Y0313311D01*
X0027993Y0313766D01*
X0028548Y0314321D02*
X0034052Y0314321D01*
X0033636Y0314920D02*
X0028964Y0314920D01*
X0029211Y0315518D02*
X0033388Y0315518D01*
X0033311Y0316117D02*
X0029289Y0316117D01*
X0029289Y0316715D02*
X0033311Y0316715D01*
X0033485Y0317314D02*
X0029115Y0317314D01*
X0028867Y0317912D02*
X0033733Y0317912D01*
X0034284Y0318511D02*
X0028316Y0318511D01*
X0027328Y0319110D02*
X0035272Y0319110D01*
X0037328Y0319110D02*
X0225272Y0319110D01*
X0225705Y0319289D02*
X0224607Y0318834D01*
X0223766Y0317993D01*
X0223311Y0316895D01*
X0223311Y0315705D01*
X0223766Y0314607D01*
X0224607Y0313766D01*
X0225705Y0313311D01*
X0226895Y0313311D01*
X0227993Y0313766D01*
X0228834Y0314607D01*
X0229289Y0315705D01*
X0229289Y0316895D01*
X0228834Y0317993D01*
X0227993Y0318834D01*
X0226895Y0319289D01*
X0225705Y0319289D01*
X0224284Y0318511D02*
X0038316Y0318511D01*
X0038867Y0317912D02*
X0223733Y0317912D01*
X0223485Y0317314D02*
X0039115Y0317314D01*
X0039289Y0316715D02*
X0223311Y0316715D01*
X0223311Y0316117D02*
X0039289Y0316117D01*
X0039211Y0315518D02*
X0223388Y0315518D01*
X0223636Y0314920D02*
X0038964Y0314920D01*
X0038548Y0314321D02*
X0224052Y0314321D01*
X0224711Y0313723D02*
X0037889Y0313723D01*
X0036895Y0323311D02*
X0037993Y0323766D01*
X0038834Y0324607D01*
X0039289Y0325705D01*
X0039289Y0326895D01*
X0038834Y0327993D01*
X0037993Y0328834D01*
X0036895Y0329289D01*
X0035705Y0329289D01*
X0034607Y0328834D01*
X0033766Y0327993D01*
X0033311Y0326895D01*
X0033311Y0325705D01*
X0033766Y0324607D01*
X0034607Y0323766D01*
X0035705Y0323311D01*
X0036895Y0323311D01*
X0038125Y0323898D02*
X0224475Y0323898D01*
X0224607Y0323766D02*
X0225705Y0323311D01*
X0226895Y0323311D01*
X0227993Y0323766D01*
X0228834Y0324607D01*
X0229289Y0325705D01*
X0229289Y0326895D01*
X0228834Y0327993D01*
X0227993Y0328834D01*
X0226895Y0329289D01*
X0225705Y0329289D01*
X0224607Y0328834D01*
X0223766Y0327993D01*
X0223311Y0326895D01*
X0223311Y0325705D01*
X0223766Y0324607D01*
X0224607Y0323766D01*
X0223877Y0324496D02*
X0038723Y0324496D01*
X0039036Y0325095D02*
X0223564Y0325095D01*
X0223316Y0325693D02*
X0039284Y0325693D01*
X0039289Y0326292D02*
X0223311Y0326292D01*
X0223311Y0326890D02*
X0039289Y0326890D01*
X0039043Y0327489D02*
X0223557Y0327489D01*
X0223860Y0328087D02*
X0038740Y0328087D01*
X0038141Y0328686D02*
X0224459Y0328686D01*
X0225694Y0329284D02*
X0036906Y0329284D01*
X0035694Y0329284D02*
X0001300Y0329284D01*
X0001300Y0328686D02*
X0034459Y0328686D01*
X0033860Y0328087D02*
X0001300Y0328087D01*
X0001300Y0327489D02*
X0033557Y0327489D01*
X0033311Y0326890D02*
X0001300Y0326890D01*
X0001300Y0326292D02*
X0033311Y0326292D01*
X0033316Y0325693D02*
X0001300Y0325693D01*
X0001300Y0325095D02*
X0033564Y0325095D01*
X0033877Y0324496D02*
X0001300Y0324496D01*
X0001300Y0323898D02*
X0034475Y0323898D01*
X0035705Y0333311D02*
X0034607Y0333766D01*
X0033766Y0334607D01*
X0033311Y0335705D01*
X0033311Y0336895D01*
X0033766Y0337993D01*
X0034607Y0338834D01*
X0035705Y0339289D01*
X0036895Y0339289D01*
X0037993Y0338834D01*
X0038834Y0337993D01*
X0039289Y0336895D01*
X0039289Y0335705D01*
X0038834Y0334607D01*
X0037993Y0333766D01*
X0036895Y0333311D01*
X0035705Y0333311D01*
X0035313Y0333474D02*
X0027287Y0333474D01*
X0026895Y0333311D02*
X0027993Y0333766D01*
X0028834Y0334607D01*
X0029289Y0335705D01*
X0029289Y0336895D01*
X0028834Y0337993D01*
X0027993Y0338834D01*
X0026895Y0339289D01*
X0025705Y0339289D01*
X0024607Y0338834D01*
X0023766Y0337993D01*
X0023311Y0336895D01*
X0023311Y0335705D01*
X0023766Y0334607D01*
X0024607Y0333766D01*
X0025705Y0333311D01*
X0026895Y0333311D01*
X0025313Y0333474D02*
X0001300Y0333474D01*
X0001300Y0334072D02*
X0024301Y0334072D01*
X0023740Y0334671D02*
X0001300Y0334671D01*
X0001300Y0335269D02*
X0023492Y0335269D01*
X0023311Y0335868D02*
X0001300Y0335868D01*
X0001300Y0336466D02*
X0023311Y0336466D01*
X0023382Y0337065D02*
X0001300Y0337065D01*
X0001300Y0337663D02*
X0023629Y0337663D01*
X0024035Y0338262D02*
X0001300Y0338262D01*
X0001300Y0338860D02*
X0024671Y0338860D01*
X0027929Y0338860D02*
X0034671Y0338860D01*
X0034035Y0338262D02*
X0028565Y0338262D01*
X0028971Y0337663D02*
X0033629Y0337663D01*
X0033382Y0337065D02*
X0029218Y0337065D01*
X0029289Y0336466D02*
X0033311Y0336466D01*
X0033311Y0335868D02*
X0029289Y0335868D01*
X0029108Y0335269D02*
X0033492Y0335269D01*
X0033740Y0334671D02*
X0028860Y0334671D01*
X0028299Y0334072D02*
X0034301Y0334072D01*
X0037287Y0333474D02*
X0225313Y0333474D01*
X0225705Y0333311D02*
X0226895Y0333311D01*
X0227993Y0333766D01*
X0228834Y0334607D01*
X0229289Y0335705D01*
X0229289Y0336895D01*
X0228834Y0337993D01*
X0227993Y0338834D01*
X0226895Y0339289D01*
X0225705Y0339289D01*
X0224607Y0338834D01*
X0223766Y0337993D01*
X0223311Y0336895D01*
X0223311Y0335705D01*
X0223766Y0334607D01*
X0224607Y0333766D01*
X0225705Y0333311D01*
X0227287Y0333474D02*
X0235313Y0333474D01*
X0235705Y0333311D02*
X0236895Y0333311D01*
X0237993Y0333766D01*
X0238834Y0334607D01*
X0239289Y0335705D01*
X0239289Y0336895D01*
X0238834Y0337993D01*
X0237993Y0338834D01*
X0236895Y0339289D01*
X0235705Y0339289D01*
X0234607Y0338834D01*
X0233766Y0337993D01*
X0233311Y0336895D01*
X0233311Y0335705D01*
X0233766Y0334607D01*
X0234607Y0333766D01*
X0235705Y0333311D01*
X0237287Y0333474D02*
X0261300Y0333474D01*
X0261300Y0334072D02*
X0238299Y0334072D01*
X0238860Y0334671D02*
X0261300Y0334671D01*
X0261300Y0335269D02*
X0239108Y0335269D01*
X0239289Y0335868D02*
X0261300Y0335868D01*
X0261300Y0336466D02*
X0239289Y0336466D01*
X0239218Y0337065D02*
X0261300Y0337065D01*
X0261300Y0337663D02*
X0238971Y0337663D01*
X0238565Y0338262D02*
X0261300Y0338262D01*
X0261300Y0338860D02*
X0237929Y0338860D01*
X0234671Y0338860D02*
X0227929Y0338860D01*
X0228565Y0338262D02*
X0234035Y0338262D01*
X0233629Y0337663D02*
X0228971Y0337663D01*
X0229218Y0337065D02*
X0233382Y0337065D01*
X0233311Y0336466D02*
X0229289Y0336466D01*
X0229289Y0335868D02*
X0233311Y0335868D01*
X0233492Y0335269D02*
X0229108Y0335269D01*
X0228860Y0334671D02*
X0233740Y0334671D01*
X0234301Y0334072D02*
X0228299Y0334072D01*
X0226906Y0329284D02*
X0235694Y0329284D01*
X0235705Y0329289D02*
X0234607Y0328834D01*
X0233766Y0327993D01*
X0233311Y0326895D01*
X0233311Y0325705D01*
X0233766Y0324607D01*
X0234607Y0323766D01*
X0235705Y0323311D01*
X0236895Y0323311D01*
X0237993Y0323766D01*
X0238834Y0324607D01*
X0239289Y0325705D01*
X0239289Y0326895D01*
X0238834Y0327993D01*
X0237993Y0328834D01*
X0236895Y0329289D01*
X0235705Y0329289D01*
X0236906Y0329284D02*
X0261300Y0329284D01*
X0261300Y0328686D02*
X0238141Y0328686D01*
X0238740Y0328087D02*
X0261300Y0328087D01*
X0261300Y0327489D02*
X0239043Y0327489D01*
X0239289Y0326890D02*
X0261300Y0326890D01*
X0261300Y0326292D02*
X0239289Y0326292D01*
X0239284Y0325693D02*
X0261300Y0325693D01*
X0261300Y0325095D02*
X0239036Y0325095D01*
X0238723Y0324496D02*
X0261300Y0324496D01*
X0261300Y0323898D02*
X0238125Y0323898D01*
X0234475Y0323898D02*
X0228125Y0323898D01*
X0228723Y0324496D02*
X0233877Y0324496D01*
X0233564Y0325095D02*
X0229036Y0325095D01*
X0229284Y0325693D02*
X0233316Y0325693D01*
X0233311Y0326292D02*
X0229289Y0326292D01*
X0229289Y0326890D02*
X0233311Y0326890D01*
X0233557Y0327489D02*
X0229043Y0327489D01*
X0228740Y0328087D02*
X0233860Y0328087D01*
X0234459Y0328686D02*
X0228141Y0328686D01*
X0224301Y0334072D02*
X0038299Y0334072D01*
X0038860Y0334671D02*
X0223740Y0334671D01*
X0223492Y0335269D02*
X0039108Y0335269D01*
X0039289Y0335868D02*
X0223311Y0335868D01*
X0223311Y0336466D02*
X0039289Y0336466D01*
X0039218Y0337065D02*
X0223382Y0337065D01*
X0223629Y0337663D02*
X0038971Y0337663D01*
X0038565Y0338262D02*
X0224035Y0338262D01*
X0224671Y0338860D02*
X0037929Y0338860D01*
X0025272Y0319110D02*
X0001300Y0319110D01*
X0001300Y0319708D02*
X0261300Y0319708D01*
X0261300Y0319110D02*
X0237328Y0319110D01*
X0236895Y0319289D02*
X0235705Y0319289D01*
X0234607Y0318834D01*
X0233766Y0317993D01*
X0233311Y0316895D01*
X0233311Y0315705D01*
X0233766Y0314607D01*
X0234607Y0313766D01*
X0235705Y0313311D01*
X0236895Y0313311D01*
X0237993Y0313766D01*
X0238834Y0314607D01*
X0239289Y0315705D01*
X0239289Y0316895D01*
X0238834Y0317993D01*
X0237993Y0318834D01*
X0236895Y0319289D01*
X0238316Y0318511D02*
X0261300Y0318511D01*
X0261300Y0317912D02*
X0238867Y0317912D01*
X0239115Y0317314D02*
X0261300Y0317314D01*
X0261300Y0316715D02*
X0239289Y0316715D01*
X0239289Y0316117D02*
X0261300Y0316117D01*
X0261300Y0315518D02*
X0239211Y0315518D01*
X0238964Y0314920D02*
X0261300Y0314920D01*
X0261300Y0314321D02*
X0238548Y0314321D01*
X0237889Y0313723D02*
X0261300Y0313723D01*
X0261300Y0313124D02*
X0001300Y0313124D01*
X0001300Y0312526D02*
X0261300Y0312526D01*
X0261300Y0311927D02*
X0001300Y0311927D01*
X0001300Y0311329D02*
X0261300Y0311329D01*
X0261300Y0310730D02*
X0001300Y0310730D01*
X0001300Y0310132D02*
X0261300Y0310132D01*
X0261300Y0309533D02*
X0001300Y0309533D01*
X0001300Y0308935D02*
X0024850Y0308935D01*
X0024109Y0308336D02*
X0001300Y0308336D01*
X0001300Y0307738D02*
X0023660Y0307738D01*
X0023412Y0307139D02*
X0001300Y0307139D01*
X0001300Y0306541D02*
X0023311Y0306541D01*
X0023311Y0305942D02*
X0001300Y0305942D01*
X0001300Y0305344D02*
X0023461Y0305344D01*
X0023709Y0304745D02*
X0001300Y0304745D01*
X0001300Y0304147D02*
X0024226Y0304147D01*
X0025133Y0303548D02*
X0001300Y0303548D01*
X0001300Y0302950D02*
X0261300Y0302950D01*
X0261300Y0303548D02*
X0237467Y0303548D01*
X0237993Y0303766D02*
X0238834Y0304607D01*
X0239289Y0305705D01*
X0239289Y0306895D01*
X0238834Y0307993D01*
X0237993Y0308834D01*
X0236895Y0309289D01*
X0235705Y0309289D01*
X0234607Y0308834D01*
X0233766Y0307993D01*
X0233311Y0306895D01*
X0233311Y0305705D01*
X0233766Y0304607D01*
X0234607Y0303766D01*
X0235705Y0303311D01*
X0236895Y0303311D01*
X0237993Y0303766D01*
X0238374Y0304147D02*
X0261300Y0304147D01*
X0261300Y0304745D02*
X0238891Y0304745D01*
X0239139Y0305344D02*
X0261300Y0305344D01*
X0261300Y0305942D02*
X0239289Y0305942D01*
X0239289Y0306541D02*
X0261300Y0306541D01*
X0261300Y0307139D02*
X0239188Y0307139D01*
X0238940Y0307738D02*
X0261300Y0307738D01*
X0261300Y0308336D02*
X0238491Y0308336D01*
X0237750Y0308935D02*
X0261300Y0308935D01*
X0261300Y0302351D02*
X0001300Y0302351D01*
X0001300Y0301753D02*
X0261300Y0301753D01*
X0261300Y0301154D02*
X0001300Y0301154D01*
X0001300Y0300556D02*
X0261300Y0300556D01*
X0261300Y0299957D02*
X0001300Y0299957D01*
X0001300Y0299359D02*
X0261300Y0299359D01*
X0261300Y0320307D02*
X0001300Y0320307D01*
X0001300Y0320905D02*
X0261300Y0320905D01*
X0261300Y0321504D02*
X0001300Y0321504D01*
X0001300Y0322102D02*
X0261300Y0322102D01*
X0261300Y0322701D02*
X0001300Y0322701D01*
X0001300Y0323299D02*
X0261300Y0323299D01*
X0261300Y0329883D02*
X0001300Y0329883D01*
X0001300Y0330481D02*
X0261300Y0330481D01*
X0261300Y0331080D02*
X0001300Y0331080D01*
X0001300Y0331678D02*
X0261300Y0331678D01*
X0261300Y0332277D02*
X0001300Y0332277D01*
X0001300Y0332875D02*
X0261300Y0332875D01*
X0261300Y0339459D02*
X0001300Y0339459D01*
X0001300Y0340057D02*
X0261300Y0340057D01*
X0261300Y0340656D02*
X0001300Y0340656D01*
X0001300Y0341254D02*
X0261300Y0341254D01*
X0261300Y0341853D02*
X0001300Y0341853D01*
X0001300Y0342451D02*
X0261300Y0342451D01*
X0261300Y0343050D02*
X0001300Y0343050D01*
X0001300Y0343648D02*
X0261300Y0343648D01*
X0261300Y0344247D02*
X0001300Y0344247D01*
X0001300Y0344845D02*
X0261300Y0344845D01*
X0261300Y0345444D02*
X0001300Y0345444D01*
X0001300Y0346043D02*
X0261300Y0346043D01*
X0261300Y0346641D02*
X0001300Y0346641D01*
X0001300Y0347240D02*
X0261300Y0347240D01*
X0261300Y0347838D02*
X0001300Y0347838D01*
X0001300Y0348437D02*
X0261300Y0348437D01*
X0261300Y0349035D02*
X0001300Y0349035D01*
X0001300Y0349634D02*
X0261300Y0349634D01*
X0261300Y0350232D02*
X0001300Y0350232D01*
X0001300Y0350831D02*
X0261300Y0350831D01*
X0261300Y0351429D02*
X0001300Y0351429D01*
X0001300Y0352028D02*
X0261300Y0352028D01*
X0261300Y0352626D02*
X0001300Y0352626D01*
X0001300Y0353225D02*
X0261300Y0353225D01*
X0261300Y0353823D02*
X0001300Y0353823D01*
X0001300Y0354422D02*
X0261300Y0354422D01*
X0261300Y0355020D02*
X0001300Y0355020D01*
X0001300Y0355619D02*
X0261300Y0355619D01*
X0261300Y0356217D02*
X0001300Y0356217D01*
X0001300Y0356816D02*
X0261300Y0356816D01*
X0261300Y0357414D02*
X0001300Y0357414D01*
X0001300Y0358013D02*
X0261300Y0358013D01*
X0261300Y0358611D02*
X0001300Y0358611D01*
X0001300Y0359210D02*
X0261300Y0359210D01*
X0261300Y0359808D02*
X0001300Y0359808D01*
X0001300Y0360407D02*
X0261300Y0360407D01*
X0261300Y0361005D02*
X0001300Y0361005D01*
X0001300Y0361604D02*
X0261300Y0361604D01*
X0261300Y0362202D02*
X0001300Y0362202D01*
X0001300Y0362801D02*
X0261300Y0362801D01*
X0261300Y0363399D02*
X0001300Y0363399D01*
X0001300Y0363998D02*
X0261300Y0363998D01*
X0261300Y0364596D02*
X0001300Y0364596D01*
X0001300Y0365195D02*
X0261300Y0365195D01*
X0261300Y0365793D02*
X0001300Y0365793D01*
X0001300Y0318511D02*
X0024284Y0318511D01*
X0023733Y0317912D02*
X0001300Y0317912D01*
X0001300Y0317314D02*
X0023485Y0317314D01*
X0023311Y0316715D02*
X0001300Y0316715D01*
X0001300Y0316117D02*
X0023311Y0316117D01*
X0023388Y0315518D02*
X0001300Y0315518D01*
X0001300Y0314920D02*
X0023636Y0314920D01*
X0024052Y0314321D02*
X0001300Y0314321D01*
X0001300Y0313723D02*
X0024711Y0313723D01*
X0039242Y0285593D02*
X0039462Y0285593D01*
X0038994Y0284994D02*
X0040060Y0284994D01*
X0040659Y0284396D02*
X0038623Y0284396D01*
X0036895Y0279289D02*
X0035705Y0279289D01*
X0034607Y0278834D01*
X0033766Y0277993D01*
X0033311Y0276895D01*
X0033311Y0275705D01*
X0033766Y0274607D01*
X0034607Y0273766D01*
X0035705Y0273311D01*
X0036895Y0273311D01*
X0037993Y0273766D01*
X0038834Y0274607D01*
X0039289Y0275705D01*
X0039289Y0276895D01*
X0038834Y0277993D01*
X0037993Y0278834D01*
X0036895Y0279289D01*
X0037570Y0279009D02*
X0044500Y0279009D01*
X0044500Y0278411D02*
X0038416Y0278411D01*
X0038909Y0277812D02*
X0044500Y0277812D01*
X0044500Y0277214D02*
X0039157Y0277214D01*
X0039289Y0276615D02*
X0044500Y0276615D01*
X0044500Y0276017D02*
X0039289Y0276017D01*
X0039170Y0275418D02*
X0044500Y0275418D01*
X0044500Y0274820D02*
X0038922Y0274820D01*
X0038448Y0274221D02*
X0044500Y0274221D01*
X0044500Y0273623D02*
X0037647Y0273623D01*
X0034953Y0273623D02*
X0027647Y0273623D01*
X0028448Y0274221D02*
X0034152Y0274221D01*
X0033678Y0274820D02*
X0028922Y0274820D01*
X0029170Y0275418D02*
X0033430Y0275418D01*
X0033311Y0276017D02*
X0029289Y0276017D01*
X0029289Y0276615D02*
X0033311Y0276615D01*
X0033443Y0277214D02*
X0029157Y0277214D01*
X0028909Y0277812D02*
X0033691Y0277812D01*
X0034184Y0278411D02*
X0028416Y0278411D01*
X0027570Y0279009D02*
X0035030Y0279009D01*
X0027993Y0268834D02*
X0026895Y0269289D01*
X0025705Y0269289D01*
X0024607Y0268834D01*
X0023766Y0267993D01*
X0023311Y0266895D01*
X0023311Y0265705D01*
X0023766Y0264607D01*
X0024607Y0263766D01*
X0025705Y0263311D01*
X0026895Y0263311D01*
X0027993Y0263766D01*
X0028834Y0264607D01*
X0029289Y0265705D01*
X0029289Y0266895D01*
X0028834Y0267993D01*
X0027993Y0268834D01*
X0027992Y0268835D02*
X0034608Y0268835D01*
X0034009Y0268236D02*
X0028591Y0268236D01*
X0028981Y0267638D02*
X0033619Y0267638D01*
X0033371Y0267039D02*
X0029229Y0267039D01*
X0029289Y0266441D02*
X0033311Y0266441D01*
X0033311Y0265842D02*
X0029289Y0265842D01*
X0029098Y0265243D02*
X0033502Y0265243D01*
X0033750Y0264645D02*
X0028850Y0264645D01*
X0028274Y0264046D02*
X0034326Y0264046D01*
X0035375Y0263448D02*
X0027225Y0263448D01*
X0025375Y0263448D02*
X0001300Y0263448D01*
X0001300Y0264046D02*
X0024326Y0264046D01*
X0023750Y0264645D02*
X0001300Y0264645D01*
X0001300Y0265243D02*
X0023502Y0265243D01*
X0023311Y0265842D02*
X0001300Y0265842D01*
X0001300Y0266441D02*
X0023311Y0266441D01*
X0023371Y0267039D02*
X0001300Y0267039D01*
X0001300Y0267638D02*
X0023619Y0267638D01*
X0024009Y0268236D02*
X0001300Y0268236D01*
X0001300Y0268835D02*
X0024608Y0268835D01*
X0027390Y0249084D02*
X0035210Y0249084D01*
X0034258Y0248485D02*
X0028342Y0248485D01*
X0028878Y0247887D02*
X0033722Y0247887D01*
X0033474Y0247288D02*
X0029126Y0247288D01*
X0029289Y0246690D02*
X0033311Y0246690D01*
X0033311Y0246091D02*
X0029289Y0246091D01*
X0029201Y0245493D02*
X0033399Y0245493D01*
X0033647Y0244894D02*
X0028953Y0244894D01*
X0028523Y0244296D02*
X0034077Y0244296D01*
X0034773Y0243697D02*
X0027827Y0243697D01*
X0033766Y0237993D02*
X0033311Y0236895D01*
X0033311Y0235705D01*
X0033766Y0234607D01*
X0034607Y0233766D01*
X0035705Y0233311D01*
X0036895Y0233311D01*
X0037993Y0233766D01*
X0038834Y0234607D01*
X0039289Y0235705D01*
X0039289Y0236895D01*
X0038834Y0237993D01*
X0037993Y0238834D01*
X0036895Y0239289D01*
X0035705Y0239289D01*
X0034607Y0238834D01*
X0033766Y0237993D01*
X0033650Y0237712D02*
X0001300Y0237712D01*
X0001300Y0238310D02*
X0034083Y0238310D01*
X0034788Y0238909D02*
X0001300Y0238909D01*
X0001300Y0239508D02*
X0045547Y0239508D01*
X0044948Y0240106D02*
X0001300Y0240106D01*
X0001300Y0240705D02*
X0044500Y0240705D01*
X0044500Y0241303D02*
X0001300Y0241303D01*
X0001300Y0241902D02*
X0044500Y0241902D01*
X0044500Y0242500D02*
X0001300Y0242500D01*
X0001300Y0237113D02*
X0033402Y0237113D01*
X0033311Y0236515D02*
X0001300Y0236515D01*
X0001300Y0235916D02*
X0033311Y0235916D01*
X0033472Y0235318D02*
X0001300Y0235318D01*
X0001300Y0234719D02*
X0033719Y0234719D01*
X0034252Y0234121D02*
X0001300Y0234121D01*
X0037405Y0233522D02*
X0051532Y0233522D01*
X0050934Y0234121D02*
X0038348Y0234121D01*
X0038881Y0234719D02*
X0050335Y0234719D01*
X0049736Y0235318D02*
X0039128Y0235318D01*
X0039289Y0235916D02*
X0049138Y0235916D01*
X0048539Y0236515D02*
X0039289Y0236515D01*
X0039198Y0237113D02*
X0047941Y0237113D01*
X0047342Y0237712D02*
X0038950Y0237712D01*
X0038517Y0238310D02*
X0046744Y0238310D01*
X0046145Y0238909D02*
X0037812Y0238909D01*
X0048244Y0241902D02*
X0261300Y0241902D01*
X0261300Y0242500D02*
X0048100Y0242500D01*
X0048843Y0241303D02*
X0261300Y0241303D01*
X0261300Y0240705D02*
X0049441Y0240705D01*
X0050040Y0240106D02*
X0261300Y0240106D01*
X0261300Y0239508D02*
X0050638Y0239508D01*
X0051237Y0238909D02*
X0224788Y0238909D01*
X0224607Y0238834D02*
X0223766Y0237993D01*
X0223311Y0236895D01*
X0223311Y0235705D01*
X0223766Y0234607D01*
X0224607Y0233766D01*
X0225705Y0233311D01*
X0226895Y0233311D01*
X0227993Y0233766D01*
X0228834Y0234607D01*
X0229289Y0235705D01*
X0229289Y0236895D01*
X0228834Y0237993D01*
X0227993Y0238834D01*
X0226895Y0239289D01*
X0225705Y0239289D01*
X0224607Y0238834D01*
X0224083Y0238310D02*
X0051835Y0238310D01*
X0052434Y0237712D02*
X0223650Y0237712D01*
X0223402Y0237113D02*
X0053032Y0237113D01*
X0053631Y0236515D02*
X0223311Y0236515D01*
X0223311Y0235916D02*
X0054229Y0235916D01*
X0054828Y0235318D02*
X0223472Y0235318D01*
X0223719Y0234719D02*
X0055426Y0234719D01*
X0056025Y0234121D02*
X0224252Y0234121D01*
X0225195Y0233522D02*
X0056623Y0233522D01*
X0057222Y0232924D02*
X0261300Y0232924D01*
X0261300Y0233522D02*
X0237405Y0233522D01*
X0236895Y0233311D02*
X0237993Y0233766D01*
X0238834Y0234607D01*
X0239289Y0235705D01*
X0239289Y0236895D01*
X0238834Y0237993D01*
X0237993Y0238834D01*
X0236895Y0239289D01*
X0235705Y0239289D01*
X0234607Y0238834D01*
X0233766Y0237993D01*
X0233311Y0236895D01*
X0233311Y0235705D01*
X0233766Y0234607D01*
X0234607Y0233766D01*
X0235705Y0233311D01*
X0236895Y0233311D01*
X0238348Y0234121D02*
X0261300Y0234121D01*
X0261300Y0234719D02*
X0238881Y0234719D01*
X0239128Y0235318D02*
X0261300Y0235318D01*
X0261300Y0235916D02*
X0239289Y0235916D01*
X0239289Y0236515D02*
X0261300Y0236515D01*
X0261300Y0237113D02*
X0239198Y0237113D01*
X0238950Y0237712D02*
X0261300Y0237712D01*
X0261300Y0238310D02*
X0238517Y0238310D01*
X0237812Y0238909D02*
X0261300Y0238909D01*
X0261300Y0232325D02*
X0057820Y0232325D01*
X0058419Y0231727D02*
X0261300Y0231727D01*
X0261300Y0231128D02*
X0059017Y0231128D01*
X0059616Y0230530D02*
X0261300Y0230530D01*
X0261300Y0229931D02*
X0060214Y0229931D01*
X0060813Y0229333D02*
X0261300Y0229333D01*
X0261300Y0228734D02*
X0238093Y0228734D01*
X0237993Y0228834D02*
X0236895Y0229289D01*
X0235705Y0229289D01*
X0234607Y0228834D01*
X0233766Y0227993D01*
X0233311Y0226895D01*
X0233311Y0225705D01*
X0233766Y0224607D01*
X0234607Y0223766D01*
X0235705Y0223311D01*
X0236895Y0223311D01*
X0237993Y0223766D01*
X0238834Y0224607D01*
X0239289Y0225705D01*
X0239289Y0226895D01*
X0238834Y0227993D01*
X0237993Y0228834D01*
X0238691Y0228136D02*
X0261300Y0228136D01*
X0261300Y0227537D02*
X0239023Y0227537D01*
X0239271Y0226939D02*
X0261300Y0226939D01*
X0261300Y0226340D02*
X0239289Y0226340D01*
X0239289Y0225742D02*
X0261300Y0225742D01*
X0261300Y0225143D02*
X0239056Y0225143D01*
X0238772Y0224545D02*
X0261300Y0224545D01*
X0261300Y0223946D02*
X0238173Y0223946D01*
X0236983Y0223348D02*
X0261300Y0223348D01*
X0261300Y0222749D02*
X0067396Y0222749D01*
X0066798Y0223348D02*
X0225617Y0223348D01*
X0225705Y0223311D02*
X0226895Y0223311D01*
X0227993Y0223766D01*
X0228834Y0224607D01*
X0229289Y0225705D01*
X0229289Y0226895D01*
X0228834Y0227993D01*
X0227993Y0228834D01*
X0226895Y0229289D01*
X0225705Y0229289D01*
X0224607Y0228834D01*
X0223766Y0227993D01*
X0223311Y0226895D01*
X0223311Y0225705D01*
X0223766Y0224607D01*
X0224607Y0223766D01*
X0225705Y0223311D01*
X0226983Y0223348D02*
X0235617Y0223348D01*
X0234427Y0223946D02*
X0228173Y0223946D01*
X0228772Y0224545D02*
X0233828Y0224545D01*
X0233544Y0225143D02*
X0229056Y0225143D01*
X0229289Y0225742D02*
X0233311Y0225742D01*
X0233311Y0226340D02*
X0229289Y0226340D01*
X0229271Y0226939D02*
X0233329Y0226939D01*
X0233577Y0227537D02*
X0229023Y0227537D01*
X0228691Y0228136D02*
X0233909Y0228136D01*
X0234507Y0228734D02*
X0228093Y0228734D01*
X0224507Y0228734D02*
X0061411Y0228734D01*
X0062010Y0228136D02*
X0223909Y0228136D01*
X0223577Y0227537D02*
X0062608Y0227537D01*
X0063207Y0226939D02*
X0223329Y0226939D01*
X0223311Y0226340D02*
X0063805Y0226340D01*
X0064404Y0225742D02*
X0223311Y0225742D01*
X0223544Y0225143D02*
X0065002Y0225143D01*
X0065601Y0224545D02*
X0223828Y0224545D01*
X0224427Y0223946D02*
X0066199Y0223946D01*
X0067995Y0222151D02*
X0261300Y0222151D01*
X0261300Y0221552D02*
X0068593Y0221552D01*
X0069192Y0220954D02*
X0261300Y0220954D01*
X0261300Y0220355D02*
X0069790Y0220355D01*
X0070389Y0219757D02*
X0261300Y0219757D01*
X0261300Y0219158D02*
X0237210Y0219158D01*
X0236895Y0219289D02*
X0235705Y0219289D01*
X0234607Y0218834D01*
X0233766Y0217993D01*
X0233311Y0216895D01*
X0233311Y0215705D01*
X0233766Y0214607D01*
X0234607Y0213766D01*
X0235705Y0213311D01*
X0236895Y0213311D01*
X0237993Y0213766D01*
X0238834Y0214607D01*
X0239289Y0215705D01*
X0239289Y0216895D01*
X0238834Y0217993D01*
X0237993Y0218834D01*
X0236895Y0219289D01*
X0235390Y0219158D02*
X0227210Y0219158D01*
X0226895Y0219289D02*
X0225705Y0219289D01*
X0224607Y0218834D01*
X0223766Y0217993D01*
X0223311Y0216895D01*
X0223311Y0215705D01*
X0223766Y0214607D01*
X0224607Y0213766D01*
X0225705Y0213311D01*
X0226895Y0213311D01*
X0227993Y0213766D01*
X0228834Y0214607D01*
X0229289Y0215705D01*
X0229289Y0216895D01*
X0228834Y0217993D01*
X0227993Y0218834D01*
X0226895Y0219289D01*
X0225390Y0219158D02*
X0070987Y0219158D01*
X0071586Y0218560D02*
X0224333Y0218560D01*
X0223753Y0217961D02*
X0072184Y0217961D01*
X0072783Y0217363D02*
X0223505Y0217363D01*
X0223311Y0216764D02*
X0073381Y0216764D01*
X0073980Y0216166D02*
X0223311Y0216166D01*
X0223368Y0215567D02*
X0074579Y0215567D01*
X0075177Y0214969D02*
X0223616Y0214969D01*
X0224003Y0214370D02*
X0075776Y0214370D01*
X0076374Y0213772D02*
X0224601Y0213772D01*
X0227999Y0213772D02*
X0234601Y0213772D01*
X0234003Y0214370D02*
X0228597Y0214370D01*
X0228984Y0214969D02*
X0233616Y0214969D01*
X0233368Y0215567D02*
X0229232Y0215567D01*
X0229289Y0216166D02*
X0233311Y0216166D01*
X0233311Y0216764D02*
X0229289Y0216764D01*
X0229095Y0217363D02*
X0233505Y0217363D01*
X0233753Y0217961D02*
X0228847Y0217961D01*
X0228267Y0218560D02*
X0234333Y0218560D01*
X0238267Y0218560D02*
X0261300Y0218560D01*
X0261300Y0217961D02*
X0238847Y0217961D01*
X0239095Y0217363D02*
X0261300Y0217363D01*
X0261300Y0216764D02*
X0239289Y0216764D01*
X0239289Y0216166D02*
X0261300Y0216166D01*
X0261300Y0215567D02*
X0239232Y0215567D01*
X0238984Y0214969D02*
X0261300Y0214969D01*
X0261300Y0214370D02*
X0238597Y0214370D01*
X0237999Y0213772D02*
X0261300Y0213772D01*
X0261300Y0213173D02*
X0076973Y0213173D01*
X0077571Y0212574D02*
X0261300Y0212574D01*
X0261300Y0211976D02*
X0078170Y0211976D01*
X0078768Y0211377D02*
X0261300Y0211377D01*
X0261300Y0210779D02*
X0079367Y0210779D01*
X0079965Y0210180D02*
X0261300Y0210180D01*
X0261300Y0209582D02*
X0080564Y0209582D01*
X0081162Y0208983D02*
X0224968Y0208983D01*
X0224607Y0208834D02*
X0223766Y0207993D01*
X0223311Y0206895D01*
X0223311Y0205705D01*
X0223766Y0204607D01*
X0224607Y0203766D01*
X0225705Y0203311D01*
X0226895Y0203311D01*
X0227993Y0203766D01*
X0228834Y0204607D01*
X0229289Y0205705D01*
X0229289Y0206895D01*
X0228834Y0207993D01*
X0227993Y0208834D01*
X0226895Y0209289D01*
X0225705Y0209289D01*
X0224607Y0208834D01*
X0224158Y0208385D02*
X0081761Y0208385D01*
X0082359Y0207786D02*
X0223680Y0207786D01*
X0223433Y0207188D02*
X0082958Y0207188D01*
X0083556Y0206589D02*
X0223311Y0206589D01*
X0223311Y0205991D02*
X0084155Y0205991D01*
X0084753Y0205392D02*
X0223441Y0205392D01*
X0223689Y0204794D02*
X0085352Y0204794D01*
X0085950Y0204195D02*
X0224178Y0204195D01*
X0225015Y0203597D02*
X0086549Y0203597D01*
X0087147Y0202998D02*
X0261300Y0202998D01*
X0261300Y0202400D02*
X0087746Y0202400D01*
X0081458Y0203597D02*
X0037585Y0203597D01*
X0038422Y0204195D02*
X0080859Y0204195D01*
X0080261Y0204794D02*
X0038911Y0204794D01*
X0039159Y0205392D02*
X0079662Y0205392D01*
X0079064Y0205991D02*
X0039289Y0205991D01*
X0039289Y0206589D02*
X0078465Y0206589D01*
X0077867Y0207188D02*
X0039167Y0207188D01*
X0038920Y0207786D02*
X0077268Y0207786D01*
X0076669Y0208385D02*
X0038442Y0208385D01*
X0037632Y0208983D02*
X0076071Y0208983D01*
X0095822Y0189233D02*
X0037031Y0189233D01*
X0038193Y0188634D02*
X0096420Y0188634D01*
X0097019Y0188036D02*
X0038791Y0188036D01*
X0039064Y0187437D02*
X0097617Y0187437D01*
X0098216Y0186839D02*
X0039289Y0186839D01*
X0039289Y0186240D02*
X0098814Y0186240D01*
X0099413Y0185641D02*
X0039504Y0185641D01*
X0040103Y0185043D02*
X0100011Y0185043D01*
X0100610Y0184444D02*
X0040701Y0184444D01*
X0041300Y0183846D02*
X0101208Y0183846D01*
X0101807Y0183247D02*
X0041898Y0183247D01*
X0042497Y0182649D02*
X0102405Y0182649D01*
X0103004Y0182050D02*
X0043095Y0182050D01*
X0043694Y0181452D02*
X0103602Y0181452D01*
X0104201Y0180853D02*
X0044292Y0180853D01*
X0044891Y0180255D02*
X0104800Y0180255D01*
X0105398Y0179656D02*
X0045489Y0179656D01*
X0046088Y0179058D02*
X0105997Y0179058D01*
X0106595Y0178459D02*
X0046686Y0178459D01*
X0047285Y0177861D02*
X0107194Y0177861D01*
X0107792Y0177262D02*
X0047883Y0177262D01*
X0048482Y0176664D02*
X0108391Y0176664D01*
X0108989Y0176065D02*
X0049080Y0176065D01*
X0049679Y0175467D02*
X0109588Y0175467D01*
X0110186Y0174868D02*
X0050277Y0174868D01*
X0050876Y0174270D02*
X0110785Y0174270D01*
X0111383Y0173671D02*
X0051474Y0173671D01*
X0052073Y0173073D02*
X0111982Y0173073D01*
X0112580Y0172474D02*
X0052671Y0172474D01*
X0053270Y0171876D02*
X0113179Y0171876D01*
X0113777Y0171277D02*
X0053868Y0171277D01*
X0054467Y0170679D02*
X0114376Y0170679D01*
X0114974Y0170080D02*
X0055065Y0170080D01*
X0055664Y0169482D02*
X0115573Y0169482D01*
X0116171Y0168883D02*
X0056262Y0168883D01*
X0056861Y0168285D02*
X0116770Y0168285D01*
X0117368Y0167686D02*
X0057459Y0167686D01*
X0058058Y0167088D02*
X0117967Y0167088D01*
X0118565Y0166489D02*
X0058656Y0166489D01*
X0059255Y0165891D02*
X0119164Y0165891D01*
X0119762Y0165292D02*
X0059853Y0165292D01*
X0060452Y0164694D02*
X0120361Y0164694D01*
X0120959Y0164095D02*
X0061050Y0164095D01*
X0061649Y0163497D02*
X0121558Y0163497D01*
X0122156Y0162898D02*
X0062248Y0162898D01*
X0062846Y0162300D02*
X0122755Y0162300D01*
X0123353Y0161701D02*
X0063445Y0161701D01*
X0064043Y0161103D02*
X0123952Y0161103D01*
X0124550Y0160504D02*
X0064642Y0160504D01*
X0065240Y0159905D02*
X0125149Y0159905D01*
X0125747Y0159307D02*
X0065839Y0159307D01*
X0066437Y0158708D02*
X0126346Y0158708D01*
X0126944Y0158110D02*
X0067036Y0158110D01*
X0067634Y0157511D02*
X0127543Y0157511D01*
X0128141Y0156913D02*
X0068233Y0156913D01*
X0068831Y0156314D02*
X0128740Y0156314D01*
X0129338Y0155716D02*
X0069430Y0155716D01*
X0070028Y0155117D02*
X0129937Y0155117D01*
X0130536Y0154519D02*
X0070627Y0154519D01*
X0071225Y0153920D02*
X0131134Y0153920D01*
X0131733Y0153322D02*
X0071824Y0153322D01*
X0072422Y0152723D02*
X0132331Y0152723D01*
X0132930Y0152125D02*
X0073021Y0152125D01*
X0073619Y0151526D02*
X0133528Y0151526D01*
X0134127Y0150928D02*
X0074218Y0150928D01*
X0074816Y0150329D02*
X0134725Y0150329D01*
X0135324Y0149731D02*
X0075415Y0149731D01*
X0076013Y0149132D02*
X0135922Y0149132D01*
X0136521Y0148534D02*
X0076612Y0148534D01*
X0077210Y0147935D02*
X0137119Y0147935D01*
X0137718Y0147337D02*
X0077809Y0147337D01*
X0078407Y0146738D02*
X0138316Y0146738D01*
X0138915Y0146140D02*
X0079006Y0146140D01*
X0079604Y0145541D02*
X0139513Y0145541D01*
X0140112Y0144943D02*
X0080203Y0144943D01*
X0080801Y0144344D02*
X0140710Y0144344D01*
X0141309Y0143746D02*
X0081400Y0143746D01*
X0081998Y0143147D02*
X0141907Y0143147D01*
X0142506Y0142549D02*
X0082597Y0142549D01*
X0083195Y0141950D02*
X0143104Y0141950D01*
X0143703Y0141352D02*
X0083794Y0141352D01*
X0084392Y0140753D02*
X0144301Y0140753D01*
X0144900Y0140155D02*
X0084991Y0140155D01*
X0085589Y0139556D02*
X0145498Y0139556D01*
X0146097Y0138958D02*
X0086188Y0138958D01*
X0086786Y0138359D02*
X0146695Y0138359D01*
X0147294Y0137761D02*
X0087385Y0137761D01*
X0087984Y0137162D02*
X0147892Y0137162D01*
X0148491Y0136564D02*
X0088582Y0136564D01*
X0089181Y0135965D02*
X0149089Y0135965D01*
X0149688Y0135367D02*
X0089779Y0135367D01*
X0090378Y0134768D02*
X0150286Y0134768D01*
X0150885Y0134170D02*
X0090976Y0134170D01*
X0091575Y0133571D02*
X0151483Y0133571D01*
X0152082Y0132972D02*
X0092173Y0132972D01*
X0092772Y0132374D02*
X0152680Y0132374D01*
X0153279Y0131775D02*
X0093370Y0131775D01*
X0093969Y0131177D02*
X0153877Y0131177D01*
X0154476Y0130578D02*
X0094567Y0130578D01*
X0095166Y0129980D02*
X0155074Y0129980D01*
X0155673Y0129381D02*
X0095764Y0129381D01*
X0096363Y0128783D02*
X0156271Y0128783D01*
X0156870Y0128184D02*
X0096961Y0128184D01*
X0097560Y0127586D02*
X0157469Y0127586D01*
X0158067Y0126987D02*
X0098158Y0126987D01*
X0098757Y0126389D02*
X0158666Y0126389D01*
X0159264Y0125790D02*
X0099355Y0125790D01*
X0099954Y0125192D02*
X0159863Y0125192D01*
X0160461Y0124593D02*
X0100552Y0124593D01*
X0101151Y0123995D02*
X0161060Y0123995D01*
X0161658Y0123396D02*
X0101749Y0123396D01*
X0102348Y0122798D02*
X0162257Y0122798D01*
X0162855Y0122199D02*
X0102946Y0122199D01*
X0103545Y0121601D02*
X0163454Y0121601D01*
X0164052Y0121002D02*
X0104143Y0121002D01*
X0104742Y0120404D02*
X0164651Y0120404D01*
X0165249Y0119805D02*
X0105340Y0119805D01*
X0105939Y0119207D02*
X0165848Y0119207D01*
X0166446Y0118608D02*
X0106537Y0118608D01*
X0107136Y0118010D02*
X0167045Y0118010D01*
X0167643Y0117411D02*
X0107734Y0117411D01*
X0108333Y0116813D02*
X0168242Y0116813D01*
X0168840Y0116214D02*
X0108931Y0116214D01*
X0109530Y0115616D02*
X0169439Y0115616D01*
X0170037Y0115017D02*
X0110128Y0115017D01*
X0110727Y0114419D02*
X0170636Y0114419D01*
X0171234Y0113820D02*
X0111325Y0113820D01*
X0111924Y0113222D02*
X0171833Y0113222D01*
X0172431Y0112623D02*
X0112522Y0112623D01*
X0113121Y0112025D02*
X0173030Y0112025D01*
X0173628Y0111426D02*
X0113719Y0111426D01*
X0114318Y0110828D02*
X0174227Y0110828D01*
X0174825Y0110229D02*
X0114917Y0110229D01*
X0115515Y0109631D02*
X0175424Y0109631D01*
X0176022Y0109032D02*
X0116114Y0109032D01*
X0116712Y0108434D02*
X0176621Y0108434D01*
X0177219Y0107835D02*
X0117311Y0107835D01*
X0117909Y0107237D02*
X0177818Y0107237D01*
X0178416Y0106638D02*
X0118508Y0106638D01*
X0119106Y0106039D02*
X0179015Y0106039D01*
X0179613Y0105441D02*
X0119705Y0105441D01*
X0120303Y0104842D02*
X0180212Y0104842D01*
X0180810Y0104244D02*
X0120902Y0104244D01*
X0121500Y0103645D02*
X0181409Y0103645D01*
X0182007Y0103047D02*
X0122099Y0103047D01*
X0122697Y0102448D02*
X0182606Y0102448D01*
X0183205Y0101850D02*
X0123296Y0101850D01*
X0123894Y0101251D02*
X0183803Y0101251D01*
X0184402Y0100653D02*
X0124493Y0100653D01*
X0125091Y0100054D02*
X0185000Y0100054D01*
X0185599Y0099456D02*
X0125690Y0099456D01*
X0126288Y0098857D02*
X0186197Y0098857D01*
X0186796Y0098259D02*
X0126887Y0098259D01*
X0127485Y0097660D02*
X0187394Y0097660D01*
X0187993Y0097062D02*
X0128084Y0097062D01*
X0128682Y0096463D02*
X0188591Y0096463D01*
X0189190Y0095865D02*
X0129281Y0095865D01*
X0129879Y0095266D02*
X0189788Y0095266D01*
X0190387Y0094668D02*
X0130478Y0094668D01*
X0131076Y0094069D02*
X0190985Y0094069D01*
X0191584Y0093471D02*
X0131675Y0093471D01*
X0132273Y0092872D02*
X0192182Y0092872D01*
X0192781Y0092274D02*
X0132872Y0092274D01*
X0133470Y0091675D02*
X0193379Y0091675D01*
X0193978Y0091077D02*
X0134069Y0091077D01*
X0134667Y0090478D02*
X0194576Y0090478D01*
X0195175Y0089880D02*
X0135266Y0089880D01*
X0135864Y0089281D02*
X0195773Y0089281D01*
X0196372Y0088683D02*
X0136463Y0088683D01*
X0137061Y0088084D02*
X0196970Y0088084D01*
X0197569Y0087486D02*
X0137660Y0087486D01*
X0138258Y0086887D02*
X0198167Y0086887D01*
X0198766Y0086289D02*
X0138857Y0086289D01*
X0139455Y0085690D02*
X0199364Y0085690D01*
X0199500Y0085092D02*
X0140054Y0085092D01*
X0140652Y0084493D02*
X0199500Y0084493D01*
X0199500Y0083895D02*
X0141251Y0083895D01*
X0141850Y0083296D02*
X0199500Y0083296D01*
X0199500Y0082698D02*
X0142448Y0082698D01*
X0143047Y0082099D02*
X0199500Y0082099D01*
X0199500Y0081501D02*
X0143645Y0081501D01*
X0144244Y0080902D02*
X0199500Y0080902D01*
X0199500Y0080303D02*
X0144842Y0080303D01*
X0145441Y0079705D02*
X0199500Y0079705D01*
X0199500Y0079106D02*
X0146039Y0079106D01*
X0146638Y0078508D02*
X0199500Y0078508D01*
X0199500Y0077909D02*
X0147236Y0077909D01*
X0147835Y0077311D02*
X0199500Y0077311D01*
X0199500Y0076712D02*
X0148433Y0076712D01*
X0149032Y0076114D02*
X0199500Y0076114D01*
X0199539Y0075515D02*
X0149630Y0075515D01*
X0150229Y0074917D02*
X0200138Y0074917D01*
X0200736Y0074318D02*
X0150827Y0074318D01*
X0151426Y0073720D02*
X0201335Y0073720D01*
X0201933Y0073121D02*
X0152024Y0073121D01*
X0152623Y0072523D02*
X0202532Y0072523D01*
X0203130Y0071924D02*
X0153100Y0071924D01*
X0153100Y0071326D02*
X0203729Y0071326D01*
X0204327Y0070727D02*
X0153100Y0070727D01*
X0153100Y0070129D02*
X0204926Y0070129D01*
X0205524Y0069530D02*
X0153100Y0069530D01*
X0153100Y0068932D02*
X0219441Y0068932D01*
X0219500Y0068333D02*
X0153100Y0068333D01*
X0153100Y0067735D02*
X0219500Y0067735D01*
X0219500Y0067136D02*
X0153100Y0067136D01*
X0153100Y0066538D02*
X0219500Y0066538D01*
X0219500Y0065939D02*
X0153100Y0065939D01*
X0153100Y0065341D02*
X0219500Y0065341D01*
X0219500Y0064742D02*
X0153100Y0064742D01*
X0153100Y0064144D02*
X0219500Y0064144D01*
X0219500Y0063545D02*
X0153100Y0063545D01*
X0153100Y0062947D02*
X0219500Y0062947D01*
X0219500Y0062348D02*
X0153100Y0062348D01*
X0153100Y0061750D02*
X0219500Y0061750D01*
X0219500Y0061151D02*
X0153100Y0061151D01*
X0153100Y0060553D02*
X0219500Y0060553D01*
X0219500Y0059954D02*
X0153100Y0059954D01*
X0153100Y0059356D02*
X0219500Y0059356D01*
X0219500Y0058757D02*
X0153100Y0058757D01*
X0153100Y0058159D02*
X0219500Y0058159D01*
X0219500Y0057560D02*
X0153100Y0057560D01*
X0153100Y0056962D02*
X0219500Y0056962D01*
X0219500Y0056363D02*
X0153100Y0056363D01*
X0153100Y0055765D02*
X0219500Y0055765D01*
X0219500Y0055166D02*
X0153100Y0055166D01*
X0153100Y0054568D02*
X0219500Y0054568D01*
X0219500Y0053969D02*
X0153100Y0053969D01*
X0153100Y0053370D02*
X0219500Y0053370D01*
X0219500Y0052772D02*
X0153100Y0052772D01*
X0153100Y0052173D02*
X0219500Y0052173D01*
X0219500Y0051575D02*
X0153100Y0051575D01*
X0153100Y0050976D02*
X0219500Y0050976D01*
X0219500Y0050378D02*
X0153100Y0050378D01*
X0153100Y0049779D02*
X0219500Y0049779D01*
X0219500Y0049181D02*
X0153100Y0049181D01*
X0153100Y0048582D02*
X0219500Y0048582D01*
X0219500Y0047984D02*
X0153100Y0047984D01*
X0153100Y0047385D02*
X0219500Y0047385D01*
X0219500Y0046787D02*
X0153100Y0046787D01*
X0153100Y0046188D02*
X0219500Y0046188D01*
X0219500Y0045590D02*
X0153100Y0045590D01*
X0153100Y0044991D02*
X0219500Y0044991D01*
X0219500Y0044393D02*
X0153100Y0044393D01*
X0153100Y0043794D02*
X0219500Y0043794D01*
X0219500Y0043196D02*
X0153100Y0043196D01*
X0153100Y0042597D02*
X0219500Y0042597D01*
X0219867Y0041999D02*
X0153100Y0041999D01*
X0153100Y0041400D02*
X0219972Y0041400D01*
X0219972Y0040802D02*
X0153100Y0040802D01*
X0153100Y0040203D02*
X0219972Y0040203D01*
X0220292Y0039605D02*
X0153100Y0039605D01*
X0153100Y0039006D02*
X0160023Y0039006D01*
X0159607Y0038834D02*
X0158766Y0037993D01*
X0158311Y0036895D01*
X0158311Y0035705D01*
X0158766Y0034607D01*
X0159607Y0033766D01*
X0160705Y0033311D01*
X0161895Y0033311D01*
X0162993Y0033766D01*
X0163834Y0034607D01*
X0164289Y0035705D01*
X0164289Y0036895D01*
X0163834Y0037993D01*
X0162993Y0038834D01*
X0161895Y0039289D01*
X0160705Y0039289D01*
X0159607Y0038834D01*
X0159181Y0038408D02*
X0153419Y0038408D01*
X0153910Y0037809D02*
X0158690Y0037809D01*
X0158442Y0037211D02*
X0154158Y0037211D01*
X0154289Y0036612D02*
X0158311Y0036612D01*
X0158311Y0036014D02*
X0154289Y0036014D01*
X0154169Y0035415D02*
X0158431Y0035415D01*
X0158679Y0034817D02*
X0153921Y0034817D01*
X0153445Y0034218D02*
X0159155Y0034218D01*
X0159960Y0033620D02*
X0152640Y0033620D01*
X0149960Y0033620D02*
X0148100Y0033620D01*
X0148100Y0034218D02*
X0149155Y0034218D01*
X0148679Y0034817D02*
X0148100Y0034817D01*
X0148100Y0035415D02*
X0148431Y0035415D01*
X0148311Y0036014D02*
X0148100Y0036014D01*
X0148100Y0036612D02*
X0148311Y0036612D01*
X0148442Y0037211D02*
X0148100Y0037211D01*
X0148100Y0037809D02*
X0148690Y0037809D01*
X0149181Y0038408D02*
X0148100Y0038408D01*
X0148100Y0039006D02*
X0149500Y0039006D01*
X0149500Y0039605D02*
X0148100Y0039605D01*
X0148100Y0040203D02*
X0149500Y0040203D01*
X0149500Y0040802D02*
X0148100Y0040802D01*
X0148100Y0041400D02*
X0149500Y0041400D01*
X0149500Y0041999D02*
X0148100Y0041999D01*
X0148100Y0042597D02*
X0149500Y0042597D01*
X0149500Y0043196D02*
X0148100Y0043196D01*
X0148100Y0043794D02*
X0149500Y0043794D01*
X0149500Y0044393D02*
X0148100Y0044393D01*
X0148100Y0044991D02*
X0149500Y0044991D01*
X0149500Y0045590D02*
X0148100Y0045590D01*
X0148100Y0046188D02*
X0149500Y0046188D01*
X0149500Y0046787D02*
X0148100Y0046787D01*
X0148100Y0047385D02*
X0149500Y0047385D01*
X0149500Y0047984D02*
X0148100Y0047984D01*
X0148100Y0048582D02*
X0149500Y0048582D01*
X0149500Y0049181D02*
X0148100Y0049181D01*
X0148100Y0049779D02*
X0149500Y0049779D01*
X0149500Y0050378D02*
X0148100Y0050378D01*
X0148100Y0050976D02*
X0149500Y0050976D01*
X0149500Y0051575D02*
X0148100Y0051575D01*
X0148100Y0052173D02*
X0149500Y0052173D01*
X0149500Y0052772D02*
X0148100Y0052772D01*
X0148100Y0053370D02*
X0149500Y0053370D01*
X0149500Y0053969D02*
X0148100Y0053969D01*
X0148100Y0054568D02*
X0149500Y0054568D01*
X0149500Y0055166D02*
X0148100Y0055166D01*
X0148100Y0055765D02*
X0149500Y0055765D01*
X0149500Y0056363D02*
X0148100Y0056363D01*
X0148100Y0056962D02*
X0149500Y0056962D01*
X0149500Y0057560D02*
X0148100Y0057560D01*
X0148100Y0058159D02*
X0149500Y0058159D01*
X0149500Y0058757D02*
X0148100Y0058757D01*
X0148100Y0059356D02*
X0149500Y0059356D01*
X0149500Y0059954D02*
X0148100Y0059954D01*
X0148100Y0060553D02*
X0149500Y0060553D01*
X0149500Y0061151D02*
X0148100Y0061151D01*
X0148100Y0061750D02*
X0149500Y0061750D01*
X0149500Y0062348D02*
X0148100Y0062348D01*
X0148100Y0062947D02*
X0149500Y0062947D01*
X0149500Y0063545D02*
X0148100Y0063545D01*
X0148100Y0064144D02*
X0149500Y0064144D01*
X0149500Y0064742D02*
X0148100Y0064742D01*
X0148100Y0065341D02*
X0149500Y0065341D01*
X0149500Y0065939D02*
X0148100Y0065939D01*
X0148100Y0066538D02*
X0149500Y0066538D01*
X0149500Y0067136D02*
X0148100Y0067136D01*
X0148100Y0067735D02*
X0149500Y0067735D01*
X0149500Y0068333D02*
X0148100Y0068333D01*
X0148100Y0068932D02*
X0149500Y0068932D01*
X0149500Y0069530D02*
X0148100Y0069530D01*
X0148100Y0070129D02*
X0149500Y0070129D01*
X0149327Y0070727D02*
X0148100Y0070727D01*
X0148100Y0071326D02*
X0148729Y0071326D01*
X0148130Y0071924D02*
X0148100Y0071924D01*
X0146300Y0071300D02*
X0036300Y0181300D01*
X0036300Y0186300D02*
X0151300Y0071300D01*
X0151300Y0036300D01*
X0148100Y0033021D02*
X0261300Y0033021D01*
X0261300Y0032423D02*
X0148100Y0032423D01*
X0148100Y0031824D02*
X0261300Y0031824D01*
X0261300Y0031226D02*
X0148100Y0031226D01*
X0148100Y0030627D02*
X0261300Y0030627D01*
X0261300Y0030029D02*
X0148100Y0030029D01*
X0148100Y0029430D02*
X0261300Y0029430D01*
X0261300Y0028832D02*
X0177996Y0028832D01*
X0178594Y0028233D02*
X0261300Y0028233D01*
X0261300Y0027634D02*
X0178982Y0027634D01*
X0179230Y0027036D02*
X0261300Y0027036D01*
X0261300Y0026437D02*
X0179289Y0026437D01*
X0179289Y0025839D02*
X0261300Y0025839D01*
X0261300Y0025240D02*
X0179096Y0025240D01*
X0178848Y0024642D02*
X0261300Y0024642D01*
X0261300Y0024043D02*
X0178270Y0024043D01*
X0174330Y0024043D02*
X0158270Y0024043D01*
X0158848Y0024642D02*
X0173752Y0024642D01*
X0173504Y0025240D02*
X0159096Y0025240D01*
X0159289Y0025839D02*
X0173311Y0025839D01*
X0173311Y0026437D02*
X0159289Y0026437D01*
X0159230Y0027036D02*
X0173370Y0027036D01*
X0173618Y0027634D02*
X0158982Y0027634D01*
X0158594Y0028233D02*
X0174006Y0028233D01*
X0174604Y0028832D02*
X0157996Y0028832D01*
X0154604Y0028832D02*
X0148100Y0028832D01*
X0148594Y0028233D02*
X0154006Y0028233D01*
X0153618Y0027634D02*
X0148982Y0027634D01*
X0149230Y0027036D02*
X0153370Y0027036D01*
X0153311Y0026437D02*
X0149289Y0026437D01*
X0149289Y0025839D02*
X0153311Y0025839D01*
X0153504Y0025240D02*
X0149096Y0025240D01*
X0148848Y0024642D02*
X0153752Y0024642D01*
X0154330Y0024043D02*
X0148270Y0024043D01*
X0146300Y0026300D02*
X0146300Y0071300D01*
X0136300Y0076300D02*
X0136300Y0026300D01*
X0133504Y0025240D02*
X0119096Y0025240D01*
X0119289Y0025839D02*
X0133311Y0025839D01*
X0133311Y0026437D02*
X0119289Y0026437D01*
X0119230Y0027036D02*
X0133370Y0027036D01*
X0133618Y0027634D02*
X0118982Y0027634D01*
X0118594Y0028233D02*
X0134006Y0028233D01*
X0134500Y0028832D02*
X0118100Y0028832D01*
X0118100Y0029430D02*
X0134500Y0029430D01*
X0134500Y0030029D02*
X0118100Y0030029D01*
X0118100Y0030627D02*
X0134500Y0030627D01*
X0134500Y0031226D02*
X0118100Y0031226D01*
X0118100Y0031824D02*
X0134500Y0031824D01*
X0134500Y0032423D02*
X0118100Y0032423D01*
X0118100Y0033021D02*
X0134500Y0033021D01*
X0134500Y0033620D02*
X0132640Y0033620D01*
X0132993Y0033766D02*
X0131895Y0033311D01*
X0130705Y0033311D01*
X0129607Y0033766D01*
X0128766Y0034607D01*
X0128311Y0035705D01*
X0128311Y0036895D01*
X0128766Y0037993D01*
X0129607Y0038834D01*
X0130705Y0039289D01*
X0131895Y0039289D01*
X0132993Y0038834D01*
X0133834Y0037993D01*
X0134289Y0036895D01*
X0134289Y0035705D01*
X0133834Y0034607D01*
X0132993Y0033766D01*
X0133445Y0034218D02*
X0134500Y0034218D01*
X0134500Y0034817D02*
X0133921Y0034817D01*
X0134169Y0035415D02*
X0134500Y0035415D01*
X0134500Y0036014D02*
X0134289Y0036014D01*
X0134289Y0036612D02*
X0134500Y0036612D01*
X0134500Y0037211D02*
X0134158Y0037211D01*
X0133910Y0037809D02*
X0134500Y0037809D01*
X0134500Y0038408D02*
X0133419Y0038408D01*
X0132577Y0039006D02*
X0134500Y0039006D01*
X0134500Y0039605D02*
X0123100Y0039605D01*
X0123100Y0040203D02*
X0134500Y0040203D01*
X0134500Y0040802D02*
X0123100Y0040802D01*
X0123100Y0041400D02*
X0134500Y0041400D01*
X0134500Y0041999D02*
X0123100Y0041999D01*
X0123100Y0042597D02*
X0134500Y0042597D01*
X0134500Y0043196D02*
X0123100Y0043196D01*
X0123100Y0043794D02*
X0134500Y0043794D01*
X0134500Y0044393D02*
X0123100Y0044393D01*
X0123100Y0044991D02*
X0134500Y0044991D01*
X0134500Y0045590D02*
X0123100Y0045590D01*
X0123100Y0046188D02*
X0134500Y0046188D01*
X0134500Y0046787D02*
X0123100Y0046787D01*
X0123100Y0047385D02*
X0134500Y0047385D01*
X0134500Y0047984D02*
X0123100Y0047984D01*
X0123100Y0048582D02*
X0134500Y0048582D01*
X0134500Y0049181D02*
X0123100Y0049181D01*
X0123100Y0049779D02*
X0134500Y0049779D01*
X0134500Y0050378D02*
X0123100Y0050378D01*
X0123100Y0050976D02*
X0134500Y0050976D01*
X0134500Y0051575D02*
X0123100Y0051575D01*
X0123100Y0052173D02*
X0134500Y0052173D01*
X0134500Y0052772D02*
X0123100Y0052772D01*
X0123100Y0053370D02*
X0134500Y0053370D01*
X0134500Y0053969D02*
X0123100Y0053969D01*
X0123100Y0054568D02*
X0134500Y0054568D01*
X0134500Y0055166D02*
X0123100Y0055166D01*
X0123100Y0055765D02*
X0134500Y0055765D01*
X0134500Y0056363D02*
X0123100Y0056363D01*
X0123100Y0056962D02*
X0134500Y0056962D01*
X0134500Y0057560D02*
X0123100Y0057560D01*
X0123100Y0058159D02*
X0134500Y0058159D01*
X0134500Y0058757D02*
X0123100Y0058757D01*
X0123100Y0059356D02*
X0134500Y0059356D01*
X0134500Y0059954D02*
X0123100Y0059954D01*
X0123100Y0060553D02*
X0134500Y0060553D01*
X0134500Y0061151D02*
X0123100Y0061151D01*
X0123100Y0061750D02*
X0134500Y0061750D01*
X0134500Y0062348D02*
X0123100Y0062348D01*
X0123100Y0062947D02*
X0134500Y0062947D01*
X0134500Y0063545D02*
X0123100Y0063545D01*
X0123100Y0064144D02*
X0134500Y0064144D01*
X0134500Y0064742D02*
X0123100Y0064742D01*
X0123100Y0065341D02*
X0134500Y0065341D01*
X0134500Y0065939D02*
X0123100Y0065939D01*
X0123100Y0066538D02*
X0134500Y0066538D01*
X0134500Y0067136D02*
X0123100Y0067136D01*
X0123100Y0067735D02*
X0134500Y0067735D01*
X0134500Y0068333D02*
X0123100Y0068333D01*
X0123100Y0068932D02*
X0134500Y0068932D01*
X0134500Y0069530D02*
X0123100Y0069530D01*
X0123100Y0070129D02*
X0134500Y0070129D01*
X0134500Y0070727D02*
X0123100Y0070727D01*
X0123100Y0071326D02*
X0134500Y0071326D01*
X0134500Y0071924D02*
X0123100Y0071924D01*
X0123100Y0072523D02*
X0134500Y0072523D01*
X0134500Y0073121D02*
X0123100Y0073121D01*
X0123100Y0073720D02*
X0134500Y0073720D01*
X0134500Y0074318D02*
X0123100Y0074318D01*
X0123100Y0074917D02*
X0134500Y0074917D01*
X0134500Y0075515D02*
X0123100Y0075515D01*
X0123100Y0076114D02*
X0133940Y0076114D01*
X0133342Y0076712D02*
X0123100Y0076712D01*
X0123100Y0077311D02*
X0132743Y0077311D01*
X0132145Y0077909D02*
X0123100Y0077909D01*
X0123100Y0078508D02*
X0131546Y0078508D01*
X0130948Y0079106D02*
X0123100Y0079106D01*
X0123100Y0079705D02*
X0130349Y0079705D01*
X0129751Y0080303D02*
X0123100Y0080303D01*
X0123100Y0080902D02*
X0129152Y0080902D01*
X0128554Y0081501D02*
X0123100Y0081501D01*
X0123100Y0082099D02*
X0127955Y0082099D01*
X0127357Y0082698D02*
X0123100Y0082698D01*
X0123100Y0083296D02*
X0126758Y0083296D01*
X0126160Y0083895D02*
X0123100Y0083895D01*
X0123100Y0084493D02*
X0125561Y0084493D01*
X0124963Y0085092D02*
X0123100Y0085092D01*
X0123119Y0085690D02*
X0124364Y0085690D01*
X0123766Y0086289D02*
X0123101Y0086289D01*
X0123100Y0086887D02*
X0123167Y0086887D01*
X0121300Y0086300D02*
X0121300Y0036300D01*
X0123419Y0038408D02*
X0129181Y0038408D01*
X0128690Y0037809D02*
X0123910Y0037809D01*
X0124158Y0037211D02*
X0128442Y0037211D01*
X0128311Y0036612D02*
X0124289Y0036612D01*
X0124289Y0036014D02*
X0128311Y0036014D01*
X0128431Y0035415D02*
X0124169Y0035415D01*
X0123921Y0034817D02*
X0128679Y0034817D01*
X0129155Y0034218D02*
X0123445Y0034218D01*
X0122640Y0033620D02*
X0129960Y0033620D01*
X0130023Y0039006D02*
X0123100Y0039006D01*
X0119500Y0039006D02*
X0118100Y0039006D01*
X0118100Y0038408D02*
X0119181Y0038408D01*
X0118690Y0037809D02*
X0118100Y0037809D01*
X0118100Y0037211D02*
X0118442Y0037211D01*
X0118311Y0036612D02*
X0118100Y0036612D01*
X0118100Y0036014D02*
X0118311Y0036014D01*
X0118431Y0035415D02*
X0118100Y0035415D01*
X0118100Y0034817D02*
X0118679Y0034817D01*
X0119155Y0034218D02*
X0118100Y0034218D01*
X0118100Y0033620D02*
X0119960Y0033620D01*
X0114500Y0033620D02*
X0112640Y0033620D01*
X0112993Y0033766D02*
X0113834Y0034607D01*
X0114289Y0035705D01*
X0114289Y0036895D01*
X0113834Y0037993D01*
X0112993Y0038834D01*
X0111895Y0039289D01*
X0110705Y0039289D01*
X0109607Y0038834D01*
X0108766Y0037993D01*
X0108311Y0036895D01*
X0108311Y0035705D01*
X0108766Y0034607D01*
X0109607Y0033766D01*
X0110705Y0033311D01*
X0111895Y0033311D01*
X0112993Y0033766D01*
X0113445Y0034218D02*
X0114500Y0034218D01*
X0114500Y0034817D02*
X0113921Y0034817D01*
X0114169Y0035415D02*
X0114500Y0035415D01*
X0114500Y0036014D02*
X0114289Y0036014D01*
X0114289Y0036612D02*
X0114500Y0036612D01*
X0114500Y0037211D02*
X0114158Y0037211D01*
X0113910Y0037809D02*
X0114500Y0037809D01*
X0114500Y0038408D02*
X0113419Y0038408D01*
X0112577Y0039006D02*
X0114500Y0039006D01*
X0114500Y0039605D02*
X0001300Y0039605D01*
X0001300Y0040203D02*
X0114500Y0040203D01*
X0114500Y0040802D02*
X0001300Y0040802D01*
X0001300Y0041400D02*
X0114500Y0041400D01*
X0114500Y0041999D02*
X0001300Y0041999D01*
X0001300Y0042597D02*
X0114500Y0042597D01*
X0114500Y0043196D02*
X0001300Y0043196D01*
X0001300Y0043794D02*
X0114500Y0043794D01*
X0114500Y0044393D02*
X0001300Y0044393D01*
X0001300Y0044991D02*
X0114500Y0044991D01*
X0114500Y0045590D02*
X0001300Y0045590D01*
X0001300Y0046188D02*
X0114500Y0046188D01*
X0114500Y0046787D02*
X0001300Y0046787D01*
X0001300Y0047385D02*
X0114500Y0047385D01*
X0114500Y0047984D02*
X0001300Y0047984D01*
X0001300Y0048582D02*
X0114500Y0048582D01*
X0114500Y0049181D02*
X0001300Y0049181D01*
X0001300Y0049779D02*
X0114500Y0049779D01*
X0114500Y0050378D02*
X0001300Y0050378D01*
X0001300Y0050976D02*
X0114500Y0050976D01*
X0114500Y0051575D02*
X0001300Y0051575D01*
X0001300Y0052173D02*
X0114500Y0052173D01*
X0114500Y0052772D02*
X0001300Y0052772D01*
X0001300Y0053370D02*
X0114500Y0053370D01*
X0114500Y0053969D02*
X0001300Y0053969D01*
X0001300Y0054568D02*
X0114500Y0054568D01*
X0114500Y0055166D02*
X0001300Y0055166D01*
X0001300Y0055765D02*
X0114500Y0055765D01*
X0114500Y0056363D02*
X0001300Y0056363D01*
X0001300Y0056962D02*
X0114500Y0056962D01*
X0114500Y0057560D02*
X0001300Y0057560D01*
X0001300Y0058159D02*
X0114500Y0058159D01*
X0114500Y0058757D02*
X0001300Y0058757D01*
X0001300Y0059356D02*
X0114500Y0059356D01*
X0114500Y0059954D02*
X0001300Y0059954D01*
X0001300Y0060553D02*
X0114500Y0060553D01*
X0114500Y0061151D02*
X0001300Y0061151D01*
X0001300Y0061750D02*
X0114500Y0061750D01*
X0114500Y0062348D02*
X0001300Y0062348D01*
X0001300Y0062947D02*
X0114500Y0062947D01*
X0114500Y0063545D02*
X0001300Y0063545D01*
X0001300Y0064144D02*
X0114500Y0064144D01*
X0114500Y0064742D02*
X0001300Y0064742D01*
X0001300Y0065341D02*
X0114500Y0065341D01*
X0114500Y0065939D02*
X0001300Y0065939D01*
X0001300Y0066538D02*
X0114500Y0066538D01*
X0114500Y0067136D02*
X0001300Y0067136D01*
X0001300Y0067735D02*
X0114500Y0067735D01*
X0114500Y0068333D02*
X0001300Y0068333D01*
X0001300Y0068932D02*
X0114500Y0068932D01*
X0114500Y0069530D02*
X0001300Y0069530D01*
X0001300Y0070129D02*
X0114500Y0070129D01*
X0114500Y0070727D02*
X0001300Y0070727D01*
X0001300Y0071326D02*
X0114500Y0071326D01*
X0114500Y0071924D02*
X0001300Y0071924D01*
X0001300Y0072523D02*
X0114500Y0072523D01*
X0114500Y0073121D02*
X0001300Y0073121D01*
X0001300Y0073720D02*
X0114500Y0073720D01*
X0114500Y0074318D02*
X0001300Y0074318D01*
X0001300Y0074917D02*
X0114500Y0074917D01*
X0114500Y0075515D02*
X0001300Y0075515D01*
X0001300Y0076114D02*
X0114500Y0076114D01*
X0114500Y0076712D02*
X0001300Y0076712D01*
X0001300Y0077311D02*
X0114500Y0077311D01*
X0114500Y0077909D02*
X0001300Y0077909D01*
X0001300Y0078508D02*
X0114500Y0078508D01*
X0114500Y0079106D02*
X0001300Y0079106D01*
X0001300Y0079705D02*
X0114500Y0079705D01*
X0114500Y0080303D02*
X0001300Y0080303D01*
X0001300Y0080902D02*
X0114500Y0080902D01*
X0114500Y0081501D02*
X0001300Y0081501D01*
X0001300Y0082099D02*
X0114500Y0082099D01*
X0114500Y0082698D02*
X0001300Y0082698D01*
X0001300Y0083296D02*
X0114500Y0083296D01*
X0114500Y0083895D02*
X0001300Y0083895D01*
X0001300Y0084493D02*
X0114500Y0084493D01*
X0114500Y0085092D02*
X0001300Y0085092D01*
X0001300Y0085690D02*
X0114312Y0085690D01*
X0113667Y0086289D02*
X0001300Y0086289D01*
X0001300Y0086887D02*
X0113022Y0086887D01*
X0112378Y0087486D02*
X0001300Y0087486D01*
X0001300Y0088084D02*
X0111733Y0088084D01*
X0111089Y0088683D02*
X0001300Y0088683D01*
X0001300Y0089281D02*
X0110444Y0089281D01*
X0109800Y0089880D02*
X0001300Y0089880D01*
X0001300Y0090478D02*
X0109155Y0090478D01*
X0108511Y0091077D02*
X0001300Y0091077D01*
X0001300Y0091675D02*
X0107866Y0091675D01*
X0107221Y0092274D02*
X0001300Y0092274D01*
X0001300Y0092872D02*
X0106577Y0092872D01*
X0105932Y0093471D02*
X0001300Y0093471D01*
X0001300Y0094069D02*
X0105288Y0094069D01*
X0104643Y0094668D02*
X0001300Y0094668D01*
X0001300Y0095266D02*
X0103999Y0095266D01*
X0103354Y0095865D02*
X0001300Y0095865D01*
X0001300Y0096463D02*
X0102710Y0096463D01*
X0102065Y0097062D02*
X0001300Y0097062D01*
X0001300Y0097660D02*
X0101420Y0097660D01*
X0100776Y0098259D02*
X0001300Y0098259D01*
X0001300Y0098857D02*
X0100131Y0098857D01*
X0099487Y0099456D02*
X0001300Y0099456D01*
X0001300Y0100054D02*
X0098842Y0100054D01*
X0098198Y0100653D02*
X0001300Y0100653D01*
X0001300Y0101251D02*
X0097553Y0101251D01*
X0096909Y0101850D02*
X0001300Y0101850D01*
X0001300Y0102448D02*
X0096264Y0102448D01*
X0095620Y0103047D02*
X0001300Y0103047D01*
X0001300Y0103645D02*
X0094975Y0103645D01*
X0094330Y0104244D02*
X0001300Y0104244D01*
X0001300Y0104842D02*
X0093686Y0104842D01*
X0093041Y0105441D02*
X0001300Y0105441D01*
X0001300Y0106039D02*
X0092397Y0106039D01*
X0091752Y0106638D02*
X0001300Y0106638D01*
X0001300Y0107237D02*
X0091108Y0107237D01*
X0090463Y0107835D02*
X0001300Y0107835D01*
X0001300Y0108434D02*
X0089819Y0108434D01*
X0089174Y0109032D02*
X0001300Y0109032D01*
X0001300Y0109631D02*
X0088529Y0109631D01*
X0087885Y0110229D02*
X0001300Y0110229D01*
X0001300Y0110828D02*
X0087240Y0110828D01*
X0086596Y0111426D02*
X0001300Y0111426D01*
X0001300Y0112025D02*
X0085951Y0112025D01*
X0085307Y0112623D02*
X0001300Y0112623D01*
X0001300Y0113222D02*
X0084662Y0113222D01*
X0084018Y0113820D02*
X0038047Y0113820D01*
X0037993Y0113766D02*
X0038834Y0114607D01*
X0039289Y0115705D01*
X0039289Y0116895D01*
X0038834Y0117993D01*
X0037993Y0118834D01*
X0036895Y0119289D01*
X0035705Y0119289D01*
X0034607Y0118834D01*
X0033766Y0117993D01*
X0033311Y0116895D01*
X0033311Y0115705D01*
X0033766Y0114607D01*
X0034607Y0113766D01*
X0035705Y0113311D01*
X0036895Y0113311D01*
X0037993Y0113766D01*
X0038646Y0114419D02*
X0083373Y0114419D01*
X0082729Y0115017D02*
X0039004Y0115017D01*
X0039252Y0115616D02*
X0082084Y0115616D01*
X0081439Y0116214D02*
X0039289Y0116214D01*
X0039289Y0116813D02*
X0080795Y0116813D01*
X0080150Y0117411D02*
X0039075Y0117411D01*
X0038817Y0118010D02*
X0079506Y0118010D01*
X0078861Y0118608D02*
X0038219Y0118608D01*
X0037093Y0119207D02*
X0078217Y0119207D01*
X0077572Y0119805D02*
X0001300Y0119805D01*
X0001300Y0119207D02*
X0025507Y0119207D01*
X0025705Y0119289D02*
X0024607Y0118834D01*
X0023766Y0117993D01*
X0023311Y0116895D01*
X0023311Y0115705D01*
X0023766Y0114607D01*
X0024607Y0113766D01*
X0025705Y0113311D01*
X0026895Y0113311D01*
X0027993Y0113766D01*
X0028834Y0114607D01*
X0029289Y0115705D01*
X0029289Y0116895D01*
X0028834Y0117993D01*
X0027993Y0118834D01*
X0026895Y0119289D01*
X0025705Y0119289D01*
X0027093Y0119207D02*
X0035507Y0119207D01*
X0034381Y0118608D02*
X0028219Y0118608D01*
X0028817Y0118010D02*
X0033783Y0118010D01*
X0033525Y0117411D02*
X0029075Y0117411D01*
X0029289Y0116813D02*
X0033311Y0116813D01*
X0033311Y0116214D02*
X0029289Y0116214D01*
X0029252Y0115616D02*
X0033348Y0115616D01*
X0033596Y0115017D02*
X0029004Y0115017D01*
X0028646Y0114419D02*
X0033954Y0114419D01*
X0034553Y0113820D02*
X0028047Y0113820D01*
X0024553Y0113820D02*
X0001300Y0113820D01*
X0001300Y0114419D02*
X0023954Y0114419D01*
X0023596Y0115017D02*
X0001300Y0115017D01*
X0001300Y0115616D02*
X0023348Y0115616D01*
X0023311Y0116214D02*
X0001300Y0116214D01*
X0001300Y0116813D02*
X0023311Y0116813D01*
X0023525Y0117411D02*
X0001300Y0117411D01*
X0001300Y0118010D02*
X0023783Y0118010D01*
X0024381Y0118608D02*
X0001300Y0118608D01*
X0001300Y0120404D02*
X0076928Y0120404D01*
X0076283Y0121002D02*
X0001300Y0121002D01*
X0001300Y0121601D02*
X0075638Y0121601D01*
X0074994Y0122199D02*
X0001300Y0122199D01*
X0001300Y0122798D02*
X0074349Y0122798D01*
X0073705Y0123396D02*
X0037100Y0123396D01*
X0036895Y0123311D02*
X0037993Y0123766D01*
X0038834Y0124607D01*
X0039289Y0125705D01*
X0039289Y0126895D01*
X0038834Y0127993D01*
X0037993Y0128834D01*
X0036895Y0129289D01*
X0035705Y0129289D01*
X0034607Y0128834D01*
X0033766Y0127993D01*
X0033311Y0126895D01*
X0033311Y0125705D01*
X0033766Y0124607D01*
X0034607Y0123766D01*
X0035705Y0123311D01*
X0036895Y0123311D01*
X0035500Y0123396D02*
X0027100Y0123396D01*
X0026895Y0123311D02*
X0027993Y0123766D01*
X0028834Y0124607D01*
X0029289Y0125705D01*
X0029289Y0126895D01*
X0028834Y0127993D01*
X0027993Y0128834D01*
X0026895Y0129289D01*
X0025705Y0129289D01*
X0024607Y0128834D01*
X0023766Y0127993D01*
X0023311Y0126895D01*
X0023311Y0125705D01*
X0023766Y0124607D01*
X0024607Y0123766D01*
X0025705Y0123311D01*
X0026895Y0123311D01*
X0025500Y0123396D02*
X0001300Y0123396D01*
X0001300Y0123995D02*
X0024378Y0123995D01*
X0023780Y0124593D02*
X0001300Y0124593D01*
X0001300Y0125192D02*
X0023524Y0125192D01*
X0023311Y0125790D02*
X0001300Y0125790D01*
X0001300Y0126389D02*
X0023311Y0126389D01*
X0023349Y0126987D02*
X0001300Y0126987D01*
X0001300Y0127586D02*
X0023597Y0127586D01*
X0023957Y0128184D02*
X0001300Y0128184D01*
X0001300Y0128783D02*
X0024556Y0128783D01*
X0028044Y0128783D02*
X0034556Y0128783D01*
X0033957Y0128184D02*
X0028643Y0128184D01*
X0029003Y0127586D02*
X0033597Y0127586D01*
X0033349Y0126987D02*
X0029251Y0126987D01*
X0029289Y0126389D02*
X0033311Y0126389D01*
X0033311Y0125790D02*
X0029289Y0125790D01*
X0029076Y0125192D02*
X0033524Y0125192D01*
X0033780Y0124593D02*
X0028820Y0124593D01*
X0028222Y0123995D02*
X0034378Y0123995D01*
X0038222Y0123995D02*
X0073060Y0123995D01*
X0072416Y0124593D02*
X0038820Y0124593D01*
X0039076Y0125192D02*
X0071771Y0125192D01*
X0071127Y0125790D02*
X0039289Y0125790D01*
X0039289Y0126389D02*
X0070482Y0126389D01*
X0069838Y0126987D02*
X0039251Y0126987D01*
X0039003Y0127586D02*
X0069193Y0127586D01*
X0068548Y0128184D02*
X0038643Y0128184D01*
X0038044Y0128783D02*
X0067904Y0128783D01*
X0067259Y0129381D02*
X0001300Y0129381D01*
X0001300Y0129980D02*
X0066615Y0129980D01*
X0065970Y0130578D02*
X0001300Y0130578D01*
X0001300Y0131177D02*
X0065326Y0131177D01*
X0064681Y0131775D02*
X0001300Y0131775D01*
X0001300Y0132374D02*
X0064037Y0132374D01*
X0063392Y0132972D02*
X0001300Y0132972D01*
X0001300Y0133571D02*
X0025078Y0133571D01*
X0024607Y0133766D02*
X0025705Y0133311D01*
X0026895Y0133311D01*
X0027993Y0133766D01*
X0028834Y0134607D01*
X0029289Y0135705D01*
X0029289Y0136895D01*
X0028834Y0137993D01*
X0027993Y0138834D01*
X0026895Y0139289D01*
X0025705Y0139289D01*
X0024607Y0138834D01*
X0023766Y0137993D01*
X0023311Y0136895D01*
X0023311Y0135705D01*
X0023766Y0134607D01*
X0024607Y0133766D01*
X0024203Y0134170D02*
X0001300Y0134170D01*
X0001300Y0134768D02*
X0023699Y0134768D01*
X0023451Y0135367D02*
X0001300Y0135367D01*
X0001300Y0135965D02*
X0023311Y0135965D01*
X0023311Y0136564D02*
X0001300Y0136564D01*
X0001300Y0137162D02*
X0023422Y0137162D01*
X0023670Y0137761D02*
X0001300Y0137761D01*
X0001300Y0138359D02*
X0024132Y0138359D01*
X0024905Y0138958D02*
X0001300Y0138958D01*
X0001300Y0139556D02*
X0056302Y0139556D01*
X0056947Y0138958D02*
X0037695Y0138958D01*
X0037993Y0138834D02*
X0036895Y0139289D01*
X0035705Y0139289D01*
X0034607Y0138834D01*
X0033766Y0137993D01*
X0033311Y0136895D01*
X0033311Y0135705D01*
X0033766Y0134607D01*
X0034607Y0133766D01*
X0035705Y0133311D01*
X0036895Y0133311D01*
X0037993Y0133766D01*
X0038834Y0134607D01*
X0039289Y0135705D01*
X0039289Y0136895D01*
X0038834Y0137993D01*
X0037993Y0138834D01*
X0038468Y0138359D02*
X0057591Y0138359D01*
X0058236Y0137761D02*
X0038930Y0137761D01*
X0039178Y0137162D02*
X0058880Y0137162D01*
X0059525Y0136564D02*
X0039289Y0136564D01*
X0039289Y0135965D02*
X0060169Y0135965D01*
X0060814Y0135367D02*
X0039149Y0135367D01*
X0038901Y0134768D02*
X0061458Y0134768D01*
X0062103Y0134170D02*
X0038397Y0134170D01*
X0037522Y0133571D02*
X0062747Y0133571D01*
X0065460Y0135965D02*
X0065905Y0135965D01*
X0066104Y0135367D02*
X0066540Y0135367D01*
X0066749Y0134768D02*
X0067176Y0134768D01*
X0067393Y0134170D02*
X0067812Y0134170D01*
X0068038Y0133571D02*
X0068448Y0133571D01*
X0068683Y0132972D02*
X0069084Y0132972D01*
X0069327Y0132374D02*
X0069720Y0132374D01*
X0069972Y0131775D02*
X0070356Y0131775D01*
X0070616Y0131177D02*
X0070992Y0131177D01*
X0071261Y0130578D02*
X0071628Y0130578D01*
X0071905Y0129980D02*
X0072264Y0129980D01*
X0072550Y0129381D02*
X0072900Y0129381D01*
X0073194Y0128783D02*
X0073536Y0128783D01*
X0073839Y0128184D02*
X0074171Y0128184D01*
X0074484Y0127586D02*
X0074807Y0127586D01*
X0075128Y0126987D02*
X0075443Y0126987D01*
X0075773Y0126389D02*
X0076079Y0126389D01*
X0076417Y0125790D02*
X0076715Y0125790D01*
X0077062Y0125192D02*
X0077351Y0125192D01*
X0077706Y0124593D02*
X0077987Y0124593D01*
X0078351Y0123995D02*
X0078623Y0123995D01*
X0078995Y0123396D02*
X0079259Y0123396D01*
X0079640Y0122798D02*
X0079895Y0122798D01*
X0080285Y0122199D02*
X0080531Y0122199D01*
X0080929Y0121601D02*
X0081167Y0121601D01*
X0081574Y0121002D02*
X0081803Y0121002D01*
X0082218Y0120404D02*
X0082438Y0120404D01*
X0082863Y0119805D02*
X0083074Y0119805D01*
X0083507Y0119207D02*
X0083710Y0119207D01*
X0084152Y0118608D02*
X0084346Y0118608D01*
X0084796Y0118010D02*
X0084982Y0118010D01*
X0085441Y0117411D02*
X0085618Y0117411D01*
X0086085Y0116813D02*
X0086254Y0116813D01*
X0086730Y0116214D02*
X0086890Y0116214D01*
X0087375Y0115616D02*
X0087526Y0115616D01*
X0088019Y0115017D02*
X0088162Y0115017D01*
X0088664Y0114419D02*
X0088798Y0114419D01*
X0089308Y0113820D02*
X0089434Y0113820D01*
X0089953Y0113222D02*
X0090069Y0113222D01*
X0090597Y0112623D02*
X0090705Y0112623D01*
X0091242Y0112025D02*
X0091341Y0112025D01*
X0091886Y0111426D02*
X0091977Y0111426D01*
X0092531Y0110828D02*
X0092613Y0110828D01*
X0093176Y0110229D02*
X0093249Y0110229D01*
X0093820Y0109631D02*
X0093885Y0109631D01*
X0094465Y0109032D02*
X0094521Y0109032D01*
X0095109Y0108434D02*
X0095157Y0108434D01*
X0095754Y0107835D02*
X0095793Y0107835D01*
X0096398Y0107237D02*
X0096429Y0107237D01*
X0097043Y0106638D02*
X0097065Y0106638D01*
X0097687Y0106039D02*
X0097700Y0106039D01*
X0098332Y0105441D02*
X0098336Y0105441D01*
X0101045Y0107835D02*
X0102219Y0107835D01*
X0101681Y0107237D02*
X0102818Y0107237D01*
X0102317Y0106638D02*
X0103416Y0106638D01*
X0102953Y0106039D02*
X0104015Y0106039D01*
X0103589Y0105441D02*
X0104613Y0105441D01*
X0104225Y0104842D02*
X0105212Y0104842D01*
X0104861Y0104244D02*
X0105810Y0104244D01*
X0105497Y0103645D02*
X0106409Y0103645D01*
X0106133Y0103047D02*
X0107007Y0103047D01*
X0106769Y0102448D02*
X0107606Y0102448D01*
X0107405Y0101850D02*
X0108205Y0101850D01*
X0108040Y0101251D02*
X0108803Y0101251D01*
X0108676Y0100653D02*
X0109402Y0100653D01*
X0109312Y0100054D02*
X0110000Y0100054D01*
X0109948Y0099456D02*
X0110599Y0099456D01*
X0110584Y0098857D02*
X0111197Y0098857D01*
X0111220Y0098259D02*
X0111796Y0098259D01*
X0111856Y0097660D02*
X0112394Y0097660D01*
X0112492Y0097062D02*
X0112993Y0097062D01*
X0113128Y0096463D02*
X0113591Y0096463D01*
X0113764Y0095865D02*
X0114190Y0095865D01*
X0114400Y0095266D02*
X0114788Y0095266D01*
X0115036Y0094668D02*
X0115387Y0094668D01*
X0115671Y0094069D02*
X0115985Y0094069D01*
X0116307Y0093471D02*
X0116584Y0093471D01*
X0116943Y0092872D02*
X0117182Y0092872D01*
X0117579Y0092274D02*
X0117781Y0092274D01*
X0118215Y0091675D02*
X0118379Y0091675D01*
X0118851Y0091077D02*
X0118978Y0091077D01*
X0119487Y0090478D02*
X0119576Y0090478D01*
X0120123Y0089880D02*
X0120175Y0089880D01*
X0120759Y0089281D02*
X0120773Y0089281D01*
X0121300Y0086300D02*
X0036300Y0166300D01*
X0035258Y0163497D02*
X0027342Y0163497D01*
X0026895Y0163311D02*
X0027993Y0163766D01*
X0028834Y0164607D01*
X0029289Y0165705D01*
X0029289Y0166895D01*
X0028834Y0167993D01*
X0027993Y0168834D01*
X0026895Y0169289D01*
X0025705Y0169289D01*
X0024607Y0168834D01*
X0023766Y0167993D01*
X0023311Y0166895D01*
X0023311Y0165705D01*
X0023766Y0164607D01*
X0024607Y0163766D01*
X0025705Y0163311D01*
X0026895Y0163311D01*
X0028322Y0164095D02*
X0034278Y0164095D01*
X0033730Y0164694D02*
X0028870Y0164694D01*
X0029118Y0165292D02*
X0033482Y0165292D01*
X0033311Y0165891D02*
X0029289Y0165891D01*
X0029289Y0166489D02*
X0033311Y0166489D01*
X0033391Y0167088D02*
X0029209Y0167088D01*
X0028961Y0167686D02*
X0033639Y0167686D01*
X0034058Y0168285D02*
X0028542Y0168285D01*
X0027874Y0168883D02*
X0034726Y0168883D01*
X0037874Y0168883D02*
X0041171Y0168883D01*
X0040573Y0169482D02*
X0001300Y0169482D01*
X0001300Y0170080D02*
X0039974Y0170080D01*
X0039376Y0170679D02*
X0001300Y0170679D01*
X0001300Y0171277D02*
X0038777Y0171277D01*
X0038179Y0171876D02*
X0001300Y0171876D01*
X0001300Y0172474D02*
X0037580Y0172474D01*
X0038542Y0168285D02*
X0041770Y0168285D01*
X0042368Y0167686D02*
X0038961Y0167686D01*
X0039209Y0167088D02*
X0042967Y0167088D01*
X0043565Y0166489D02*
X0039289Y0166489D01*
X0039361Y0165891D02*
X0044164Y0165891D01*
X0044762Y0165292D02*
X0039997Y0165292D01*
X0040633Y0164694D02*
X0045361Y0164694D01*
X0045959Y0164095D02*
X0041269Y0164095D01*
X0041905Y0163497D02*
X0046558Y0163497D01*
X0047156Y0162898D02*
X0042541Y0162898D01*
X0043177Y0162300D02*
X0047755Y0162300D01*
X0048353Y0161701D02*
X0043813Y0161701D01*
X0044449Y0161103D02*
X0048952Y0161103D01*
X0049550Y0160504D02*
X0045085Y0160504D01*
X0045720Y0159905D02*
X0050149Y0159905D01*
X0050747Y0159307D02*
X0046356Y0159307D01*
X0046992Y0158708D02*
X0051346Y0158708D01*
X0051944Y0158110D02*
X0047628Y0158110D01*
X0048264Y0157511D02*
X0052543Y0157511D01*
X0053141Y0156913D02*
X0048900Y0156913D01*
X0049536Y0156314D02*
X0053740Y0156314D01*
X0054338Y0155716D02*
X0050172Y0155716D01*
X0050808Y0155117D02*
X0054937Y0155117D01*
X0055536Y0154519D02*
X0051444Y0154519D01*
X0052080Y0153920D02*
X0056134Y0153920D01*
X0056733Y0153322D02*
X0052716Y0153322D01*
X0053351Y0152723D02*
X0057331Y0152723D01*
X0057930Y0152125D02*
X0053987Y0152125D01*
X0054623Y0151526D02*
X0058528Y0151526D01*
X0059127Y0150928D02*
X0055259Y0150928D01*
X0055895Y0150329D02*
X0059725Y0150329D01*
X0060324Y0149731D02*
X0056531Y0149731D01*
X0057167Y0149132D02*
X0060922Y0149132D01*
X0061521Y0148534D02*
X0057803Y0148534D01*
X0058439Y0147935D02*
X0062119Y0147935D01*
X0062718Y0147337D02*
X0059075Y0147337D01*
X0059711Y0146738D02*
X0063316Y0146738D01*
X0063915Y0146140D02*
X0060347Y0146140D01*
X0060983Y0145541D02*
X0064513Y0145541D01*
X0065112Y0144943D02*
X0061618Y0144943D01*
X0062254Y0144344D02*
X0065710Y0144344D01*
X0066309Y0143746D02*
X0062890Y0143746D01*
X0063526Y0143147D02*
X0066907Y0143147D01*
X0067506Y0142549D02*
X0064162Y0142549D01*
X0064798Y0141950D02*
X0068104Y0141950D01*
X0068703Y0141352D02*
X0065434Y0141352D01*
X0066070Y0140753D02*
X0069301Y0140753D01*
X0069900Y0140155D02*
X0066706Y0140155D01*
X0067342Y0139556D02*
X0070498Y0139556D01*
X0071097Y0138958D02*
X0067978Y0138958D01*
X0068614Y0138359D02*
X0071695Y0138359D01*
X0072294Y0137761D02*
X0069249Y0137761D01*
X0069885Y0137162D02*
X0072892Y0137162D01*
X0073491Y0136564D02*
X0070521Y0136564D01*
X0071157Y0135965D02*
X0074089Y0135965D01*
X0074688Y0135367D02*
X0071793Y0135367D01*
X0072429Y0134768D02*
X0075286Y0134768D01*
X0075885Y0134170D02*
X0073065Y0134170D01*
X0073701Y0133571D02*
X0076483Y0133571D01*
X0077082Y0132972D02*
X0074337Y0132972D01*
X0074973Y0132374D02*
X0077680Y0132374D01*
X0078279Y0131775D02*
X0075609Y0131775D01*
X0076245Y0131177D02*
X0078877Y0131177D01*
X0079476Y0130578D02*
X0076880Y0130578D01*
X0077516Y0129980D02*
X0080074Y0129980D01*
X0080673Y0129381D02*
X0078152Y0129381D01*
X0078788Y0128783D02*
X0081272Y0128783D01*
X0081870Y0128184D02*
X0079424Y0128184D01*
X0080060Y0127586D02*
X0082469Y0127586D01*
X0083067Y0126987D02*
X0080696Y0126987D01*
X0081332Y0126389D02*
X0083666Y0126389D01*
X0084264Y0125790D02*
X0081968Y0125790D01*
X0082604Y0125192D02*
X0084863Y0125192D01*
X0085461Y0124593D02*
X0083240Y0124593D01*
X0083876Y0123995D02*
X0086060Y0123995D01*
X0086658Y0123396D02*
X0084511Y0123396D01*
X0085147Y0122798D02*
X0087257Y0122798D01*
X0087855Y0122199D02*
X0085783Y0122199D01*
X0086419Y0121601D02*
X0088454Y0121601D01*
X0089052Y0121002D02*
X0087055Y0121002D01*
X0087691Y0120404D02*
X0089651Y0120404D01*
X0090249Y0119805D02*
X0088327Y0119805D01*
X0088963Y0119207D02*
X0090848Y0119207D01*
X0091446Y0118608D02*
X0089599Y0118608D01*
X0090235Y0118010D02*
X0092045Y0118010D01*
X0092643Y0117411D02*
X0090871Y0117411D01*
X0091507Y0116813D02*
X0093242Y0116813D01*
X0093840Y0116214D02*
X0092143Y0116214D01*
X0092778Y0115616D02*
X0094439Y0115616D01*
X0095037Y0115017D02*
X0093414Y0115017D01*
X0094050Y0114419D02*
X0095636Y0114419D01*
X0096234Y0113820D02*
X0094686Y0113820D01*
X0095322Y0113222D02*
X0096833Y0113222D01*
X0097431Y0112623D02*
X0095958Y0112623D01*
X0096594Y0112025D02*
X0098030Y0112025D01*
X0098628Y0111426D02*
X0097230Y0111426D01*
X0097866Y0110828D02*
X0099227Y0110828D01*
X0099825Y0110229D02*
X0098502Y0110229D01*
X0099138Y0109631D02*
X0100424Y0109631D01*
X0101022Y0109032D02*
X0099774Y0109032D01*
X0100409Y0108434D02*
X0101621Y0108434D01*
X0116300Y0086300D02*
X0116300Y0026300D01*
X0113504Y0025240D02*
X0109096Y0025240D01*
X0109289Y0025705D02*
X0108834Y0024607D01*
X0107993Y0023766D01*
X0106895Y0023311D01*
X0105705Y0023311D01*
X0104607Y0023766D01*
X0103766Y0024607D01*
X0103311Y0025705D01*
X0103311Y0026895D01*
X0103766Y0027993D01*
X0104607Y0028834D01*
X0105705Y0029289D01*
X0106895Y0029289D01*
X0107993Y0028834D01*
X0108834Y0027993D01*
X0109289Y0026895D01*
X0109289Y0025705D01*
X0109289Y0025839D02*
X0113311Y0025839D01*
X0113311Y0026437D02*
X0109289Y0026437D01*
X0109230Y0027036D02*
X0113370Y0027036D01*
X0113618Y0027634D02*
X0108982Y0027634D01*
X0108594Y0028233D02*
X0114006Y0028233D01*
X0114500Y0028832D02*
X0107996Y0028832D01*
X0104604Y0028832D02*
X0097996Y0028832D01*
X0097993Y0028834D02*
X0096895Y0029289D01*
X0095705Y0029289D01*
X0094607Y0028834D01*
X0093766Y0027993D01*
X0093311Y0026895D01*
X0093311Y0025705D01*
X0093766Y0024607D01*
X0094607Y0023766D01*
X0095705Y0023311D01*
X0096895Y0023311D01*
X0097993Y0023766D01*
X0098834Y0024607D01*
X0099289Y0025705D01*
X0099289Y0026895D01*
X0098834Y0027993D01*
X0097993Y0028834D01*
X0098594Y0028233D02*
X0104006Y0028233D01*
X0103618Y0027634D02*
X0098982Y0027634D01*
X0099230Y0027036D02*
X0103370Y0027036D01*
X0103311Y0026437D02*
X0099289Y0026437D01*
X0099289Y0025839D02*
X0103311Y0025839D01*
X0103504Y0025240D02*
X0099096Y0025240D01*
X0098848Y0024642D02*
X0103752Y0024642D01*
X0104330Y0024043D02*
X0098270Y0024043D01*
X0097218Y0023445D02*
X0105382Y0023445D01*
X0107218Y0023445D02*
X0115382Y0023445D01*
X0114330Y0024043D02*
X0108270Y0024043D01*
X0108848Y0024642D02*
X0113752Y0024642D01*
X0117218Y0023445D02*
X0135382Y0023445D01*
X0134330Y0024043D02*
X0118270Y0024043D01*
X0118848Y0024642D02*
X0133752Y0024642D01*
X0119500Y0039605D02*
X0118100Y0039605D01*
X0118100Y0040203D02*
X0119500Y0040203D01*
X0119500Y0040802D02*
X0118100Y0040802D01*
X0118100Y0041400D02*
X0119500Y0041400D01*
X0119500Y0041999D02*
X0118100Y0041999D01*
X0118100Y0042597D02*
X0119500Y0042597D01*
X0119500Y0043196D02*
X0118100Y0043196D01*
X0118100Y0043794D02*
X0119500Y0043794D01*
X0119500Y0044393D02*
X0118100Y0044393D01*
X0118100Y0044991D02*
X0119500Y0044991D01*
X0119500Y0045590D02*
X0118100Y0045590D01*
X0118100Y0046188D02*
X0119500Y0046188D01*
X0119500Y0046787D02*
X0118100Y0046787D01*
X0118100Y0047385D02*
X0119500Y0047385D01*
X0119500Y0047984D02*
X0118100Y0047984D01*
X0118100Y0048582D02*
X0119500Y0048582D01*
X0119500Y0049181D02*
X0118100Y0049181D01*
X0118100Y0049779D02*
X0119500Y0049779D01*
X0119500Y0050378D02*
X0118100Y0050378D01*
X0118100Y0050976D02*
X0119500Y0050976D01*
X0119500Y0051575D02*
X0118100Y0051575D01*
X0118100Y0052173D02*
X0119500Y0052173D01*
X0119500Y0052772D02*
X0118100Y0052772D01*
X0118100Y0053370D02*
X0119500Y0053370D01*
X0119500Y0053969D02*
X0118100Y0053969D01*
X0118100Y0054568D02*
X0119500Y0054568D01*
X0119500Y0055166D02*
X0118100Y0055166D01*
X0118100Y0055765D02*
X0119500Y0055765D01*
X0119500Y0056363D02*
X0118100Y0056363D01*
X0118100Y0056962D02*
X0119500Y0056962D01*
X0119500Y0057560D02*
X0118100Y0057560D01*
X0118100Y0058159D02*
X0119500Y0058159D01*
X0119500Y0058757D02*
X0118100Y0058757D01*
X0118100Y0059356D02*
X0119500Y0059356D01*
X0119500Y0059954D02*
X0118100Y0059954D01*
X0118100Y0060553D02*
X0119500Y0060553D01*
X0119500Y0061151D02*
X0118100Y0061151D01*
X0118100Y0061750D02*
X0119500Y0061750D01*
X0119500Y0062348D02*
X0118100Y0062348D01*
X0118100Y0062947D02*
X0119500Y0062947D01*
X0119500Y0063545D02*
X0118100Y0063545D01*
X0118100Y0064144D02*
X0119500Y0064144D01*
X0119500Y0064742D02*
X0118100Y0064742D01*
X0118100Y0065341D02*
X0119500Y0065341D01*
X0119500Y0065939D02*
X0118100Y0065939D01*
X0118100Y0066538D02*
X0119500Y0066538D01*
X0119500Y0067136D02*
X0118100Y0067136D01*
X0118100Y0067735D02*
X0119500Y0067735D01*
X0119500Y0068333D02*
X0118100Y0068333D01*
X0118100Y0068932D02*
X0119500Y0068932D01*
X0119500Y0069530D02*
X0118100Y0069530D01*
X0118100Y0070129D02*
X0119500Y0070129D01*
X0119500Y0070727D02*
X0118100Y0070727D01*
X0118100Y0071326D02*
X0119500Y0071326D01*
X0119500Y0071924D02*
X0118100Y0071924D01*
X0118100Y0072523D02*
X0119500Y0072523D01*
X0119500Y0073121D02*
X0118100Y0073121D01*
X0118100Y0073720D02*
X0119500Y0073720D01*
X0119500Y0074318D02*
X0118100Y0074318D01*
X0118100Y0074917D02*
X0119500Y0074917D01*
X0119500Y0075515D02*
X0118100Y0075515D01*
X0118100Y0076114D02*
X0119500Y0076114D01*
X0119500Y0076712D02*
X0118100Y0076712D01*
X0118100Y0077311D02*
X0119500Y0077311D01*
X0119500Y0077909D02*
X0118100Y0077909D01*
X0118100Y0078508D02*
X0119500Y0078508D01*
X0119500Y0079106D02*
X0118100Y0079106D01*
X0118100Y0079705D02*
X0119500Y0079705D01*
X0119500Y0080303D02*
X0118100Y0080303D01*
X0118100Y0080902D02*
X0119500Y0080902D01*
X0119500Y0081501D02*
X0118100Y0081501D01*
X0118100Y0082099D02*
X0119500Y0082099D01*
X0119500Y0082698D02*
X0118100Y0082698D01*
X0118100Y0083296D02*
X0119500Y0083296D01*
X0119500Y0083895D02*
X0118100Y0083895D01*
X0118100Y0084493D02*
X0119500Y0084493D01*
X0119500Y0085092D02*
X0118100Y0085092D01*
X0118124Y0085690D02*
X0119322Y0085690D01*
X0118686Y0086289D02*
X0118102Y0086289D01*
X0116300Y0086300D02*
X0046300Y0151300D01*
X0031300Y0151300D01*
X0026300Y0156300D01*
X0029289Y0156314D02*
X0033311Y0156314D01*
X0033311Y0156895D02*
X0033311Y0155705D01*
X0033766Y0154607D01*
X0034607Y0153766D01*
X0035705Y0153311D01*
X0036895Y0153311D01*
X0037993Y0153766D01*
X0038834Y0154607D01*
X0039289Y0155705D01*
X0039289Y0156895D01*
X0038834Y0157993D01*
X0037993Y0158834D01*
X0036895Y0159289D01*
X0035705Y0159289D01*
X0034607Y0158834D01*
X0033766Y0157993D01*
X0033311Y0156895D01*
X0033319Y0156913D02*
X0029281Y0156913D01*
X0029033Y0157511D02*
X0033567Y0157511D01*
X0033883Y0158110D02*
X0028717Y0158110D01*
X0028119Y0158708D02*
X0034481Y0158708D01*
X0033311Y0155716D02*
X0029430Y0155716D01*
X0030028Y0155117D02*
X0033555Y0155117D01*
X0033854Y0154519D02*
X0030627Y0154519D01*
X0031225Y0153920D02*
X0034453Y0153920D01*
X0035679Y0153322D02*
X0031824Y0153322D01*
X0029127Y0150928D02*
X0001300Y0150928D01*
X0001300Y0151526D02*
X0028528Y0151526D01*
X0027930Y0152125D02*
X0001300Y0152125D01*
X0001300Y0152723D02*
X0027331Y0152723D01*
X0025679Y0153322D02*
X0001300Y0153322D01*
X0001300Y0153920D02*
X0024453Y0153920D01*
X0023854Y0154519D02*
X0001300Y0154519D01*
X0001300Y0155117D02*
X0023555Y0155117D01*
X0023311Y0155716D02*
X0001300Y0155716D01*
X0001300Y0156314D02*
X0023311Y0156314D01*
X0023319Y0156913D02*
X0001300Y0156913D01*
X0001300Y0157511D02*
X0023567Y0157511D01*
X0023883Y0158110D02*
X0001300Y0158110D01*
X0001300Y0158708D02*
X0024481Y0158708D01*
X0025258Y0163497D02*
X0001300Y0163497D01*
X0001300Y0164095D02*
X0024278Y0164095D01*
X0023730Y0164694D02*
X0001300Y0164694D01*
X0001300Y0165292D02*
X0023482Y0165292D01*
X0023311Y0165891D02*
X0001300Y0165891D01*
X0001300Y0166489D02*
X0023311Y0166489D01*
X0023391Y0167088D02*
X0001300Y0167088D01*
X0001300Y0167686D02*
X0023639Y0167686D01*
X0024058Y0168285D02*
X0001300Y0168285D01*
X0001300Y0168883D02*
X0024726Y0168883D01*
X0037288Y0162898D02*
X0001300Y0162898D01*
X0001300Y0162300D02*
X0037924Y0162300D01*
X0038560Y0161701D02*
X0001300Y0161701D01*
X0001300Y0161103D02*
X0039196Y0161103D01*
X0039832Y0160504D02*
X0001300Y0160504D01*
X0001300Y0159905D02*
X0040468Y0159905D01*
X0041104Y0159307D02*
X0001300Y0159307D01*
X0001300Y0150329D02*
X0029725Y0150329D01*
X0030324Y0149731D02*
X0001300Y0149731D01*
X0001300Y0149132D02*
X0025327Y0149132D01*
X0025705Y0149289D02*
X0024607Y0148834D01*
X0023766Y0147993D01*
X0023311Y0146895D01*
X0023311Y0145705D01*
X0023766Y0144607D01*
X0024607Y0143766D01*
X0025705Y0143311D01*
X0026895Y0143311D01*
X0027993Y0143766D01*
X0028834Y0144607D01*
X0029289Y0145705D01*
X0029289Y0146895D01*
X0028834Y0147993D01*
X0027993Y0148834D01*
X0026895Y0149289D01*
X0025705Y0149289D01*
X0027273Y0149132D02*
X0035327Y0149132D01*
X0035705Y0149289D02*
X0034607Y0148834D01*
X0033766Y0147993D01*
X0033311Y0146895D01*
X0033311Y0145705D01*
X0033766Y0144607D01*
X0034607Y0143766D01*
X0035705Y0143311D01*
X0036895Y0143311D01*
X0037993Y0143766D01*
X0038834Y0144607D01*
X0039289Y0145705D01*
X0039289Y0146895D01*
X0038834Y0147993D01*
X0037993Y0148834D01*
X0036895Y0149289D01*
X0035705Y0149289D01*
X0037273Y0149132D02*
X0045989Y0149132D01*
X0046634Y0148534D02*
X0038293Y0148534D01*
X0038858Y0147935D02*
X0047278Y0147935D01*
X0047923Y0147337D02*
X0039106Y0147337D01*
X0039289Y0146738D02*
X0048567Y0146738D01*
X0049212Y0146140D02*
X0039289Y0146140D01*
X0039221Y0145541D02*
X0049856Y0145541D01*
X0050501Y0144943D02*
X0038973Y0144943D01*
X0038571Y0144344D02*
X0051146Y0144344D01*
X0051790Y0143746D02*
X0037944Y0143746D01*
X0034656Y0143746D02*
X0027944Y0143746D01*
X0028571Y0144344D02*
X0034029Y0144344D01*
X0033627Y0144943D02*
X0028973Y0144943D01*
X0029221Y0145541D02*
X0033379Y0145541D01*
X0033311Y0146140D02*
X0029289Y0146140D01*
X0029289Y0146738D02*
X0033311Y0146738D01*
X0033494Y0147337D02*
X0029106Y0147337D01*
X0028858Y0147935D02*
X0033742Y0147935D01*
X0034307Y0148534D02*
X0028293Y0148534D01*
X0024307Y0148534D02*
X0001300Y0148534D01*
X0001300Y0147935D02*
X0023742Y0147935D01*
X0023494Y0147337D02*
X0001300Y0147337D01*
X0001300Y0146738D02*
X0023311Y0146738D01*
X0023311Y0146140D02*
X0001300Y0146140D01*
X0001300Y0145541D02*
X0023379Y0145541D01*
X0023627Y0144943D02*
X0001300Y0144943D01*
X0001300Y0144344D02*
X0024029Y0144344D01*
X0024656Y0143746D02*
X0001300Y0143746D01*
X0001300Y0143147D02*
X0052435Y0143147D01*
X0053079Y0142549D02*
X0001300Y0142549D01*
X0001300Y0141950D02*
X0053724Y0141950D01*
X0054368Y0141352D02*
X0001300Y0141352D01*
X0001300Y0140753D02*
X0055013Y0140753D01*
X0055657Y0140155D02*
X0001300Y0140155D01*
X0027695Y0138958D02*
X0034905Y0138958D01*
X0034132Y0138359D02*
X0028468Y0138359D01*
X0028930Y0137761D02*
X0033670Y0137761D01*
X0033422Y0137162D02*
X0029178Y0137162D01*
X0029289Y0136564D02*
X0033311Y0136564D01*
X0033311Y0135965D02*
X0029289Y0135965D01*
X0029149Y0135367D02*
X0033451Y0135367D01*
X0033699Y0134768D02*
X0028901Y0134768D01*
X0028397Y0134170D02*
X0034203Y0134170D01*
X0035078Y0133571D02*
X0027522Y0133571D01*
X0036921Y0153322D02*
X0047463Y0153322D01*
X0047422Y0152723D02*
X0048099Y0152723D01*
X0048057Y0152125D02*
X0048735Y0152125D01*
X0048702Y0151526D02*
X0049371Y0151526D01*
X0049346Y0150928D02*
X0050007Y0150928D01*
X0049991Y0150329D02*
X0050643Y0150329D01*
X0050635Y0149731D02*
X0051278Y0149731D01*
X0051280Y0149132D02*
X0051914Y0149132D01*
X0051924Y0148534D02*
X0052550Y0148534D01*
X0052569Y0147935D02*
X0053186Y0147935D01*
X0053213Y0147337D02*
X0053822Y0147337D01*
X0053858Y0146738D02*
X0054458Y0146738D01*
X0054502Y0146140D02*
X0055094Y0146140D01*
X0055147Y0145541D02*
X0055730Y0145541D01*
X0055792Y0144943D02*
X0056366Y0144943D01*
X0056436Y0144344D02*
X0057002Y0144344D01*
X0057081Y0143746D02*
X0057638Y0143746D01*
X0057725Y0143147D02*
X0058274Y0143147D01*
X0058370Y0142549D02*
X0058909Y0142549D01*
X0059014Y0141950D02*
X0059545Y0141950D01*
X0059659Y0141352D02*
X0060181Y0141352D01*
X0060303Y0140753D02*
X0060817Y0140753D01*
X0060948Y0140155D02*
X0061453Y0140155D01*
X0061593Y0139556D02*
X0062089Y0139556D01*
X0062237Y0138958D02*
X0062725Y0138958D01*
X0062882Y0138359D02*
X0063361Y0138359D01*
X0063526Y0137761D02*
X0063997Y0137761D01*
X0064171Y0137162D02*
X0064633Y0137162D01*
X0064815Y0136564D02*
X0065269Y0136564D01*
X0046827Y0153920D02*
X0038147Y0153920D01*
X0038746Y0154519D02*
X0046191Y0154519D01*
X0045555Y0155117D02*
X0039045Y0155117D01*
X0039289Y0155716D02*
X0044919Y0155716D01*
X0044283Y0156314D02*
X0039289Y0156314D01*
X0039281Y0156913D02*
X0043647Y0156913D01*
X0043011Y0157511D02*
X0039033Y0157511D01*
X0038717Y0158110D02*
X0042376Y0158110D01*
X0041740Y0158708D02*
X0038119Y0158708D01*
X0121262Y0168883D02*
X0224726Y0168883D01*
X0224607Y0168834D02*
X0223766Y0167993D01*
X0223311Y0166895D01*
X0223311Y0165705D01*
X0223766Y0164607D01*
X0224607Y0163766D01*
X0225705Y0163311D01*
X0226895Y0163311D01*
X0227993Y0163766D01*
X0228834Y0164607D01*
X0229289Y0165705D01*
X0229289Y0166895D01*
X0228834Y0167993D01*
X0227993Y0168834D01*
X0226895Y0169289D01*
X0225705Y0169289D01*
X0224607Y0168834D01*
X0224058Y0168285D02*
X0121861Y0168285D01*
X0122459Y0167686D02*
X0223639Y0167686D01*
X0223391Y0167088D02*
X0123058Y0167088D01*
X0123656Y0166489D02*
X0223311Y0166489D01*
X0223311Y0165891D02*
X0124255Y0165891D01*
X0124853Y0165292D02*
X0223482Y0165292D01*
X0223730Y0164694D02*
X0125452Y0164694D01*
X0126050Y0164095D02*
X0224278Y0164095D01*
X0225258Y0163497D02*
X0126649Y0163497D01*
X0151188Y0138958D02*
X0224905Y0138958D01*
X0224607Y0138834D02*
X0223766Y0137993D01*
X0223311Y0136895D01*
X0223311Y0135705D01*
X0223766Y0134607D01*
X0224607Y0133766D01*
X0225705Y0133311D01*
X0226895Y0133311D01*
X0227993Y0133766D01*
X0228834Y0134607D01*
X0229289Y0135705D01*
X0229289Y0136895D01*
X0228834Y0137993D01*
X0227993Y0138834D01*
X0226895Y0139289D01*
X0225705Y0139289D01*
X0224607Y0138834D01*
X0224132Y0138359D02*
X0151786Y0138359D01*
X0152385Y0137761D02*
X0223670Y0137761D01*
X0223422Y0137162D02*
X0152984Y0137162D01*
X0153582Y0136564D02*
X0223311Y0136564D01*
X0223311Y0135965D02*
X0154181Y0135965D01*
X0154779Y0135367D02*
X0223451Y0135367D01*
X0223699Y0134768D02*
X0155378Y0134768D01*
X0155976Y0134170D02*
X0224203Y0134170D01*
X0225078Y0133571D02*
X0156575Y0133571D01*
X0206300Y0071300D02*
X0221300Y0071300D01*
X0221300Y0043111D01*
X0221772Y0042639D01*
X0221772Y0040670D01*
X0223572Y0040802D02*
X0261300Y0040802D01*
X0261300Y0041400D02*
X0223572Y0041400D01*
X0223572Y0041999D02*
X0261300Y0041999D01*
X0261300Y0042597D02*
X0223572Y0042597D01*
X0223572Y0043196D02*
X0261300Y0043196D01*
X0261300Y0043794D02*
X0223162Y0043794D01*
X0223100Y0044393D02*
X0261300Y0044393D01*
X0261300Y0044991D02*
X0223100Y0044991D01*
X0223100Y0045590D02*
X0261300Y0045590D01*
X0261300Y0046188D02*
X0223100Y0046188D01*
X0223100Y0046787D02*
X0261300Y0046787D01*
X0261300Y0047385D02*
X0223100Y0047385D01*
X0223100Y0047984D02*
X0261300Y0047984D01*
X0261300Y0048582D02*
X0223100Y0048582D01*
X0223100Y0049181D02*
X0261300Y0049181D01*
X0261300Y0049779D02*
X0223100Y0049779D01*
X0223100Y0050378D02*
X0261300Y0050378D01*
X0261300Y0050976D02*
X0223100Y0050976D01*
X0223100Y0051575D02*
X0261300Y0051575D01*
X0261300Y0052173D02*
X0223100Y0052173D01*
X0223100Y0052772D02*
X0261300Y0052772D01*
X0261300Y0053370D02*
X0223100Y0053370D01*
X0223100Y0053969D02*
X0261300Y0053969D01*
X0261300Y0054568D02*
X0223100Y0054568D01*
X0223100Y0055166D02*
X0261300Y0055166D01*
X0261300Y0055765D02*
X0223100Y0055765D01*
X0223100Y0056363D02*
X0261300Y0056363D01*
X0261300Y0056962D02*
X0223100Y0056962D01*
X0223100Y0057560D02*
X0261300Y0057560D01*
X0261300Y0058159D02*
X0223100Y0058159D01*
X0223100Y0058757D02*
X0261300Y0058757D01*
X0261300Y0059356D02*
X0223100Y0059356D01*
X0223100Y0059954D02*
X0261300Y0059954D01*
X0261300Y0060553D02*
X0223100Y0060553D01*
X0223100Y0061151D02*
X0261300Y0061151D01*
X0261300Y0061750D02*
X0223100Y0061750D01*
X0223100Y0062348D02*
X0261300Y0062348D01*
X0261300Y0062947D02*
X0223100Y0062947D01*
X0223100Y0063545D02*
X0261300Y0063545D01*
X0261300Y0064144D02*
X0223100Y0064144D01*
X0223100Y0064742D02*
X0261300Y0064742D01*
X0261300Y0065341D02*
X0223100Y0065341D01*
X0223100Y0065939D02*
X0261300Y0065939D01*
X0261300Y0066538D02*
X0223100Y0066538D01*
X0223100Y0067136D02*
X0261300Y0067136D01*
X0261300Y0067735D02*
X0223100Y0067735D01*
X0223100Y0068333D02*
X0261300Y0068333D01*
X0261300Y0068932D02*
X0223159Y0068932D01*
X0223757Y0069530D02*
X0261300Y0069530D01*
X0261300Y0070129D02*
X0224050Y0070129D01*
X0224289Y0070727D02*
X0261300Y0070727D01*
X0261300Y0071326D02*
X0224289Y0071326D01*
X0224277Y0071924D02*
X0261300Y0071924D01*
X0261300Y0072523D02*
X0224029Y0072523D01*
X0223706Y0073121D02*
X0261300Y0073121D01*
X0261300Y0073720D02*
X0223107Y0073720D01*
X0223572Y0040203D02*
X0261300Y0040203D01*
X0261300Y0039605D02*
X0223253Y0039605D01*
X0222654Y0039006D02*
X0261300Y0039006D01*
X0261300Y0038408D02*
X0183419Y0038408D01*
X0183834Y0037993D02*
X0182993Y0038834D01*
X0181895Y0039289D01*
X0180705Y0039289D01*
X0179607Y0038834D01*
X0178766Y0037993D01*
X0178311Y0036895D01*
X0178311Y0035705D01*
X0178766Y0034607D01*
X0179607Y0033766D01*
X0180705Y0033311D01*
X0181895Y0033311D01*
X0182993Y0033766D01*
X0183834Y0034607D01*
X0184289Y0035705D01*
X0184289Y0036895D01*
X0183834Y0037993D01*
X0183910Y0037809D02*
X0261300Y0037809D01*
X0261300Y0037211D02*
X0184158Y0037211D01*
X0184289Y0036612D02*
X0261300Y0036612D01*
X0261300Y0036014D02*
X0184289Y0036014D01*
X0184169Y0035415D02*
X0261300Y0035415D01*
X0261300Y0034817D02*
X0183921Y0034817D01*
X0183445Y0034218D02*
X0261300Y0034218D01*
X0261300Y0033620D02*
X0182640Y0033620D01*
X0179960Y0033620D02*
X0172640Y0033620D01*
X0172993Y0033766D02*
X0173834Y0034607D01*
X0174289Y0035705D01*
X0174289Y0036895D01*
X0173834Y0037993D01*
X0172993Y0038834D01*
X0171895Y0039289D01*
X0170705Y0039289D01*
X0169607Y0038834D01*
X0168766Y0037993D01*
X0168311Y0036895D01*
X0168311Y0035705D01*
X0168766Y0034607D01*
X0169607Y0033766D01*
X0170705Y0033311D01*
X0171895Y0033311D01*
X0172993Y0033766D01*
X0173445Y0034218D02*
X0179155Y0034218D01*
X0178679Y0034817D02*
X0173921Y0034817D01*
X0174169Y0035415D02*
X0178431Y0035415D01*
X0178311Y0036014D02*
X0174289Y0036014D01*
X0174289Y0036612D02*
X0178311Y0036612D01*
X0178442Y0037211D02*
X0174158Y0037211D01*
X0173910Y0037809D02*
X0178690Y0037809D01*
X0179181Y0038408D02*
X0173419Y0038408D01*
X0172577Y0039006D02*
X0180023Y0039006D01*
X0182577Y0039006D02*
X0220891Y0039006D01*
X0221772Y0036733D02*
X0221772Y0026891D01*
X0169960Y0033620D02*
X0162640Y0033620D01*
X0163445Y0034218D02*
X0169155Y0034218D01*
X0168679Y0034817D02*
X0163921Y0034817D01*
X0164169Y0035415D02*
X0168431Y0035415D01*
X0168311Y0036014D02*
X0164289Y0036014D01*
X0164289Y0036612D02*
X0168311Y0036612D01*
X0168442Y0037211D02*
X0164158Y0037211D01*
X0163910Y0037809D02*
X0168690Y0037809D01*
X0169181Y0038408D02*
X0163419Y0038408D01*
X0162577Y0039006D02*
X0170023Y0039006D01*
X0114500Y0033021D02*
X0001300Y0033021D01*
X0001300Y0032423D02*
X0114500Y0032423D01*
X0114500Y0031824D02*
X0001300Y0031824D01*
X0001300Y0031226D02*
X0114500Y0031226D01*
X0114500Y0030627D02*
X0001300Y0030627D01*
X0001300Y0030029D02*
X0114500Y0030029D01*
X0114500Y0029430D02*
X0001300Y0029430D01*
X0001300Y0028832D02*
X0084604Y0028832D01*
X0084607Y0028834D02*
X0083766Y0027993D01*
X0083311Y0026895D01*
X0083311Y0025705D01*
X0083766Y0024607D01*
X0084607Y0023766D01*
X0085705Y0023311D01*
X0086895Y0023311D01*
X0087993Y0023766D01*
X0088834Y0024607D01*
X0089289Y0025705D01*
X0089289Y0026895D01*
X0088834Y0027993D01*
X0087993Y0028834D01*
X0086895Y0029289D01*
X0085705Y0029289D01*
X0084607Y0028834D01*
X0084006Y0028233D02*
X0001300Y0028233D01*
X0001300Y0027634D02*
X0083618Y0027634D01*
X0083370Y0027036D02*
X0001300Y0027036D01*
X0001300Y0026437D02*
X0083311Y0026437D01*
X0083311Y0025839D02*
X0001300Y0025839D01*
X0001300Y0025240D02*
X0083504Y0025240D01*
X0083752Y0024642D02*
X0001300Y0024642D01*
X0001300Y0024043D02*
X0084330Y0024043D01*
X0085382Y0023445D02*
X0001300Y0023445D01*
X0001300Y0033620D02*
X0089960Y0033620D01*
X0089607Y0033766D02*
X0090705Y0033311D01*
X0091895Y0033311D01*
X0092993Y0033766D01*
X0093834Y0034607D01*
X0094289Y0035705D01*
X0094289Y0036895D01*
X0093834Y0037993D01*
X0092993Y0038834D01*
X0091895Y0039289D01*
X0090705Y0039289D01*
X0089607Y0038834D01*
X0088766Y0037993D01*
X0088311Y0036895D01*
X0088311Y0035705D01*
X0088766Y0034607D01*
X0089607Y0033766D01*
X0089155Y0034218D02*
X0001300Y0034218D01*
X0001300Y0034817D02*
X0088679Y0034817D01*
X0088431Y0035415D02*
X0001300Y0035415D01*
X0001300Y0036014D02*
X0088311Y0036014D01*
X0088311Y0036612D02*
X0001300Y0036612D01*
X0001300Y0037211D02*
X0088442Y0037211D01*
X0088690Y0037809D02*
X0001300Y0037809D01*
X0001300Y0038408D02*
X0089181Y0038408D01*
X0090023Y0039006D02*
X0001300Y0039006D01*
X0087996Y0028832D02*
X0094604Y0028832D01*
X0094006Y0028233D02*
X0088594Y0028233D01*
X0088982Y0027634D02*
X0093618Y0027634D01*
X0093370Y0027036D02*
X0089230Y0027036D01*
X0089289Y0026437D02*
X0093311Y0026437D01*
X0093311Y0025839D02*
X0089289Y0025839D01*
X0089096Y0025240D02*
X0093504Y0025240D01*
X0093752Y0024642D02*
X0088848Y0024642D01*
X0088270Y0024043D02*
X0094330Y0024043D01*
X0095382Y0023445D02*
X0087218Y0023445D01*
X0092640Y0033620D02*
X0109960Y0033620D01*
X0109155Y0034218D02*
X0093445Y0034218D01*
X0093921Y0034817D02*
X0108679Y0034817D01*
X0108431Y0035415D02*
X0094169Y0035415D01*
X0094289Y0036014D02*
X0108311Y0036014D01*
X0108311Y0036612D02*
X0094289Y0036612D01*
X0094158Y0037211D02*
X0108442Y0037211D01*
X0108690Y0037809D02*
X0093910Y0037809D01*
X0093419Y0038408D02*
X0109181Y0038408D01*
X0110023Y0039006D02*
X0092577Y0039006D01*
X0227522Y0133571D02*
X0235078Y0133571D01*
X0234203Y0134170D02*
X0228397Y0134170D01*
X0228901Y0134768D02*
X0233699Y0134768D01*
X0233451Y0135367D02*
X0229149Y0135367D01*
X0229289Y0135965D02*
X0233311Y0135965D01*
X0233311Y0136564D02*
X0229289Y0136564D01*
X0229178Y0137162D02*
X0233422Y0137162D01*
X0233670Y0137761D02*
X0228930Y0137761D01*
X0228468Y0138359D02*
X0234132Y0138359D01*
X0234905Y0138958D02*
X0227695Y0138958D01*
X0227342Y0163497D02*
X0235258Y0163497D01*
X0234278Y0164095D02*
X0228322Y0164095D01*
X0228870Y0164694D02*
X0233730Y0164694D01*
X0233482Y0165292D02*
X0229118Y0165292D01*
X0229289Y0165891D02*
X0233311Y0165891D01*
X0233311Y0166489D02*
X0229289Y0166489D01*
X0229209Y0167088D02*
X0233391Y0167088D01*
X0233639Y0167686D02*
X0228961Y0167686D01*
X0228542Y0168285D02*
X0234058Y0168285D01*
X0234726Y0168883D02*
X0227874Y0168883D01*
X0227764Y0173671D02*
X0234836Y0173671D01*
X0234103Y0174270D02*
X0228497Y0174270D01*
X0228942Y0174868D02*
X0233658Y0174868D01*
X0233410Y0175467D02*
X0229190Y0175467D01*
X0229289Y0176065D02*
X0233311Y0176065D01*
X0233311Y0176664D02*
X0229289Y0176664D01*
X0229137Y0177262D02*
X0233463Y0177262D01*
X0233711Y0177861D02*
X0228889Y0177861D01*
X0228368Y0178459D02*
X0234232Y0178459D01*
X0235148Y0179058D02*
X0227452Y0179058D01*
X0227585Y0203597D02*
X0235015Y0203597D01*
X0234607Y0203766D02*
X0235705Y0203311D01*
X0236895Y0203311D01*
X0237993Y0203766D01*
X0238834Y0204607D01*
X0239289Y0205705D01*
X0239289Y0206895D01*
X0238834Y0207993D01*
X0237993Y0208834D01*
X0236895Y0209289D01*
X0235705Y0209289D01*
X0234607Y0208834D01*
X0233766Y0207993D01*
X0233311Y0206895D01*
X0233311Y0205705D01*
X0233766Y0204607D01*
X0234607Y0203766D01*
X0234178Y0204195D02*
X0228422Y0204195D01*
X0228911Y0204794D02*
X0233689Y0204794D01*
X0233441Y0205392D02*
X0229159Y0205392D01*
X0229289Y0205991D02*
X0233311Y0205991D01*
X0233311Y0206589D02*
X0229289Y0206589D01*
X0229167Y0207188D02*
X0233433Y0207188D01*
X0233680Y0207786D02*
X0228920Y0207786D01*
X0228442Y0208385D02*
X0234158Y0208385D01*
X0234968Y0208983D02*
X0227632Y0208983D01*
X0237632Y0208983D02*
X0261300Y0208983D01*
X0261300Y0208385D02*
X0238442Y0208385D01*
X0238920Y0207786D02*
X0261300Y0207786D01*
X0261300Y0207188D02*
X0239167Y0207188D01*
X0239289Y0206589D02*
X0261300Y0206589D01*
X0261300Y0205991D02*
X0239289Y0205991D01*
X0239159Y0205392D02*
X0261300Y0205392D01*
X0261300Y0204794D02*
X0238911Y0204794D01*
X0238422Y0204195D02*
X0261300Y0204195D01*
X0261300Y0203597D02*
X0237585Y0203597D01*
X0235195Y0233522D02*
X0227405Y0233522D01*
X0228348Y0234121D02*
X0234252Y0234121D01*
X0233719Y0234719D02*
X0228881Y0234719D01*
X0229128Y0235318D02*
X0233472Y0235318D01*
X0233311Y0235916D02*
X0229289Y0235916D01*
X0229289Y0236515D02*
X0233311Y0236515D01*
X0233402Y0237113D02*
X0229198Y0237113D01*
X0228950Y0237712D02*
X0233650Y0237712D01*
X0234083Y0238310D02*
X0228517Y0238310D01*
X0227812Y0238909D02*
X0234788Y0238909D01*
X0234773Y0243697D02*
X0227827Y0243697D01*
X0228523Y0244296D02*
X0234077Y0244296D01*
X0233647Y0244894D02*
X0228953Y0244894D01*
X0229201Y0245493D02*
X0233399Y0245493D01*
X0233311Y0246091D02*
X0229289Y0246091D01*
X0229289Y0246690D02*
X0233311Y0246690D01*
X0233474Y0247288D02*
X0229126Y0247288D01*
X0228878Y0247887D02*
X0233722Y0247887D01*
X0234258Y0248485D02*
X0228342Y0248485D01*
X0227390Y0249084D02*
X0235210Y0249084D01*
X0234953Y0273623D02*
X0227647Y0273623D01*
X0227993Y0273766D02*
X0228834Y0274607D01*
X0229289Y0275705D01*
X0229289Y0276895D01*
X0228834Y0277993D01*
X0227993Y0278834D01*
X0226895Y0279289D01*
X0225705Y0279289D01*
X0224607Y0278834D01*
X0223766Y0277993D01*
X0223311Y0276895D01*
X0223311Y0275705D01*
X0223766Y0274607D01*
X0224607Y0273766D01*
X0225705Y0273311D01*
X0226895Y0273311D01*
X0227993Y0273766D01*
X0228448Y0274221D02*
X0234152Y0274221D01*
X0233678Y0274820D02*
X0228922Y0274820D01*
X0229170Y0275418D02*
X0233430Y0275418D01*
X0233311Y0276017D02*
X0229289Y0276017D01*
X0229289Y0276615D02*
X0233311Y0276615D01*
X0233443Y0277214D02*
X0229157Y0277214D01*
X0228909Y0277812D02*
X0233691Y0277812D01*
X0234184Y0278411D02*
X0228416Y0278411D01*
X0227570Y0279009D02*
X0235030Y0279009D01*
X0225030Y0279009D02*
X0048100Y0279009D01*
X0048100Y0278411D02*
X0224184Y0278411D01*
X0223691Y0277812D02*
X0048100Y0277812D01*
X0048100Y0277214D02*
X0223443Y0277214D01*
X0223311Y0276615D02*
X0048100Y0276615D01*
X0048100Y0276017D02*
X0223311Y0276017D01*
X0223430Y0275418D02*
X0048100Y0275418D01*
X0048100Y0274820D02*
X0223678Y0274820D01*
X0224152Y0274221D02*
X0048100Y0274221D01*
X0048100Y0273623D02*
X0224953Y0273623D01*
X0227467Y0303548D02*
X0235133Y0303548D01*
X0234226Y0304147D02*
X0228374Y0304147D01*
X0228891Y0304745D02*
X0233709Y0304745D01*
X0233461Y0305344D02*
X0229139Y0305344D01*
X0229289Y0305942D02*
X0233311Y0305942D01*
X0233311Y0306541D02*
X0229289Y0306541D01*
X0229188Y0307139D02*
X0233412Y0307139D01*
X0233660Y0307738D02*
X0228940Y0307738D01*
X0228491Y0308336D02*
X0234109Y0308336D01*
X0234850Y0308935D02*
X0227750Y0308935D01*
X0227889Y0313723D02*
X0234711Y0313723D01*
X0234052Y0314321D02*
X0228548Y0314321D01*
X0228964Y0314920D02*
X0233636Y0314920D01*
X0233388Y0315518D02*
X0229211Y0315518D01*
X0229289Y0316117D02*
X0233311Y0316117D01*
X0233311Y0316715D02*
X0229289Y0316715D01*
X0229115Y0317314D02*
X0233485Y0317314D01*
X0233733Y0317912D02*
X0228867Y0317912D01*
X0228316Y0318511D02*
X0234284Y0318511D01*
X0235272Y0319110D02*
X0227328Y0319110D01*
M02*
