%
M48
M72
T01C0.01378
%
T01
X26300Y76300
X26300Y106300
X26300Y116300
X26300Y126300
X26300Y136300
X26300Y146300
X26300Y156300
X26300Y166300
X26300Y176300
X26300Y186300
X26300Y196300
X26300Y206300
X26300Y216300
X26300Y226300
X26300Y236300
X26300Y246300
X26300Y256300
X26300Y266300
X26300Y276300
X26300Y286300
X26300Y296300
X26300Y306300
X26300Y316300
X26300Y326300
X26300Y336300
X26300Y346300
X36300Y346300
X36300Y336300
X36300Y326300
X36300Y316300
X36300Y306300
X36300Y296300
X36300Y286300
X36300Y276300
X36300Y266300
X36300Y256300
X36300Y246300
X36300Y236300
X36300Y226300
X36300Y216300
X36300Y206300
X36300Y196300
X36300Y186300
X36300Y176300
X36300Y166300
X36300Y156300
X36300Y146300
X36300Y136300
X36300Y126300
X36300Y116300
X36300Y106300
X91300Y36300
X86300Y26300
X96300Y26300
X101300Y36300
X111300Y36300
X106300Y26300
X116300Y26300
X126300Y26300
X121300Y36300
X131300Y36300
X141300Y36300
X136300Y26300
X146300Y26300
X156300Y26300
X151300Y36300
X161300Y36300
X166300Y26300
X176300Y26300
X171300Y36300
X181300Y36300
X211300Y61300
X221300Y71300
X211300Y81300
X226300Y106300
X226300Y116300
X226300Y116300
X226300Y126300
X226300Y136300
X226300Y146300
X226300Y156300
X226300Y166300
X226300Y176300
X226300Y186300
X226300Y196300
X226300Y206300
X226300Y216300
X226300Y226300
X226300Y236300
X226300Y246300
X226300Y256300
X226300Y266300
X226300Y276300
X226300Y286300
X226300Y296300
X226300Y306300
X226300Y316300
X226300Y326300
X226300Y336300
X226300Y346300
X236300Y346300
X236300Y336300
X236300Y326300
X236300Y316300
X236300Y306300
X236300Y296300
X236300Y286300
X236300Y276300
X236300Y266300
X236300Y256300
X236300Y246300
X236300Y236300
X236300Y226300
X236300Y216300
X236300Y206300
X236300Y196300
X236300Y186300
X236300Y176300
X236300Y166300
X236300Y156300
X236300Y146300
X236300Y136300
X236300Y126300
X236300Y116300
X236300Y106300
X231300Y81300
X231300Y61300
X221772Y26891
X131300Y121300
X131300Y231300
X131300Y281300
X131300Y351300
M30
