G75*
%MOIN*%
%OFA0B0*%
%FSLAX25Y25*%
%IPPOS*%
%LPD*%
%AMOC8*
5,1,8,0,0,1.08239X$1,22.5*
%
%ADD10R,0.03937X0.01969*%
%ADD11C,0.03778*%
D10*
X0026772Y0093623D03*
X0026772Y0099528D03*
X0026772Y0148623D03*
X0026772Y0154528D03*
X0026772Y0203623D03*
X0026772Y0209528D03*
X0026772Y0258623D03*
X0026772Y0264528D03*
X0026772Y0313623D03*
X0026772Y0319528D03*
X0326772Y0319528D03*
X0326772Y0313623D03*
X0326772Y0264528D03*
X0326772Y0258623D03*
X0326772Y0209528D03*
X0326772Y0203623D03*
X0326772Y0154528D03*
X0326772Y0148623D03*
X0326772Y0099528D03*
X0326772Y0093623D03*
D11*
X0018800Y0051300D03*
X0036615Y0093623D03*
X0036300Y0111300D03*
X0026300Y0120906D03*
X0016300Y0111300D03*
X0016300Y0131300D03*
X0036300Y0131300D03*
X0036615Y0148623D03*
X0036300Y0166300D03*
X0026300Y0175906D03*
X0016300Y0166300D03*
X0016300Y0186300D03*
X0036300Y0186300D03*
X0036615Y0203623D03*
X0036300Y0221300D03*
X0026300Y0230906D03*
X0016300Y0221300D03*
X0016300Y0241300D03*
X0036300Y0241300D03*
X0036615Y0258623D03*
X0036300Y0276300D03*
X0026300Y0285906D03*
X0016300Y0276300D03*
X0016300Y0296300D03*
X0036300Y0296300D03*
X0036615Y0313623D03*
X0036300Y0331300D03*
X0026300Y0340906D03*
X0016300Y0331300D03*
X0016300Y0351300D03*
X0036300Y0351300D03*
X0071300Y0346300D03*
X0071300Y0336300D03*
X0071300Y0326300D03*
X0071300Y0316300D03*
X0071300Y0306300D03*
X0071300Y0296300D03*
X0071300Y0286300D03*
X0071300Y0276300D03*
X0071300Y0266300D03*
X0071300Y0256300D03*
X0071300Y0246300D03*
X0071300Y0236300D03*
X0071300Y0226300D03*
X0071300Y0216300D03*
X0071300Y0206300D03*
X0071300Y0196300D03*
X0071300Y0186300D03*
X0071300Y0176300D03*
X0071300Y0166300D03*
X0071300Y0156300D03*
X0071300Y0146300D03*
X0071300Y0136300D03*
X0071300Y0126300D03*
X0071300Y0116300D03*
X0071300Y0106300D03*
X0081300Y0106300D03*
X0081300Y0116300D03*
X0081300Y0126300D03*
X0081300Y0136300D03*
X0081300Y0146300D03*
X0081300Y0156300D03*
X0081300Y0166300D03*
X0081300Y0176300D03*
X0081300Y0186300D03*
X0081300Y0196300D03*
X0081300Y0206300D03*
X0081300Y0216300D03*
X0081300Y0226300D03*
X0081300Y0236300D03*
X0081300Y0246300D03*
X0081300Y0256300D03*
X0081300Y0266300D03*
X0081300Y0276300D03*
X0081300Y0286300D03*
X0081300Y0296300D03*
X0081300Y0306300D03*
X0081300Y0316300D03*
X0081300Y0326300D03*
X0081300Y0336300D03*
X0081300Y0346300D03*
X0101300Y0321300D03*
X0126300Y0271300D03*
X0176300Y0266300D03*
X0176300Y0281300D03*
X0176300Y0296300D03*
X0176300Y0311300D03*
X0176300Y0331300D03*
X0176300Y0346300D03*
X0231300Y0276300D03*
X0271300Y0276300D03*
X0271300Y0266300D03*
X0271300Y0256300D03*
X0271300Y0246300D03*
X0271300Y0236300D03*
X0271300Y0226300D03*
X0271300Y0216300D03*
X0271300Y0206300D03*
X0271300Y0196300D03*
X0271300Y0186300D03*
X0271300Y0176300D03*
X0271300Y0166300D03*
X0271300Y0156300D03*
X0271300Y0146300D03*
X0271300Y0136300D03*
X0271300Y0126300D03*
X0271300Y0116300D03*
X0271300Y0116300D03*
X0271300Y0106300D03*
X0281300Y0106300D03*
X0281300Y0116300D03*
X0281300Y0126300D03*
X0281300Y0136300D03*
X0281300Y0146300D03*
X0281300Y0156300D03*
X0281300Y0166300D03*
X0281300Y0176300D03*
X0281300Y0186300D03*
X0281300Y0196300D03*
X0281300Y0206300D03*
X0281300Y0216300D03*
X0281300Y0226300D03*
X0281300Y0236300D03*
X0281300Y0246300D03*
X0281300Y0256300D03*
X0281300Y0266300D03*
X0281300Y0276300D03*
X0281300Y0286300D03*
X0281300Y0296300D03*
X0281300Y0306300D03*
X0281300Y0316300D03*
X0281300Y0326300D03*
X0281300Y0336300D03*
X0281300Y0346300D03*
X0271300Y0346300D03*
X0271300Y0336300D03*
X0271300Y0326300D03*
X0271300Y0316300D03*
X0271300Y0306300D03*
X0271300Y0296300D03*
X0271300Y0286300D03*
X0316300Y0276300D03*
X0326300Y0285906D03*
X0336300Y0276300D03*
X0336615Y0258623D03*
X0336300Y0241300D03*
X0326300Y0230906D03*
X0316300Y0221300D03*
X0316300Y0241300D03*
X0336300Y0221300D03*
X0336615Y0203623D03*
X0336300Y0186300D03*
X0326300Y0175906D03*
X0316300Y0166300D03*
X0316300Y0186300D03*
X0336300Y0166300D03*
X0336615Y0148623D03*
X0336300Y0131300D03*
X0326300Y0120906D03*
X0316300Y0111300D03*
X0316300Y0131300D03*
X0336300Y0111300D03*
X0336615Y0093623D03*
X0333800Y0053800D03*
X0296300Y0041457D03*
X0266300Y0071300D03*
X0226300Y0036300D03*
X0216300Y0036300D03*
X0206300Y0036300D03*
X0196300Y0036300D03*
X0186300Y0036300D03*
X0176300Y0036300D03*
X0166300Y0036300D03*
X0156300Y0036300D03*
X0146300Y0036300D03*
X0136300Y0036300D03*
X0131300Y0026300D03*
X0141300Y0026300D03*
X0151300Y0026300D03*
X0161300Y0026300D03*
X0171300Y0026300D03*
X0181300Y0026300D03*
X0191300Y0026300D03*
X0201300Y0026300D03*
X0211300Y0026300D03*
X0221300Y0026300D03*
X0236457Y0013111D03*
X0188032Y0096969D03*
X0176300Y0121300D03*
X0176300Y0141300D03*
X0176300Y0171300D03*
X0176300Y0186300D03*
X0176300Y0201300D03*
X0176300Y0216300D03*
X0176300Y0231300D03*
X0176615Y0248544D03*
X0121300Y0171300D03*
X0101418Y0113111D03*
X0071300Y0076300D03*
X0062048Y0048544D03*
X0121300Y0056300D03*
X0316300Y0296300D03*
X0336300Y0296300D03*
X0336615Y0313623D03*
X0336300Y0331300D03*
X0326300Y0340906D03*
X0316300Y0331300D03*
X0316300Y0351300D03*
X0336300Y0351300D03*
X0251300Y0341300D03*
M02*
