%
M48
M72
T01C0.01378
%
T01
X18800Y51300
X36615Y93623
X36300Y111300
X26300Y120906
X16300Y111300
X16300Y131300
X36300Y131300
X36615Y148623
X36300Y166300
X26300Y175906
X16300Y166300
X16300Y186300
X36300Y186300
X36615Y203623
X36300Y221300
X26300Y230906
X16300Y221300
X16300Y241300
X36300Y241300
X36615Y258623
X36300Y276300
X26300Y285906
X16300Y276300
X16300Y296300
X36300Y296300
X36615Y313623
X36300Y331300
X26300Y340906
X16300Y331300
X16300Y351300
X36300Y351300
X71300Y346300
X71300Y336300
X71300Y326300
X71300Y316300
X71300Y306300
X71300Y296300
X71300Y286300
X71300Y276300
X71300Y266300
X71300Y256300
X71300Y246300
X71300Y236300
X71300Y226300
X71300Y216300
X71300Y206300
X71300Y196300
X71300Y186300
X71300Y176300
X71300Y166300
X71300Y156300
X71300Y146300
X71300Y136300
X71300Y126300
X71300Y116300
X71300Y106300
X81300Y106300
X81300Y116300
X81300Y126300
X81300Y136300
X81300Y146300
X81300Y156300
X81300Y166300
X81300Y176300
X81300Y186300
X81300Y196300
X81300Y206300
X81300Y216300
X81300Y226300
X81300Y236300
X81300Y246300
X81300Y256300
X81300Y266300
X81300Y276300
X81300Y286300
X81300Y296300
X81300Y306300
X81300Y316300
X81300Y326300
X81300Y336300
X81300Y346300
X101300Y321300
X126300Y271300
X176300Y266300
X176300Y281300
X176300Y296300
X176300Y311300
X176300Y331300
X176300Y346300
X231300Y276300
X271300Y276300
X271300Y266300
X271300Y256300
X271300Y246300
X271300Y236300
X271300Y226300
X271300Y216300
X271300Y206300
X271300Y196300
X271300Y186300
X271300Y176300
X271300Y166300
X271300Y156300
X271300Y146300
X271300Y136300
X271300Y126300
X271300Y116300
X271300Y116300
X271300Y106300
X281300Y106300
X281300Y116300
X281300Y126300
X281300Y136300
X281300Y146300
X281300Y156300
X281300Y166300
X281300Y176300
X281300Y186300
X281300Y196300
X281300Y206300
X281300Y216300
X281300Y226300
X281300Y236300
X281300Y246300
X281300Y256300
X281300Y266300
X281300Y276300
X281300Y286300
X281300Y296300
X281300Y306300
X281300Y316300
X281300Y326300
X281300Y336300
X281300Y346300
X271300Y346300
X271300Y336300
X271300Y326300
X271300Y316300
X271300Y306300
X271300Y296300
X271300Y286300
X316300Y276300
X326300Y285906
X336300Y276300
X336615Y258623
X336300Y241300
X326300Y230906
X316300Y221300
X316300Y241300
X336300Y221300
X336615Y203623
X336300Y186300
X326300Y175906
X316300Y166300
X316300Y186300
X336300Y166300
X336615Y148623
X336300Y131300
X326300Y120906
X316300Y111300
X316300Y131300
X336300Y111300
X336615Y93623
X333800Y53800
X296300Y41457
X266300Y71300
X226300Y36300
X216300Y36300
X206300Y36300
X196300Y36300
X186300Y36300
X176300Y36300
X166300Y36300
X156300Y36300
X146300Y36300
X136300Y36300
X131300Y26300
X141300Y26300
X151300Y26300
X161300Y26300
X171300Y26300
X181300Y26300
X191300Y26300
X201300Y26300
X211300Y26300
X221300Y26300
X236457Y13111
X188032Y96969
X176300Y121300
X176300Y141300
X176300Y171300
X176300Y186300
X176300Y201300
X176300Y216300
X176300Y231300
X176615Y248544
X121300Y171300
X101418Y113111
X71300Y76300
X62048Y48544
X121300Y56300
X316300Y296300
X336300Y296300
X336615Y313623
X336300Y331300
X326300Y340906
X316300Y331300
X316300Y351300
X336300Y351300
X251300Y341300
M30
